<?xml version="1.0" encoding="UTF-8"?>
<svg width="700pt" height="700pt" version="1.1" viewBox="0 0 700 700" xmlns="http://www.w3.org/2000/svg">
 <g>
  <path d="m350 67.41-38.012 21.91h76.023z"/>
  <path d="m378.35 574.42h-56.703l28.352 16.309z"/>
  <path d="m350 109.27-28.352 16.309h56.703z"/>
  <path d="m289.87 125.58 35.277-20.297h-40.738l-35.281 20.297z"/>
  <path d="m208.67 105.28-21.91 38.008 65.867-38.008z"/>
  <path d="m213.29 169.82 49.07-28.281h-32.758z"/>
  <path d="m410.13 125.58h40.742l-35.281-20.297h-40.738z"/>
  <path d="m229.6 558.46h32.758l-49.07-28.281z"/>
  <path d="m530.18 213.29 28.281 49.07v-32.758z"/>
  <path d="m437.64 141.54 49.07 28.281-16.312-28.281z"/>
  <path d="m590.73 350-16.309-28.352v56.703z"/>
  <path d="m594.72 208.67-38.008-21.91 38.008 65.867z"/>
  <path d="m558.46 437.64-28.281 49.07 28.281-16.312z"/>
  <path d="m594.72 284.41-20.297-35.281v40.742l20.297 35.277z"/>
  <path d="m491.33 105.28h-43.957l65.867 38.008z"/>
  <path d="m486.71 530.18-49.07 28.281h32.758z"/>
  <path d="m514.29 185.71 35.211 20.367-20.301-35.277-35.277-20.301z"/>
  <path d="m206.08 150.5-35.277 20.301-20.301 35.277 35.211-20.367z"/>
  <path d="m125.58 249.13-20.297 35.281v40.738l20.297-35.277z"/>
  <path d="m493.92 549.5 35.277-20.301 20.301-35.277-35.211 20.367z"/>
  <path d="m410.13 574.42-35.277 20.297h40.738l35.281-20.297z"/>
  <path d="m491.33 594.72 21.91-38.008-65.867 38.008z"/>
  <path d="m350 632.59 38.012-21.91h-76.023z"/>
  <path d="m574.42 410.13v40.742l20.297-35.281v-40.738z"/>
  <path d="m610.68 311.99v76.023l21.91-38.012z"/>
  <path d="m289.87 574.42h-40.742l35.281 20.297h40.738z"/>
  <path d="m594.72 491.33v-43.957l-38.008 65.867z"/>
  <path d="m105.28 415.59 20.297 35.281v-40.742l-20.297-35.277z"/>
  <path d="m109.27 350 16.309 28.352v-56.703z"/>
  <path d="m105.28 208.67v43.957l38.008-65.867z"/>
  <path d="m141.54 229.6v32.758l28.281-49.07z"/>
  <path d="m169.82 486.71-28.281-49.07v32.758z"/>
  <path d="m185.71 514.29-35.211-20.367 20.301 35.277 35.277 20.301z"/>
  <path d="m208.67 594.72h43.957l-65.867-38.008z"/>
  <path d="m105.28 491.33 38.008 21.91-38.008-65.867z"/>
  <path d="m89.32 388.01v-76.023l-21.91 38.012z"/>
 </g>
</svg>
