<svg xmlns="http://www.w3.org/2000/svg" xmlns:xlink="http://www.w3.org/1999/xlink" version="1.1" x="0px" y="0px" viewBox="0 0 100 100" style="enable-background:new 0 0 100 100;" xml:space="preserve"><g><path d="M58.461,9.423c-0.846-0.256-1.566-0.703-2.082-1.291c-0.7-0.801-1.522-1.468-2.445-1.984   c-1.15-0.644-2.453-1.037-3.77-1.14c-0.15-0.013-0.303-0.009-0.45,0.011c-1.271,0.118-2.525,0.507-3.638,1.129   c-0.922,0.517-1.745,1.184-2.444,1.98c-0.52,0.591-1.243,1.04-2.092,1.297c-5.559,1.682-9.368,4.331-11.646,8.101   c-3.26,5.396-2.754,11.954-2.089,16.418c1.069,7.186,2.853,14.328,4.577,21.235c1.014,4.062,2.062,8.261,2.944,12.393   c0.164,0.768,0.291,1.555,0.417,2.34c0.568,3.51,1.274,7.795,5.479,9.989v6.488c0,1.325,0.578,2.579,1.586,3.438l4.019,3.429   c0.21,0.179,0.454,0.305,0.714,0.384C47.832,94.421,48.82,95,50.006,95s2.174-0.579,2.463-1.361c0.26-0.08,0.504-0.206,0.714-0.384   l4.019-3.429c1.008-0.859,1.586-2.113,1.586-3.438v-6.494c4.194-2.196,4.899-6.476,5.467-9.983c0.127-0.785,0.253-1.572,0.417-2.34   c0.882-4.132,1.931-8.331,2.944-12.393c1.725-6.907,3.508-14.05,4.577-21.235c0.665-4.464,1.171-11.021-2.089-16.418   C67.827,13.756,64.019,11.105,58.461,9.423z M45.992,38.322v8.261l-2.564-2.445l-2.086-15.992   c-0.205-0.977-0.454-3.894,0.831-5.645c0.345-0.47,0.781-0.829,1.307-1.088l4.35,14.274C46.748,36.148,45.992,37.152,45.992,38.322   z M54.225,49.272v-1.79l2.167-1.965l-2.32,17.803h-0.27v-1.468c0-0.86-0.585-1.594-1.4-1.866v-8.081   C53.496,51.445,54.225,50.438,54.225,49.272z M52.225,49.272c0,0.431-0.411,0.812-0.955,0.884c-0.497,0.066-0.868,0.49-0.868,0.991   v8.725h-0.588v-8.725c0-0.501-0.371-0.925-0.868-0.991c-0.544-0.072-0.955-0.453-0.955-0.884v-10.95   c0-0.489,0.521-0.903,1.139-0.903h1.954c0.618,0,1.139,0.414,1.139,0.903V49.272z M51.085,35.419h-0.097V23.837   c0.216-0.528,1.404-3.117,3.811-2.887c0.274,0.027,0.531,0.073,0.777,0.131L51.204,35.43   C51.164,35.429,51.126,35.419,51.085,35.419z M48.989,35.432c-0.063,0.003-0.124,0.011-0.187,0.017l-4.377-14.361   c0.246-0.058,0.497-0.111,0.774-0.139c2.346-0.229,3.524,2.202,3.789,2.831V35.432z M48.399,61.909   c0.006-0.008,0.045-0.037,0.116-0.037h0.299c0.099,0,0.188-0.03,0.279-0.056c0.09,0.027,0.18,0.056,0.279,0.056h2.031h0.272h0.027   c0.058,0,0.093,0.021,0.101,0v1.447h-3.395L48.399,61.909z M54.276,65.819c0.425,0,0.771,0.346,0.771,0.771v10.765h-2.381v-8.022   c0-0.414-0.336-0.75-0.75-0.75s-0.75,0.336-0.75,0.75v8.022h-2.333v-3.98c0-0.414-0.336-0.75-0.75-0.75s-0.75,0.336-0.75,0.75v3.98   h-2.381V66.591c0-0.426,0.346-0.771,0.771-0.771H54.276z M51.148,89.733h-2.284l-3.168-2.702h4.97c0.414,0,0.75-0.336,0.75-0.75   s-0.336-0.75-0.75-0.75h-5.443v-1.906h1.371c0.414,0,0.75-0.336,0.75-0.75s-0.336-0.75-0.75-0.75h-1.371v-2.27h9.565v2.27h-6.101   c-0.414,0-0.75,0.336-0.75,0.75s0.336,0.75,0.75,0.75h6.101v1.906h-1.997c-0.414,0-0.75,0.336-0.75,0.75s0.336,0.75,0.75,0.75   h1.524L51.148,89.733z M68.238,33.354c-1.042,6.995-2.801,14.042-4.502,20.856c-1.022,4.094-2.079,8.327-2.976,12.525   c-0.178,0.833-0.316,1.686-0.454,2.537c-0.532,3.287-0.974,5.445-2.759,6.717v-9.398c0-1.161-0.612-2.176-1.526-2.757l2.655-20.39   l1.482-1.344c0.205-0.186,0.22-0.502,0.035-0.706c-0.186-0.204-0.502-0.22-0.707-0.034l-0.611,0.554l1.74-13.358   c0,0,0.056-0.262,0.11-0.699c0.067-0.549-0.322-1.048-0.87-1.115c-0.551-0.075-1.048,0.321-1.116,0.869   c-0.04,0.321-0.079,0.52-0.095,0.612l-2.054,15.764l-2.366,2.146v-7.81c0-1.239-0.848-2.291-2.031-2.707l4.326-14.193   c1.271,0.627,2.014,1.84,2.238,3.69c0.062,0.508,0.493,0.88,0.991,0.88c0.041,0,0.081-0.002,0.122-0.007   c0.548-0.067,0.938-0.565,0.872-1.113c-0.323-2.663-1.594-4.509-3.635-5.381l0.158-0.518c0.08-0.264-0.069-0.543-0.333-0.624   c-0.266-0.08-0.544,0.068-0.625,0.333l-0.147,0.481c-0.369-0.094-0.758-0.162-1.166-0.203c-2.499-0.242-4.096,1.265-4.996,2.56   c-0.9-1.293-2.497-2.797-4.995-2.56c-0.411,0.041-0.791,0.123-1.161,0.217l-0.151-0.495c-0.08-0.264-0.357-0.412-0.625-0.333   c-0.264,0.081-0.413,0.36-0.333,0.624l0.164,0.537c-0.941,0.402-1.737,0.989-2.339,1.809c-2.07,2.822-1.212,7.06-1.188,7.162   l1.754,13.462l-0.604-0.576c-0.2-0.188-0.516-0.183-0.707,0.018c-0.19,0.199-0.183,0.516,0.017,0.707l1.5,1.43l0.591,4.54   c0.066,0.504,0.496,0.871,0.99,0.871c0.043,0,0.087-0.003,0.131-0.009c0.547-0.071,0.934-0.572,0.862-1.12l-0.272-2.086l2.014,1.92   c0.097,0.092,0.221,0.137,0.344,0.138v1.497c0,1.166,0.729,2.173,1.822,2.632v8.081c-0.815,0.272-1.4,1.006-1.4,1.866v1.468h-0.486   l-1.691-12.978c-0.071-0.548-0.575-0.934-1.121-0.862c-0.547,0.071-0.934,0.572-0.862,1.12l1.724,13.235   c-0.914,0.581-1.526,1.596-1.526,2.757v9.398c-1.785-1.271-2.227-3.43-2.759-6.717c-0.138-0.852-0.276-1.704-0.454-2.537   c-0.897-4.198-1.954-8.432-2.976-12.525c-1.701-6.814-3.46-13.861-4.502-20.856c-0.573-3.852-1.036-9.468,1.557-13.76   c1.743-2.884,4.811-4.958,9.38-6.341c1.564-0.474,2.926-1.332,3.94-2.485c0.4-0.456,0.869-0.836,1.393-1.13   c0.604-0.338,1.284-0.554,1.975-0.628c0.691,0.074,1.371,0.29,1.975,0.628c0.523,0.293,0.99,0.672,1.389,1.128   c1.01,1.153,2.37,2.013,3.933,2.485c4.568,1.383,7.636,3.458,9.379,6.343C69.274,23.886,68.812,29.502,68.238,33.354z"></path><path d="M48.083,72.063c0.414,0,0.75-0.336,0.75-0.75v-1.979c0-0.414-0.336-0.75-0.75-0.75s-0.75,0.336-0.75,0.75v1.979   C47.333,71.727,47.669,72.063,48.083,72.063z"></path></g></svg>