<svg xmlns="http://www.w3.org/2000/svg" xmlns:xlink="http://www.w3.org/1999/xlink" xmlns:sketch="http://www.bohemiancoding.com/sketch/ns" viewBox="0 0 32 60" version="1.1" x="0px" y="0px"><title>8 - Cathedral Window (Solid)</title><desc>Created with Sketch.</desc><g stroke="none" stroke-width="1" fill="none" fill-rule="evenodd" sketch:type="MSPage"><g sketch:type="MSLayerGroup" fill="#000000"><path d="M32,44.768 L32,29.414 L25.37,36.044 L32,44.768" sketch:type="MSShapeGroup"></path><path d="M30.585,60 L17.207,42.609 C17.179,42.573 17.171,42.529 17.149,42.49 C17.115,42.431 17.081,42.374 17.06,42.31 C17.04,42.249 17.032,42.188 17.024,42.125 C17.019,42.083 17,42.043 17,42 L17,60 L30.585,60" sketch:type="MSShapeGroup"></path><path d="M14.94,42.308 C14.92,42.371 14.888,42.426 14.855,42.485 C14.832,42.524 14.825,42.568 14.796,42.606 L1.576,60 L15,60 L15,42 C15,42.041 14.981,42.08 14.976,42.121 C14.969,42.185 14.96,42.246 14.94,42.308" sketch:type="MSShapeGroup"></path><path d="M23.942,37.472 L19.328,42.086 L32,58.56 L32,48.074 L23.942,37.472" sketch:type="MSShapeGroup"></path><path d="M8.058,37.472 L0,48.074 L0,58.768 L12.675,42.089 L8.058,37.472" sketch:type="MSShapeGroup"></path><path d="M0,29.414 L0,44.768 L6.63,36.044 L0,29.414" sketch:type="MSShapeGroup"></path><path d="M14.707,17.293 C14.902,17.488 15,17.744 15,18 L15,0.624 C14.878,0.691 14.762,0.769 14.657,0.863 L6.819,7.92 C6.539,8.159 6.279,8.392 6.033,8.619 L14.707,17.293" sketch:type="MSShapeGroup"></path><path d="M13,23 L13,18.414 L4.639,10.053 C4.508,10.205 4.376,10.356 4.255,10.508 C2.808,12.326 1.714,14.391 0.994,16.58 L7.414,23 L13,23" sketch:type="MSShapeGroup"></path><path d="M17.669,17 L26.01,8.66 C25.756,8.424 25.488,8.184 25.2,7.937 L17.343,0.863 C17.238,0.769 17.121,0.691 17,0.624 L17,17 L17.669,17" sketch:type="MSShapeGroup"></path><path d="M19.003,23 L24.586,23 L31.006,16.58 C30.285,14.391 29.192,12.326 27.746,10.509 C27.637,10.372 27.517,10.235 27.399,10.098 L19.017,18.481 L19.003,23" sketch:type="MSShapeGroup"></path><path d="M7.002,29.019 L7,29.019 C6.735,29.019 6.481,28.914 6.294,28.727 C6.106,28.539 6,28.284 6,28.019 L6,24.414 L0.405,18.819 C0.148,20.088 0,21.38 0,22.684 L0,26.586 L7.851,34.437 L11.979,29.006 L7.002,29.019" sketch:type="MSShapeGroup"></path><path d="M13,30.969 L9.279,35.865 L13,39.586 L13,30.969" sketch:type="MSShapeGroup"></path><path d="M31.595,18.819 L26,24.414 L26,28 C26,28.551 25.554,28.998 25.002,29 L20.026,29.013 L24.149,34.437 L32,26.586 L32,22.684 C32,21.38 31.852,20.088 31.595,18.819" sketch:type="MSShapeGroup"></path><path d="M19.018,39.568 L22.721,35.865 L19.018,30.993 L19.018,39.568" sketch:type="MSShapeGroup"></path></g></g></svg>