<svg xmlns="http://www.w3.org/2000/svg" viewBox="0 0 36 36" x="0px" y="0px"><title>Монтажная область 62</title><path d="M35.49,28.45l-.15-.3a5.29,5.29,0,0,0-9.93,2.55,5.13,5.13,0,0,0,.39,2l.32.64a5.29,5.29,0,0,0,9.37-4.89Z"></path><path d="M5.3,25.41a5.32,5.32,0,0,0-4.62,2.7l-.17.34a5.29,5.29,0,0,0,9.37,4.89,3.57,3.57,0,0,0,.32-.65,5.08,5.08,0,0,0,.39-2A5.3,5.3,0,0,0,5.3,25.41Z"></path><path d="M24.38,34.55a1.63,1.63,0,0,1-.11-.17l-.08-.16-.31-.63a7.49,7.49,0,0,1-.58-2.89,7.38,7.38,0,0,1,2.23-5.29A7.39,7.39,0,0,1,30.7,23.3a7.15,7.15,0,0,1,2.42.41L25.05,7.56c0,.14-.09.27-.14.4s-.05.15-.09.23l-.37.73a7.32,7.32,0,0,1-4.06,3.37A6.78,6.78,0,0,1,18,12.7a7,7,0,0,1-2.42-.42,7.27,7.27,0,0,1-4.09-3.45l0-.06s0,0,0,0A6,6,0,0,1,11,7.56L2.88,23.71A7.15,7.15,0,0,1,5.3,23.3a7.39,7.39,0,0,1,5.17,2.11A7.35,7.35,0,0,1,12.7,30.7a7.49,7.49,0,0,1-.58,2.89l-.31.63-.08.16a1.63,1.63,0,0,1-.11.17s0,0-.06.06A6.44,6.44,0,0,1,10.47,36H25.53a6.44,6.44,0,0,1-1.09-1.39S24.39,34.58,24.38,34.55Z"></path><path d="M13.34,7.83A5.3,5.3,0,0,0,22.56,8a4.5,4.5,0,0,0,.36-.73h0A5.4,5.4,0,0,0,23.3,5.3a5.3,5.3,0,0,0-10.6,0,5.39,5.39,0,0,0,.64,2.52Z"></path></svg>