<svg xmlns="http://www.w3.org/2000/svg" data-name="Camada 1" viewBox="0 0 128 128" x="0px" y="0px"><title>Prancheta 22</title><path d="M111.97217,83.92236c-.4986-11.22766-6.09808-21.09314-16.18445-28.575.03589-.34717.07324-.69318.10291-1.04517a37.5365,37.5365,0,0,0-9.73-28.05273C80.67725,20.28516,73.93262,17,67.16943,17H58.19727A26.222,26.222,0,0,0,39.1582,25.37939c-6.32422,6.624-9.54346,15.96777-9.06494,26.30957a42.31755,42.31755,0,0,0,.44586,4.2132c-11.4024,10.69147-17.33594,27.06-13.23932,36.71942l.0127.0293.30469.65625v.00049l.0069.01416H17.624l.00061.0011a40.52793,40.52793,0,0,0,8.53259,12.31384c3.50537,3.58545,8.62158,5.36475,14.65869,5.36475,6.65082,0,14.41968-2.17615,22.37091-6.46466a41.3125,41.3125,0,0,0,22.194,6.39337q1.35938,0,2.75293-.07959a17.64854,17.64854,0,0,0,7.76373-2.0791l.00092.002C100.95557,106.35205,112.645,99.083,111.97217,83.92236ZM67.16943,19c6.19678,0,12.41846,3.05518,17.519,8.603a35.51021,35.51021,0,0,1,9.21619,26.40332,61.68115,61.68115,0,0,0-5.6156-3.375,63.5589,63.5589,0,0,0-7.2356-3.28558c-2.07166-7.94122-7.38379-12.67194-14.30786-12.67194a18.82371,18.82371,0,0,0-4.0376.44141A14.34632,14.34632,0,0,0,51.57959,45.50146a20.69214,20.69214,0,0,0-.77734,5.61914,50.10452,50.10452,0,0,0,.2085,5.7041v.00049a29.40079,29.40079,0,0,0,3.12158,10.48242,43.95591,43.95591,0,0,0,7.63879,10.38c-.55536.47638-1.11206.93164-1.68518,1.35193A50.74329,50.74329,0,0,1,53.25806,83.283a41.56641,41.56641,0,0,1-7.53052-10.85034,49.8964,49.8964,0,0,1-3.55176-10.18945,77.84265,77.84265,0,0,1-1.66113-10.85742c-.01855-.19141-.02979-.38037-.0415-.56934l-.02051-.31836C39.833,41.627,42.55908,33.45166,48.12939,27.479A26.23059,26.23059,0,0,1,67.16943,19Zm-.1618,17.68524c5.51984.1098,9.70819,3.6496,11.72064,9.82471-1.65833-.55072-3.33368-1.01471-5.00525-1.40039A15.31639,15.31639,0,0,0,67.00763,36.68524ZM71.405,44.6366a49.38551,49.38551,0,0,0-17.34174-.14673A12.31892,12.31892,0,0,1,62.90723,37.134,12.8675,12.8675,0,0,1,71.405,44.6366ZM56.48584,67.458a23.32922,23.32922,0,0,1,13.04041-.268A29.41192,29.41192,0,0,1,63.244,76.33459,43.49086,43.49086,0,0,1,56.48584,67.458ZM40.605,26.76025A24.34735,24.34735,0,0,1,56.9267,19.03558,28.96319,28.96319,0,0,0,46.6665,26.11475c-5.95264,6.3833-8.86768,15.09229-8.209,24.52344l.01953.30078c.0127.21143.02588.42236.04639.63525a79.63127,79.63127,0,0,0,1.70605,11.12744A51.8487,51.8487,0,0,0,43.92578,73.2998,43.63362,43.63362,0,0,0,51.3609,84.1933a29.0154,29.0154,0,0,1-5.85352,1.96729,50.07068,50.07068,0,0,1-4.29156-6.1098,65.25265,65.25265,0,0,1-5.13965-10.84424,70.07668,70.07668,0,0,1-3.48389-13.09326h-.00006a41.70665,41.70665,0,0,1-.50092-4.51709C31.6377,41.80566,34.66162,32.98535,40.605,26.76025Zm2.6181,59.75519a14.934,14.934,0,0,1-2.47455.02637,17.92354,17.92354,0,0,1,.10724-3.32037Q41.9924,84.93851,43.22308,86.51544Zm-4.49481-.30359a6.82356,6.82356,0,0,1-4.21411-2.90228c-1.85889-2.9881-1.66913-7.07178.473-11.41345A66.29108,66.29108,0,0,0,39.29352,80.712,19.80209,19.80209,0,0,0,38.72827,86.21185ZM20.21,93.80615a9.97951,9.97951,0,0,1-.79163-1.36841l-.28186-.60828c-3.67261-8.68256,1.6-23.39832,11.81006-33.543a73.495,73.495,0,0,0,3.09552,11.16443c-3.238,5.5318-3.69452,10.9472-1.22614,14.91479a9.22035,9.22035,0,0,0,6.86523,4.083A15.124,15.124,0,0,0,41.79,88.5918a19.5676,19.5676,0,0,0,3.51123-.335v-.00049a31.7266,31.7266,0,0,0,8.19513-2.84222l.00018.00043A52.23832,52.23832,0,0,0,61.269,80.65234a30.71327,30.71327,0,0,0,2.627-2.16406,31.32282,31.32282,0,0,0,7.53522-10.66656A22.80392,22.80392,0,0,1,76.996,70.90222C64.59448,90.956,47.31549,98.61322,35.17285,99.06445,28.31152,99.3208,22.72363,97.353,20.21,93.80615ZM62.7334,102.52v.00049c-14.54492,8.00391-28.34082,8.67822-35.14648,1.71777a38.79526,38.79526,0,0,1-4.69318-5.60345,23.69732,23.69732,0,0,0,11.12091,2.45111c.40625,0,.81787-.00781,1.23242-.02295,12.61578-.46893,30.50977-8.33289,43.3158-28.894A25.59612,25.59612,0,0,1,85.199,81.45758a56.93193,56.93193,0,0,1-3.64435,5.25775l-.00049.00049a58.75463,58.75463,0,0,1-8.67944,8.9256l-.00024-.00031A61.96735,61.96735,0,0,1,66.95166,99.998C65.57813,100.8877,64.15918,101.73633,62.7334,102.52ZM84.2561,86.416q.92221-1.25958,1.77307-2.55853a17.648,17.648,0,0,1,.51044,2.46075A22.31057,22.31057,0,0,1,84.2561,86.416Zm2.41528,1.89221c-.02936,2.33881-.72467,5.53192-4.06787,6.69031a16.039,16.039,0,0,1-6.79816.731,60.56572,60.56572,0,0,0,6.9895-7.377c.54163.03662,1.08356.07324,1.6275.07324C85.17261,88.42578,85.92273,88.37793,86.67139,88.30823Zm8.29688,18.69666h-.00049A15.63405,15.63405,0,0,1,88.02,108.85352a39.31532,39.31532,0,0,1-22.83008-5.43719c.96143-.56012,1.91687-1.13593,2.84863-1.73956a64.11261,64.11261,0,0,0,5.75391-4.2149,21.67924,21.67924,0,0,0,3.75146.358,17.36122,17.36122,0,0,0,5.71484-.93164c3.74561-1.29785,5.707-4.85254,5.38086-9.75244v-.00049a20.31448,20.31448,0,0,0-1.38037-5.94141,27.61105,27.61105,0,0,0-8.29834-11.32422,24.839,24.839,0,0,0-7.748-4.27393,25.18355,25.18355,0,0,0-15.66095.05591,26.84677,26.84677,0,0,1-2.44281-8.17407,39.91024,39.91024,0,0,1,20.00562.02588A35.29246,35.29246,0,0,1,79.18408,59.687c.2998.14111.58594.29.87207.439l.44727.231a44.68305,44.68305,0,0,1,11.207,8.00146c7.04883,6.97021,9.19971,13.93066,9.79687,16.59961C102.64355,90.03223,102.57422,102.62793,94.96826,107.00488Zm6.36487-4.04651c3.22455-6.10345,3.05664-14.282,2.12634-18.43689-.63623-2.84131-2.91748-10.24268-10.34277-17.585a46.66226,46.66226,0,0,0-11.707-8.3623l-.43018-.22217c-.30957-.16113-.61914-.32178-.94336-.47461a37.3167,37.3167,0,0,0-6.40869-2.30762,41.96228,41.96228,0,0,0-20.72211-.10077c-.10614-1.5238-.11285-2.97028-.10309-4.33429a19.04625,19.04625,0,0,1,.55109-4.48547,47.531,47.531,0,0,1,19.38251.2804A53.97689,53.97689,0,0,1,79.873,49.03125h.00049A61.49694,61.49694,0,0,1,87.34961,52.397a58.20126,58.20126,0,0,1,6.80078,4.21729l.00049.00049c9.873,7.15137,15.34473,16.625,15.82324,27.39648A22.52175,22.52175,0,0,1,101.33313,102.95837Z"></path></svg>