<svg xmlns="http://www.w3.org/2000/svg" xmlns:xlink="http://www.w3.org/1999/xlink" version="1.1" x="0px" y="0px" viewBox="0 0 50 50" enable-background="new 0 0 50 50" xml:space="preserve"><path d="M49.049,24.809c-0.025-0.062-0.064-0.117-0.109-0.162l-6.762-6.762V8.322c0-0.065-0.014-0.13-0.037-0.191  c-0.051-0.123-0.148-0.22-0.271-0.271c-0.063-0.025-0.125-0.039-0.191-0.039h-9.563L25.354,1.06  c-0.045-0.046-0.102-0.083-0.162-0.108c-0.123-0.051-0.26-0.051-0.383,0c-0.062,0.025-0.117,0.062-0.162,0.108l-6.762,6.761H8.323  c-0.065,0-0.13,0.013-0.191,0.039c-0.123,0.05-0.22,0.148-0.271,0.271C7.836,8.192,7.822,8.257,7.822,8.322v9.563l-4.079,4.08  c-0.043,0.024-0.072,0.052-0.096,0.096l-2.586,2.586c-0.046,0.045-0.083,0.102-0.108,0.162c-0.051,0.123-0.051,0.26,0,0.383  c0.025,0.062,0.062,0.117,0.108,0.162l2.585,2.586c0.024,0.044,0.053,0.074,0.098,0.098l4.078,4.078v9.563  c0,0.065,0.013,0.131,0.039,0.191c0.05,0.122,0.148,0.22,0.271,0.271c0.061,0.023,0.126,0.037,0.191,0.037h9.563l6.762,6.762  c0.045,0.047,0.102,0.084,0.162,0.108c0.062,0.024,0.127,0.038,0.191,0.038s0.13-0.014,0.191-0.038s0.117-0.063,0.162-0.108  l6.761-6.762h9.563c0.066,0,0.131-0.014,0.191-0.037c0.123-0.052,0.221-0.148,0.271-0.271c0.023-0.063,0.037-0.126,0.037-0.191  v-9.563l6.762-6.762c0.045-0.045,0.082-0.102,0.109-0.162C49.098,25.068,49.098,24.932,49.049,24.809z M6.956,29.834l-0.811-0.811  c0.007-0.023,0.027-0.04,0.027-0.065c0-0.143-0.115-0.259-0.257-0.259c-0.026,0-0.043,0.021-0.067,0.027l-0.763-0.763  c0.028-0.042,0.057-0.085,0.057-0.139c0-0.142-0.115-0.257-0.258-0.257c-0.054,0-0.096,0.029-0.138,0.058L4.012,26.89  c0.059-0.047,0.102-0.111,0.102-0.193c0-0.142-0.115-0.257-0.258-0.257c-0.081,0-0.145,0.043-0.192,0.103l-0.752-0.753  c0.095-0.037,0.173-0.113,0.173-0.223c0-0.025-0.021-0.043-0.027-0.066h0.569c-0.007,0.023-0.027,0.041-0.027,0.066  c0,0.143,0.116,0.258,0.257,0.258c0.143,0,0.258-0.115,0.258-0.258c0-0.025-0.021-0.043-0.027-0.066h0.569  c-0.007,0.023-0.027,0.041-0.027,0.066c0,0.143,0.116,0.258,0.257,0.258c0.143,0,0.258-0.115,0.258-0.258  c0-0.025-0.021-0.043-0.027-0.066h0.57c-0.007,0.023-0.027,0.041-0.027,0.066c0,0.143,0.114,0.258,0.257,0.258  c0.142,0,0.257-0.115,0.257-0.258c0-0.025-0.021-0.043-0.027-0.066h0.57c-0.007,0.023-0.027,0.041-0.027,0.066  c0,0.143,0.115,0.258,0.258,0.258c0.141,0,0.256-0.115,0.256-0.258c0-0.025-0.021-0.043-0.027-0.066h0.57  c-0.007,0.023-0.027,0.041-0.027,0.066c0,0.083,0.045,0.147,0.105,0.195v0.74c-0.061,0.047-0.105,0.111-0.105,0.194  s0.045,0.147,0.105,0.195v0.739c-0.061,0.047-0.105,0.111-0.105,0.194s0.045,0.148,0.105,0.195v0.742  c-0.061,0.047-0.105,0.112-0.105,0.195s0.045,0.147,0.105,0.194v0.74c-0.061,0.048-0.105,0.112-0.105,0.195s0.045,0.147,0.105,0.194  v0.419l-0.626-0.627C7.188,29.943,7.086,29.841,6.956,29.834z M3.856,23.563c0.143,0,0.258-0.115,0.258-0.257  c0-0.083-0.044-0.146-0.104-0.194l0.736-0.737c0.042,0.029,0.085,0.058,0.139,0.058c0.143,0,0.258-0.115,0.258-0.257  c0-0.054-0.029-0.097-0.058-0.139l0.762-0.762c0.024,0.007,0.042,0.028,0.068,0.028c0.142,0,0.257-0.116,0.257-0.258  c0-0.026-0.021-0.043-0.028-0.067l0.809-0.809c0.133-0.004,0.238-0.11,0.244-0.244l0.625-0.625v0.42  c-0.061,0.047-0.105,0.112-0.105,0.195s0.045,0.147,0.105,0.195v0.741c-0.061,0.047-0.105,0.111-0.105,0.194  s0.045,0.147,0.105,0.195v0.741c-0.061,0.047-0.105,0.112-0.105,0.195s0.045,0.147,0.105,0.194v0.741  c-0.061,0.047-0.105,0.112-0.105,0.195s0.045,0.147,0.105,0.194v0.741c-0.061,0.047-0.105,0.112-0.105,0.195  c0,0.025,0.02,0.042,0.026,0.064H7.175c0.006-0.023,0.026-0.039,0.026-0.064c0-0.142-0.115-0.258-0.256-0.258  c-0.143,0-0.258,0.116-0.258,0.258c0,0.025,0.02,0.042,0.027,0.064H6.146c0.006-0.023,0.026-0.039,0.026-0.064  c0-0.142-0.115-0.258-0.257-0.258c-0.143,0-0.257,0.116-0.257,0.258c0,0.025,0.02,0.042,0.026,0.064H5.116  c0.007-0.023,0.027-0.039,0.027-0.064c0-0.142-0.115-0.258-0.258-0.258c-0.141,0-0.257,0.116-0.257,0.258  c0,0.025,0.02,0.042,0.027,0.064H4.087c0.007-0.023,0.027-0.039,0.027-0.064c0-0.142-0.115-0.258-0.258-0.258  c-0.141,0-0.257,0.116-0.257,0.258c0,0.025,0.02,0.042,0.027,0.064H3.058c0.007-0.023,0.027-0.039,0.027-0.064  c0-0.11-0.078-0.187-0.174-0.224l0.753-0.753C3.71,23.519,3.775,23.563,3.856,23.563z M19.491,42.369  c-0.013-0.017-0.025-0.028-0.042-0.042L19.3,42.178h5.201v0.109c-0.021-0.005-0.035-0.023-0.057-0.023  c-0.143,0-0.256,0.116-0.256,0.259c0,0.142,0.113,0.257,0.256,0.257c0.022,0,0.037-0.019,0.057-0.023v0.662  c-0.021-0.005-0.035-0.023-0.057-0.023c-0.143,0-0.256,0.115-0.256,0.258c0,0.142,0.113,0.257,0.256,0.257  c0.022,0,0.037-0.019,0.057-0.023v0.662c-0.021-0.005-0.035-0.023-0.057-0.023c-0.143,0-0.256,0.114-0.256,0.257  s0.113,0.258,0.256,0.258c0.022,0,0.037-0.019,0.057-0.023v0.663c-0.021-0.005-0.035-0.023-0.057-0.023  c-0.143,0-0.256,0.115-0.256,0.257c0,0.143,0.113,0.258,0.256,0.258c0.022,0,0.037-0.019,0.057-0.023v0.661  c-0.021-0.005-0.035-0.023-0.057-0.023c-0.143,0-0.256,0.116-0.256,0.258c0,0.016,0.014,0.025,0.017,0.04L19.491,42.369z   M24.501,47.277v0.102l-0.093-0.094c0.014,0.003,0.022,0.016,0.036,0.016C24.466,47.301,24.48,47.282,24.501,47.277z M19.3,7.822  l0.148-0.148c0.018-0.014,0.03-0.026,0.044-0.044l4.712-4.712c-0.002,0.015-0.016,0.024-0.016,0.04c0,0.142,0.113,0.257,0.256,0.257  c0.022,0,0.037-0.019,0.057-0.023v0.663c-0.021-0.005-0.035-0.023-0.057-0.023c-0.143,0-0.256,0.115-0.256,0.257  c0,0.142,0.113,0.258,0.256,0.258c0.022,0,0.037-0.019,0.057-0.023v0.662C24.48,4.979,24.466,4.96,24.444,4.96  c-0.143,0-0.256,0.115-0.256,0.257s0.113,0.258,0.256,0.258c0.022,0,0.037-0.019,0.057-0.024v0.662  C24.48,6.109,24.466,6.09,24.444,6.09c-0.143,0-0.256,0.116-0.256,0.258s0.113,0.257,0.256,0.257c0.022,0,0.037-0.018,0.057-0.023  v0.663c-0.021-0.005-0.035-0.023-0.057-0.023c-0.143,0-0.256,0.115-0.256,0.257s0.113,0.258,0.256,0.258  c0.022,0,0.037-0.019,0.057-0.024v0.109H19.3z M24.501,2.723c-0.021-0.005-0.035-0.024-0.057-0.024  c-0.014,0-0.022,0.013-0.036,0.015l0.093-0.093V2.723z M18.259,8.863c0.003,0,0.005,0.004,0.009,0.004  c0.042,0,0.073-0.027,0.108-0.045h0.812c0.035,0.018,0.066,0.045,0.108,0.045c0.043,0,0.074-0.027,0.109-0.045h0.813  c0.035,0.018,0.065,0.045,0.107,0.045c0.043,0,0.074-0.027,0.11-0.045h0.812c0.035,0.018,0.066,0.045,0.109,0.045  c0.042,0,0.073-0.027,0.109-0.045h0.812c0.036,0.018,0.066,0.045,0.109,0.045c0.042,0,0.073-0.027,0.108-0.045h0.814  c0.035,0.018,0.066,0.045,0.109,0.045c0.042,0,0.073-0.027,0.108-0.045h0.812c0.035,0.018,0.065,0.045,0.108,0.045  c0.022,0,0.037-0.019,0.057-0.023v0.662c-0.021-0.005-0.035-0.023-0.057-0.023c-0.143,0-0.256,0.115-0.256,0.257  s0.113,0.258,0.256,0.258c0.022,0,0.037-0.019,0.057-0.024v0.662c-0.021-0.005-0.035-0.023-0.057-0.023  c-0.143,0-0.256,0.115-0.256,0.257s0.113,0.258,0.256,0.258c0.022,0,0.037-0.019,0.057-0.023v0.662  c-0.021-0.005-0.035-0.024-0.057-0.024c-0.143,0-0.256,0.116-0.256,0.258s0.113,0.257,0.256,0.257c0.022,0,0.037-0.018,0.057-0.023  v0.663c-0.021-0.005-0.035-0.023-0.057-0.023c-0.143,0-0.256,0.115-0.256,0.257s0.113,0.258,0.256,0.258  c0.022,0,0.037-0.019,0.057-0.024v0.663c-0.021-0.005-0.035-0.024-0.057-0.024c-0.143,0-0.256,0.116-0.256,0.258  s0.113,0.257,0.256,0.257c0.022,0,0.037-0.019,0.057-0.023v0.662c-0.021-0.005-0.035-0.023-0.057-0.023  c-0.143,0-0.256,0.115-0.256,0.257s0.113,0.258,0.256,0.258c0.022,0,0.037-0.019,0.057-0.024v0.662  c-0.021-0.005-0.035-0.023-0.057-0.023c-0.143,0-0.256,0.115-0.256,0.257s0.113,0.258,0.256,0.258c0.022,0,0.037-0.019,0.057-0.024  v0.663c-0.021-0.005-0.035-0.024-0.057-0.024c-0.143,0-0.256,0.116-0.256,0.258s0.113,0.257,0.256,0.257  c0.022,0,0.037-0.018,0.057-0.023v0.662c-0.021-0.005-0.035-0.023-0.057-0.023c-0.143,0-0.256,0.115-0.256,0.257  s0.113,0.258,0.256,0.258c0.022,0,0.037-0.019,0.057-0.024v0.662c-0.021-0.005-0.035-0.023-0.057-0.023  c-0.143,0-0.256,0.116-0.256,0.258c0,0.143,0.113,0.257,0.256,0.257c0.022,0,0.037-0.018,0.057-0.023v0.663  c-0.021-0.005-0.035-0.023-0.057-0.023c-0.143,0-0.256,0.115-0.256,0.257s0.113,0.258,0.256,0.258c0.022,0,0.037-0.019,0.057-0.024  v0.662c-0.021-0.005-0.035-0.024-0.057-0.024c-0.143,0-0.256,0.116-0.256,0.258s0.113,0.257,0.256,0.257  c0.022,0,0.037-0.019,0.057-0.023v0.663c-0.021-0.005-0.035-0.023-0.057-0.023c-0.143,0-0.256,0.115-0.256,0.257  c0,0.142,0.113,0.257,0.256,0.257c0.022,0,0.037-0.018,0.057-0.023v0.254l-3.941-3.941c-0.024-0.085-0.083-0.144-0.168-0.168  l-0.855-0.855c0.003-0.016,0.019-0.027,0.019-0.044c0-0.142-0.114-0.257-0.258-0.257c-0.017,0-0.028,0.015-0.044,0.019l-0.775-0.775  c0.021-0.037,0.048-0.071,0.048-0.116c0-0.142-0.116-0.258-0.258-0.258c-0.045,0-0.08,0.028-0.117,0.048l-0.736-0.736  c0.049-0.047,0.082-0.112,0.082-0.185c0-0.142-0.115-0.257-0.258-0.257c-0.074,0-0.138,0.032-0.185,0.081l-0.74-0.74  c0.084-0.042,0.152-0.113,0.152-0.214c0-0.142-0.115-0.257-0.256-0.257c-0.102,0-0.173,0.067-0.216,0.152l-0.781-0.781  c0.124-0.019,0.224-0.115,0.224-0.244c0-0.142-0.115-0.258-0.257-0.258c-0.129,0-0.225,0.1-0.245,0.224l-0.877-0.877  c0.031,0.014,0.057,0.039,0.092,0.039c0.143,0,0.258-0.116,0.258-0.258c0-0.115-0.084-0.196-0.189-0.229l0.76-0.76  c0.047,0.066,0.113,0.116,0.2,0.116c0.142,0,0.257-0.115,0.257-0.257c0-0.087-0.05-0.153-0.116-0.2l0.736-0.736  c0.044,0.034,0.094,0.063,0.153,0.063c0.141,0,0.256-0.116,0.256-0.258c0-0.059-0.029-0.108-0.063-0.152l0.754-0.754  c0.028,0.01,0.049,0.034,0.081,0.034c0.143,0,0.258-0.116,0.258-0.258c0-0.032-0.023-0.053-0.034-0.081L18.259,8.863z M22.63,26.664  c-0.018-0.124-0.116-0.225-0.245-0.225c-0.143,0-0.258,0.115-0.258,0.257c0,0.13,0.101,0.227,0.226,0.244l-0.782,0.782  c-0.042-0.086-0.113-0.154-0.215-0.154c-0.144,0-0.258,0.115-0.258,0.257c0,0.103,0.068,0.174,0.155,0.216l-0.741,0.74  c-0.047-0.05-0.112-0.082-0.187-0.082c-0.141,0-0.256,0.116-0.256,0.259c0,0.073,0.032,0.138,0.082,0.185l-0.736,0.736  c-0.038-0.021-0.072-0.049-0.119-0.049c-0.142,0-0.256,0.115-0.256,0.258c0,0.046,0.027,0.08,0.048,0.117l-0.774,0.774  c-0.018-0.004-0.029-0.02-0.047-0.02c-0.143,0-0.258,0.114-0.258,0.257c0,0.019,0.016,0.03,0.02,0.047l-0.852,0.853  c-0.086,0.024-0.146,0.084-0.17,0.17l-3.799,3.8l-0.089-0.089c0.001,0,0.001,0.001,0.002,0.001c0.142,0,0.257-0.116,0.257-0.258  c0-0.143-0.115-0.259-0.257-0.259c-0.143,0-0.258,0.116-0.258,0.259c0,0.001,0.001,0.002,0.001,0.003l-0.948-0.948  c0.046,0.043,0.107,0.072,0.175,0.072c0.141,0,0.256-0.115,0.256-0.257c0-0.143-0.115-0.258-0.256-0.258  c-0.144,0-0.259,0.115-0.259,0.258c0,0.067,0.029,0.128,0.072,0.174l-3.083-3.083v-0.302c0.046,0.046,0.11,0.075,0.181,0.075  c0.142,0,0.257-0.116,0.257-0.258c0-0.143-0.115-0.257-0.257-0.257c-0.071,0-0.134,0.028-0.181,0.074v-0.764  c0.046,0.045,0.11,0.074,0.181,0.074c0.142,0,0.257-0.115,0.257-0.257c0-0.143-0.115-0.258-0.257-0.258  c-0.071,0-0.134,0.029-0.181,0.074v-0.764c0.046,0.046,0.11,0.075,0.181,0.075c0.142,0,0.257-0.116,0.257-0.258  c0-0.143-0.115-0.259-0.257-0.259c-0.071,0-0.134,0.029-0.181,0.075v-0.766c0.046,0.046,0.11,0.075,0.181,0.075  c0.142,0,0.257-0.116,0.257-0.259c0-0.142-0.115-0.257-0.257-0.257c-0.071,0-0.134,0.029-0.181,0.074v-0.764  c0.046,0.046,0.11,0.075,0.181,0.075c0.142,0,0.257-0.115,0.257-0.258c0-0.142-0.115-0.257-0.257-0.257  c-0.071,0-0.134,0.029-0.181,0.074V25.75c0.046,0.045,0.11,0.074,0.181,0.074c0.142,0,0.257-0.115,0.257-0.258  c0-0.025-0.021-0.043-0.027-0.066h0.57c-0.007,0.023-0.028,0.041-0.028,0.066c0,0.143,0.116,0.258,0.259,0.258  c0.142,0,0.257-0.115,0.257-0.258c0-0.025-0.021-0.043-0.027-0.066h0.569c-0.007,0.023-0.027,0.041-0.027,0.066  c0,0.143,0.115,0.258,0.257,0.258c0.143,0,0.258-0.115,0.258-0.258c0-0.025-0.021-0.043-0.027-0.066h0.568  c-0.007,0.023-0.027,0.041-0.027,0.066c0,0.143,0.115,0.258,0.259,0.258c0.141,0,0.256-0.115,0.256-0.258  c0-0.025-0.021-0.043-0.027-0.066h0.57c-0.007,0.023-0.027,0.041-0.027,0.066c0,0.143,0.115,0.258,0.258,0.258  c0.142,0,0.257-0.115,0.257-0.258c0-0.025-0.021-0.043-0.027-0.066h0.57c-0.007,0.023-0.028,0.041-0.028,0.066  c0,0.143,0.116,0.258,0.258,0.258c0.143,0,0.258-0.115,0.258-0.258c0-0.025-0.021-0.043-0.027-0.066h0.568  c-0.007,0.023-0.028,0.041-0.028,0.066c0,0.143,0.116,0.258,0.259,0.258c0.142,0,0.257-0.115,0.257-0.258  c0-0.025-0.021-0.043-0.027-0.066h0.569c-0.007,0.023-0.028,0.041-0.028,0.066c0,0.143,0.117,0.258,0.26,0.258  c0.141,0,0.256-0.115,0.256-0.258c0-0.025-0.021-0.043-0.027-0.066h0.57c-0.007,0.023-0.027,0.041-0.027,0.066  c0,0.143,0.114,0.258,0.257,0.258s0.258-0.115,0.258-0.258c0-0.025-0.021-0.043-0.027-0.066h0.568  c-0.007,0.023-0.027,0.041-0.027,0.066c0,0.143,0.115,0.258,0.258,0.258c0.142,0,0.258-0.115,0.258-0.258  c0-0.025-0.021-0.043-0.028-0.066h0.57c-0.007,0.023-0.027,0.041-0.027,0.066c0,0.143,0.114,0.258,0.256,0.258  c0.144,0,0.258-0.115,0.258-0.258c0-0.025-0.021-0.043-0.027-0.066h0.57c-0.007,0.023-0.027,0.041-0.027,0.066  c0,0.143,0.115,0.258,0.256,0.258c0.145,0,0.26-0.115,0.26-0.258c0-0.025-0.021-0.043-0.027-0.066h0.567  c-0.007,0.023-0.027,0.041-0.027,0.066c0,0.143,0.114,0.258,0.258,0.258c0.143,0,0.258-0.115,0.258-0.258  c0-0.025-0.021-0.043-0.027-0.066h0.568c-0.007,0.023-0.027,0.041-0.027,0.066c0,0.143,0.115,0.258,0.258,0.258  c0.142,0,0.258-0.115,0.258-0.258c0-0.025-0.021-0.043-0.028-0.066h0.571c-0.007,0.023-0.027,0.041-0.027,0.066  c0,0.143,0.114,0.258,0.258,0.258c0.036,0,0.061-0.024,0.091-0.038L22.63,26.664z M13.915,36.793l0.018-0.018  c-0.003,0.008-0.007,0.016-0.01,0.025L13.915,36.793z M12.295,36.999c0.024-0.04,0.053-0.078,0.053-0.128  c0-0.143-0.115-0.259-0.256-0.259c-0.144,0-0.259,0.116-0.259,0.259c0,0.142,0.115,0.257,0.259,0.257  c0.049,0,0.087-0.028,0.126-0.053l-0.907,0.906c-0.011-0.131-0.115-0.237-0.25-0.237c-0.142,0-0.257,0.115-0.257,0.257  c0,0.136,0.107,0.238,0.238,0.249l-0.79,0.79c-0.039-0.093-0.113-0.167-0.22-0.167c-0.143,0-0.259,0.115-0.259,0.257  c0,0.107,0.075,0.182,0.168,0.221L9.193,40.1c-0.047-0.056-0.111-0.096-0.19-0.096c-0.071,0-0.134,0.029-0.181,0.074v-0.765  c0.046,0.046,0.11,0.075,0.181,0.075c0.142,0,0.257-0.116,0.257-0.259c0-0.142-0.115-0.257-0.257-0.257  c-0.071,0-0.134,0.029-0.181,0.074v-0.764c0.046,0.046,0.11,0.074,0.181,0.074c0.142,0,0.257-0.114,0.257-0.257  c0-0.142-0.115-0.257-0.257-0.257c-0.071,0-0.134,0.029-0.181,0.074v-0.765c0.046,0.045,0.11,0.074,0.181,0.074  c0.142,0,0.257-0.115,0.257-0.257c0-0.143-0.115-0.259-0.257-0.259c-0.071,0-0.134,0.029-0.181,0.075v-0.765  c0.046,0.046,0.11,0.075,0.181,0.075c0.142,0,0.257-0.116,0.257-0.258c0-0.143-0.115-0.259-0.257-0.259  c-0.071,0-0.134,0.029-0.181,0.075v-0.764c0.046,0.045,0.11,0.074,0.181,0.074c0.142,0,0.257-0.115,0.257-0.257  c0-0.143-0.115-0.258-0.257-0.258c-0.071,0-0.134,0.029-0.181,0.075v-0.766c0.046,0.046,0.11,0.075,0.181,0.075  c0.121,0,0.208-0.092,0.235-0.205l0.839,0.839c-0.017-0.004-0.027-0.019-0.044-0.019c-0.143,0-0.259,0.115-0.259,0.258  c0,0.142,0.116,0.257,0.259,0.257c0.142,0,0.257-0.115,0.257-0.257c0-0.018-0.016-0.029-0.019-0.046l2.229,2.229L12.295,36.999z   M9.944,10.65c-0.094,0.039-0.169,0.113-0.169,0.22c0,0.142,0.116,0.258,0.259,0.258c0.107,0,0.181-0.075,0.22-0.168l0.791,0.791  c-0.132,0.011-0.239,0.116-0.239,0.251c0,0.142,0.115,0.257,0.257,0.257c0.136,0,0.24-0.107,0.25-0.24l0.909,0.909  c-0.04-0.025-0.079-0.054-0.129-0.054c-0.144,0-0.259,0.115-0.259,0.257s0.115,0.258,0.259,0.258c0.141,0,0.256-0.116,0.256-0.258  c0-0.051-0.028-0.091-0.054-0.131l0.207,0.207l-2.228,2.228c0.003-0.016,0.018-0.026,0.018-0.042c0-0.142-0.115-0.257-0.257-0.257  c-0.143,0-0.259,0.115-0.259,0.257s0.116,0.258,0.259,0.258c0.016,0,0.025-0.014,0.041-0.017l-0.836,0.836  c-0.027-0.113-0.114-0.204-0.235-0.204c-0.071,0-0.134,0.029-0.181,0.074v-0.764c0.046,0.046,0.11,0.075,0.181,0.075  c0.142,0,0.257-0.116,0.257-0.258s-0.115-0.257-0.257-0.257c-0.071,0-0.134,0.029-0.181,0.075v-0.765  c0.046,0.046,0.11,0.075,0.181,0.075c0.142,0,0.257-0.115,0.257-0.257s-0.115-0.258-0.257-0.258c-0.071,0-0.134,0.029-0.181,0.075  v-0.765c0.046,0.046,0.11,0.075,0.181,0.075c0.142,0,0.257-0.116,0.257-0.258s-0.115-0.257-0.257-0.257  c-0.071,0-0.134,0.029-0.181,0.074v-0.765c0.046,0.046,0.11,0.075,0.181,0.075c0.142,0,0.257-0.115,0.257-0.257  s-0.115-0.258-0.257-0.258c-0.071,0-0.134,0.029-0.181,0.075v-0.765c0.046,0.046,0.11,0.075,0.181,0.075  c0.142,0,0.257-0.116,0.257-0.258s-0.115-0.257-0.257-0.257c-0.071,0-0.134,0.029-0.181,0.075V9.923  c0.046,0.046,0.11,0.075,0.181,0.075c0.079,0,0.144-0.041,0.19-0.098L9.944,10.65z M12.867,14.255c0,0.003-0.003,0.004-0.003,0.007  c0,0.142,0.115,0.257,0.258,0.257c0.142,0,0.257-0.115,0.257-0.257s-0.115-0.258-0.257-0.258c-0.002,0-0.003,0.002-0.006,0.002  l0.092-0.092l3.798,3.798c0.023,0.088,0.085,0.15,0.174,0.174l0.85,0.849c-0.004,0.018-0.02,0.029-0.02,0.047  c0,0.142,0.115,0.258,0.258,0.258c0.019,0,0.03-0.016,0.047-0.02l0.774,0.774c-0.021,0.038-0.049,0.072-0.049,0.119  c0,0.143,0.114,0.257,0.256,0.257c0.047,0,0.082-0.028,0.12-0.049l0.737,0.737c-0.05,0.047-0.083,0.111-0.083,0.185  c0,0.142,0.115,0.258,0.256,0.258c0.075,0,0.14-0.033,0.188-0.083l0.74,0.74c-0.087,0.042-0.155,0.114-0.155,0.216  c0,0.142,0.114,0.257,0.258,0.257c0.103,0,0.174-0.069,0.215-0.155l0.784,0.784c-0.126,0.017-0.228,0.114-0.228,0.245  c0,0.142,0.115,0.257,0.258,0.257c0.13,0,0.228-0.101,0.245-0.226l0.88,0.88c-0.032-0.014-0.058-0.04-0.094-0.04  c-0.144,0-0.258,0.116-0.258,0.258c0,0.025,0.02,0.042,0.026,0.064h-0.569c0.007-0.023,0.027-0.039,0.027-0.064  c0-0.142-0.116-0.258-0.258-0.258c-0.143,0-0.258,0.116-0.258,0.258c0,0.025,0.02,0.042,0.027,0.064h-0.567  c0.007-0.023,0.027-0.039,0.027-0.064c0-0.142-0.115-0.258-0.258-0.258c-0.144,0-0.258,0.116-0.258,0.258  c0,0.025,0.02,0.042,0.026,0.064h-0.566c0.007-0.023,0.027-0.039,0.027-0.064c0-0.142-0.115-0.258-0.26-0.258  c-0.141,0-0.256,0.116-0.256,0.258c0,0.025,0.02,0.042,0.026,0.064h-0.568c0.006-0.023,0.026-0.039,0.026-0.064  c0-0.142-0.114-0.258-0.258-0.258c-0.142,0-0.256,0.116-0.256,0.258c0,0.025,0.02,0.042,0.026,0.064h-0.568  c0.007-0.023,0.027-0.039,0.027-0.064c0-0.142-0.116-0.258-0.258-0.258c-0.143,0-0.258,0.116-0.258,0.258  c0,0.025,0.02,0.042,0.027,0.064H17.47c0.007-0.023,0.027-0.039,0.027-0.064c0-0.142-0.115-0.258-0.258-0.258  s-0.257,0.116-0.257,0.258c0,0.025,0.02,0.042,0.026,0.064H16.44c0.006-0.023,0.026-0.039,0.026-0.064  c0-0.142-0.115-0.258-0.256-0.258c-0.143,0-0.26,0.116-0.26,0.258c0,0.025,0.02,0.042,0.027,0.064h-0.567  c0.006-0.023,0.026-0.039,0.026-0.064c0-0.142-0.115-0.258-0.257-0.258c-0.143,0-0.259,0.116-0.259,0.258  c0,0.025,0.02,0.042,0.027,0.064h-0.566c0.007-0.023,0.027-0.039,0.027-0.064c0-0.142-0.115-0.258-0.258-0.258  c-0.142,0-0.258,0.116-0.258,0.258c0,0.025,0.02,0.042,0.027,0.064h-0.568c0.006-0.023,0.026-0.039,0.026-0.064  c0-0.142-0.115-0.258-0.257-0.258c-0.143,0-0.258,0.116-0.258,0.258c0,0.025,0.02,0.042,0.027,0.064h-0.569  c0.006-0.023,0.026-0.039,0.026-0.064c0-0.142-0.115-0.258-0.256-0.258c-0.144,0-0.259,0.116-0.259,0.258  c0,0.025,0.02,0.042,0.027,0.064h-0.567c0.007-0.023,0.027-0.039,0.027-0.064c0-0.142-0.115-0.258-0.258-0.258  c-0.142,0-0.257,0.116-0.257,0.258c0,0.025,0.02,0.042,0.026,0.064h-0.567c0.006-0.023,0.026-0.039,0.026-0.064  c0-0.142-0.115-0.258-0.257-0.258c-0.143,0-0.259,0.116-0.259,0.258c0,0.025,0.02,0.042,0.027,0.064H9.234  c0.006-0.023,0.026-0.039,0.026-0.064c0-0.142-0.115-0.258-0.257-0.258c-0.071,0-0.134,0.029-0.181,0.075v-0.764  c0.046,0.045,0.11,0.074,0.181,0.074c0.142,0,0.257-0.115,0.257-0.257c0-0.143-0.115-0.257-0.257-0.257  c-0.071,0-0.134,0.029-0.181,0.075v-0.765c0.046,0.046,0.11,0.075,0.181,0.075c0.142,0,0.257-0.115,0.257-0.257  s-0.115-0.258-0.257-0.258c-0.071,0-0.134,0.029-0.181,0.075v-0.765c0.046,0.046,0.11,0.075,0.181,0.075  c0.142,0,0.257-0.116,0.257-0.258s-0.115-0.257-0.257-0.257c-0.071,0-0.134,0.029-0.181,0.075v-0.765  c0.046,0.046,0.11,0.075,0.181,0.075c0.142,0,0.257-0.115,0.257-0.257c0-0.142-0.115-0.258-0.257-0.258  c-0.071,0-0.134,0.029-0.181,0.075v-0.765c0.046,0.046,0.11,0.075,0.181,0.075c0.142,0,0.257-0.116,0.257-0.258  s-0.115-0.257-0.257-0.257c-0.071,0-0.134,0.029-0.181,0.075v-0.302l3.084-3.084c-0.045,0.046-0.074,0.108-0.074,0.177  c0,0.142,0.115,0.258,0.259,0.258c0.141,0,0.256-0.116,0.256-0.258s-0.115-0.257-0.256-0.257c-0.07,0-0.132,0.029-0.179,0.073  L12.867,14.255z M13.922,13.2c0.002,0.008,0.006,0.016,0.01,0.023l-0.017-0.017L13.922,13.2z M8.823,16.705  c0.033,0.032,0.081,0.042,0.127,0.053l-0.127,0.127V16.705z M8.823,9.557V9.529l0.02,0.02C8.837,9.554,8.828,9.552,8.823,9.557z   M8.95,33.244c-0.046,0.011-0.095,0.021-0.127,0.053v-0.181L8.95,33.244z M23.634,25.66c0.014-0.031,0.039-0.058,0.039-0.094  c0-0.025-0.02-0.043-0.027-0.066h0.149L23.634,25.66z M23.646,24.5c0.007-0.023,0.026-0.039,0.026-0.064  c0-0.038-0.025-0.064-0.04-0.097l0.161,0.161H23.646z M9.925,8.822C9.96,8.84,9.991,8.867,10.034,8.867  c0.042,0,0.073-0.027,0.108-0.045h0.812c0.035,0.018,0.066,0.045,0.108,0.045c0.042,0,0.073-0.027,0.109-0.045h0.812  c0.036,0.018,0.066,0.045,0.109,0.045c0.042,0,0.073-0.027,0.107-0.045h0.813c0.036,0.018,0.066,0.045,0.109,0.045  c0.042,0,0.073-0.027,0.108-0.045h0.813c0.035,0.018,0.066,0.045,0.108,0.045c0.042,0,0.073-0.027,0.109-0.045h0.812  c0.035,0.018,0.066,0.045,0.109,0.045c0.042,0,0.073-0.027,0.108-0.045h0.813c0.036,0.018,0.067,0.045,0.109,0.045  c0.042,0,0.073-0.027,0.107-0.045h0.567l-0.664,0.665c-0.004,0-0.006-0.004-0.01-0.004c-0.143,0-0.26,0.115-0.26,0.257  c0,0.004,0.005,0.007,0.005,0.012l-0.921,0.921c-0.022,0.016-0.037,0.031-0.053,0.053L13.208,12.5L9.53,8.822H9.925z M8.823,40.443  c0.005,0.005,0.014,0.004,0.019,0.008l-0.019,0.02V40.443z M9.53,41.178l3.678-3.678l1.772,1.772  c0.017,0.023,0.033,0.04,0.057,0.057l0.918,0.919c0,0.005-0.005,0.008-0.005,0.013c0,0.143,0.117,0.258,0.26,0.258  c0.004,0,0.007-0.005,0.011-0.005l0.664,0.664H9.53z M17.463,40.341c0.01-0.027,0.033-0.049,0.033-0.08  c0-0.142-0.115-0.257-0.258-0.257c-0.031,0-0.052,0.022-0.08,0.033l-0.755-0.755c0.033-0.044,0.063-0.093,0.063-0.152  c0-0.142-0.115-0.257-0.256-0.257c-0.06,0-0.109,0.029-0.153,0.063l-0.736-0.736c0.065-0.046,0.115-0.111,0.115-0.198  c0-0.142-0.115-0.257-0.257-0.257c-0.087,0-0.152,0.05-0.199,0.114l-0.76-0.76c0.104-0.033,0.188-0.113,0.188-0.228  c0-0.143-0.115-0.259-0.258-0.259c-0.037,0-0.063,0.025-0.095,0.039l0.879-0.878c0.019,0.123,0.115,0.225,0.245,0.225  c0.142,0,0.257-0.116,0.257-0.258c0-0.13-0.1-0.227-0.224-0.245l0.781-0.781c0.042,0.085,0.114,0.153,0.216,0.153  c0.141,0,0.256-0.115,0.256-0.257c0-0.103-0.068-0.173-0.153-0.215l0.741-0.741c0.047,0.05,0.111,0.083,0.185,0.083  c0.143,0,0.258-0.115,0.258-0.258c0-0.073-0.033-0.138-0.083-0.186l0.736-0.735c0.038,0.021,0.072,0.049,0.118,0.049  c0.142,0,0.258-0.116,0.258-0.259c0-0.046-0.028-0.08-0.049-0.117l0.775-0.775c0.017,0.003,0.027,0.019,0.044,0.019  c0.144,0,0.258-0.116,0.258-0.258c0-0.018-0.015-0.028-0.019-0.045l0.854-0.854c0.088-0.024,0.148-0.084,0.171-0.171l3.94-3.94  v0.256c-0.021-0.005-0.035-0.023-0.057-0.023c-0.143,0-0.256,0.115-0.256,0.257c0,0.143,0.113,0.258,0.256,0.258  c0.022,0,0.037-0.019,0.057-0.023v0.661c-0.021-0.005-0.035-0.023-0.057-0.023c-0.143,0-0.256,0.115-0.256,0.257  c0,0.143,0.113,0.259,0.256,0.259c0.022,0,0.037-0.019,0.057-0.023v0.662c-0.021-0.005-0.035-0.023-0.057-0.023  c-0.143,0-0.256,0.116-0.256,0.259c0,0.142,0.113,0.258,0.256,0.258c0.022,0,0.037-0.019,0.057-0.023v0.661  c-0.021-0.005-0.035-0.023-0.057-0.023c-0.143,0-0.256,0.115-0.256,0.258c0,0.142,0.113,0.257,0.256,0.257  c0.022,0,0.037-0.019,0.057-0.023v0.662c-0.021-0.005-0.035-0.023-0.057-0.023c-0.143,0-0.256,0.114-0.256,0.257  c0,0.142,0.113,0.258,0.256,0.258c0.022,0,0.037-0.019,0.057-0.023v0.663c-0.021-0.005-0.035-0.023-0.057-0.023  c-0.143,0-0.256,0.116-0.256,0.258c0,0.143,0.113,0.259,0.256,0.259c0.022,0,0.037-0.019,0.057-0.023v0.661  c-0.021-0.005-0.035-0.023-0.057-0.023c-0.143,0-0.256,0.116-0.256,0.258c0,0.143,0.113,0.258,0.256,0.258  c0.022,0,0.037-0.019,0.057-0.023v0.662c-0.021-0.005-0.035-0.023-0.057-0.023c-0.143,0-0.256,0.115-0.256,0.258  c0,0.142,0.113,0.257,0.256,0.257c0.022,0,0.037-0.019,0.057-0.023v0.661c-0.021-0.005-0.035-0.023-0.057-0.023  c-0.143,0-0.256,0.116-0.256,0.259c0,0.142,0.113,0.258,0.256,0.258c0.022,0,0.037-0.019,0.057-0.023v0.661  c-0.021-0.005-0.035-0.023-0.057-0.023c-0.143,0-0.256,0.116-0.256,0.259c0,0.142,0.113,0.257,0.256,0.257  c0.022,0,0.037-0.019,0.057-0.023v0.663c-0.021-0.005-0.035-0.023-0.057-0.023c-0.143,0-0.256,0.115-0.256,0.257  c0,0.143,0.113,0.257,0.256,0.257c0.022,0,0.037-0.019,0.057-0.023v0.662c-0.021-0.005-0.035-0.023-0.057-0.023  c-0.143,0-0.256,0.115-0.256,0.257c0,0.143,0.113,0.259,0.256,0.259c0.022,0,0.037-0.019,0.057-0.023v0.662  c-0.021-0.005-0.035-0.023-0.057-0.023c-0.143,0-0.256,0.115-0.256,0.257c0,0.143,0.113,0.258,0.256,0.258  c0.022,0,0.037-0.019,0.057-0.023v0.683H18.3L17.463,40.341z M40.807,40.1l-0.748-0.748c0.093-0.039,0.167-0.114,0.167-0.222  c0-0.142-0.115-0.257-0.256-0.257c-0.108,0-0.183,0.075-0.221,0.169l-0.791-0.791c0.131-0.011,0.238-0.114,0.238-0.25  c0-0.142-0.115-0.257-0.256-0.257c-0.136,0-0.24,0.107-0.25,0.239l-0.908-0.908c0.039,0.024,0.077,0.053,0.127,0.053  c0.145,0,0.258-0.115,0.258-0.257c0-0.143-0.113-0.259-0.258-0.259c-0.143,0-0.256,0.116-0.256,0.259  c0,0.05,0.028,0.088,0.053,0.128L37.5,36.793l2.232-2.232c-0.004,0.018-0.021,0.03-0.021,0.05c0,0.142,0.115,0.257,0.258,0.257  c0.141,0,0.256-0.115,0.256-0.257c0-0.143-0.115-0.258-0.256-0.258c-0.02,0-0.032,0.017-0.05,0.021l0.841-0.841  c0.027,0.113,0.116,0.205,0.238,0.205c0.069,0,0.132-0.029,0.179-0.075v0.766c-0.047-0.046-0.109-0.075-0.179-0.075  c-0.143,0-0.26,0.115-0.26,0.258c0,0.142,0.117,0.257,0.26,0.257c0.069,0,0.132-0.029,0.179-0.075v0.765  c-0.047-0.046-0.109-0.075-0.179-0.075c-0.143,0-0.26,0.116-0.26,0.259c0,0.142,0.117,0.258,0.26,0.258  c0.069,0,0.132-0.029,0.179-0.075v0.765c-0.047-0.046-0.109-0.075-0.179-0.075c-0.143,0-0.26,0.116-0.26,0.259  c0,0.142,0.117,0.257,0.26,0.257c0.069,0,0.132-0.029,0.179-0.075v0.767c-0.047-0.046-0.109-0.075-0.179-0.075  c-0.143,0-0.26,0.115-0.26,0.257c0,0.143,0.117,0.257,0.26,0.257c0.069,0,0.132-0.028,0.179-0.074v0.765  c-0.047-0.046-0.109-0.075-0.179-0.075c-0.143,0-0.26,0.115-0.26,0.257c0,0.143,0.117,0.259,0.26,0.259  c0.069,0,0.132-0.029,0.179-0.075v0.766c-0.047-0.046-0.109-0.075-0.179-0.075C40.92,40.004,40.854,40.044,40.807,40.1z   M37.134,35.745c0-0.002,0.002-0.003,0.002-0.005c0-0.143-0.113-0.259-0.256-0.259s-0.256,0.116-0.256,0.259  c0,0.142,0.113,0.258,0.256,0.258c0.001,0,0.001-0.001,0.002-0.001l-0.089,0.089l-3.797-3.797c-0.024-0.089-0.086-0.15-0.174-0.174  l-0.852-0.852c0.003-0.018,0.019-0.029,0.019-0.047c0-0.143-0.113-0.257-0.256-0.257c-0.019,0-0.029,0.016-0.047,0.02l-0.774-0.774  c0.021-0.037,0.048-0.071,0.048-0.117c0-0.143-0.115-0.258-0.256-0.258c-0.046,0-0.081,0.027-0.118,0.049l-0.736-0.736  c0.051-0.047,0.083-0.111,0.083-0.185c0-0.143-0.115-0.259-0.26-0.259c-0.072,0-0.136,0.033-0.183,0.084l-0.742-0.742  c0.086-0.042,0.155-0.113,0.155-0.216c0-0.142-0.117-0.257-0.258-0.257c-0.103,0-0.174,0.068-0.216,0.154l-0.781-0.781  c0.125-0.019,0.226-0.115,0.226-0.245c0-0.142-0.115-0.257-0.258-0.257c-0.13,0-0.227,0.101-0.245,0.225l-0.879-0.879  c0.031,0.014,0.058,0.039,0.095,0.039c0.143,0,0.256-0.115,0.256-0.258c0-0.025-0.021-0.043-0.027-0.066h0.57  c-0.007,0.023-0.027,0.041-0.027,0.066c0,0.143,0.115,0.258,0.258,0.258s0.258-0.115,0.258-0.258c0-0.025-0.021-0.043-0.027-0.066  h0.568c-0.007,0.023-0.027,0.041-0.027,0.066c0,0.143,0.115,0.258,0.258,0.258c0.141,0,0.258-0.115,0.258-0.258  c0-0.025-0.021-0.043-0.027-0.066h0.568c-0.007,0.023-0.027,0.041-0.027,0.066c0,0.143,0.117,0.258,0.256,0.258  c0.145,0,0.26-0.115,0.26-0.258c0-0.025-0.021-0.043-0.027-0.066h0.568c-0.007,0.023-0.027,0.041-0.027,0.066  c0,0.143,0.115,0.258,0.258,0.258c0.141,0,0.256-0.115,0.256-0.258c0-0.025-0.021-0.043-0.027-0.066h0.572  c-0.007,0.023-0.027,0.041-0.027,0.066c0,0.143,0.113,0.258,0.256,0.258s0.256-0.115,0.256-0.258c0-0.025-0.021-0.043-0.027-0.066  h0.57c-0.007,0.023-0.027,0.041-0.027,0.066c0,0.143,0.115,0.258,0.26,0.258c0.141,0,0.256-0.115,0.256-0.258  c0-0.025-0.021-0.043-0.027-0.066h0.57c-0.007,0.023-0.027,0.041-0.027,0.066c0,0.143,0.113,0.258,0.256,0.258  s0.258-0.115,0.258-0.258c0-0.025-0.021-0.043-0.027-0.066h0.569c-0.008,0.023-0.028,0.041-0.028,0.066  c0,0.143,0.117,0.258,0.26,0.258c0.141,0,0.256-0.115,0.256-0.258c0-0.025-0.021-0.043-0.027-0.066h0.568  c-0.007,0.023-0.027,0.041-0.027,0.066c0,0.143,0.117,0.258,0.258,0.258s0.258-0.115,0.258-0.258c0-0.025-0.021-0.043-0.027-0.066  h0.57c-0.007,0.023-0.027,0.041-0.027,0.066c0,0.143,0.113,0.258,0.256,0.258s0.256-0.115,0.256-0.258  c0-0.025-0.021-0.043-0.027-0.066h0.572c-0.007,0.023-0.027,0.041-0.027,0.066c0,0.143,0.113,0.258,0.256,0.258  c0.145,0,0.258-0.115,0.258-0.258c0-0.025-0.021-0.043-0.027-0.066h0.57c-0.007,0.023-0.027,0.041-0.027,0.066  c0,0.143,0.115,0.258,0.258,0.258c0.141,0,0.256-0.115,0.256-0.258c0-0.025-0.021-0.043-0.027-0.066h0.57  c-0.007,0.023-0.027,0.041-0.027,0.066c0,0.143,0.115,0.258,0.258,0.258c0.141,0,0.256-0.115,0.256-0.258  c0-0.025-0.021-0.043-0.027-0.066h0.569c-0.008,0.023-0.028,0.041-0.028,0.066c0,0.143,0.117,0.258,0.26,0.258  c0.069,0,0.132-0.029,0.179-0.075v0.766c-0.047-0.046-0.109-0.075-0.179-0.075c-0.143,0-0.26,0.115-0.26,0.257  c0,0.143,0.117,0.258,0.26,0.258c0.069,0,0.132-0.029,0.179-0.075v0.765c-0.047-0.046-0.109-0.075-0.179-0.075  c-0.143,0-0.26,0.115-0.26,0.257c0,0.143,0.117,0.259,0.26,0.259c0.069,0,0.132-0.029,0.179-0.075v0.766  c-0.047-0.046-0.109-0.075-0.179-0.075c-0.143,0-0.26,0.116-0.26,0.259c0,0.142,0.117,0.258,0.26,0.258  c0.069,0,0.132-0.029,0.179-0.075v0.765c-0.047-0.046-0.109-0.075-0.179-0.075c-0.143,0-0.26,0.115-0.26,0.258  c0,0.142,0.117,0.257,0.26,0.257c0.069,0,0.132-0.029,0.179-0.075v0.765c-0.047-0.046-0.109-0.074-0.179-0.074  c-0.143,0-0.26,0.114-0.26,0.257c0,0.142,0.117,0.258,0.26,0.258c0.069,0,0.132-0.029,0.179-0.075v0.302l-3.082,3.082  c0.043-0.046,0.071-0.105,0.071-0.173c0-0.143-0.113-0.258-0.258-0.258c-0.143,0-0.256,0.115-0.256,0.258  c0,0.142,0.113,0.257,0.256,0.257c0.068,0,0.128-0.029,0.174-0.071L37.134,35.745z M36.079,36.8  c-0.003-0.009-0.007-0.016-0.011-0.024l0.018,0.018L36.079,36.8z M27.371,23.336c0.017,0.125,0.114,0.227,0.245,0.227  c0.143,0,0.258-0.115,0.258-0.257c0-0.131-0.102-0.228-0.228-0.245l0.783-0.783c0.042,0.086,0.113,0.155,0.216,0.155  c0.141,0,0.258-0.115,0.258-0.257c0-0.102-0.069-0.174-0.156-0.216l0.742-0.742c0.047,0.051,0.11,0.085,0.184,0.085  c0.145,0,0.26-0.116,0.26-0.258c0-0.075-0.033-0.139-0.085-0.186l0.737-0.737c0.038,0.021,0.072,0.049,0.119,0.049  c0.141,0,0.256-0.115,0.256-0.257c0-0.046-0.027-0.081-0.049-0.118l0.774-0.774c0.018,0.004,0.029,0.02,0.048,0.02  c0.143,0,0.256-0.116,0.256-0.258c0-0.018-0.016-0.029-0.019-0.046l0.849-0.849c0.091-0.022,0.154-0.086,0.178-0.178l3.796-3.796  l0.092,0.092c-0.002,0-0.003-0.002-0.005-0.002c-0.143,0-0.256,0.116-0.256,0.258s0.113,0.257,0.256,0.257s0.256-0.115,0.256-0.257  c0-0.003-0.004-0.005-0.004-0.009l0.955,0.955c-0.046-0.044-0.107-0.073-0.178-0.073c-0.143,0-0.256,0.115-0.256,0.257  s0.113,0.258,0.256,0.258c0.145,0,0.258-0.116,0.258-0.258c0-0.069-0.028-0.13-0.072-0.176l3.083,3.083v0.302  c-0.047-0.046-0.109-0.075-0.179-0.075c-0.143,0-0.26,0.115-0.26,0.257s0.117,0.258,0.26,0.258c0.069,0,0.132-0.029,0.179-0.075  v0.765c-0.047-0.046-0.109-0.075-0.179-0.075c-0.143,0-0.26,0.116-0.26,0.258c0,0.143,0.117,0.257,0.26,0.257  c0.069,0,0.132-0.029,0.179-0.075v0.765c-0.047-0.046-0.109-0.075-0.179-0.075c-0.143,0-0.26,0.115-0.26,0.257  s0.117,0.258,0.26,0.258c0.069,0,0.132-0.029,0.179-0.075v0.765c-0.047-0.046-0.109-0.075-0.179-0.075  c-0.143,0-0.26,0.116-0.26,0.258s0.117,0.257,0.26,0.257c0.069,0,0.132-0.029,0.179-0.075v0.765  c-0.047-0.046-0.109-0.075-0.179-0.075c-0.143,0-0.26,0.115-0.26,0.257c0,0.142,0.117,0.257,0.26,0.257  c0.069,0,0.132-0.029,0.179-0.075v0.765c-0.047-0.046-0.109-0.075-0.179-0.075c-0.143,0-0.26,0.116-0.26,0.258  c0,0.025,0.021,0.042,0.027,0.064h-0.567c0.007-0.023,0.026-0.039,0.026-0.064c0-0.142-0.115-0.258-0.256-0.258  c-0.143,0-0.258,0.116-0.258,0.258c0,0.025,0.02,0.042,0.026,0.064H39.17c0.007-0.023,0.026-0.039,0.026-0.064  c0-0.142-0.115-0.258-0.256-0.258c-0.143,0-0.258,0.116-0.258,0.258c0,0.025,0.02,0.042,0.026,0.064h-0.568  c0.007-0.023,0.026-0.039,0.026-0.064c0-0.142-0.113-0.258-0.258-0.258c-0.143,0-0.256,0.116-0.256,0.258  c0,0.025,0.02,0.042,0.026,0.064h-0.57c0.007-0.023,0.026-0.039,0.026-0.064c0-0.142-0.113-0.258-0.256-0.258  s-0.256,0.116-0.256,0.258c0,0.025,0.02,0.042,0.026,0.064h-0.569c0.007-0.023,0.027-0.039,0.027-0.064  c0-0.142-0.117-0.258-0.258-0.258s-0.258,0.116-0.258,0.258c0,0.025,0.021,0.042,0.027,0.064h-0.567  c0.007-0.023,0.026-0.039,0.026-0.064c0-0.142-0.115-0.258-0.256-0.258c-0.143,0-0.26,0.116-0.26,0.258  c0,0.025,0.021,0.042,0.027,0.064h-0.567c0.007-0.023,0.026-0.039,0.026-0.064c0-0.142-0.115-0.258-0.258-0.258  s-0.256,0.116-0.256,0.258c0,0.025,0.02,0.042,0.026,0.064h-0.568c0.007-0.023,0.026-0.039,0.026-0.064  c0-0.142-0.115-0.258-0.256-0.258c-0.145,0-0.26,0.116-0.26,0.258c0,0.025,0.021,0.042,0.026,0.064h-0.568  c0.007-0.023,0.026-0.039,0.026-0.064c0-0.142-0.113-0.258-0.256-0.258s-0.256,0.116-0.256,0.258c0,0.025,0.02,0.042,0.026,0.064  h-0.57c0.007-0.023,0.026-0.039,0.026-0.064c0-0.142-0.115-0.258-0.256-0.258c-0.143,0-0.258,0.116-0.258,0.258  c0,0.025,0.02,0.042,0.026,0.064h-0.566c0.006-0.023,0.026-0.039,0.026-0.064c0-0.142-0.115-0.258-0.26-0.258  c-0.139,0-0.256,0.116-0.256,0.258c0,0.025,0.021,0.042,0.026,0.064h-0.567c0.007-0.023,0.027-0.039,0.027-0.064  c0-0.142-0.117-0.258-0.258-0.258c-0.143,0-0.258,0.116-0.258,0.258c0,0.025,0.02,0.042,0.026,0.064h-0.566  c0.007-0.023,0.026-0.039,0.026-0.064c0-0.142-0.115-0.258-0.258-0.258s-0.258,0.116-0.258,0.258c0,0.025,0.02,0.042,0.026,0.064  h-0.568c0.007-0.023,0.026-0.039,0.026-0.064c0-0.142-0.113-0.258-0.256-0.258c-0.038,0-0.065,0.026-0.098,0.041L27.371,23.336z   M36.086,13.207l-0.016,0.016c0.003-0.008,0.007-0.015,0.009-0.023L36.086,13.207z M37.707,13c-0.025,0.04-0.054,0.08-0.054,0.131  c0,0.142,0.113,0.258,0.256,0.258c0.145,0,0.258-0.116,0.258-0.258s-0.113-0.257-0.258-0.257c-0.051,0-0.091,0.028-0.13,0.054  l0.91-0.91c0.01,0.133,0.115,0.241,0.251,0.241c0.141,0,0.256-0.115,0.256-0.257c0-0.136-0.107-0.241-0.239-0.251l0.791-0.791  c0.039,0.094,0.113,0.169,0.222,0.169c0.141,0,0.256-0.116,0.256-0.258c0-0.107-0.075-0.183-0.168-0.221L40.807,9.9  c0.048,0.057,0.112,0.098,0.192,0.098c0.069,0,0.132-0.029,0.179-0.075v0.765c-0.047-0.046-0.109-0.075-0.179-0.075  c-0.143,0-0.26,0.115-0.26,0.257s0.117,0.258,0.26,0.258c0.069,0,0.132-0.029,0.179-0.075v0.765  c-0.047-0.046-0.109-0.075-0.179-0.075c-0.143,0-0.26,0.116-0.26,0.258s0.117,0.257,0.26,0.257c0.069,0,0.132-0.029,0.179-0.075  v0.765c-0.047-0.046-0.109-0.075-0.179-0.075c-0.143,0-0.26,0.115-0.26,0.257s0.117,0.258,0.26,0.258  c0.069,0,0.132-0.029,0.179-0.075v0.765c-0.047-0.046-0.109-0.075-0.179-0.075c-0.143,0-0.26,0.116-0.26,0.258  s0.117,0.257,0.26,0.257c0.069,0,0.132-0.029,0.179-0.075v0.765c-0.047-0.046-0.109-0.075-0.179-0.075  c-0.143,0-0.26,0.115-0.26,0.257s0.117,0.258,0.26,0.258c0.069,0,0.132-0.029,0.179-0.075v0.765  c-0.047-0.046-0.109-0.075-0.179-0.075c-0.121,0-0.209,0.09-0.237,0.203l-0.836-0.836c0.016,0.003,0.026,0.019,0.044,0.019  c0.141,0,0.256-0.116,0.256-0.258s-0.115-0.257-0.256-0.257c-0.143,0-0.258,0.115-0.258,0.257c0,0.018,0.016,0.028,0.019,0.045  l-2.23-2.23L37.707,13z M41.178,9.529v0.028c-0.005-0.005-0.015-0.003-0.021-0.008L41.178,9.529z M41.052,16.758  c0.046-0.011,0.093-0.021,0.126-0.053v0.179L41.052,16.758z M26.37,24.337c-0.016,0.033-0.041,0.06-0.041,0.098  c0,0.025,0.02,0.042,0.026,0.064h-0.148L26.37,24.337z M26.356,25.5c-0.007,0.023-0.027,0.041-0.027,0.066  c0,0.037,0.025,0.063,0.039,0.095L26.207,25.5H26.356z M41.178,33.297c-0.033-0.033-0.081-0.043-0.128-0.054l0.128-0.128V33.297z   M33.684,8.822c0.035,0.018,0.066,0.045,0.108,0.045S33.865,8.84,33.9,8.822h0.813c0.036,0.018,0.067,0.045,0.109,0.045  s0.072-0.027,0.107-0.045h0.812c0.035,0.018,0.066,0.045,0.108,0.045s0.073-0.027,0.108-0.045h0.813  c0.035,0.018,0.066,0.045,0.108,0.045s0.073-0.027,0.108-0.045h0.813c0.035,0.018,0.066,0.045,0.108,0.045  c0.043,0,0.074-0.027,0.109-0.045h0.813c0.035,0.018,0.066,0.045,0.108,0.045s0.072-0.027,0.107-0.045h0.813  c0.035,0.018,0.066,0.045,0.108,0.045s0.072-0.027,0.107-0.045h0.394L36.793,12.5l-1.773-1.773  c-0.016-0.023-0.031-0.039-0.055-0.055l-0.92-0.92c0-0.005,0.005-0.007,0.005-0.012c0-0.142-0.115-0.257-0.258-0.257  c-0.005,0-0.007,0.005-0.012,0.005l-0.665-0.665H33.684z M32.538,9.659c-0.01,0.028-0.033,0.049-0.033,0.081  c0,0.142,0.115,0.258,0.26,0.258c0.03,0,0.052-0.023,0.079-0.033l0.754,0.754c-0.033,0.043-0.062,0.092-0.062,0.151  c0,0.142,0.113,0.258,0.256,0.258c0.06,0,0.108-0.029,0.151-0.063l0.737,0.737c-0.066,0.047-0.117,0.112-0.117,0.199  c0,0.142,0.117,0.257,0.26,0.257c0.086,0,0.151-0.05,0.197-0.116l0.761,0.76c-0.104,0.033-0.188,0.113-0.188,0.229  c0,0.142,0.117,0.258,0.258,0.258c0.035,0,0.061-0.025,0.092-0.038l-0.877,0.877c-0.02-0.124-0.114-0.224-0.242-0.224  c-0.143,0-0.26,0.116-0.26,0.258c0,0.128,0.101,0.224,0.225,0.243l-0.782,0.782c-0.042-0.084-0.112-0.152-0.214-0.152  c-0.143,0-0.256,0.115-0.256,0.257c0,0.101,0.066,0.172,0.15,0.214l-0.739,0.739c-0.047-0.049-0.11-0.081-0.183-0.081  c-0.145,0-0.26,0.115-0.26,0.257c0,0.073,0.032,0.138,0.081,0.185l-0.736,0.737c-0.037-0.021-0.07-0.048-0.116-0.048  c-0.143,0-0.256,0.116-0.256,0.258c0,0.045,0.027,0.078,0.047,0.115l-0.776,0.776c-0.016-0.003-0.026-0.019-0.044-0.019  c-0.143,0-0.258,0.115-0.258,0.257c0,0.018,0.016,0.028,0.019,0.045l-0.854,0.854c-0.083,0.024-0.141,0.082-0.166,0.166L25.5,23.793  v-0.254c0.021,0.005,0.035,0.024,0.058,0.024c0.143,0,0.258-0.115,0.258-0.257c0-0.143-0.115-0.257-0.258-0.257  c-0.022,0-0.037,0.019-0.058,0.024v-0.664c0.021,0.005,0.035,0.024,0.058,0.024c0.143,0,0.258-0.115,0.258-0.257  s-0.115-0.258-0.258-0.258c-0.022,0-0.037,0.019-0.058,0.024v-0.662c0.021,0.005,0.035,0.024,0.058,0.024  c0.143,0,0.258-0.116,0.258-0.258s-0.115-0.257-0.258-0.257c-0.022,0-0.037,0.019-0.058,0.024v-0.664  c0.021,0.005,0.035,0.024,0.058,0.024c0.143,0,0.258-0.115,0.258-0.257c0-0.142-0.115-0.258-0.258-0.258  c-0.022,0-0.037,0.019-0.058,0.024v-0.663c0.021,0.005,0.035,0.024,0.058,0.024c0.143,0,0.258-0.116,0.258-0.258  s-0.115-0.257-0.258-0.257c-0.022,0-0.037,0.019-0.058,0.024v-0.663c0.021,0.005,0.035,0.024,0.058,0.024  c0.143,0,0.258-0.115,0.258-0.257s-0.115-0.258-0.258-0.258c-0.022,0-0.037,0.019-0.058,0.024v-0.663  c0.021,0.005,0.035,0.024,0.058,0.024c0.143,0,0.258-0.116,0.258-0.258s-0.115-0.257-0.258-0.257c-0.022,0-0.037,0.019-0.058,0.024  v-0.663c0.021,0.005,0.035,0.024,0.058,0.024c0.143,0,0.258-0.116,0.258-0.258s-0.115-0.257-0.258-0.257  c-0.022,0-0.037,0.019-0.058,0.024v-0.663c0.021,0.005,0.035,0.024,0.058,0.024c0.143,0,0.258-0.115,0.258-0.257  s-0.115-0.258-0.258-0.258c-0.022,0-0.037,0.019-0.058,0.024v-0.663c0.021,0.005,0.035,0.024,0.058,0.024  c0.143,0,0.258-0.116,0.258-0.258s-0.115-0.257-0.258-0.257c-0.022,0-0.037,0.019-0.058,0.024v-0.664  c0.021,0.005,0.035,0.024,0.058,0.024c0.143,0,0.258-0.115,0.258-0.257s-0.115-0.258-0.258-0.258c-0.022,0-0.037,0.019-0.058,0.024  v-0.663c0.021,0.005,0.035,0.024,0.058,0.024c0.143,0,0.258-0.116,0.258-0.258s-0.115-0.257-0.258-0.257  c-0.022,0-0.037,0.019-0.058,0.024V9.974c0.021,0.005,0.035,0.024,0.058,0.024c0.143,0,0.258-0.116,0.258-0.258  S25.7,9.482,25.558,9.482c-0.022,0-0.037,0.019-0.058,0.024V8.843c0.021,0.005,0.035,0.024,0.058,0.024  c0.042,0,0.073-0.027,0.108-0.045h0.813c0.035,0.018,0.066,0.045,0.108,0.045s0.073-0.027,0.108-0.045h0.813  c0.035,0.018,0.066,0.045,0.108,0.045s0.073-0.027,0.108-0.045h0.813c0.035,0.018,0.066,0.045,0.108,0.045s0.073-0.027,0.108-0.045  h0.812c0.035,0.018,0.066,0.045,0.107,0.045c0.043,0,0.074-0.027,0.109-0.045h0.813c0.035,0.018,0.066,0.045,0.108,0.045  s0.072-0.027,0.107-0.045h0.813c0.035,0.018,0.066,0.045,0.108,0.045c0.004,0,0.006-0.003,0.009-0.004L32.538,9.659z M30.552,42.327  c-0.017,0.014-0.029,0.025-0.042,0.042l-4.709,4.709c0.002-0.014,0.015-0.021,0.015-0.036c0-0.142-0.115-0.258-0.258-0.258  c-0.022,0-0.037,0.019-0.058,0.024v-0.662c0.021,0.005,0.035,0.023,0.058,0.023c0.143,0,0.258-0.115,0.258-0.258  c0-0.142-0.115-0.257-0.258-0.257c-0.022,0-0.037,0.019-0.058,0.023v-0.663c0.021,0.005,0.035,0.023,0.058,0.023  c0.143,0,0.258-0.115,0.258-0.258s-0.115-0.257-0.258-0.257c-0.022,0-0.037,0.019-0.058,0.023v-0.662  c0.021,0.005,0.035,0.023,0.058,0.023c0.143,0,0.258-0.115,0.258-0.257c0-0.143-0.115-0.258-0.258-0.258  c-0.022,0-0.037,0.019-0.058,0.023v-0.662c0.021,0.005,0.035,0.023,0.058,0.023c0.143,0,0.258-0.115,0.258-0.257  c0-0.143-0.115-0.259-0.258-0.259c-0.022,0-0.037,0.019-0.058,0.024v-0.11h5.201L30.552,42.327z M25.5,47.276  c0.021,0.006,0.035,0.024,0.058,0.024c0.014,0,0.022-0.013,0.035-0.015L25.5,47.379V47.276z M30.509,7.63  c0.014,0.018,0.026,0.03,0.044,0.044l0.148,0.148H25.5V7.713c0.021,0.005,0.035,0.024,0.058,0.024c0.143,0,0.258-0.116,0.258-0.258  S25.7,7.222,25.558,7.222c-0.022,0-0.037,0.019-0.058,0.024V6.582c0.021,0.005,0.035,0.024,0.058,0.024  c0.143,0,0.258-0.115,0.258-0.257S25.7,6.09,25.558,6.09c-0.022,0-0.037,0.019-0.058,0.024V5.452  c0.021,0.005,0.035,0.024,0.058,0.024c0.143,0,0.258-0.116,0.258-0.258S25.7,4.96,25.558,4.96c-0.022,0-0.037,0.019-0.058,0.024  V4.322c0.021,0.005,0.035,0.024,0.058,0.024c0.143,0,0.258-0.116,0.258-0.258c0-0.143-0.115-0.257-0.258-0.257  c-0.022,0-0.037,0.019-0.058,0.024V3.191c0.021,0.005,0.035,0.024,0.058,0.024c0.143,0,0.258-0.115,0.258-0.257  c0-0.014-0.013-0.022-0.015-0.036L30.509,7.63z M25.5,2.723V2.621l0.093,0.093c-0.013-0.002-0.021-0.015-0.035-0.015  C25.535,2.699,25.521,2.718,25.5,2.723z M31.701,41.178H25.5v-0.683c0.021,0.005,0.035,0.023,0.058,0.023  c0.143,0,0.258-0.115,0.258-0.258c0-0.142-0.115-0.257-0.258-0.257c-0.022,0-0.037,0.019-0.058,0.023v-0.663  c0.021,0.006,0.035,0.024,0.058,0.024c0.143,0,0.258-0.116,0.258-0.259c0-0.142-0.115-0.257-0.258-0.257  c-0.022,0-0.037,0.019-0.058,0.023v-0.662c0.021,0.005,0.035,0.023,0.058,0.023c0.143,0,0.258-0.114,0.258-0.257  c0-0.142-0.115-0.257-0.258-0.257c-0.022,0-0.037,0.019-0.058,0.023v-0.663c0.021,0.005,0.035,0.023,0.058,0.023  c0.143,0,0.258-0.115,0.258-0.257c0-0.143-0.115-0.259-0.258-0.259c-0.022,0-0.037,0.019-0.058,0.024v-0.662  c0.021,0.005,0.035,0.023,0.058,0.023c0.143,0,0.258-0.116,0.258-0.258c0-0.143-0.115-0.259-0.258-0.259  c-0.022,0-0.037,0.019-0.058,0.024v-0.662c0.021,0.005,0.035,0.023,0.058,0.023c0.143,0,0.258-0.115,0.258-0.257  c0-0.143-0.115-0.258-0.258-0.258c-0.022,0-0.037,0.019-0.058,0.023v-0.662c0.021,0.005,0.035,0.023,0.058,0.023  c0.143,0,0.258-0.115,0.258-0.258c0-0.142-0.115-0.258-0.258-0.258c-0.022,0-0.037,0.019-0.058,0.024v-0.663  c0.021,0.006,0.035,0.024,0.058,0.024c0.143,0,0.258-0.116,0.258-0.259c0-0.142-0.115-0.258-0.258-0.258  c-0.022,0-0.037,0.019-0.058,0.024v-0.664c0.021,0.005,0.035,0.023,0.058,0.023c0.143,0,0.258-0.116,0.258-0.258  c0-0.143-0.115-0.257-0.258-0.257c-0.022,0-0.037,0.019-0.058,0.023v-0.662c0.021,0.005,0.035,0.023,0.058,0.023  c0.143,0,0.258-0.115,0.258-0.257c0-0.143-0.115-0.258-0.258-0.258c-0.022,0-0.037,0.019-0.058,0.023v-0.662  c0.021,0.006,0.035,0.024,0.058,0.024c0.143,0,0.258-0.116,0.258-0.258c0-0.143-0.115-0.259-0.258-0.259  c-0.022,0-0.037,0.019-0.058,0.024V28.06c0.021,0.006,0.035,0.024,0.058,0.024c0.143,0,0.258-0.116,0.258-0.259  c0-0.142-0.115-0.257-0.258-0.257c-0.022,0-0.037,0.019-0.058,0.023v-0.661c0.021,0.005,0.035,0.023,0.058,0.023  c0.143,0,0.258-0.115,0.258-0.258c0-0.142-0.115-0.257-0.258-0.257c-0.022,0-0.037,0.019-0.058,0.023v-0.256l3.943,3.943  c0.024,0.086,0.084,0.146,0.169,0.169l0.853,0.853c-0.003,0.017-0.019,0.027-0.019,0.045c0,0.142,0.115,0.258,0.258,0.258  c0.018,0,0.028-0.016,0.045-0.019l0.776,0.776c-0.021,0.037-0.048,0.071-0.048,0.116c0,0.143,0.113,0.259,0.256,0.259  c0.046,0,0.08-0.028,0.118-0.049l0.736,0.736c-0.051,0.047-0.083,0.111-0.083,0.185c0,0.143,0.115,0.258,0.26,0.258  c0.073,0,0.137-0.032,0.184-0.082l0.74,0.74c-0.085,0.042-0.152,0.113-0.152,0.215c0,0.142,0.113,0.257,0.256,0.257  c0.102,0,0.173-0.068,0.215-0.153l0.782,0.782c-0.125,0.019-0.226,0.115-0.226,0.244c0,0.142,0.117,0.258,0.26,0.258  c0.128,0,0.225-0.102,0.242-0.226l0.879,0.879c-0.031-0.014-0.058-0.039-0.094-0.039c-0.141,0-0.258,0.116-0.258,0.259  c0,0.114,0.084,0.194,0.188,0.228l-0.76,0.76c-0.047-0.065-0.111-0.114-0.197-0.114c-0.143,0-0.26,0.115-0.26,0.257  c0,0.087,0.05,0.151,0.116,0.198l-0.736,0.736c-0.044-0.033-0.092-0.063-0.151-0.063c-0.143,0-0.256,0.115-0.256,0.257  c0,0.059,0.028,0.107,0.062,0.151l-0.755,0.755c-0.027-0.01-0.048-0.032-0.078-0.032c-0.145,0-0.26,0.115-0.26,0.257  c0,0.031,0.023,0.053,0.033,0.08L31.701,41.178z M33.117,41.178l0.663-0.664c0.005,0,0.007,0.005,0.012,0.005  c0.143,0,0.258-0.115,0.258-0.258c0-0.005-0.005-0.007-0.005-0.012l0.92-0.92c0.022-0.017,0.038-0.032,0.055-0.055l1.773-1.774  l3.678,3.678H33.117z M41.158,40.451c0.006-0.004,0.015-0.003,0.02-0.008v0.027L41.158,40.451z M46.146,24.177  c-0.143,0-0.258,0.116-0.258,0.258c0,0.025,0.02,0.042,0.026,0.064h-0.566c0.006-0.023,0.026-0.039,0.026-0.064  c0-0.142-0.115-0.258-0.26-0.258c-0.143,0-0.256,0.116-0.256,0.258c0,0.025,0.02,0.042,0.026,0.064h-0.568  c0.007-0.023,0.026-0.039,0.026-0.064c0-0.142-0.115-0.258-0.258-0.258s-0.256,0.116-0.256,0.258c0,0.025,0.02,0.042,0.026,0.064  h-0.568c0.007-0.023,0.026-0.039,0.026-0.064c0-0.142-0.113-0.258-0.258-0.258c-0.143,0-0.256,0.116-0.256,0.258  c0,0.025,0.02,0.042,0.026,0.064h-0.567c0.007-0.023,0.027-0.039,0.027-0.064c0-0.083-0.046-0.148-0.108-0.196V23.5  c0.063-0.047,0.108-0.111,0.108-0.195c0-0.084-0.046-0.148-0.108-0.195v-0.74c0.063-0.047,0.108-0.111,0.108-0.195  s-0.046-0.148-0.108-0.196V21.24c0.063-0.047,0.108-0.112,0.108-0.196s-0.046-0.148-0.108-0.195v-0.74  c0.063-0.047,0.108-0.111,0.108-0.195c0-0.083-0.046-0.148-0.108-0.195v-0.42l0.627,0.627c0.007,0.133,0.108,0.236,0.242,0.242  l0.81,0.81c-0.007,0.024-0.027,0.041-0.027,0.067c0,0.142,0.113,0.258,0.256,0.258c0.026,0,0.044-0.021,0.068-0.028l0.762,0.762  c-0.028,0.042-0.057,0.085-0.057,0.139c0,0.142,0.113,0.257,0.256,0.257c0.055,0,0.099-0.029,0.14-0.057l0.737,0.737  c-0.06,0.047-0.104,0.111-0.104,0.193c0,0.142,0.115,0.257,0.258,0.257c0.081,0,0.146-0.044,0.192-0.104l0.753,0.753  c-0.097,0.038-0.174,0.114-0.174,0.224c0,0.025,0.02,0.042,0.026,0.064h-0.568c0.007-0.023,0.026-0.039,0.026-0.064  C46.401,24.293,46.286,24.177,46.146,24.177z M42.178,30.282c0.063-0.047,0.108-0.111,0.108-0.194c0-0.084-0.046-0.148-0.108-0.195  v-0.739c0.063-0.048,0.108-0.112,0.108-0.195c0-0.084-0.046-0.148-0.108-0.196v-0.74c0.063-0.048,0.108-0.112,0.108-0.196  c0-0.083-0.046-0.147-0.108-0.194v-0.739c0.063-0.047,0.108-0.111,0.108-0.195c0-0.083-0.046-0.147-0.108-0.194v-0.74  c0.063-0.047,0.108-0.111,0.108-0.195c0-0.025-0.021-0.043-0.028-0.066h0.569c-0.007,0.023-0.027,0.041-0.027,0.066  c0,0.143,0.113,0.258,0.256,0.258c0.145,0,0.258-0.115,0.258-0.258c0-0.025-0.021-0.043-0.027-0.066h0.57  c-0.007,0.023-0.027,0.041-0.027,0.066c0,0.143,0.113,0.258,0.256,0.258s0.258-0.115,0.258-0.258c0-0.025-0.021-0.043-0.027-0.066  h0.57c-0.007,0.023-0.027,0.041-0.027,0.066c0,0.143,0.113,0.258,0.256,0.258c0.145,0,0.26-0.115,0.26-0.258  c0-0.025-0.021-0.043-0.027-0.066h0.568c-0.007,0.023-0.027,0.041-0.027,0.066c0,0.143,0.115,0.258,0.258,0.258  c0.141,0,0.256-0.115,0.256-0.258c0-0.025-0.021-0.043-0.027-0.066h0.57c-0.007,0.023-0.027,0.041-0.027,0.066  c0,0.109,0.077,0.186,0.173,0.223l-0.753,0.753c-0.047-0.06-0.11-0.103-0.191-0.103c-0.143,0-0.258,0.115-0.258,0.257  c0,0.081,0.043,0.146,0.102,0.193l-0.735,0.735c-0.042-0.027-0.085-0.057-0.14-0.057c-0.143,0-0.256,0.115-0.256,0.257  c0,0.054,0.028,0.097,0.057,0.139l-0.763,0.763c-0.024-0.007-0.041-0.027-0.067-0.027c-0.143,0-0.256,0.116-0.256,0.259  c0,0.025,0.02,0.042,0.026,0.065l-0.812,0.812c-0.13,0.007-0.229,0.108-0.238,0.238l-0.628,0.628V30.282z"></path><circle cx="26.587" cy="4.088" r="0.258"></circle><circle cx="26.587" cy="5.218" r="0.258"></circle><circle cx="27.616" cy="5.218" r="0.258"></circle><circle cx="26.587" cy="6.348" r="0.258"></circle><circle cx="28.646" cy="6.348" r="0.258"></circle><circle cx="27.616" cy="6.348" r="0.258"></circle><circle cx="26.587" cy="7.479" r="0.258"></circle><path d="M29.673,7.737c0.145,0,0.26-0.116,0.26-0.258s-0.115-0.257-0.26-0.257c-0.139,0-0.256,0.115-0.256,0.257  S29.534,7.737,29.673,7.737z"></path><circle cx="28.646" cy="7.479" r="0.258"></circle><circle cx="27.616" cy="7.479" r="0.258"></circle><circle cx="26.587" cy="9.74" r="0.258"></circle><circle cx="38.94" cy="9.74" r="0.258"></circle><circle cx="37.909" cy="9.74" r="0.258"></circle><circle cx="36.88" cy="9.74" r="0.258"></circle><circle cx="35.851" cy="9.74" r="0.258"></circle><circle cx="34.823" cy="9.74" r="0.258"></circle><circle cx="31.733" cy="9.74" r="0.258"></circle><circle cx="30.704" cy="9.74" r="0.258"></circle><path d="M29.673,9.482c-0.139,0-0.256,0.115-0.256,0.257s0.117,0.258,0.256,0.258c0.145,0,0.26-0.116,0.26-0.258  S29.817,9.482,29.673,9.482z"></path><circle cx="28.646" cy="9.74" r="0.258"></circle><circle cx="27.616" cy="9.74" r="0.258"></circle><circle cx="26.587" cy="10.87" r="0.258"></circle><circle cx="37.909" cy="10.87" r="0.258"></circle><circle cx="36.88" cy="10.87" r="0.258"></circle><circle cx="35.851" cy="10.87" r="0.258"></circle><path d="M32.765,11.128c0.141,0,0.256-0.116,0.256-0.258s-0.115-0.257-0.256-0.257c-0.145,0-0.26,0.115-0.26,0.257  S32.62,11.128,32.765,11.128z"></path><circle cx="31.733" cy="10.87" r="0.258"></circle><circle cx="30.704" cy="10.87" r="0.258"></circle><path d="M29.673,10.613c-0.139,0-0.256,0.115-0.256,0.257s0.117,0.258,0.256,0.258c0.145,0,0.26-0.116,0.26-0.258  S29.817,10.613,29.673,10.613z"></path><circle cx="28.646" cy="10.87" r="0.258"></circle><circle cx="27.616" cy="10.87" r="0.258"></circle><circle cx="26.587" cy="12" r="0.258"></circle><circle cx="39.97" cy="12" r="0.258"></circle><circle cx="36.88" cy="12" r="0.258"></circle><circle cx="33.792" cy="12" r="0.258"></circle><path d="M32.765,12.258c0.141,0,0.256-0.115,0.256-0.257s-0.115-0.258-0.256-0.258c-0.145,0-0.26,0.116-0.26,0.258  S32.62,12.258,32.765,12.258z"></path><circle cx="31.733" cy="12" r="0.258"></circle><circle cx="30.704" cy="12" r="0.258"></circle><path d="M29.673,11.743c-0.139,0-0.256,0.116-0.256,0.258s0.117,0.257,0.256,0.257c0.145,0,0.26-0.115,0.26-0.257  S29.817,11.743,29.673,11.743z"></path><circle cx="28.646" cy="12" r="0.258"></circle><circle cx="27.616" cy="12" r="0.258"></circle><circle cx="26.587" cy="13.132" r="0.258"></circle><circle cx="39.97" cy="13.132" r="0.258"></circle><circle cx="38.94" cy="13.132" r="0.258"></circle><circle cx="34.823" cy="13.132" r="0.258"></circle><circle cx="33.792" cy="13.132" r="0.258"></circle><path d="M32.765,13.389c0.141,0,0.256-0.116,0.256-0.258s-0.115-0.257-0.256-0.257c-0.145,0-0.26,0.115-0.26,0.257  S32.62,13.389,32.765,13.389z"></path><circle cx="31.733" cy="13.132" r="0.258"></circle><circle cx="30.704" cy="13.132" r="0.258"></circle><path d="M29.673,12.874c-0.139,0-0.256,0.115-0.256,0.257s0.117,0.258,0.256,0.258c0.145,0,0.26-0.116,0.26-0.258  S29.817,12.874,29.673,12.874z"></path><circle cx="28.646" cy="13.132" r="0.258"></circle><circle cx="27.616" cy="13.132" r="0.258"></circle><circle cx="26.587" cy="14.262" r="0.258"></circle><circle cx="39.97" cy="14.262" r="0.258"></circle><circle cx="38.94" cy="14.262" r="0.258"></circle><circle cx="33.792" cy="14.262" r="0.258"></circle><path d="M32.765,14.52c0.141,0,0.256-0.115,0.256-0.257s-0.115-0.258-0.256-0.258c-0.145,0-0.26,0.116-0.26,0.258  S32.62,14.52,32.765,14.52z"></path><circle cx="31.733" cy="14.262" r="0.258"></circle><circle cx="30.704" cy="14.262" r="0.258"></circle><path d="M29.673,14.004c-0.139,0-0.256,0.116-0.256,0.258s0.117,0.257,0.256,0.257c0.145,0,0.26-0.115,0.26-0.257  S29.817,14.004,29.673,14.004z"></path><circle cx="28.646" cy="14.262" r="0.258"></circle><circle cx="27.616" cy="14.262" r="0.258"></circle><circle cx="26.587" cy="15.393" r="0.258"></circle><circle cx="36.88" cy="15.393" r="0.258"></circle><circle cx="35.851" cy="15.393" r="0.258"></circle><path d="M32.765,15.65c0.141,0,0.256-0.116,0.256-0.258s-0.115-0.257-0.256-0.257c-0.145,0-0.26,0.115-0.26,0.257  S32.62,15.65,32.765,15.65z"></path><circle cx="31.733" cy="15.393" r="0.258"></circle><circle cx="30.704" cy="15.393" r="0.258"></circle><path d="M29.673,15.135c-0.139,0-0.256,0.115-0.256,0.257s0.117,0.258,0.256,0.258c0.145,0,0.26-0.116,0.26-0.258  S29.817,15.135,29.673,15.135z"></path><circle cx="28.646" cy="15.393" r="0.258"></circle><circle cx="27.616" cy="15.393" r="0.258"></circle><circle cx="26.587" cy="16.523" r="0.258"></circle><circle cx="38.94" cy="16.523" r="0.258"></circle><circle cx="37.909" cy="16.523" r="0.258"></circle><circle cx="36.88" cy="16.523" r="0.258"></circle><circle cx="35.851" cy="16.523" r="0.258"></circle><circle cx="34.823" cy="16.523" r="0.258"></circle><circle cx="31.733" cy="16.523" r="0.258"></circle><circle cx="30.704" cy="16.523" r="0.258"></circle><path d="M29.673,16.265c-0.139,0-0.256,0.115-0.256,0.257s0.117,0.258,0.256,0.258c0.145,0,0.26-0.116,0.26-0.258  S29.817,16.265,29.673,16.265z"></path><circle cx="28.646" cy="16.523" r="0.258"></circle><circle cx="27.616" cy="16.523" r="0.258"></circle><circle cx="26.587" cy="17.653" r="0.258"></circle><circle cx="39.97" cy="17.653" r="0.258"></circle><circle cx="38.94" cy="17.653" r="0.258"></circle><circle cx="37.909" cy="17.653" r="0.258"></circle><circle cx="36.88" cy="17.653" r="0.258"></circle><circle cx="35.851" cy="17.653" r="0.258"></circle><circle cx="34.823" cy="17.653" r="0.258"></circle><circle cx="33.792" cy="17.653" r="0.258"></circle><circle cx="30.704" cy="17.653" r="0.258"></circle><path d="M29.673,17.395c-0.139,0-0.256,0.116-0.256,0.258s0.117,0.257,0.256,0.257c0.145,0,0.26-0.115,0.26-0.257  S29.817,17.395,29.673,17.395z"></path><circle cx="28.646" cy="17.653" r="0.258"></circle><circle cx="27.616" cy="17.653" r="0.258"></circle><circle cx="26.587" cy="18.784" r="0.258"></circle><circle cx="39.97" cy="18.784" r="0.258"></circle><circle cx="38.94" cy="18.784" r="0.258"></circle><circle cx="37.909" cy="18.784" r="0.258"></circle><circle cx="36.88" cy="18.784" r="0.258"></circle><circle cx="35.851" cy="18.784" r="0.258"></circle><circle cx="34.823" cy="18.784" r="0.258"></circle><circle cx="33.792" cy="18.784" r="0.258"></circle><path d="M32.765,19.042c0.141,0,0.256-0.116,0.256-0.258s-0.115-0.257-0.256-0.257c-0.145,0-0.26,0.115-0.26,0.257  S32.62,19.042,32.765,19.042z"></path><path d="M29.673,18.526c-0.139,0-0.256,0.115-0.256,0.257s0.117,0.258,0.256,0.258c0.145,0,0.26-0.116,0.26-0.258  S29.817,18.526,29.673,18.526z"></path><circle cx="28.646" cy="18.784" r="0.258"></circle><circle cx="27.616" cy="18.784" r="0.258"></circle><circle cx="26.587" cy="19.914" r="0.258"></circle><circle cx="39.97" cy="19.914" r="0.258"></circle><circle cx="38.94" cy="19.914" r="0.258"></circle><circle cx="37.909" cy="19.914" r="0.258"></circle><circle cx="36.88" cy="19.914" r="0.258"></circle><circle cx="35.851" cy="19.914" r="0.258"></circle><circle cx="34.823" cy="19.914" r="0.258"></circle><circle cx="33.792" cy="19.914" r="0.258"></circle><path d="M32.765,20.171c0.141,0,0.256-0.115,0.256-0.257c0-0.142-0.115-0.258-0.256-0.258c-0.145,0-0.26,0.116-0.26,0.258  C32.505,20.057,32.62,20.171,32.765,20.171z"></path><circle cx="31.733" cy="19.914" r="0.258"></circle><circle cx="28.646" cy="19.914" r="0.258"></circle><circle cx="27.616" cy="19.914" r="0.258"></circle><circle cx="26.587" cy="21.045" r="0.258"></circle><path d="M43.056,20.787c-0.143,0-0.256,0.115-0.256,0.257s0.113,0.258,0.256,0.258c0.145,0,0.258-0.116,0.258-0.258  S43.2,20.787,43.056,20.787z"></path><circle cx="39.97" cy="21.045" r="0.258"></circle><circle cx="38.94" cy="21.045" r="0.258"></circle><circle cx="37.909" cy="21.045" r="0.258"></circle><circle cx="36.88" cy="21.045" r="0.258"></circle><circle cx="35.851" cy="21.045" r="0.258"></circle><circle cx="34.823" cy="21.045" r="0.258"></circle><circle cx="33.792" cy="21.045" r="0.258"></circle><path d="M32.765,21.303c0.141,0,0.256-0.116,0.256-0.258s-0.115-0.257-0.256-0.257c-0.145,0-0.26,0.115-0.26,0.257  S32.62,21.303,32.765,21.303z"></path><circle cx="31.733" cy="21.045" r="0.258"></circle><circle cx="30.704" cy="21.045" r="0.258"></circle><circle cx="27.616" cy="21.045" r="0.258"></circle><path d="M45.114,23.048c-0.143,0-0.256,0.115-0.256,0.257c0,0.142,0.113,0.257,0.256,0.257c0.145,0,0.26-0.115,0.26-0.257  C45.374,23.163,45.259,23.048,45.114,23.048z"></path><circle cx="44.085" cy="23.305" r="0.257"></circle><path d="M43.056,23.048c-0.143,0-0.256,0.115-0.256,0.257c0,0.142,0.113,0.257,0.256,0.257c0.145,0,0.258-0.115,0.258-0.257  C43.313,23.163,43.2,23.048,43.056,23.048z"></path><circle cx="39.97" cy="23.305" r="0.257"></circle><circle cx="38.94" cy="23.305" r="0.257"></circle><circle cx="37.909" cy="23.305" r="0.257"></circle><circle cx="36.88" cy="23.305" r="0.257"></circle><circle cx="35.851" cy="23.305" r="0.257"></circle><circle cx="34.823" cy="23.305" r="0.257"></circle><circle cx="33.792" cy="23.305" r="0.257"></circle><path d="M32.765,23.563c0.141,0,0.256-0.115,0.256-0.257c0-0.143-0.115-0.257-0.256-0.257c-0.145,0-0.26,0.115-0.26,0.257  C32.505,23.448,32.62,23.563,32.765,23.563z"></path><circle cx="31.733" cy="23.305" r="0.257"></circle><circle cx="30.704" cy="23.305" r="0.257"></circle><path d="M29.673,23.563c0.145,0,0.26-0.115,0.26-0.257c0-0.143-0.115-0.257-0.26-0.257c-0.139,0-0.256,0.115-0.256,0.257  C29.417,23.448,29.534,23.563,29.673,23.563z"></path><circle cx="28.646" cy="23.305" r="0.257"></circle><circle cx="45.114" cy="26.697" r="0.257"></circle><circle cx="44.085" cy="26.697" r="0.257"></circle><circle cx="43.056" cy="26.697" r="0.257"></circle><circle cx="39.97" cy="26.697" r="0.257"></circle><circle cx="38.94" cy="26.697" r="0.257"></circle><circle cx="37.909" cy="26.697" r="0.257"></circle><circle cx="36.88" cy="26.697" r="0.257"></circle><circle cx="35.851" cy="26.697" r="0.257"></circle><path d="M34.823,26.439c-0.143,0-0.26,0.115-0.26,0.257c0,0.143,0.117,0.258,0.26,0.258c0.141,0,0.256-0.115,0.256-0.258  C35.079,26.555,34.964,26.439,34.823,26.439z"></path><circle cx="33.792" cy="26.697" r="0.257"></circle><path d="M32.765,26.439c-0.145,0-0.26,0.115-0.26,0.257c0,0.143,0.115,0.258,0.26,0.258c0.141,0,0.256-0.115,0.256-0.258  C33.021,26.555,32.905,26.439,32.765,26.439z"></path><circle cx="31.733" cy="26.697" r="0.257"></circle><circle cx="30.704" cy="26.697" r="0.257"></circle><path d="M29.673,26.439c-0.139,0-0.256,0.115-0.256,0.257c0,0.143,0.117,0.258,0.256,0.258c0.145,0,0.26-0.115,0.26-0.258  C29.933,26.555,29.817,26.439,29.673,26.439z"></path><circle cx="28.646" cy="26.697" r="0.257"></circle><circle cx="26.587" cy="27.826" r="0.258"></circle><circle cx="44.085" cy="27.826" r="0.258"></circle><circle cx="43.056" cy="27.826" r="0.258"></circle><circle cx="39.97" cy="27.826" r="0.258"></circle><circle cx="38.94" cy="27.826" r="0.258"></circle><circle cx="37.909" cy="27.826" r="0.258"></circle><circle cx="36.88" cy="27.826" r="0.258"></circle><circle cx="35.851" cy="27.826" r="0.258"></circle><path d="M34.823,27.568c-0.143,0-0.26,0.115-0.26,0.257c0,0.143,0.117,0.259,0.26,0.259c0.141,0,0.256-0.116,0.256-0.259  C35.079,27.684,34.964,27.568,34.823,27.568z"></path><circle cx="33.792" cy="27.826" r="0.258"></circle><path d="M32.765,27.568c-0.145,0-0.26,0.115-0.26,0.257c0,0.143,0.115,0.259,0.26,0.259c0.141,0,0.256-0.116,0.256-0.259  C33.021,27.684,32.905,27.568,32.765,27.568z"></path><circle cx="31.733" cy="27.826" r="0.258"></circle><circle cx="30.704" cy="27.826" r="0.258"></circle><path d="M29.673,27.568c-0.139,0-0.256,0.115-0.256,0.257c0,0.143,0.117,0.259,0.256,0.259c0.145,0,0.26-0.116,0.26-0.259  C29.933,27.684,29.817,27.568,29.673,27.568z"></path><circle cx="26.587" cy="28.958" r="0.258"></circle><circle cx="43.056" cy="28.958" r="0.258"></circle><circle cx="39.97" cy="28.958" r="0.258"></circle><circle cx="38.94" cy="28.958" r="0.258"></circle><circle cx="37.909" cy="28.958" r="0.258"></circle><circle cx="36.88" cy="28.958" r="0.258"></circle><circle cx="35.851" cy="28.958" r="0.258"></circle><path d="M34.823,28.699c-0.143,0-0.26,0.116-0.26,0.259c0,0.142,0.117,0.258,0.26,0.258c0.141,0,0.256-0.116,0.256-0.258  C35.079,28.815,34.964,28.699,34.823,28.699z"></path><circle cx="33.792" cy="28.958" r="0.258"></circle><path d="M32.765,28.699c-0.145,0-0.26,0.116-0.26,0.259c0,0.142,0.115,0.258,0.26,0.258c0.141,0,0.256-0.116,0.256-0.258  C33.021,28.815,32.905,28.699,32.765,28.699z"></path><circle cx="31.733" cy="28.958" r="0.258"></circle><circle cx="30.704" cy="28.958" r="0.258"></circle><circle cx="27.616" cy="28.958" r="0.258"></circle><circle cx="26.587" cy="30.087" r="0.257"></circle><circle cx="39.97" cy="30.087" r="0.257"></circle><circle cx="38.94" cy="30.087" r="0.257"></circle><circle cx="37.909" cy="30.087" r="0.257"></circle><circle cx="36.88" cy="30.087" r="0.257"></circle><circle cx="35.851" cy="30.087" r="0.257"></circle><path d="M34.823,29.83c-0.143,0-0.26,0.115-0.26,0.258c0,0.142,0.117,0.257,0.26,0.257c0.141,0,0.256-0.115,0.256-0.257  C35.079,29.945,34.964,29.83,34.823,29.83z"></path><circle cx="33.792" cy="30.087" r="0.257"></circle><path d="M32.765,29.83c-0.145,0-0.26,0.115-0.26,0.258c0,0.142,0.115,0.257,0.26,0.257c0.141,0,0.256-0.115,0.256-0.257  C33.021,29.945,32.905,29.83,32.765,29.83z"></path><circle cx="31.733" cy="30.087" r="0.257"></circle><circle cx="28.646" cy="30.087" r="0.257"></circle><circle cx="27.616" cy="30.087" r="0.257"></circle><circle cx="26.587" cy="31.217" r="0.257"></circle><circle cx="39.97" cy="31.217" r="0.257"></circle><circle cx="38.94" cy="31.217" r="0.257"></circle><circle cx="37.909" cy="31.217" r="0.257"></circle><circle cx="36.88" cy="31.217" r="0.257"></circle><circle cx="35.851" cy="31.217" r="0.257"></circle><path d="M34.823,30.96c-0.143,0-0.26,0.114-0.26,0.257c0,0.142,0.117,0.258,0.26,0.258c0.141,0,0.256-0.116,0.256-0.258  C35.079,31.074,34.964,30.96,34.823,30.96z"></path><circle cx="33.792" cy="31.217" r="0.257"></circle><path d="M32.765,30.96c-0.145,0-0.26,0.114-0.26,0.257c0,0.142,0.115,0.258,0.26,0.258c0.141,0,0.256-0.116,0.256-0.258  C33.021,31.074,32.905,30.96,32.765,30.96z"></path><path d="M29.673,30.96c-0.139,0-0.256,0.114-0.256,0.257c0,0.142,0.117,0.258,0.256,0.258c0.145,0,0.26-0.116,0.26-0.258  C29.933,31.074,29.817,30.96,29.673,30.96z"></path><circle cx="28.646" cy="31.217" r="0.257"></circle><circle cx="27.616" cy="31.217" r="0.257"></circle><circle cx="26.587" cy="32.349" r="0.258"></circle><circle cx="39.97" cy="32.349" r="0.258"></circle><circle cx="38.94" cy="32.349" r="0.258"></circle><circle cx="37.909" cy="32.349" r="0.258"></circle><circle cx="36.88" cy="32.349" r="0.258"></circle><circle cx="35.851" cy="32.349" r="0.258"></circle><path d="M34.823,32.091c-0.143,0-0.26,0.116-0.26,0.258c0,0.143,0.117,0.259,0.26,0.259c0.141,0,0.256-0.116,0.256-0.259  C35.079,32.207,34.964,32.091,34.823,32.091z"></path><circle cx="33.792" cy="32.349" r="0.258"></circle><circle cx="30.704" cy="32.349" r="0.258"></circle><path d="M29.673,32.091c-0.139,0-0.256,0.116-0.256,0.258c0,0.143,0.117,0.259,0.256,0.259c0.145,0,0.26-0.116,0.26-0.259  C29.933,32.207,29.817,32.091,29.673,32.091z"></path><circle cx="28.646" cy="32.349" r="0.258"></circle><circle cx="27.616" cy="32.349" r="0.258"></circle><circle cx="26.587" cy="33.479" r="0.258"></circle><circle cx="38.94" cy="33.479" r="0.258"></circle><circle cx="37.909" cy="33.479" r="0.258"></circle><circle cx="36.88" cy="33.479" r="0.258"></circle><circle cx="35.851" cy="33.479" r="0.258"></circle><path d="M34.823,33.222c-0.143,0-0.26,0.116-0.26,0.258c0,0.143,0.117,0.258,0.26,0.258c0.141,0,0.256-0.115,0.256-0.258  C35.079,33.338,34.964,33.222,34.823,33.222z"></path><circle cx="31.733" cy="33.479" r="0.258"></circle><circle cx="30.704" cy="33.479" r="0.258"></circle><path d="M29.673,33.222c-0.139,0-0.256,0.116-0.256,0.258c0,0.143,0.117,0.258,0.256,0.258c0.145,0,0.26-0.115,0.26-0.258  C29.933,33.338,29.817,33.222,29.673,33.222z"></path><circle cx="28.646" cy="33.479" r="0.258"></circle><circle cx="27.616" cy="33.479" r="0.258"></circle><circle cx="26.587" cy="34.61" r="0.257"></circle><circle cx="36.88" cy="34.61" r="0.257"></circle><circle cx="35.851" cy="34.61" r="0.257"></circle><path d="M32.765,34.867c0.141,0,0.256-0.115,0.256-0.257c0-0.143-0.115-0.258-0.256-0.258c-0.145,0-0.26,0.115-0.26,0.258  C32.505,34.752,32.62,34.867,32.765,34.867z"></path><circle cx="31.733" cy="34.61" r="0.257"></circle><circle cx="30.704" cy="34.61" r="0.257"></circle><path d="M29.673,34.353c-0.139,0-0.256,0.115-0.256,0.258c0,0.142,0.117,0.257,0.256,0.257c0.145,0,0.26-0.115,0.26-0.257  C29.933,34.468,29.817,34.353,29.673,34.353z"></path><circle cx="28.646" cy="34.61" r="0.257"></circle><circle cx="27.616" cy="34.61" r="0.257"></circle><circle cx="26.587" cy="35.74" r="0.258"></circle><circle cx="39.97" cy="35.74" r="0.258"></circle><circle cx="38.94" cy="35.74" r="0.258"></circle><circle cx="33.792" cy="35.74" r="0.258"></circle><path d="M32.765,35.998c0.141,0,0.256-0.116,0.256-0.258c0-0.143-0.115-0.259-0.256-0.259c-0.145,0-0.26,0.116-0.26,0.259  C32.505,35.882,32.62,35.998,32.765,35.998z"></path><circle cx="31.733" cy="35.74" r="0.258"></circle><circle cx="30.704" cy="35.74" r="0.258"></circle><path d="M29.673,35.481c-0.139,0-0.256,0.116-0.256,0.259c0,0.142,0.117,0.258,0.256,0.258c0.145,0,0.26-0.116,0.26-0.258  C29.933,35.598,29.817,35.481,29.673,35.481z"></path><circle cx="28.646" cy="35.74" r="0.258"></circle><circle cx="27.616" cy="35.74" r="0.258"></circle><circle cx="26.587" cy="36.87" r="0.258"></circle><circle cx="39.97" cy="36.87" r="0.258"></circle><circle cx="38.94" cy="36.87" r="0.258"></circle><circle cx="34.823" cy="36.87" r="0.258"></circle><circle cx="33.792" cy="36.87" r="0.258"></circle><path d="M32.765,37.128c0.141,0,0.256-0.115,0.256-0.257c0-0.143-0.115-0.259-0.256-0.259c-0.145,0-0.26,0.116-0.26,0.259  C32.505,37.013,32.62,37.128,32.765,37.128z"></path><circle cx="31.733" cy="36.87" r="0.258"></circle><circle cx="30.704" cy="36.87" r="0.258"></circle><path d="M29.673,36.612c-0.139,0-0.256,0.116-0.256,0.259c0,0.142,0.117,0.257,0.256,0.257c0.145,0,0.26-0.115,0.26-0.257  C29.933,36.729,29.817,36.612,29.673,36.612z"></path><circle cx="28.646" cy="36.87" r="0.258"></circle><circle cx="27.616" cy="36.87" r="0.258"></circle><circle cx="26.587" cy="38.001" r="0.257"></circle><circle cx="39.97" cy="38.001" r="0.257"></circle><circle cx="36.88" cy="38.001" r="0.256"></circle><circle cx="33.792" cy="38.001" r="0.257"></circle><path d="M32.765,38.258c0.141,0,0.256-0.114,0.256-0.257c0-0.142-0.115-0.257-0.256-0.257c-0.145,0-0.26,0.115-0.26,0.257  C32.505,38.144,32.62,38.258,32.765,38.258z"></path><circle cx="31.733" cy="38.001" r="0.257"></circle><circle cx="30.704" cy="38.001" r="0.257"></circle><path d="M29.673,37.744c-0.139,0-0.256,0.115-0.256,0.257c0,0.143,0.117,0.257,0.256,0.257c0.145,0,0.26-0.114,0.26-0.257  C29.933,37.859,29.817,37.744,29.673,37.744z"></path><circle cx="28.646" cy="38.001" r="0.257"></circle><circle cx="27.616" cy="38.001" r="0.257"></circle><circle cx="26.587" cy="39.131" r="0.258"></circle><circle cx="37.909" cy="39.131" r="0.258"></circle><circle cx="36.88" cy="39.131" r="0.258"></circle><circle cx="35.851" cy="39.131" r="0.258"></circle><path d="M32.765,39.389c0.141,0,0.256-0.116,0.256-0.259c0-0.142-0.115-0.257-0.256-0.257c-0.145,0-0.26,0.115-0.26,0.257  C32.505,39.272,32.62,39.389,32.765,39.389z"></path><circle cx="31.733" cy="39.131" r="0.258"></circle><circle cx="30.704" cy="39.131" r="0.258"></circle><path d="M29.673,38.873c-0.139,0-0.256,0.115-0.256,0.257c0,0.143,0.117,0.259,0.256,0.259c0.145,0,0.26-0.116,0.26-0.259  C29.933,38.988,29.817,38.873,29.673,38.873z"></path><circle cx="28.646" cy="39.131" r="0.258"></circle><circle cx="27.616" cy="39.131" r="0.258"></circle><circle cx="26.587" cy="22.175" r="0.258"></circle><circle cx="44.085" cy="22.175" r="0.258"></circle><path d="M43.056,21.917c-0.143,0-0.256,0.116-0.256,0.258s0.113,0.257,0.256,0.257c0.145,0,0.258-0.115,0.258-0.257  S43.2,21.917,43.056,21.917z"></path><circle cx="39.97" cy="22.175" r="0.258"></circle><circle cx="38.94" cy="22.175" r="0.258"></circle><circle cx="37.909" cy="22.175" r="0.258"></circle><circle cx="36.88" cy="22.175" r="0.258"></circle><circle cx="35.851" cy="22.175" r="0.258"></circle><circle cx="34.823" cy="22.175" r="0.258"></circle><circle cx="33.792" cy="22.175" r="0.258"></circle><path d="M32.765,22.433c0.141,0,0.256-0.115,0.256-0.257s-0.115-0.258-0.256-0.258c-0.145,0-0.26,0.116-0.26,0.258  S32.62,22.433,32.765,22.433z"></path><circle cx="31.733" cy="22.175" r="0.258"></circle><circle cx="30.704" cy="22.175" r="0.258"></circle><path d="M29.673,22.433c0.145,0,0.26-0.115,0.26-0.257s-0.115-0.258-0.26-0.258c-0.139,0-0.256,0.116-0.256,0.258  S29.534,22.433,29.673,22.433z"></path><circle cx="26.587" cy="40.261" r="0.257"></circle><circle cx="38.94" cy="40.261" r="0.257"></circle><circle cx="37.909" cy="40.261" r="0.257"></circle><circle cx="36.88" cy="40.261" r="0.257"></circle><circle cx="35.851" cy="40.261" r="0.257"></circle><path d="M34.823,40.004c-0.143,0-0.26,0.115-0.26,0.257c0,0.143,0.117,0.258,0.26,0.258c0.141,0,0.256-0.115,0.256-0.258  C35.079,40.119,34.964,40.004,34.823,40.004z"></path><circle cx="31.733" cy="40.261" r="0.257"></circle><circle cx="30.704" cy="40.261" r="0.257"></circle><path d="M29.673,40.004c-0.139,0-0.256,0.115-0.256,0.257c0,0.143,0.117,0.258,0.256,0.258c0.145,0,0.26-0.115,0.26-0.258  C29.933,40.119,29.817,40.004,29.673,40.004z"></path><circle cx="28.646" cy="40.261" r="0.257"></circle><circle cx="27.616" cy="40.261" r="0.257"></circle><circle cx="26.587" cy="42.521" r="0.258"></circle><path d="M29.673,42.779c0.145,0,0.26-0.115,0.26-0.257c0-0.143-0.115-0.259-0.26-0.259c-0.139,0-0.256,0.116-0.256,0.259  C29.417,42.664,29.534,42.779,29.673,42.779z"></path><circle cx="28.646" cy="42.521" r="0.258"></circle><circle cx="27.616" cy="42.521" r="0.258"></circle><circle cx="26.587" cy="43.652" r="0.257"></circle><circle cx="28.646" cy="43.652" r="0.257"></circle><circle cx="27.616" cy="43.652" r="0.257"></circle><circle cx="26.587" cy="44.782" r="0.257"></circle><circle cx="27.616" cy="44.782" r="0.257"></circle><circle cx="26.587" cy="45.913" r="0.257"></circle><circle cx="23.417" cy="4.088" r="0.258"></circle><circle cx="23.417" cy="5.218" r="0.258"></circle><circle cx="22.385" cy="5.218" r="0.258"></circle><circle cx="23.417" cy="6.348" r="0.258"></circle><circle cx="22.385" cy="6.348" r="0.258"></circle><circle cx="21.356" cy="6.348" r="0.258"></circle><circle cx="23.417" cy="7.479" r="0.258"></circle><circle cx="22.385" cy="7.479" r="0.258"></circle><circle cx="21.356" cy="7.479" r="0.258"></circle><path d="M20.326,7.222c-0.141,0-0.256,0.115-0.256,0.257s0.115,0.258,0.256,0.258c0.145,0,0.26-0.116,0.26-0.258  S20.47,7.222,20.326,7.222z"></path><circle cx="23.417" cy="9.74" r="0.258"></circle><circle cx="22.385" cy="9.74" r="0.258"></circle><circle cx="21.356" cy="9.74" r="0.258"></circle><path d="M20.326,9.998c0.145,0,0.26-0.116,0.26-0.258s-0.115-0.257-0.26-0.257c-0.141,0-0.256,0.115-0.256,0.257  S20.185,9.998,20.326,9.998z"></path><circle cx="19.296" cy="9.74" r="0.258"></circle><circle cx="18.268" cy="9.74" r="0.258"></circle><circle cx="15.18" cy="9.74" r="0.258"></circle><circle cx="14.151" cy="9.74" r="0.258"></circle><circle cx="13.122" cy="9.74" r="0.258"></circle><circle cx="12.092" cy="9.74" r="0.258"></circle><circle cx="11.062" cy="9.74" r="0.258"></circle><circle cx="23.417" cy="10.87" r="0.258"></circle><circle cx="22.385" cy="10.87" r="0.258"></circle><circle cx="21.356" cy="10.87" r="0.258"></circle><path d="M20.326,11.128c0.145,0,0.26-0.116,0.26-0.258s-0.115-0.257-0.26-0.257c-0.141,0-0.256,0.115-0.256,0.257  S20.185,11.128,20.326,11.128z"></path><circle cx="19.296" cy="10.87" r="0.258"></circle><circle cx="18.268" cy="10.87" r="0.258"></circle><circle cx="17.239" cy="10.87" r="0.258"></circle><circle cx="14.151" cy="10.87" r="0.258"></circle><circle cx="13.122" cy="10.87" r="0.258"></circle><circle cx="12.092" cy="10.87" r="0.258"></circle><circle cx="23.417" cy="12" r="0.258"></circle><circle cx="22.385" cy="12" r="0.258"></circle><circle cx="21.356" cy="12" r="0.258"></circle><path d="M20.326,12.258c0.145,0,0.26-0.115,0.26-0.257s-0.115-0.258-0.26-0.258c-0.141,0-0.256,0.116-0.256,0.258  S20.185,12.258,20.326,12.258z"></path><circle cx="19.296" cy="12" r="0.258"></circle><circle cx="18.268" cy="12" r="0.258"></circle><circle cx="17.239" cy="12" r="0.258"></circle><path d="M16.21,11.743c-0.143,0-0.26,0.116-0.26,0.258s0.117,0.257,0.26,0.257c0.141,0,0.256-0.115,0.256-0.257  S16.351,11.743,16.21,11.743z"></path><circle cx="13.121" cy="12.001" r="0.257"></circle><circle cx="10.034" cy="12" r="0.258"></circle><circle cx="23.417" cy="13.132" r="0.258"></circle><circle cx="22.385" cy="13.132" r="0.258"></circle><circle cx="21.356" cy="13.132" r="0.258"></circle><path d="M20.326,13.389c0.145,0,0.26-0.116,0.26-0.258s-0.115-0.257-0.26-0.257c-0.141,0-0.256,0.115-0.256,0.257  S20.185,13.389,20.326,13.389z"></path><circle cx="19.296" cy="13.132" r="0.258"></circle><circle cx="18.268" cy="13.132" r="0.258"></circle><circle cx="17.239" cy="13.132" r="0.258"></circle><path d="M16.21,12.874c-0.143,0-0.26,0.115-0.26,0.257s0.117,0.258,0.26,0.258c0.141,0,0.256-0.116,0.256-0.258  S16.351,12.874,16.21,12.874z"></path><circle cx="15.18" cy="13.132" r="0.258"></circle><circle cx="11.062" cy="13.132" r="0.258"></circle><circle cx="10.034" cy="13.132" r="0.258"></circle><circle cx="23.417" cy="14.262" r="0.258"></circle><circle cx="22.385" cy="14.262" r="0.258"></circle><circle cx="21.356" cy="14.262" r="0.258"></circle><path d="M20.326,14.52c0.145,0,0.26-0.115,0.26-0.257s-0.115-0.258-0.26-0.258c-0.141,0-0.256,0.116-0.256,0.258  S20.185,14.52,20.326,14.52z"></path><circle cx="19.296" cy="14.262" r="0.258"></circle><circle cx="18.268" cy="14.262" r="0.258"></circle><circle cx="17.239" cy="14.262" r="0.258"></circle><path d="M16.21,14.004c-0.143,0-0.26,0.116-0.26,0.258s0.117,0.257,0.26,0.257c0.141,0,0.256-0.115,0.256-0.257  S16.351,14.004,16.21,14.004z"></path><circle cx="11.062" cy="14.262" r="0.258"></circle><circle cx="10.034" cy="14.262" r="0.258"></circle><circle cx="23.417" cy="15.393" r="0.258"></circle><circle cx="22.385" cy="15.393" r="0.258"></circle><circle cx="21.356" cy="15.393" r="0.258"></circle><path d="M20.326,15.65c0.145,0,0.26-0.116,0.26-0.258s-0.115-0.257-0.26-0.257c-0.141,0-0.256,0.115-0.256,0.257  S20.185,15.65,20.326,15.65z"></path><circle cx="19.296" cy="15.393" r="0.258"></circle><circle cx="18.268" cy="15.393" r="0.258"></circle><circle cx="17.239" cy="15.393" r="0.258"></circle><circle cx="14.151" cy="15.393" r="0.258"></circle><circle cx="13.122" cy="15.393" r="0.258"></circle><circle cx="23.417" cy="16.523" r="0.258"></circle><circle cx="22.385" cy="16.523" r="0.258"></circle><circle cx="21.356" cy="16.523" r="0.258"></circle><path d="M20.326,16.78c0.145,0,0.26-0.116,0.26-0.258s-0.115-0.257-0.26-0.257c-0.141,0-0.256,0.115-0.256,0.257  S20.185,16.78,20.326,16.78z"></path><circle cx="19.296" cy="16.523" r="0.258"></circle><circle cx="18.268" cy="16.523" r="0.258"></circle><circle cx="15.18" cy="16.523" r="0.258"></circle><circle cx="14.151" cy="16.523" r="0.258"></circle><circle cx="13.122" cy="16.523" r="0.258"></circle><circle cx="12.092" cy="16.523" r="0.258"></circle><circle cx="11.062" cy="16.523" r="0.258"></circle><circle cx="23.417" cy="17.653" r="0.258"></circle><circle cx="22.385" cy="17.653" r="0.258"></circle><circle cx="21.356" cy="17.653" r="0.258"></circle><path d="M20.326,17.911c0.145,0,0.26-0.115,0.26-0.257s-0.115-0.258-0.26-0.258c-0.141,0-0.256,0.116-0.256,0.258  S20.185,17.911,20.326,17.911z"></path><circle cx="19.296" cy="17.653" r="0.258"></circle><circle cx="16.21" cy="17.653" r="0.258"></circle><circle cx="15.18" cy="17.653" r="0.258"></circle><circle cx="14.151" cy="17.653" r="0.258"></circle><circle cx="13.122" cy="17.653" r="0.258"></circle><circle cx="12.092" cy="17.653" r="0.258"></circle><circle cx="11.062" cy="17.653" r="0.258"></circle><circle cx="10.034" cy="17.653" r="0.258"></circle><circle cx="23.417" cy="18.784" r="0.258"></circle><circle cx="22.385" cy="18.784" r="0.258"></circle><circle cx="21.356" cy="18.784" r="0.258"></circle><path d="M20.326,19.042c0.145,0,0.26-0.116,0.26-0.258s-0.115-0.257-0.26-0.257c-0.141,0-0.256,0.115-0.256,0.257  S20.185,19.042,20.326,19.042z"></path><circle cx="17.239" cy="18.784" r="0.258"></circle><circle cx="16.21" cy="18.784" r="0.258"></circle><circle cx="15.18" cy="18.784" r="0.258"></circle><circle cx="14.151" cy="18.784" r="0.258"></circle><circle cx="13.122" cy="18.784" r="0.258"></circle><circle cx="12.092" cy="18.784" r="0.258"></circle><circle cx="11.062" cy="18.784" r="0.258"></circle><circle cx="10.034" cy="18.784" r="0.258"></circle><circle cx="23.417" cy="19.914" r="0.258"></circle><circle cx="22.385" cy="19.914" r="0.258"></circle><circle cx="21.356" cy="19.914" r="0.258"></circle><circle cx="18.268" cy="19.914" r="0.258"></circle><circle cx="17.239" cy="19.914" r="0.258"></circle><circle cx="16.21" cy="19.914" r="0.258"></circle><circle cx="15.18" cy="19.914" r="0.258"></circle><circle cx="14.151" cy="19.914" r="0.258"></circle><circle cx="13.122" cy="19.914" r="0.258"></circle><circle cx="12.092" cy="19.914" r="0.258"></circle><circle cx="11.062" cy="19.914" r="0.258"></circle><circle cx="10.034" cy="19.914" r="0.258"></circle><circle cx="23.417" cy="21.045" r="0.258"></circle><circle cx="22.385" cy="21.045" r="0.258"></circle><circle cx="19.296" cy="21.045" r="0.258"></circle><circle cx="18.268" cy="21.045" r="0.258"></circle><circle cx="17.239" cy="21.045" r="0.258"></circle><circle cx="16.21" cy="21.045" r="0.258"></circle><circle cx="15.18" cy="21.045" r="0.258"></circle><circle cx="14.151" cy="21.045" r="0.258"></circle><circle cx="13.122" cy="21.045" r="0.258"></circle><circle cx="12.092" cy="21.045" r="0.258"></circle><circle cx="11.062" cy="21.045" r="0.258"></circle><circle cx="10.034" cy="21.045" r="0.258"></circle><circle cx="6.946" cy="21.045" r="0.258"></circle><circle cx="21.356" cy="23.305" r="0.257"></circle><path d="M20.326,23.563c0.145,0,0.26-0.115,0.26-0.257c0-0.143-0.115-0.257-0.26-0.257c-0.141,0-0.256,0.115-0.256,0.257  C20.07,23.448,20.185,23.563,20.326,23.563z"></path><circle cx="19.296" cy="23.305" r="0.257"></circle><circle cx="18.268" cy="23.305" r="0.257"></circle><circle cx="17.239" cy="23.305" r="0.257"></circle><circle cx="16.21" cy="23.305" r="0.257"></circle><circle cx="15.18" cy="23.305" r="0.257"></circle><circle cx="14.151" cy="23.305" r="0.257"></circle><circle cx="13.122" cy="23.305" r="0.257"></circle><circle cx="12.092" cy="23.305" r="0.257"></circle><circle cx="11.062" cy="23.305" r="0.257"></circle><circle cx="10.034" cy="23.305" r="0.257"></circle><circle cx="6.946" cy="23.305" r="0.257"></circle><circle cx="5.916" cy="23.305" r="0.257"></circle><circle cx="4.885" cy="23.305" r="0.257"></circle><circle cx="21.356" cy="26.697" r="0.257"></circle><path d="M20.326,26.439c-0.141,0-0.256,0.115-0.256,0.257c0,0.143,0.115,0.258,0.256,0.258c0.145,0,0.26-0.115,0.26-0.258  C20.585,26.555,20.47,26.439,20.326,26.439z"></path><circle cx="19.296" cy="26.697" r="0.257"></circle><circle cx="18.268" cy="26.697" r="0.257"></circle><circle cx="17.239" cy="26.697" r="0.257"></circle><path d="M16.21,26.439c-0.143,0-0.26,0.115-0.26,0.257c0,0.143,0.117,0.258,0.26,0.258c0.141,0,0.256-0.115,0.256-0.258  C16.466,26.555,16.351,26.439,16.21,26.439z"></path><circle cx="15.18" cy="26.697" r="0.257"></circle><circle cx="14.151" cy="26.697" r="0.257"></circle><circle cx="13.122" cy="26.697" r="0.257"></circle><circle cx="12.092" cy="26.697" r="0.257"></circle><circle cx="11.062" cy="26.697" r="0.257"></circle><circle cx="10.034" cy="26.697" r="0.257"></circle><circle cx="6.946" cy="26.697" r="0.257"></circle><circle cx="5.916" cy="26.697" r="0.257"></circle><circle cx="4.885" cy="26.697" r="0.257"></circle><circle cx="23.417" cy="27.826" r="0.258"></circle><path d="M20.326,27.568c-0.141,0-0.256,0.115-0.256,0.257c0,0.143,0.115,0.259,0.256,0.259c0.145,0,0.26-0.116,0.26-0.259  C20.585,27.684,20.47,27.568,20.326,27.568z"></path><circle cx="19.296" cy="27.826" r="0.258"></circle><circle cx="18.268" cy="27.826" r="0.258"></circle><circle cx="17.239" cy="27.826" r="0.258"></circle><path d="M16.21,27.568c-0.143,0-0.26,0.115-0.26,0.257c0,0.143,0.117,0.259,0.26,0.259c0.141,0,0.256-0.116,0.256-0.259  C16.466,27.684,16.351,27.568,16.21,27.568z"></path><circle cx="15.18" cy="27.826" r="0.258"></circle><circle cx="14.151" cy="27.826" r="0.258"></circle><circle cx="13.122" cy="27.826" r="0.258"></circle><circle cx="12.092" cy="27.826" r="0.258"></circle><circle cx="11.062" cy="27.826" r="0.258"></circle><circle cx="10.034" cy="27.826" r="0.258"></circle><circle cx="6.946" cy="27.826" r="0.258"></circle><circle cx="5.916" cy="27.826" r="0.258"></circle><circle cx="23.417" cy="28.958" r="0.258"></circle><circle cx="22.385" cy="28.958" r="0.258"></circle><circle cx="19.296" cy="28.958" r="0.258"></circle><circle cx="18.268" cy="28.958" r="0.258"></circle><circle cx="17.239" cy="28.958" r="0.258"></circle><path d="M16.21,28.699c-0.143,0-0.26,0.116-0.26,0.259c0,0.142,0.117,0.258,0.26,0.258c0.141,0,0.256-0.116,0.256-0.258  C16.466,28.815,16.351,28.699,16.21,28.699z"></path><circle cx="15.18" cy="28.958" r="0.258"></circle><circle cx="14.151" cy="28.958" r="0.258"></circle><circle cx="13.122" cy="28.958" r="0.258"></circle><circle cx="12.092" cy="28.958" r="0.258"></circle><circle cx="11.062" cy="28.958" r="0.258"></circle><circle cx="10.034" cy="28.958" r="0.258"></circle><circle cx="6.946" cy="28.958" r="0.258"></circle><circle cx="23.417" cy="30.087" r="0.257"></circle><circle cx="22.385" cy="30.087" r="0.257"></circle><circle cx="21.356" cy="30.087" r="0.257"></circle><circle cx="18.268" cy="30.087" r="0.257"></circle><circle cx="17.239" cy="30.087" r="0.257"></circle><path d="M16.21,29.83c-0.143,0-0.26,0.115-0.26,0.258c0,0.142,0.117,0.257,0.26,0.257c0.141,0,0.256-0.115,0.256-0.257  C16.466,29.945,16.351,29.83,16.21,29.83z"></path><circle cx="15.18" cy="30.087" r="0.257"></circle><circle cx="14.151" cy="30.087" r="0.257"></circle><circle cx="13.122" cy="30.087" r="0.257"></circle><circle cx="12.092" cy="30.087" r="0.257"></circle><circle cx="11.062" cy="30.087" r="0.257"></circle><circle cx="10.034" cy="30.087" r="0.257"></circle><circle cx="23.417" cy="31.217" r="0.257"></circle><circle cx="22.385" cy="31.217" r="0.257"></circle><circle cx="21.356" cy="31.217" r="0.257"></circle><path d="M20.326,30.96c-0.141,0-0.256,0.114-0.256,0.257c0,0.142,0.115,0.258,0.256,0.258c0.145,0,0.26-0.116,0.26-0.258  C20.585,31.074,20.47,30.96,20.326,30.96z"></path><circle cx="17.239" cy="31.217" r="0.257"></circle><path d="M16.21,30.96c-0.143,0-0.26,0.114-0.26,0.257c0,0.142,0.117,0.258,0.26,0.258c0.141,0,0.256-0.116,0.256-0.258  C16.466,31.074,16.351,30.96,16.21,30.96z"></path><circle cx="15.18" cy="31.217" r="0.257"></circle><circle cx="14.151" cy="31.217" r="0.257"></circle><circle cx="13.122" cy="31.217" r="0.257"></circle><circle cx="12.092" cy="31.217" r="0.257"></circle><circle cx="11.062" cy="31.217" r="0.257"></circle><circle cx="10.034" cy="31.217" r="0.257"></circle><circle cx="23.417" cy="32.349" r="0.258"></circle><circle cx="22.385" cy="32.349" r="0.258"></circle><circle cx="21.356" cy="32.349" r="0.258"></circle><path d="M20.326,32.091c-0.141,0-0.256,0.116-0.256,0.258c0,0.143,0.115,0.259,0.256,0.259c0.145,0,0.26-0.116,0.26-0.259  C20.585,32.207,20.47,32.091,20.326,32.091z"></path><circle cx="19.296" cy="32.349" r="0.258"></circle><path d="M16.21,32.091c-0.143,0-0.26,0.116-0.26,0.258c0,0.143,0.117,0.259,0.26,0.259c0.141,0,0.256-0.116,0.256-0.259  C16.466,32.207,16.351,32.091,16.21,32.091z"></path><circle cx="15.18" cy="32.349" r="0.258"></circle><circle cx="14.151" cy="32.349" r="0.258"></circle><circle cx="13.122" cy="32.349" r="0.258"></circle><circle cx="12.092" cy="32.349" r="0.258"></circle><circle cx="11.062" cy="32.349" r="0.258"></circle><circle cx="10.034" cy="32.349" r="0.258"></circle><circle cx="23.417" cy="33.479" r="0.258"></circle><circle cx="22.385" cy="33.479" r="0.258"></circle><circle cx="21.356" cy="33.479" r="0.258"></circle><path d="M20.326,33.222c-0.141,0-0.256,0.116-0.256,0.258c0,0.143,0.115,0.258,0.256,0.258c0.145,0,0.26-0.115,0.26-0.258  C20.585,33.338,20.47,33.222,20.326,33.222z"></path><circle cx="19.296" cy="33.479" r="0.258"></circle><circle cx="18.268" cy="33.479" r="0.258"></circle><circle cx="15.18" cy="33.479" r="0.258"></circle><circle cx="14.151" cy="33.479" r="0.258"></circle><circle cx="13.122" cy="33.479" r="0.258"></circle><circle cx="12.092" cy="33.479" r="0.258"></circle><circle cx="11.062" cy="33.479" r="0.258"></circle><circle cx="23.417" cy="34.61" r="0.257"></circle><circle cx="22.385" cy="34.61" r="0.257"></circle><circle cx="21.356" cy="34.61" r="0.257"></circle><path d="M20.326,34.353c-0.141,0-0.256,0.115-0.256,0.258c0,0.142,0.115,0.257,0.256,0.257c0.145,0,0.26-0.115,0.26-0.257  C20.585,34.468,20.47,34.353,20.326,34.353z"></path><circle cx="19.296" cy="34.61" r="0.257"></circle><circle cx="18.268" cy="34.61" r="0.257"></circle><circle cx="17.239" cy="34.61" r="0.257"></circle><circle cx="14.151" cy="34.61" r="0.257"></circle><circle cx="13.122" cy="34.61" r="0.257"></circle><circle cx="23.417" cy="35.74" r="0.258"></circle><circle cx="22.385" cy="35.74" r="0.258"></circle><circle cx="21.356" cy="35.74" r="0.258"></circle><path d="M20.326,35.481c-0.141,0-0.256,0.116-0.256,0.259c0,0.142,0.115,0.258,0.256,0.258c0.145,0,0.26-0.116,0.26-0.258  C20.585,35.598,20.47,35.481,20.326,35.481z"></path><circle cx="19.296" cy="35.74" r="0.258"></circle><circle cx="18.268" cy="35.74" r="0.258"></circle><circle cx="17.239" cy="35.74" r="0.258"></circle><path d="M16.21,35.481c-0.143,0-0.26,0.116-0.26,0.259c0,0.142,0.117,0.258,0.26,0.258c0.141,0,0.256-0.116,0.256-0.258  C16.466,35.598,16.351,35.481,16.21,35.481z"></path><circle cx="11.062" cy="35.74" r="0.258"></circle><circle cx="10.034" cy="35.74" r="0.258"></circle><circle cx="23.417" cy="36.87" r="0.258"></circle><circle cx="22.385" cy="36.87" r="0.258"></circle><circle cx="21.356" cy="36.87" r="0.258"></circle><path d="M20.326,36.612c-0.141,0-0.256,0.116-0.256,0.259c0,0.142,0.115,0.257,0.256,0.257c0.145,0,0.26-0.115,0.26-0.257  C20.585,36.729,20.47,36.612,20.326,36.612z"></path><circle cx="19.296" cy="36.87" r="0.258"></circle><circle cx="18.268" cy="36.87" r="0.258"></circle><circle cx="17.239" cy="36.87" r="0.258"></circle><path d="M16.21,36.612c-0.143,0-0.26,0.116-0.26,0.259c0,0.142,0.117,0.257,0.26,0.257c0.141,0,0.256-0.115,0.256-0.257  C16.466,36.729,16.351,36.612,16.21,36.612z"></path><circle cx="15.18" cy="36.87" r="0.258"></circle><circle cx="11.062" cy="36.87" r="0.258"></circle><circle cx="10.034" cy="36.87" r="0.258"></circle><circle cx="23.417" cy="38.001" r="0.257"></circle><circle cx="22.385" cy="38.001" r="0.257"></circle><circle cx="21.356" cy="38.001" r="0.257"></circle><path d="M20.326,37.744c-0.141,0-0.256,0.115-0.256,0.257c0,0.143,0.115,0.257,0.256,0.257c0.145,0,0.26-0.114,0.26-0.257  C20.585,37.859,20.47,37.744,20.326,37.744z"></path><circle cx="19.296" cy="38.001" r="0.257"></circle><circle cx="18.268" cy="38.001" r="0.257"></circle><circle cx="17.239" cy="38.001" r="0.257"></circle><path d="M16.21,37.744c-0.143,0-0.26,0.115-0.26,0.257c0,0.143,0.117,0.257,0.26,0.257c0.141,0,0.256-0.114,0.256-0.257  C16.466,37.859,16.351,37.744,16.21,37.744z"></path><circle cx="13.122" cy="38.001" r="0.257"></circle><circle cx="10.034" cy="38.001" r="0.257"></circle><circle cx="23.417" cy="39.131" r="0.258"></circle><circle cx="22.385" cy="39.131" r="0.258"></circle><circle cx="21.356" cy="39.131" r="0.258"></circle><path d="M20.326,38.873c-0.141,0-0.256,0.115-0.256,0.257c0,0.143,0.115,0.259,0.256,0.259c0.145,0,0.26-0.116,0.26-0.259  C20.585,38.988,20.47,38.873,20.326,38.873z"></path><circle cx="19.296" cy="39.131" r="0.258"></circle><circle cx="18.268" cy="39.131" r="0.258"></circle><circle cx="17.239" cy="39.131" r="0.258"></circle><circle cx="14.151" cy="39.131" r="0.258"></circle><circle cx="13.122" cy="39.131" r="0.258"></circle><circle cx="12.092" cy="39.131" r="0.258"></circle><circle cx="23.417" cy="22.175" r="0.258"></circle><path d="M20.326,22.433c0.145,0,0.26-0.115,0.26-0.257s-0.115-0.258-0.26-0.258c-0.141,0-0.256,0.116-0.256,0.258  S20.185,22.433,20.326,22.433z"></path><circle cx="19.296" cy="22.175" r="0.258"></circle><circle cx="18.268" cy="22.175" r="0.258"></circle><circle cx="17.239" cy="22.175" r="0.258"></circle><circle cx="16.21" cy="22.175" r="0.258"></circle><circle cx="15.18" cy="22.175" r="0.258"></circle><circle cx="14.151" cy="22.175" r="0.258"></circle><circle cx="13.122" cy="22.175" r="0.258"></circle><circle cx="12.092" cy="22.175" r="0.258"></circle><circle cx="11.062" cy="22.175" r="0.258"></circle><circle cx="10.034" cy="22.175" r="0.258"></circle><circle cx="6.946" cy="22.175" r="0.258"></circle><circle cx="5.916" cy="22.175" r="0.258"></circle><circle cx="23.417" cy="40.261" r="0.257"></circle><circle cx="22.385" cy="40.261" r="0.257"></circle><circle cx="21.356" cy="40.261" r="0.257"></circle><path d="M20.326,40.004c-0.141,0-0.256,0.115-0.256,0.257c0,0.143,0.115,0.258,0.256,0.258c0.145,0,0.26-0.115,0.26-0.258  C20.585,40.119,20.47,40.004,20.326,40.004z"></path><circle cx="19.296" cy="40.261" r="0.257"></circle><circle cx="18.268" cy="40.261" r="0.257"></circle><circle cx="15.18" cy="40.261" r="0.257"></circle><circle cx="14.151" cy="40.261" r="0.257"></circle><circle cx="13.122" cy="40.261" r="0.257"></circle><circle cx="12.092" cy="40.261" r="0.257"></circle><circle cx="11.062" cy="40.261" r="0.257"></circle><circle cx="23.417" cy="42.521" r="0.258"></circle><circle cx="22.385" cy="42.521" r="0.258"></circle><circle cx="21.356" cy="42.521" r="0.258"></circle><path d="M20.326,42.264c-0.141,0-0.256,0.116-0.256,0.259c0,0.142,0.115,0.257,0.256,0.257c0.145,0,0.26-0.115,0.26-0.257  C20.585,42.38,20.47,42.264,20.326,42.264z"></path><circle cx="23.417" cy="43.652" r="0.257"></circle><circle cx="22.385" cy="43.652" r="0.257"></circle><circle cx="21.356" cy="43.652" r="0.257"></circle><circle cx="23.417" cy="44.782" r="0.257"></circle><circle cx="22.385" cy="44.782" r="0.257"></circle><circle cx="23.417" cy="45.913" r="0.257"></circle></svg>