<svg xmlns="http://www.w3.org/2000/svg" xmlns:xlink="http://www.w3.org/1999/xlink" version="1.1" x="0px" y="0px" viewBox="0 0 126 126" style="enable-background:new 0 0 126 126;" xml:space="preserve"><g><path d="M63,0C28.262,0,0,28.262,0,63s28.262,63,63,63s63-28.262,63-63S97.738,0,63,0z M119.8,63   c0,12.067-3.717,23.531-10.764,33.251L94.47,72.201V15.712C110.366,26.291,119.8,43.833,119.8,63z M31.53,15.712v56.489   l-14.566,24.05C9.917,86.531,6.2,75.067,6.2,63C6.2,43.833,15.634,26.291,31.53,15.712z M63,119.8   c-15.904,0-31.125-6.714-41.879-18.448l14.795-24.429C39.53,80.479,48.975,88.17,63,88.17c6.596,0,12.919-1.689,18.793-5.02   c3.909-2.216,6.734-4.694,8.291-6.226l14.795,24.428C94.125,113.085,78.904,119.8,63,119.8z M63,56.75   c-6.05,0-12.02,1.504-17.489,4.336L63,32.21l17.489,28.876C75.02,58.254,69.05,56.75,63,56.75z M63,62.95   c11.866,0,19.829,6.585,22.776,9.51C82.829,75.384,74.868,81.97,63,81.97s-19.829-6.586-22.776-9.51   C43.171,69.536,51.134,62.95,63,62.95z M88.27,61.958L63.855,21.642C63.674,21.343,63.35,21.16,63,21.16s-0.674,0.183-0.855,0.482   L37.73,61.958V12.126c3.76-1.868,7.719-3.318,11.775-4.314C53.903,6.742,58.443,6.2,63,6.2c8.88,0,17.378,1.993,25.27,5.925V61.958   z"></path><path d="M70.31,72.46c0-4.031-3.279-7.31-7.31-7.31s-7.31,3.279-7.31,7.31c0,4.025,3.279,7.3,7.31,7.3S70.31,76.485,70.31,72.46z"></path></g></svg>