<svg xmlns="http://www.w3.org/2000/svg" viewBox="0 0 360 360" x="0px" y="0px"><path d="M229.135,74 L204.782,132.794 L180.428,74 L156.075,132.794 L131.722,74 L131.721,74 L44,285.778 L82.966,285.778 L131.721,168.072 L136.593,179.83 L92.707,285.778 L131.673,285.778 L156.075,226.868 L180.428,285.661 L204.782,226.868 L229.184,285.778 L268.15,285.778 L224.265,179.83 L229.135,168.072 L277.89,285.778 L316.857,285.778 L316.857,285.776 L229.136,74 L229.135,74 Z M175.558,179.832 L180.428,168.072 L185.3,179.832 L180.428,191.589 L175.558,179.832 Z"></path></svg>