<svg xmlns="http://www.w3.org/2000/svg" xmlns:xlink="http://www.w3.org/1999/xlink" version="1.1" x="0px" y="0px" viewBox="0 0 100 100" enable-background="new 0 0 100 100" xml:space="preserve"><g><g><path d="M18.248,58.785l-1.902-0.477l0.632,1.856c2.985,8.765,10.925,15.888,21.24,19.055l2.28,0.7l-0.997-2.167    C34.993,67.95,27.247,61.036,18.248,58.785z M19.783,61.465c6.789,2.336,12.685,7.611,16.623,14.869    C28.711,73.36,22.708,67.992,19.783,61.465z"></path><path d="M97.984,11.614c-0.891,0.096-21.313,2.36-28.266,9.116C63.674,17.947,56.875,16.475,50,16.475    c-6.876,0-13.675,1.473-19.719,4.257c-6.953-6.757-27.375-9.021-28.265-9.117L0.5,11.452l0.366,1.479    c1.096,4.435,1.686,7.148,2.207,9.543c0.482,2.213,0.898,4.124,1.586,6.8c1.605,6.244,3.837,9.946,5.565,12.041    c-1.148,3.027-1.825,6.161-2.013,9.34l-0.021,0.001l-0.038,1.241c-0.008,0.204-0.016,0.407-0.016,0.612c0,0.005,0,0.01,0,0.016    l-0.008,0.279l0.016-0.001c0.066,7.146,2.539,13.972,7.086,19.781c-0.428,0.071-0.857,0.143-1.289,0.214    c-1.058,0.174-2.102,0.426-3.083,0.62c-0.974,0.244-1.883,0.446-2.653,0.665c-1.545,0.409-2.553,0.748-2.553,0.748    s1.048-0.177,2.63-0.339c0.788-0.095,1.714-0.15,2.699-0.238c0.991-0.038,2.041-0.123,3.094-0.128    c0.524-0.004,1.05-0.008,1.567-0.012c0.292-0.008,0.578-0.004,0.86,0.004c1.009,1.153,2.104,2.261,3.282,3.316    c-0.179,0.08-0.359,0.16-0.534,0.25c-0.92,0.472-1.917,0.939-2.875,1.468c-0.961,0.528-1.927,1.038-2.808,1.561    c-0.888,0.508-1.711,0.99-2.409,1.417c-1.4,0.842-2.314,1.432-2.314,1.432s0.994-0.443,2.502-1.06    c0.751-0.313,1.634-0.664,2.583-1.027c0.943-0.378,1.968-0.731,2.982-1.101c1.015-0.37,2.048-0.673,3.002-0.99    c0.479-0.16,0.935-0.258,1.367-0.381c0.09-0.023,0.175-0.047,0.263-0.07c7.338,5.86,16.752,9.222,26.782,9.562l0.004,0.018    l1.178,0.022c0.013,0,0.026,0,0.04,0l-0.002,0.013l0.355-0.006c0.032,0.001,0.064,0.002,0.098,0.002    c0.042,0,0.083-0.001,0.125-0.002l0.378,0.006l-0.002-0.013c0.01,0,0.02-0.001,0.029-0.001l1.189-0.022l0.003-0.019    c10.012-0.35,19.407-3.71,26.732-9.56c0.088,0.023,0.173,0.047,0.263,0.07c0.433,0.123,0.888,0.221,1.367,0.381    c0.954,0.317,1.987,0.62,3.002,0.99c1.015,0.369,2.04,0.723,2.982,1.101c0.949,0.363,1.832,0.714,2.584,1.027    c1.509,0.616,2.502,1.06,2.502,1.06s-0.914-0.59-2.314-1.432c-0.697-0.427-1.52-0.909-2.408-1.417    c-0.881-0.522-1.847-1.032-2.808-1.561c-0.96-0.528-1.956-0.996-2.875-1.468c-0.176-0.091-0.355-0.17-0.535-0.25    c1.178-1.056,2.272-2.163,3.281-3.316c0.283-0.008,0.569-0.012,0.862-0.004c0.517,0.004,1.041,0.008,1.567,0.012    c1.052,0.005,2.102,0.09,3.093,0.128c0.984,0.088,1.911,0.144,2.699,0.238c1.581,0.162,2.629,0.339,2.629,0.339    s-1.008-0.339-2.552-0.748c-0.771-0.219-1.68-0.421-2.653-0.665c-0.98-0.194-2.025-0.446-3.083-0.62    c-0.432-0.071-0.862-0.143-1.289-0.214c4.548-5.812,7.021-12.64,7.087-19.789l0.016,0.002l-0.008-0.296    c-0.001-0.205-0.008-0.408-0.016-0.611l-0.038-1.24l-0.021-0.002c-0.189-3.175-0.865-6.307-2.013-9.333    c1.728-2.095,3.959-5.795,5.564-12.041c0.688-2.676,1.104-4.587,1.586-6.8c0.521-2.395,1.111-5.108,2.207-9.543l0.366-1.479    L97.984,11.614z M47.933,86.353c-8.773-0.382-17.02-3.191-23.665-8.025c-0.8-0.582-1.574-1.198-2.326-1.839    c-0.112-0.095-0.228-0.185-0.338-0.281c-0.717-0.625-1.393-1.275-2.046-1.938c-0.646-0.656-1.266-1.327-1.849-2.019    c-4.798-5.688-7.407-12.489-7.438-19.615v-0.001c0.052-0.003,0.098-0.005,0.149-0.008c0.199-0.011,0.392-0.021,0.58-0.027    c0.081-0.003,0.164-0.006,0.243-0.009c0.25-0.008,0.496-0.012,0.735-0.012c0.541,0,1.079,0.015,1.615,0.042    c0.179,0.009,0.356,0.029,0.536,0.042c0.355,0.024,0.711,0.047,1.064,0.084c0.212,0.021,0.422,0.055,0.633,0.081    c0.317,0.04,0.636,0.076,0.951,0.125c0.224,0.035,0.446,0.081,0.669,0.121c0.299,0.054,0.6,0.104,0.897,0.166    c0.23,0.048,0.457,0.106,0.685,0.159c0.288,0.067,0.576,0.13,0.861,0.205c0.232,0.061,0.461,0.132,0.692,0.198    c0.278,0.079,0.557,0.155,0.833,0.242c0.232,0.074,0.461,0.156,0.691,0.235c0.271,0.092,0.542,0.182,0.811,0.281    c0.231,0.085,0.458,0.18,0.688,0.271c0.263,0.104,0.528,0.206,0.789,0.318c0.229,0.097,0.454,0.203,0.681,0.306    c0.257,0.117,0.516,0.231,0.77,0.354c0.225,0.109,0.447,0.226,0.669,0.34c0.252,0.129,0.504,0.256,0.754,0.391    c0.221,0.121,0.439,0.248,0.658,0.373c0.246,0.141,0.492,0.279,0.735,0.427c0.216,0.131,0.43,0.269,0.644,0.404    c0.24,0.151,0.48,0.303,0.717,0.462c0.212,0.141,0.421,0.289,0.631,0.436c0.234,0.163,0.467,0.325,0.698,0.494    c0.207,0.152,0.411,0.311,0.616,0.467c0.227,0.175,0.454,0.348,0.678,0.527c0.201,0.163,0.4,0.33,0.599,0.497    c0.221,0.184,0.441,0.369,0.659,0.56c0.195,0.172,0.388,0.348,0.581,0.524c0.214,0.195,0.428,0.391,0.638,0.592    c0.189,0.182,0.376,0.367,0.562,0.553c0.207,0.205,0.414,0.411,0.617,0.623c0.184,0.189,0.363,0.385,0.544,0.579    c0.199,0.215,0.397,0.432,0.593,0.652c0.178,0.199,0.352,0.402,0.525,0.605c0.191,0.226,0.382,0.451,0.57,0.682    c0.169,0.208,0.336,0.419,0.502,0.631c0.185,0.234,0.368,0.471,0.548,0.711c0.162,0.216,0.321,0.435,0.48,0.654    c0.177,0.244,0.351,0.49,0.522,0.738c0.155,0.225,0.308,0.45,0.458,0.679c0.168,0.253,0.334,0.508,0.497,0.766    c0.147,0.232,0.292,0.466,0.435,0.7c0.159,0.262,0.316,0.526,0.471,0.792c0.139,0.239,0.275,0.48,0.411,0.724    c0.149,0.27,0.297,0.541,0.441,0.814c0.131,0.248,0.26,0.497,0.387,0.747c0.141,0.277,0.277,0.558,0.413,0.839    c0.122,0.254,0.243,0.51,0.361,0.767c0.131,0.286,0.258,0.573,0.385,0.863c0.112,0.26,0.225,0.521,0.333,0.785    c0.122,0.294,0.239,0.589,0.354,0.886c0.104,0.268,0.208,0.536,0.308,0.806c0.11,0.3,0.217,0.603,0.322,0.905    c0.095,0.274,0.188,0.549,0.279,0.826c0.101,0.307,0.196,0.615,0.29,0.926c0.086,0.28,0.171,0.56,0.251,0.843    c0.09,0.313,0.174,0.629,0.258,0.946c0.075,0.285,0.15,0.57,0.222,0.858c0.078,0.32,0.15,0.643,0.223,0.965    c0.065,0.292,0.132,0.583,0.191,0.877c0.021,0.104,0.047,0.205,0.067,0.309C47.938,86.354,47.936,86.353,47.933,86.353z     M89.729,52.632c-0.029,7.126-2.639,13.929-7.438,19.618c-0.583,0.691-1.202,1.362-1.85,2.019    c-0.648,0.658-1.318,1.304-2.029,1.924c-0.116,0.102-0.238,0.196-0.355,0.296c-0.752,0.641-1.524,1.257-2.325,1.839    c-6.631,4.824-14.859,7.632-23.613,8.023c-0.003,0-0.006,0-0.009,0c0.021-0.104,0.046-0.207,0.068-0.311    c0.06-0.292,0.124-0.581,0.189-0.869c0.072-0.324,0.146-0.647,0.225-0.969c0.07-0.289,0.146-0.575,0.222-0.861    c0.083-0.315,0.167-0.63,0.256-0.941c0.082-0.286,0.168-0.569,0.254-0.853c0.093-0.305,0.187-0.61,0.286-0.912    c0.092-0.283,0.188-0.562,0.285-0.843c0.104-0.297,0.207-0.593,0.315-0.886c0.104-0.278,0.209-0.555,0.316-0.83    c0.112-0.287,0.226-0.573,0.343-0.856c0.113-0.274,0.23-0.547,0.348-0.818c0.121-0.277,0.243-0.554,0.369-0.827    c0.123-0.27,0.25-0.537,0.378-0.804c0.13-0.269,0.261-0.535,0.395-0.8c0.133-0.264,0.269-0.525,0.407-0.785    c0.138-0.26,0.277-0.518,0.42-0.773c0.143-0.258,0.287-0.514,0.435-0.768c0.146-0.25,0.293-0.498,0.443-0.744    c0.151-0.251,0.306-0.501,0.463-0.748c0.153-0.241,0.309-0.479,0.466-0.718c0.161-0.243,0.324-0.485,0.49-0.725    c0.161-0.232,0.324-0.463,0.488-0.691c0.17-0.235,0.341-0.469,0.515-0.7c0.168-0.224,0.34-0.444,0.512-0.665    c0.178-0.227,0.356-0.453,0.539-0.675c0.175-0.215,0.353-0.426,0.532-0.637c0.186-0.219,0.372-0.436,0.562-0.649    c0.182-0.205,0.367-0.407,0.554-0.608c0.193-0.209,0.387-0.418,0.583-0.621c0.189-0.197,0.383-0.39,0.575-0.582    c0.2-0.199,0.4-0.397,0.604-0.592c0.196-0.188,0.396-0.37,0.596-0.552c0.207-0.189,0.413-0.379,0.623-0.562    c0.203-0.179,0.41-0.352,0.616-0.524c0.212-0.178,0.425-0.356,0.641-0.53c0.21-0.169,0.423-0.331,0.636-0.495    c0.219-0.167,0.436-0.336,0.657-0.497c0.216-0.159,0.437-0.312,0.656-0.466c0.223-0.156,0.445-0.313,0.671-0.464    c0.224-0.149,0.45-0.291,0.676-0.435c0.228-0.145,0.454-0.291,0.685-0.43s0.463-0.271,0.695-0.403    c0.231-0.133,0.463-0.268,0.696-0.395c0.237-0.129,0.477-0.249,0.717-0.372c0.234-0.12,0.468-0.243,0.705-0.357    c0.244-0.118,0.491-0.228,0.737-0.34c0.237-0.107,0.473-0.218,0.712-0.32c0.251-0.106,0.506-0.204,0.759-0.306    c0.239-0.095,0.477-0.192,0.718-0.282c0.259-0.096,0.521-0.182,0.78-0.271c0.24-0.083,0.479-0.168,0.72-0.245    c0.268-0.084,0.538-0.158,0.808-0.235c0.239-0.069,0.477-0.142,0.717-0.205c0.278-0.073,0.56-0.135,0.84-0.199    c0.234-0.055,0.469-0.115,0.704-0.164c0.292-0.062,0.587-0.11,0.881-0.163c0.229-0.041,0.456-0.088,0.686-0.124    c0.312-0.049,0.626-0.085,0.939-0.124c0.215-0.026,0.428-0.061,0.643-0.082c0.352-0.037,0.706-0.06,1.06-0.084    c0.181-0.013,0.36-0.032,0.541-0.042c0.536-0.027,1.073-0.042,1.614-0.042c0.234,0,0.476,0.004,0.722,0.012    c0.071,0.001,0.145,0.005,0.217,0.007c0.186,0.007,0.376,0.016,0.572,0.027C89.633,52.626,89.678,52.627,89.729,52.632    L89.729,52.632z"></path><path d="M81.975,59.692c0,0-0.431,0.114-1.184,0.314c-0.378,0.088-0.829,0.248-1.349,0.423c-0.259,0.091-0.54,0.174-0.824,0.287    c-0.283,0.119-0.58,0.244-0.891,0.375c-0.628,0.244-1.266,0.6-1.959,0.937c-0.343,0.177-0.68,0.387-1.032,0.586    c-0.353,0.198-0.71,0.408-1.056,0.647c-0.351,0.233-0.712,0.463-1.067,0.71c-0.347,0.26-0.698,0.521-1.052,0.785    c-0.362,0.255-0.688,0.561-1.035,0.842c-0.345,0.285-0.689,0.572-1.01,0.887c-0.322,0.312-0.652,0.617-0.967,0.936    c-0.305,0.326-0.608,0.651-0.91,0.974c-0.311,0.315-0.576,0.664-0.859,0.991c-0.275,0.333-0.562,0.65-0.808,0.992    c-0.511,0.667-1.001,1.314-1.421,1.96c-0.445,0.629-0.818,1.254-1.166,1.828c-0.363,0.565-0.632,1.121-0.89,1.601    c-0.263,0.479-0.467,0.907-0.628,1.264c-0.331,0.709-0.521,1.113-0.521,1.113l0.121,0.056l0.122,0.056c0,0,0.089-0.08,0.257-0.231    c0.156-0.156,0.409-0.371,0.681-0.665c0.222-0.228,0.49-0.506,0.783-0.809c0.432-0.444,0.925-0.954,1.483-1.529    c0.456-0.476,0.927-0.996,1.449-1.52c0.495-0.542,1.048-1.081,1.591-1.651c0.553-0.555,1.125-1.128,1.706-1.71    c0.292-0.285,0.599-0.561,0.883-0.859c0.296-0.286,0.605-0.558,0.908-0.839c0.29-0.295,0.599-0.566,0.909-0.834    c0.317-0.259,0.594-0.568,0.913-0.815c0.314-0.256,0.618-0.52,0.914-0.789c0.305-0.257,0.62-0.49,0.914-0.749    c0.149-0.124,0.294-0.255,0.444-0.372c0.154-0.112,0.304-0.229,0.45-0.348c0.297-0.236,0.587-0.468,0.869-0.692    c0.585-0.418,1.118-0.878,1.65-1.237c0.524-0.383,0.999-0.762,1.433-1.057c0.437-0.296,0.813-0.612,1.165-0.829    c0.018-0.011,0.031-0.021,0.048-0.031c0.318-0.207,0.562-0.404,0.734-0.525c0.179-0.134,0.271-0.213,0.271-0.213l-0.037-0.129    L81.975,59.692z"></path></g></g></svg>