<svg xmlns="http://www.w3.org/2000/svg" data-name="Camada 1" viewBox="0 0 128 128" x="0px" y="0px"><title>Prancheta 39</title><path d="M103.60352,43.4209l-18.583-18.58252C73.42969,13.24707,54.76758,13.0498,43.4209,24.39648l-7.28125,7.28125L24.83789,42.97949c-11.59082,11.59033-11.78906,30.252-.44141,41.59961l18.583,18.58252a29.94853,29.94853,0,0,0,21.20605,8.82422,28.70277,28.70277,0,0,0,20.39355-8.38232l18.583-18.583C114.75293,73.43018,114.95117,54.76855,103.60352,43.4209ZM31.42578,42.23682v-.001q.25781-.62109.5459-1.23242l.001-.001c.38562-.81714.81714-1.62549,1.28076-2.4021l.00049.00024c.234-.39246.47986-.78.73413-1.16321l.00024.00012c.51367-.76953,1.07129-1.52295,1.6582-2.23926l-.1095-.08972.00061-.00061.10986.08984c.59277-.72559,1.23438-1.43408,1.90625-2.106L44.835,25.81055c10.56738-10.56738,27.96-10.36914,38.77148.44189l3.62891,3.62878a29.72132,29.72132,0,0,0-11.79395-2.578c-.11035-.001-.2207-.00146-.332-.00146a28.592,28.592,0,0,0-20.38672,8.39648l-5.93335,5.93335-.00024-.00024a15.29706,15.29706,0,0,0-1.61133,1.92529l.00024.00018a15.29581,15.29581,0,0,0-1.175,1.87921l.00049.00024a15.22089,15.22089,0,0,0-.63721,1.39868,15.56637,15.56637,0,0,0-.83691,2.92383,15.76457,15.76457,0,0,0-.25684,3.01807,16.11652,16.11652,0,0,0,.32227,3.02051v.001a16.02085,16.02085,0,0,0,2.376,5.7002l.00024-.00018a16.36991,16.36991,0,0,0,2.04858,2.49725L62.58569,77.56177l-.00464.00464a14.39577,14.39577,0,0,1-2.19141,1.79834l-.001.00049a14.14032,14.14032,0,0,1-2.41895,1.29248,13.97168,13.97168,0,0,1-5.21484,1.06982,13.43736,13.43736,0,0,1-1.499-.07227,13.736,13.736,0,0,1-2.124-.3833v-.00049a13.28632,13.28632,0,0,1-4.4082-2.07312v-.00012a13.40382,13.40382,0,0,1-1.67773-1.40137L37.1123,71.86328a26.401,26.401,0,0,1-5.916-8.99268c-.3252-.82227-.61133-1.66309-.84961-2.49854-.24023-.83936-.44141-1.70117-.59961-2.562h-.00012c-.15613-.85712-.27332-1.73322-.34753-2.60352A27.76826,27.76826,0,0,1,30.51855,44.7583C30.77832,43.90967,31.083,43.06152,31.42578,42.23682ZM51.85156,64,64,51.85205,76.14844,64,64,76.14795Zm-13.252,30.74561q-.5874-.35156-1.16211-.73389v-.001C36.66992,93.5,35.916,92.94238,35.19824,92.354l-.08948.10919-2.017-2.01691L25.81055,83.165C15.24316,72.59717,15.44141,55.20459,26.252,44.39355l3.64771-3.64764c-.10767.24127-.2207.48083-.32117.72443l-.00037-.00012c-.36621.88379-.69336,1.79346-.97168,2.70313A29.72733,29.72733,0,0,0,27.40723,55.376v.00049c.0791.93359.20508,1.87354.373,2.79395v.001c.16895.92334.38574,1.84863.64258,2.74951.25684.89893.56445,1.80225.91406,2.686a28.38641,28.38641,0,0,0,6.36133,9.67041l5.93359,5.93359a15.39564,15.39564,0,0,0,1.92383,1.61133l.001.00049A15.29755,15.29755,0,0,0,48.626,83.207l.00012-.00049a15.66528,15.66528,0,0,0,2.43445.439c.56738.05566,1.084.08252,1.57324.08252.04785,0,.0957,0,.14258-.00049a15.96065,15.96065,0,0,0,5.959-1.22217A16.17518,16.17518,0,0,0,61.498,81.0293l-.00012-.00018A16.34962,16.34962,0,0,0,63.99512,78.981L77.56226,65.41431l.00415.00415a14.30759,14.30759,0,0,1,2.5083,3.37811l-.00049.00031a13.99933,13.99933,0,0,1,1.60547,7.772,13.7495,13.7495,0,0,1-.47754,2.60205l.00061.00018a13.38072,13.38072,0,0,1-1.66248,3.63959L79.54,82.81055a13.4593,13.4593,0,0,1-1.74316,2.14355L71.86328,90.8877a26.663,26.663,0,0,1-11.49219,6.76611v.00024a27.20158,27.20158,0,0,1-6.47656,1.02563,27.74266,27.74266,0,0,1-9.13574-1.19824c-.84863-.25977-1.69727-.56494-2.52246-.90674q-.62256-.25781-1.23437-.54736c-.82092-.38818-1.62817-.819-2.40137-1.28174ZM96.0874,89.267,95.998,89.2168l.08948.05017Zm.48682-3.50385v.00049c-.23145.55908-.51074,1.16162-.85352,1.84326q-.284.5658-.59424,1.12036l-.00049-.00024c-.38843.69159-.75269,1.29242-1.11475,1.83612-.51343.76929-1.071,1.52252-1.65771,2.23859l-.001.00049c-.59277.72559-1.23437,1.43408-1.90625,2.106L83.165,102.18945c-10.56738,10.56641-27.96191,10.36914-38.77148-.44189l-3.64612-3.646c.24084.10748.48022.21985.72327.3208.88379.36621,1.793.69287,2.70215.97119a29.7828,29.7828,0,0,0,8.71777,1.30469q.53906,0,1.07715-.01953h.001a29.21353,29.21353,0,0,0,6.95215-1.10205h.001a28.6657,28.6657,0,0,0,12.35547-7.2749l5.93359-5.93359a15.49149,15.49149,0,0,0,2.00293-2.46191v-.00049A15.37738,15.37738,0,0,0,83.125,79.7207l.001-.001a15.80892,15.80892,0,0,0,.5127-6.01221v-.001a16.06018,16.06018,0,0,0-1.79883-5.8501l-.001-.00049a16.276,16.276,0,0,0-2.8584-3.85156L65.41455,50.43848l.00537-.00537a14.26432,14.26432,0,0,1,2.19043-1.79785l.001-.00049a14.05295,14.05295,0,0,1,4.99121-2.08008,13.84593,13.84593,0,0,1,5.10254-.08167v.00012a13.2966,13.2966,0,0,1,5.57129,2.32855v.00006a13.40382,13.40382,0,0,1,1.67773,1.40137l5.93359,5.93359a26.41531,26.41531,0,0,1,5.916,8.99268l.00024-.00012c.3252.82343.61108,1.664.84937,2.49866.24023.83936.44141,1.70117.59961,2.562h.00012a27.6145,27.6145,0,0,1,.42761,3.91553c.03125.86523.02148,1.75-.0293,2.62988-.05176.87482-.14648,1.75751-.28027,2.62451a27.93738,27.93738,0,0,1-.88965,3.88184C97.22168,84.09033,96.917,84.93848,96.57422,85.76318Zm5.17383-2.15674-3.64282,3.64276c.11084-.24493.2207-.48877.31641-.71948l.00024.00006c.36621-.88379.69336-1.79346.97168-2.70312a29.90052,29.90052,0,0,0,.9541-4.16016V79.666c.14355-.9292.24414-1.87549.2998-2.8125v-.001c.05469-.94336.06543-1.89258.03125-2.8208v-.00049a29.60005,29.60005,0,0,0-.459-4.20166v-.001c-.16895-.92334-.38574-1.84863-.64258-2.74951-.25684-.89795-.56445-1.80176-.91406-2.686v-.001a28.39185,28.39185,0,0,0-6.36133-9.66943l-5.93359-5.93359a15.39564,15.39564,0,0,0-1.92383-1.61133l-.001-.00049A15.2799,15.2799,0,0,0,78.041,44.50146H78.04a15.86415,15.86415,0,0,0-5.83789.09326,16.06342,16.06342,0,0,0-5.7002,2.376l.00012.00018A16.32318,16.32318,0,0,0,64.00488,49.019L50.43774,62.58569l-.00415-.00415a14.4505,14.4505,0,0,1-1.79883-2.19189v-.00049a14.0423,14.0423,0,0,1-2.08105-4.99121h-.00012a14.08864,14.08864,0,0,1-.28113-2.64355,13.816,13.816,0,0,1,.22363-2.63428,13.624,13.624,0,0,1,.72949-2.54883A13.22533,13.22533,0,0,1,47.7793,46.356l.001-.001a13.14891,13.14891,0,0,1,1.02148-1.63135l.001-.001a13.28448,13.28448,0,0,1,1.40039-1.67627V43.0459l5.93359-5.93359a26.65252,26.65252,0,0,1,19.2832-7.80908A27.87144,27.87144,0,0,1,94.9082,37.55371l7.28125,7.28125C112.75684,55.40283,112.55859,72.79541,101.748,83.60645Z"></path></svg>