<svg xmlns="http://www.w3.org/2000/svg" xmlns:xlink="http://www.w3.org/1999/xlink" version="1.1" x="0px" y="0px" viewBox="0 0 128 128" style="enable-background:new 0 0 128 128;" xml:space="preserve"><g><path d="M9.761,84.94C10.421,85.616,11.201,86,12,86c2.168,0,4-2.748,4-6s-1.832-6-4-6c-0.8,0-1.581,0.383-2.24,1.06   C12.719,75.417,15,77.493,15,80C15,82.506,12.72,84.582,9.761,84.94z"></path><path d="M8.865,87.393c0.12,0.07,0.247,0.127,0.359,0.214c7.173,5.554,18.228,9.441,32.02,11.287l-0.585-1.755   c-9.881-4.703-21.15-14.692-25.15-35.855c-0.532,1.489-1.053,3.019-1.556,4.59c-0.677,2.112-1.283,4.157-1.838,6.134   C15.37,72.09,18,75.64,18,80c0,4.411-2.691,8-6,8c-1.1,0-2.152-0.408-3.066-1.128C8.912,87.045,8.886,87.223,8.865,87.393z"></path><path d="M26.421,39.271c3.212,2.645,7.109,5.09,11.821,7.057c-1.04-2.473-1.461-4.96-1.238-7.418   c0.462-5.083,2.739-8.147,4.569-10.61c1.357-1.826,2.346-3.17,2.327-4.769C37.272,26.867,31.396,32.147,26.421,39.271z"></path><path d="M6,48c0,5.916,2.38,11.546,6.57,15.672c0.278-0.836,0.559-1.664,0.844-2.476C10.534,57.366,9,52.82,9,48   c0-5.354,1.947-10.496,5.474-14.51c0.151-1.648,0.325-3.269,0.549-4.824c0.061-0.417,0.376-0.752,0.788-0.837   c0.414-0.086,0.836,0.099,1.055,0.457c0.383,0.625,0.795,1.26,1.234,1.901c2.419-1.752,5.199-3.013,8.101-3.659   c0.475-0.825,1.078-1.565,1.781-2.2c-1.696-1.987-3.582-3.859-5.623-5.559c-3.554-2.963-2.532-9.445-0.292-14.917   C14.374,7.532,9,16.448,9,26c0,2.786,0.471,5.497,1.4,8.059c0.113,0.314,0.063,0.664-0.135,0.933C7.475,38.79,6,43.288,6,48z"></path><path d="M27.776,34.197c3.004-3.641,6.281-6.714,9.81-9.2C36.507,24.353,35.27,24,34,24c-3.859,0-7,3.14-7,7   C27,32.13,27.269,33.214,27.776,34.197z"></path><path d="M19.267,31.81c1.552,2.058,3.413,4.146,5.634,6.151c0.502-0.713,1.006-1.421,1.526-2.099C25.492,34.413,25,32.746,25,31   c0-0.746,0.101-1.467,0.273-2.16C23.128,29.482,21.086,30.492,19.267,31.81z"></path><path d="M11,48c0,3.935,1.118,7.673,3.242,10.916c0.195-0.523,0.39-1.044,0.587-1.552c0.009-0.022,0.027-0.036,0.037-0.058   C14.311,53.251,14,48.835,14,44c0-2.34,0.076-4.61,0.202-6.826C12.131,40.384,11,44.128,11,48z"></path><circle cx="33" cy="106" r="2"></circle><path d="M7.999,89.188c-0.433-0.334-0.908-0.256-1.154-0.178c-0.531,0.167-0.965,0.602-1.13,1.134   c-0.393,1.261-0.638,3.012-0.697,4.857c0.395-0.086,0.808-0.078,1.23,0.031c0.03,0.007,0.06,0.017,0.089,0.027l12.213,4.353   c2.072,0.525,3.521,2.286,3.435,4.254c-0.036,0.815-0.032,1.59,0.01,2.301c0.041,0.672-0.105,1.385-0.384,2.06   c7.238,1.948,15.317,3.342,24.062,4.15l-3.725-11.172C27.153,99.146,15.73,95.174,7.999,89.188z M33,110c-2.206,0-4-1.794-4-4   s1.794-4,4-4s4,1.794,4,4S35.206,110,33,110z"></path><path d="M19.985,103.578c0.044-1.013-0.786-1.941-2.02-2.256L5.716,96.96c-0.054-0.011-0.104-0.017-0.153-0.017   c-0.144,0-0.272,0.05-0.406,0.154C4.581,97.544,4,98.924,4,101c0,1.909,0,3.288,3.449,4.484l9.891,3.576   c0.559,0.137,1.114-0.173,1.465-0.463c0.741-0.613,1.243-1.668,1.192-2.51C19.95,105.305,19.946,104.461,19.985,103.578z"></path><path d="M13,80c0-1.654-1.858-3-4.143-3c-1.606,0-4.017,1.805-5.387,3.001C4.856,81.218,7.237,83,8.857,83   C11.142,83,13,81.654,13,80z"></path><path d="M103.096,37.964c2.222-2.006,4.084-4.094,5.637-6.154c-1.818-1.318-3.861-2.329-6.006-2.971   C102.899,29.533,103,30.254,103,31c0,1.737-0.513,3.389-1.44,4.837C102.084,36.521,102.589,37.244,103.096,37.964z"></path><path d="M90.996,38.91c0.224,2.459-0.195,4.944-1.235,7.417c4.709-1.966,8.604-4.409,11.815-7.053   C96.599,32.15,90.727,26.866,84.1,23.529c-0.019,1.6,0.97,2.943,2.327,4.77C88.257,30.762,90.534,33.827,90.996,38.91z"></path><path d="M51.833,98.81c3.194,8.471,2.751,16.701,1.669,22.485c0.735,0.491,1.55,0.989,2.438,1.457   c0.394-16.208-1.232-21.751-1.691-22.975L51.833,98.81z"></path><path d="M100.228,34.2C100.735,33.217,101,32.128,101,31c0-3.86-3.141-7-7-7c-1.269,0-2.505,0.355-3.583,0.998   C93.946,27.484,97.223,30.558,100.228,34.2z"></path><path d="M101.807,26.527c2.898,0.646,5.677,1.91,8.093,3.66c0.439-0.641,0.851-1.276,1.234-1.901   c0.219-0.359,0.637-0.544,1.055-0.457c0.412,0.085,0.728,0.419,0.788,0.837c0.229,1.592,0.406,3.252,0.559,4.941   c0.117,0.059,0.225,0.142,0.315,0.249C117.171,37.807,119,42.83,119,48c0,4.815-1.531,9.371-4.413,13.202   c0.286,0.813,0.567,1.641,0.844,2.475C119.62,59.552,122,53.904,122,48c0-4.712-1.475-9.21-4.266-13.008   c-0.198-0.269-0.248-0.619-0.135-0.933c0.93-2.562,1.4-5.273,1.4-8.059c0-9.552-5.374-18.468-13.067-22.149   c2.24,5.472,3.262,11.954-0.292,14.917c-2.044,1.702-3.924,3.575-5.62,5.562c0.701,0.634,1.303,1.373,1.778,2.197   C101.801,26.527,101.804,26.526,101.807,26.527z"></path><path d="M124.529,79.999c-1.386-1.216-3.767-2.999-5.387-2.999c-2.284,0-4.143,1.346-4.143,3s1.858,3,4.143,3   C120.749,83,123.159,81.195,124.529,79.999z"></path><path d="M43.179,29.492c-1.768,2.379-3.771,5.076-4.183,9.598c-0.248,2.723,0.42,5.513,1.983,8.293   c0.898,0.318,1.823,0.619,2.776,0.901c-2.62-5.565-2.266-10.294,1.075-13.452c2.401-2.27,2.257-5.032,2.188-6.359   C47.008,28.281,47,28.122,47,28c0-0.367,0.201-0.705,0.524-0.88c0.323-0.173,0.717-0.158,1.023,0.043   c0.118,0.078,2.931,1.96,5.078,7.036c0.01,0.023,0.019,0.043,0.027,0.061c1.671-0.743,6.152-9.055,9.429-16.655   C63.239,17.237,63.601,17,64,17s0.761,0.237,0.918,0.604c3.276,7.6,7.758,15.912,9.429,16.655c0.009-0.018,0.018-0.038,0.027-0.061   c2.147-5.075,4.96-6.958,5.078-7.036c0.308-0.201,0.702-0.216,1.023-0.043C80.799,27.295,81,27.633,81,28   c0,0.122-0.008,0.281-0.018,0.473c-0.069,1.327-0.214,4.089,2.188,6.359c3.34,3.157,3.693,7.888,1.075,13.451   c0.95-0.281,1.874-0.58,2.77-0.896c1.563-2.782,2.236-5.572,1.989-8.296c-0.411-4.523-2.415-7.22-4.183-9.599   c-1.97-2.65-3.845-5.174-1.889-9.079c-1.802,0.616-4.373,2.152-6.014,5.981c-0.416,0.971-1.114,2.259-2.368,2.259   c-0.007,0-0.014,0-0.021,0c-1.841-0.021-2.969-2.829-4.838-7.481C68.205,17.468,66.389,12.945,64,9.636   c-2.389,3.31-4.205,7.833-5.692,11.536c-1.869,4.652-2.997,7.46-4.838,7.481c-1.255-0.006-1.971-1.282-2.389-2.259   c-1.641-3.828-4.211-5.364-6.014-5.98C47.023,24.319,45.148,26.842,43.179,29.492z"></path><polygon points="58.118,54.809 64,62.371 69.882,54.809 64,37.162  "></polygon><path d="M74.522,26.596c0.105-0.118,0.301-0.389,0.559-0.99c0.848-1.979,1.919-3.432,3.04-4.515   c-2.222-0.702-4.543-1.229-6.939-1.574c0.123,0.304,0.248,0.615,0.367,0.91C72.555,22.93,73.793,26.015,74.522,26.596z"></path><path d="M81.638,48.989c2.169-3.861,3.918-9.151,0.159-12.704c-2.067-1.953-2.658-4.239-2.802-5.945   c-0.83,0.979-1.867,2.482-2.779,4.638c-0.486,1.15-1.304,1.324-1.747,1.325c-0.001,0-0.003,0-0.005,0   C71.59,36.304,66.99,27.187,64,20.489c-2.99,6.697-7.59,15.814-10.465,15.814c-0.001,0-0.003,0-0.004,0   c-0.443-0.001-1.261-0.175-1.747-1.325c-0.912-2.155-1.948-3.658-2.779-4.637c-0.144,1.705-0.734,3.991-2.802,5.944   c-3.751,3.547-2.022,8.82,0.159,12.703c3.343,0.826,7.001,1.428,11.005,1.748l5.684-17.053C63.188,33.275,63.569,33,64,33   s0.812,0.275,0.948,0.684l5.684,17.052C74.636,50.415,78.296,49.815,81.638,48.989z"></path><path d="M53.478,26.596c0.729-0.581,1.968-3.666,2.974-6.169c0.119-0.295,0.244-0.605,0.367-0.91   c-2.395,0.345-4.716,0.872-6.939,1.575c1.121,1.083,2.191,2.536,3.039,4.515C53.177,26.207,53.372,26.478,53.478,26.596z"></path><path d="M87.342,97.139l-0.585,1.755c13.792-1.846,24.848-5.733,32.02-11.287c0.112-0.087,0.239-0.143,0.359-0.214   c-0.021-0.169-0.047-0.346-0.069-0.517C118.155,87.595,117.104,88,116,88c-3.309,0-6-3.589-6-8c0-4.36,2.63-7.91,5.886-7.992   c-0.521-1.856-1.083-3.761-1.706-5.72l-0.131-0.413c-0.503-1.569-1.024-3.1-1.557-4.593   C108.492,82.447,97.223,92.436,87.342,97.139z"></path><path d="M101.903,63.594c-0.247-3.349-0.945-5.833-1.401-7.13l-3.988,2.393c-2.506,1.255-4.563,2.134-6.314,2.835   c0.658,0.737,1.211,1.55,1.645,2.423C94.316,63.507,97.807,63.048,101.903,63.594z"></path><path d="M75.944,78.181c-0.001,0.849,0.01,1.771,0.023,2.807C75.982,82.187,76,83.514,76,85v2.556   c1.133-0.411,2.917-1.022,5.081-1.664c0.093-2.372-0.197-4.469-0.528-5.998C78.9,79.677,77.328,79.099,75.944,78.181z"></path><path d="M92.566,65.995C92.841,66.963,93,67.969,93,69c0,0.318-0.021,0.632-0.048,0.944c2.11,0.708,4.779,2.016,7.205,4.414   C101.35,71.877,102,69.063,102,66c0-0.129-0.008-0.246-0.009-0.373C98.181,65.067,94.906,65.445,92.566,65.995z"></path><path d="M89.391,77.123c1.456,1.571,2.577,3.256,3.352,5.028c2.669-1.496,4.83-3.523,6.392-5.965   c-2.159-2.284-4.588-3.559-6.545-4.252C92.028,73.959,90.903,75.746,89.391,77.123z"></path><path d="M91,69c0-2.481-1.026-4.82-2.817-6.517c-0.022,0.008-0.046,0.018-0.068,0.026c-4.026,1.553-6.245,2.409-9.347,6.131   c-1.943,2.331-2.575,4.184-2.758,7.059C77.664,77.181,79.77,78,82,78C86.963,78,91,73.962,91,69z"></path><path d="M86.107,95.509C103.047,87.654,112,69.843,112,44c0-4.352-0.222-8.502-0.66-12.376   c-6.319,9.071-18.194,19.182-40.057,21.065l0.665,1.995c0.106,0.317,0.047,0.667-0.159,0.93l-7,9C64.6,64.857,64.309,65,64,65   s-0.6-0.143-0.789-0.386l-7-9c-0.206-0.264-0.266-0.613-0.159-0.93l0.665-1.996c-21.867-1.884-33.741-12-40.057-21.064   C16.222,35.497,16,39.648,16,44c0,25.843,8.953,43.654,25.893,51.509c0.25,0.116,0.44,0.33,0.527,0.591l7.45,22.35   c0.282,0.265,0.924,0.843,1.83,1.548c0.988-5.954,1.163-14.26-2.611-22.584c-0.168-0.372-0.094-0.809,0.188-1.104   s0.716-0.389,1.094-0.238l5,2c0.21,0.084,0.386,0.237,0.498,0.434c0.108,0.19,2.617,4.853,2.047,25.181   c0.979,0.404,2.016,0.733,3.084,0.966V98c0-0.552,0.447-1,1-1h4c0.553,0,1,0.448,1,1v26.653c1.068-0.232,2.105-0.561,3.084-0.965   c-0.57-20.33,1.938-24.994,2.047-25.184c0.112-0.197,0.288-0.349,0.498-0.434l5-2c0.377-0.151,0.812-0.057,1.094,0.238   s0.356,0.732,0.188,1.104c-3.775,8.325-3.599,16.632-2.611,22.586c0.906-0.706,1.547-1.285,1.828-1.55L85.58,96.1   C85.667,95.838,85.857,95.625,86.107,95.509z M54.033,81.015C54.018,82.205,54,83.523,54,85v4c0,0.332-0.164,0.642-0.438,0.828   C53.394,89.941,53.197,90,53,90c-0.125,0-0.251-0.023-0.37-0.071c-0.053-0.021-5.398-2.136-11.848-3.572   c-6.387-1.422-11.274-4.941-14.086-9.831c0-0.001-0.001-0.001-0.001-0.002C24.95,73.488,24,69.926,24,66   c0-6.985,2.013-11.255,2.099-11.433c0.122-0.253,0.345-0.444,0.614-0.525c0.269-0.08,0.561-0.044,0.802,0.101l5,3   c3.354,1.673,5.979,2.687,8.09,3.5c4.053,1.563,6.729,2.595,10.164,6.717C54.159,71.428,54.119,74.433,54.033,81.015z M71.8,88.6   c-1.003,1.338-2.223,2.066-3.625,2.167c-0.107,0.007-0.214,0.011-0.32,0.011c-1.619,0-3.044-0.858-3.854-1.47   c-0.863,0.653-2.433,1.582-4.175,1.459c-1.402-0.1-2.622-0.829-3.625-2.167c-3.308-4.409,5.277-15.135,7.031-17.24   c0.381-0.456,1.156-0.456,1.537,0C66.522,73.465,75.107,84.191,71.8,88.6z M75.37,89.929C75.251,89.977,75.125,90,75,90   c-0.197,0-0.394-0.059-0.562-0.172C74.164,89.642,74,89.332,74,89v-4c0-1.477-0.018-2.795-0.033-3.985   c-0.086-6.583-0.126-9.587,3.265-13.655c3.435-4.122,6.111-5.154,10.164-6.717c2.11-0.814,4.736-1.827,8.157-3.538l4.933-2.963   c0.242-0.145,0.535-0.181,0.802-0.101c0.27,0.081,0.492,0.271,0.614,0.525C101.987,54.745,104,59.015,104,66   c0,3.926-0.95,7.488-2.696,10.524c0,0,0,0,0,0c-2.812,4.891-7.699,8.411-14.086,9.833C80.769,87.793,75.423,89.908,75.37,89.929z"></path><path d="M109.54,99.384l12.124-4.326c0.029-0.01,0.059-0.02,0.089-0.027c0.422-0.109,0.836-0.117,1.232-0.031   c-0.058-1.844-0.303-3.585-0.699-4.855c-0.165-0.533-0.599-0.967-1.13-1.135c-0.246-0.078-0.722-0.156-1.154,0.178   c-7.73,5.986-19.154,9.958-33.948,11.817l-3.724,11.172c8.744-0.808,16.826-2.201,24.063-4.149   c-0.279-0.675-0.425-1.389-0.384-2.062c0.042-0.71,0.046-1.485,0.01-2.3C105.931,101.696,107.379,99.936,109.54,99.384z M95,110   c-2.206,0-4-1.794-4-4s1.794-4,4-4s4,1.794,4,4S97.206,110,95,110z"></path><path d="M122.844,97.097c-0.18-0.14-0.348-0.18-0.56-0.137l-12.161,4.334c-1.322,0.342-2.152,1.27-2.108,2.284   c0.039,0.883,0.035,1.727-0.012,2.507c-0.051,0.842,0.451,1.897,1.192,2.511c0.352,0.29,0.909,0.602,1.558,0.435l9.785-3.543   C124,104.288,124,102.909,124,101C124,98.924,123.419,97.544,122.844,97.097z"></path><path d="M63,124.951c0.332,0.026,0.664,0.049,1,0.049c0.336,0,0.668-0.024,1-0.049V99h-2V124.951z"></path><path d="M113.759,58.917C115.883,55.673,117,51.931,117,48c0-3.855-1.134-7.61-3.202-10.821C113.924,39.394,114,41.662,114,44   c0,4.824-0.31,9.23-0.862,13.277C113.346,57.816,113.553,58.364,113.759,58.917z"></path><path d="M87.767,78.349c-1.516,0.939-3.273,1.516-5.159,1.62c0.285,1.45,0.518,3.285,0.491,5.349   c1.162-0.315,2.394-0.627,3.683-0.914c1.476-0.329,2.853-0.793,4.144-1.357C90.217,81.396,89.159,79.822,87.767,78.349z"></path><circle cx="95" cy="106" r="2"></circle><path d="M35,69c0-1.031,0.159-2.037,0.434-3.005c-2.34-0.55-5.615-0.928-9.425-0.368C26.008,65.754,26,65.871,26,66   c0,3.063,0.65,5.877,1.843,8.357c2.425-2.397,5.094-3.706,7.205-4.414C35.021,69.632,35,69.318,35,69z"></path><path d="M57.8,87.4c0.647,0.863,1.354,1.311,2.16,1.371c1.69,0.113,3.319-1.464,3.335-1.48c0.195-0.193,0.451-0.29,0.706-0.29   c0.256,0,0.512,0.097,0.706,0.292c0.015,0.014,1.653,1.59,3.333,1.478c0.807-0.06,1.513-0.508,2.16-1.371   c1.63-2.173-2.44-9.061-6.2-13.813C60.241,78.34,56.172,85.229,57.8,87.4z"></path><path d="M76.167,98.81l-2.414,0.966c-0.457,1.225-2.086,6.781-1.693,22.98c0.888-0.469,1.704-0.966,2.438-1.457   C73.416,115.514,72.973,107.283,76.167,98.81z"></path><path d="M35.41,71.935c-1.957,0.694-4.386,1.968-6.545,4.252c1.562,2.442,3.723,4.469,6.392,5.965   c0.776-1.773,1.896-3.458,3.352-5.028C37.097,75.746,35.972,73.959,35.41,71.935z"></path><path d="M36.155,64.115c0.434-0.873,0.987-1.686,1.645-2.423c-1.747-0.699-3.789-1.569-6.247-2.798l-4.056-2.431   c-0.455,1.297-1.154,3.781-1.401,7.131C30.194,63.049,33.686,63.507,36.155,64.115z"></path><path d="M37.074,83.048c1.291,0.563,2.668,1.028,4.144,1.357c1.289,0.287,2.521,0.598,3.683,0.914   c-0.027-2.064,0.206-3.899,0.491-5.349c-1.885-0.104-3.642-0.681-5.159-1.62C38.84,79.822,37.783,81.396,37.074,83.048z"></path><path d="M39.885,62.509c-0.022-0.008-0.046-0.018-0.068-0.026C38.026,64.18,37,66.519,37,69c0,4.962,4.037,9,9,9   c2.23,0,4.336-0.819,5.989-2.301c-0.183-2.875-0.815-4.728-2.758-7.059C46.13,64.917,43.911,64.062,39.885,62.509z"></path><path d="M118.242,75.06C117.583,74.38,116.808,74,116,74c-2.168,0-4,2.748-4,6s1.832,6,4,6c0.805,0,1.586-0.381,2.245-1.06   C115.283,84.585,113,82.508,113,80C113,77.493,115.282,75.417,118.242,75.06z"></path><path d="M46.919,85.892c2.164,0.641,3.948,1.253,5.081,1.664V85c0-1.486,0.018-2.813,0.033-4.011   c0.013-1.036,0.024-1.959,0.023-2.807c-1.384,0.918-2.956,1.495-4.61,1.713C47.116,81.423,46.826,83.521,46.919,85.892z"></path></g></svg>