<svg xmlns="http://www.w3.org/2000/svg" xmlns:xlink="http://www.w3.org/1999/xlink" version="1.1" x="0px" y="0px" viewBox="0 0 512 512" style="enable-background:new 0 0 512 512;" xml:space="preserve"><g><g><g><g><path d="M417.967,421.89H94.033c-1.657,0-3-1.343-3-3V340.69c0-1.657,1.343-3,3-3s3,1.343,3,3v75.199h317.934v-94.867      c0-1.657,1.343-3,3-3s3,1.343,3,3v97.867C420.967,420.547,419.624,421.89,417.967,421.89z M94.033,293.69c-1.657,0-3-1.343-3-3      V94.956c0-1.657,1.343-3,3-3h323.934c1.657,0,3,1.343,3,3v176.066c0,1.657-1.343,3-3,3s-3-1.343-3-3V97.956H97.033V290.69      C97.033,292.348,95.69,293.69,94.033,293.69z"></path></g><g><path d="M94.034,327.016c-0.78,0-1.547-0.305-2.122-0.878L24.805,259.06c-0.563-0.563-0.879-1.326-0.879-2.122      c0-0.796,0.316-1.559,0.879-2.122l67.107-67.107c0.857-0.859,2.148-1.115,3.269-0.65c1.121,0.464,1.852,1.558,1.852,2.771      v134.186c0,1.213-0.731,2.307-1.852,2.771C94.811,326.941,94.42,327.016,94.034,327.016z M31.169,256.937l59.864,59.838V197.073      L31.169,256.937z"></path></g><g><path d="M255.986,488.996C255.986,488.996,255.986,488.996,255.986,488.996c-0.796,0-1.559-0.316-2.122-0.879l-67.076-67.106      c-0.858-0.858-1.114-2.148-0.65-3.27s1.558-1.852,2.771-1.852h134.184c1.213,0,2.308,0.73,2.771,1.852      c0.465,1.121,0.208,2.412-0.65,3.27l-67.107,67.106C257.545,488.68,256.782,488.996,255.986,488.996z M196.15,421.89      l59.836,59.863l59.864-59.863H196.15z"></path></g><g><path d="M417.966,327.016c-0.387,0-0.776-0.074-1.147-0.229c-1.121-0.465-1.852-1.559-1.852-2.771V189.83      c0-1.213,0.73-2.307,1.852-2.771c1.123-0.465,2.413-0.207,3.27,0.65l67.107,67.107c0.563,0.563,0.879,1.326,0.879,2.122      c0,0.795-0.316,1.559-0.879,2.122l-67.107,67.078C419.514,326.711,418.747,327.016,417.966,327.016z M420.967,197.073v119.703      l59.864-59.838L420.967,197.073z"></path></g><g><path d="M323.113,97.956c-0.006,0-0.014,0-0.02,0H188.91c-1.213,0-2.307-0.731-2.771-1.852c-0.464-1.121-0.208-2.411,0.65-3.269      l67.076-67.106c1.125-1.126,3.118-1.126,4.243,0l66.911,66.91c0.669,0.55,1.095,1.384,1.095,2.318      C326.113,96.613,324.771,97.956,323.113,97.956z M196.15,91.956h119.7l-59.864-59.863L196.15,91.956z"></path></g><g><path d="M298.547,421.89h-22.739c-1.657,0-3-1.343-3-3s1.343-3,3-3h21.497l80.553-80.523V178.479l-80.553-80.522h-82.636      l-80.522,80.522v156.889l80.522,80.522h11.14c1.657,0,3,1.343,3,3s-1.343,3-3,3h-12.382c-0.796,0-1.559-0.316-2.121-0.879      l-82.279-82.28c-0.563-0.563-0.879-1.325-0.879-2.121V177.235c0-0.795,0.316-1.559,0.879-2.121l82.279-82.279      c0.563-0.563,1.326-0.879,2.121-0.879h85.121c0.796,0,1.559,0.316,2.121,0.878l82.311,82.279      c0.563,0.563,0.879,1.326,0.879,2.122v159.374c0,0.796-0.316,1.559-0.879,2.122l-82.311,82.28      C300.105,421.574,299.343,421.89,298.547,421.89z"></path></g><g><path d="M256.018,364.537c-0.796,0-1.59-0.316-2.153-0.879l-66.346-66.374c-0.563-0.563-0.878-1.325-0.878-2.121v-76.48      c0-0.795,0.316-1.558,0.878-2.121l46.264-46.284c1.17-1.171,3.07-1.173,4.243,0c1.171,1.171,1.172,3.071,0,4.243l-45.385,45.405      v73.996l63.361,63.389l63.357-63.389v-73.996l-65.346-65.377c-0.62-0.549-1.012-1.349-1.012-2.239c0-1.657,1.328-3,2.984-3      h0.031c0.796,0,1.56,0.316,2.122,0.879l66.342,66.374c0.563,0.563,0.878,1.325,0.878,2.121v76.48      c0,0.795-0.315,1.559-0.878,2.121l-66.342,66.374C257.577,364.221,256.813,364.537,256.018,364.537z"></path></g><g><path d="M256.018,364.537h-0.031c-0.796,0-1.56-0.316-2.123-0.88l-26.979-27.007c-0.562-0.563-0.877-1.325-0.877-2.12V179.314      c0-0.795,0.315-1.558,0.877-2.12l26.979-27.006c1.126-1.127,3.151-1.127,4.276,0l26.975,27.006      c0.563,0.563,0.878,1.325,0.878,2.12V334.53c0,0.795-0.315,1.558-0.877,2.12l-26.975,27.007      C257.577,364.221,256.814,364.537,256.018,364.537z M232.008,333.288l23.994,24.02l23.99-24.019V180.556l-23.99-24.018      l-23.994,24.018V333.288z"></path></g><g><path d="M322.359,298.163H210.145c-1.657,0-3-1.343-3-3s1.343-3,3-3h112.215c1.657,0,3,1.343,3,3      S324.017,298.163,322.359,298.163z"></path></g><g><path d="M322.359,221.683H189.641c-1.657,0-3-1.343-3-3s1.343-3,3-3h132.719c1.657,0,3,1.343,3,3      S324.017,221.683,322.359,221.683z"></path></g><g><path d="M172.477,192.45h-21.94c-1.657,0-3-1.343-3-3s1.343-3,3-3h21.94c1.657,0,3,1.343,3,3S174.133,192.45,172.477,192.45z"></path></g><g><path d="M172.477,214.945h-21.94c-1.657,0-3-1.343-3-3s1.343-3,3-3h21.94c1.657,0,3,1.343,3,3S174.133,214.945,172.477,214.945z      "></path></g><g><path d="M172.477,237.441h-21.94c-1.657,0-3-1.343-3-3s1.343-3,3-3h21.94c1.657,0,3,1.343,3,3S174.133,237.441,172.477,237.441z      "></path></g><g><path d="M172.477,259.938h-21.94c-1.657,0-3-1.343-3-3c0-1.657,1.343-3,3-3h21.94c1.657,0,3,1.343,3,3      C175.477,258.595,174.133,259.938,172.477,259.938z"></path></g><g><path d="M172.477,282.404h-21.94c-1.657,0-3-1.343-3-3s1.343-3,3-3h21.94c1.657,0,3,1.343,3,3S174.133,282.404,172.477,282.404z      "></path></g><g><path d="M172.477,304.899h-21.94c-1.657,0-3-1.343-3-3s1.343-3,3-3h21.94c1.657,0,3,1.343,3,3S174.133,304.899,172.477,304.899z      "></path></g><g><path d="M172.477,327.396h-21.94c-1.657,0-3-1.343-3-3s1.343-3,3-3h21.94c1.657,0,3,1.343,3,3S174.133,327.396,172.477,327.396z      "></path></g><g><path d="M361.436,192.45h-21.91c-1.657,0-3-1.343-3-3s1.343-3,3-3h21.91c1.657,0,3,1.343,3,3S363.093,192.45,361.436,192.45z"></path></g><g><path d="M361.436,214.945h-21.91c-1.657,0-3-1.343-3-3s1.343-3,3-3h21.91c1.657,0,3,1.343,3,3S363.093,214.945,361.436,214.945z      "></path></g><g><path d="M361.436,237.441h-21.91c-1.657,0-3-1.343-3-3s1.343-3,3-3h21.91c1.657,0,3,1.343,3,3S363.093,237.441,361.436,237.441z      "></path></g><g><path d="M361.436,259.938h-21.91c-1.657,0-3-1.343-3-3c0-1.657,1.343-3,3-3h21.91c1.657,0,3,1.343,3,3      C364.436,258.595,363.093,259.938,361.436,259.938z"></path></g><g><path d="M361.436,282.404h-21.91c-1.657,0-3-1.343-3-3s1.343-3,3-3h21.91c1.657,0,3,1.343,3,3S363.093,282.404,361.436,282.404z      "></path></g><g><path d="M361.436,304.899h-21.91c-1.657,0-3-1.343-3-3s1.343-3,3-3h21.91c1.657,0,3,1.343,3,3S363.093,304.899,361.436,304.899z      "></path></g><g><path d="M361.436,327.396h-21.91c-1.657,0-3-1.343-3-3s1.343-3,3-3h21.91c1.657,0,3,1.343,3,3S363.093,327.396,361.436,327.396z      "></path></g><g><path d="M390.493,70.334h-52.021c-0.796,0-1.559-0.316-2.121-0.878l-41.332-41.33c-1.172-1.172-1.172-3.071,0-4.243      c1.172-1.172,3.07-1.171,4.242,0l40.453,40.452h50.778c1.657,0,3,1.343,3,3S392.15,70.334,390.493,70.334z"></path></g><g><path d="M60.937,399.043c-0.011,0-0.022,0-0.034,0c-1.657-0.019-2.985-1.377-2.966-3.033l1.169-104.189      c0.019-1.656,1.373-2.959,3.034-2.967c1.657,0.019,2.985,1.377,2.966,3.033l-1.169,104.189      C63.918,397.722,62.578,399.043,60.937,399.043z"></path></g><g><path d="M333.228,458.475h-46.72c-1.657,0-3-1.343-3-3s1.343-3,3-3h46.72c1.657,0,3,1.343,3,3S334.885,458.475,333.228,458.475z      "></path></g><g><path d="M225.495,458.475H86.713c-1.657,0-3-1.343-3-3s1.343-3,3-3h138.782c1.657,0,3,1.343,3,3      S227.152,458.475,225.495,458.475z"></path></g><g><path d="M401.653,443.478H301.504c-1.657,0-3-1.343-3-3s1.343-3,3-3h100.149c1.657,0,3,1.343,3,3      S403.311,443.478,401.653,443.478z"></path></g><g><path d="M440.434,443.478h-21.322c-1.657,0-3-1.343-3-3s1.343-3,3-3h21.322c1.657,0,3,1.343,3,3      S442.091,443.478,440.434,443.478z"></path></g><g><path d="M157.832,443.946H77.014c-1.657,0-3-1.343-3-3s1.343-3,3-3h80.818c1.657,0,3,1.343,3,3S159.489,443.946,157.832,443.946      z"></path></g></g></g></g></svg>