<svg xmlns="http://www.w3.org/2000/svg" xmlns:xlink="http://www.w3.org/1999/xlink" xml:space="preserve" version="1.1" style="shape-rendering:geometricPrecision;text-rendering:geometricPrecision;image-rendering:optimizeQuality;" viewBox="0 0 847 847" x="0px" y="0px" fill-rule="evenodd" clip-rule="evenodd"><defs><style type="text/css">
   
    .fil0 {fill:black}
   
  </style></defs><g><path class="fil0" d="M423 105c7,-10 13,-18 21,-26 -7,-5 -13,-9 -21,-12 -7,3 -14,7 -20,12 7,8 14,16 20,26zm-27 -47c-9,-2 -18,-2 -28,-1 7,3 12,6 18,9 3,-3 6,-6 10,-8zm187 89c10,-5 20,-9 30,-11 -3,-8 -7,-15 -11,-22 -8,0 -16,0 -25,1 3,10 5,21 6,32zm52 -14c6,-1 12,0 19,1 -7,-6 -16,-10 -24,-13 2,4 3,8 5,12zm62 17c31,19 50,50 55,83 27,22 44,54 45,90 18,32 19,69 6,100 13,32 12,68 -6,100 -1,37 -18,69 -45,90 -5,34 -24,65 -55,84 -19,31 -50,50 -84,55 -21,27 -53,44 -90,45 -32,18 -68,19 -100,6 -31,13 -68,12 -100,-6 -36,-1 -68,-18 -90,-45 -33,-5 -64,-24 -83,-55 -32,-19 -51,-50 -56,-84 -26,-21 -44,-53 -44,-90 -18,-32 -19,-68 -7,-100 -12,-31 -11,-68 7,-100 0,-36 18,-68 44,-90 5,-33 24,-64 56,-83 19,-32 50,-51 83,-56 22,-26 54,-44 90,-44 32,-18 69,-19 100,-7 32,-12 68,-11 100,7 37,0 69,18 90,44 34,5 65,24 84,56zm57 114c-1,5 -1,9 -2,13 5,3 11,7 16,11 -4,-9 -9,-16 -14,-24zm-8 35c-3,6 -6,13 -9,19 -6,9 -12,18 -19,26 10,4 20,9 29,14 7,4 13,8 18,12 6,-11 10,-25 10,-41 -8,-14 -18,-24 -29,-30zm-44 63c-26,25 -58,45 -91,61 33,16 65,36 91,62 12,-4 24,-9 35,-15 5,-3 10,-7 15,-11 -13,-13 -31,-24 -55,-36 24,-11 42,-22 55,-36 -5,-3 -10,-7 -15,-10 -11,-6 -23,-11 -35,-15zm-116 73c-16,7 -31,13 -48,19 11,13 22,27 32,40 39,4 75,4 108,-3 -25,-22 -57,-40 -92,-56zm-69 27c-4,1 -9,3 -13,4l1 5 -4 1c1,4 2,9 2,13 13,2 25,4 37,6 -7,-10 -15,-19 -23,-29zm-113 35l-3 1c1,1 1,2 1,4 1,-1 2,-2 3,-3l-1 -2zm-24 7l-4 1 -1 -4c-5,1 -9,2 -13,2 -3,13 -5,25 -6,37 9,-7 19,-15 29,-23 -2,-4 -3,-9 -5,-13zm-10 -24l-1 -3 -2 0c0,1 -1,2 -1,4 1,-1 3,-1 4,-1zm-24 -105c-1,-5 -2,-9 -3,-13 -12,-3 -25,-5 -37,-6 8,9 16,19 24,29 4,-2 8,-3 13,-5l-2 -4 5 -1zm-7 -36c-3,-17 -5,-34 -7,-51 -32,-22 -63,-40 -95,-51 11,32 29,63 51,95 17,2 34,4 51,7zm-10 -78c-2,-37 -1,-75 8,-110 -9,-9 -19,-16 -30,-22 -6,-4 -11,-6 -17,-8 -5,18 -6,39 -4,65 -21,-15 -40,-25 -58,-29 -1,6 -2,12 -2,18 0,13 2,25 4,38 36,9 69,27 99,48zm15 -132c4,-11 9,-20 14,-30 4,-6 8,-12 12,-17 -11,-7 -25,-10 -41,-11 -14,9 -24,19 -30,30 6,2 13,5 19,9 9,5 18,12 26,19zm215 -50c4,5 7,10 10,16 5,-1 9,-1 13,-2 -7,-6 -15,-10 -23,-14zm1 107c22,-15 41,-25 59,-29 1,6 1,12 1,18 0,13 -1,25 -4,38 -35,9 -68,27 -99,48 3,-37 2,-75 -8,-110 10,-9 20,-16 31,-22 5,-4 11,-6 17,-8 5,18 5,39 3,65zm80 -32c13,0 27,4 41,12 8,14 11,27 12,41 -7,-2 -14,-2 -22,-2 -10,0 -21,1 -32,3 2,-11 3,-22 3,-33 0,-7 -1,-14 -2,-21zm73 39c5,7 10,15 13,24 -4,-2 -8,-4 -12,-5 0,-6 0,-13 -1,-19zm19 52c1,8 1,16 -1,24 -10,-3 -20,-4 -32,-5 5,-10 9,-20 12,-30 7,3 15,6 21,11zm-6 45c-2,6 -5,11 -8,17 -6,11 -14,21 -22,30 -36,-9 -73,-10 -110,-8 20,-30 38,-63 48,-99 13,-2 25,-4 37,-4 7,0 13,1 19,2 -4,18 -14,37 -29,58 26,-2 47,-1 65,4zm-48 65c-25,22 -57,40 -92,57 -16,-7 -31,-14 -48,-20 11,-13 22,-26 32,-40 39,-3 75,-3 108,3zm-120 68c-11,5 -23,9 -34,14 -3,-4 -6,-7 -9,-10l3 -4 -3 -3c3,-3 6,-7 9,-10 11,4 23,9 34,13zm-56 21c-2,1 -3,1 -4,1l-1 -2 2 -2c1,1 2,2 3,3zm-56 18c-4,1 -8,2 -11,4 -4,0 -8,1 -12,2 -3,-1 -7,-2 -11,-2 -4,-2 -7,-3 -11,-4 -3,-2 -6,-5 -9,-8 -2,-3 -5,-5 -7,-8 -2,-4 -3,-8 -4,-11 -1,-4 -2,-8 -2,-12 0,-3 1,-7 2,-11 1,-4 2,-7 4,-11 2,-3 5,-6 7,-9 3,-2 6,-5 9,-7 4,-2 7,-3 11,-4 4,-1 8,-2 11,-2 4,0 8,1 12,2 3,1 7,2 11,4 3,2 5,5 8,7 3,3 6,6 8,9 1,4 2,7 4,11 0,4 1,8 2,11 -1,4 -2,8 -2,12 -2,3 -3,7 -4,11 -2,3 -5,5 -8,8 -3,3 -5,6 -8,8zm-79 -92c0,-1 -1,-3 -1,-4 1,0 3,1 4,1l-1 2 -2 1zm-5 -27c-3,-12 -5,-25 -6,-37 9,8 19,16 29,24 -2,4 -3,8 -5,13l-4 -2 -1 5c-5,-1 -9,-2 -13,-3zm-10 -66c-3,-39 -3,-75 3,-108 22,25 40,56 57,92 -7,15 -14,31 -20,47 -13,-11 -26,-21 -40,-31zm10 -133c4,-12 9,-23 15,-34 3,-6 7,-11 10,-15 14,12 25,31 36,54 12,-23 23,-42 36,-54 4,4 8,9 11,15 6,11 11,22 15,34 -26,26 -46,59 -62,91 -16,-32 -36,-65 -61,-91zm89 -86c9,-2 18,-2 27,-1 -6,3 -12,6 -17,9 -3,-3 -7,-6 -10,-8zm67 13c13,9 23,19 30,30 -6,2 -13,5 -19,9 -10,5 -18,12 -27,19 -3,-11 -8,-20 -13,-30 -4,-6 -8,-12 -13,-17 12,-7 26,-10 42,-11zm271 380c-3,3 -5,7 -8,10 3,5 6,11 8,17 1,-9 1,-18 0,-27zm-24 25c-5,5 -11,9 -18,13 -9,5 -19,10 -29,13 7,9 13,17 19,27 3,6 6,13 9,19 11,-7 21,-17 29,-30 0,-16 -4,-30 -10,-42zm-69 33c-36,10 -73,11 -110,8 20,31 38,64 48,99 13,3 25,4 37,4 7,0 13,0 19,-1 -4,-18 -14,-37 -29,-59 26,2 47,2 65,-3 -2,-6 -5,-12 -8,-17 -6,-11 -14,-21 -22,-31zm-138 6c-17,-2 -34,-5 -50,-7 2,16 5,33 7,50 31,23 63,41 94,51 -10,-31 -28,-63 -51,-94zm-73 -12c-4,0 -9,-1 -13,-2l-1 4 -5 -1c-1,4 -3,9 -4,13 10,8 19,16 29,23 -2,-12 -4,-24 -6,-37zm-139 -31l-5 -1 2 -5c-5,-1 -9,-3 -13,-4 -8,10 -16,19 -24,29 12,-2 25,-4 37,-6 1,-4 2,-9 3,-13zm3 -27l0 -2 -1 -2c-1,1 -2,2 -3,3 1,1 3,1 4,1zm440 -77c1,10 1,19 0,28 -3,-4 -5,-7 -8,-10 3,-6 6,-11 8,-18zm-9 55c-3,8 -8,14 -13,21 -7,-8 -16,-14 -25,-21 9,-6 18,-13 25,-20 5,6 10,13 13,20zm-299 58c-2,-1 -3,-1 -4,-1l0 -3 3 0c0,1 0,2 1,4zm-80 -132c1,-1 1,-3 1,-4 1,1 2,2 3,3l-1 1 -3 0zm9 -26c4,-12 9,-23 13,-35 5,12 9,23 14,35 -4,3 -7,6 -10,9l-4 -3 -3 3c-3,-3 -7,-6 -10,-9zm25 -62c16,-36 35,-67 56,-92 7,33 7,69 3,108 -13,10 -27,20 -40,31 -6,-16 -12,-32 -19,-47zm291 369c-4,2 -8,3 -12,5 0,6 0,12 -1,19 5,-7 10,-16 13,-24zm-33 10c-7,1 -14,2 -22,2 -10,0 -21,-1 -32,-3 2,11 3,22 3,32 0,8 -1,15 -2,22 13,-1 27,-4 41,-12 8,-14 11,-28 12,-41zm-77 -6c-35,-10 -68,-28 -99,-48 3,37 2,74 -8,110 10,8 20,16 31,22 5,3 11,6 17,8 5,-18 5,-39 3,-65 22,15 41,25 59,29 1,-6 1,-12 1,-19 0,-12 -1,-24 -4,-37zm-122 -64c-13,-10 -27,-21 -40,-32 -6,17 -12,32 -19,48 16,35 34,67 56,92 7,-33 7,-69 3,-108zm-57 -46c-4,-3 -7,-6 -10,-9l-4 3 -3 -3c-3,3 -7,6 -10,9 4,11 9,23 13,34 5,-11 9,-23 14,-34zm-105 -97l-3 -4 3 -3c-3,-3 -6,-7 -9,-10 -12,4 -23,9 -35,13 12,5 23,9 35,14 3,-4 6,-7 9,-10zm16 -22l1 -1 0 -3c-1,1 -3,1 -4,1 1,1 2,2 3,3zm420 154c-4,8 -9,16 -14,23 -1,-4 -1,-8 -2,-13 5,-3 11,-6 16,-10zm-36 43c-6,4 -14,8 -21,11 -3,-10 -7,-20 -12,-30 12,-1 22,-3 32,-6 2,9 2,17 1,25zm-288 -100c-1,-1 -2,-2 -3,-3l2 -2 2 1c0,1 0,2 -1,4zm-3 -154c1,-1 2,-2 3,-3 1,1 1,3 1,4l-2 0 -2 -1zm21 -18c10,-8 19,-16 29,-24 -2,12 -4,25 -6,37 -4,1 -9,2 -13,3l-1 -5 -5 2c-1,-5 -3,-9 -4,-13zm53 -42c31,-22 63,-40 94,-51 -10,32 -28,63 -51,95 -17,2 -34,4 -50,7 2,-17 5,-34 7,-51zm67 466c-4,-1 -8,-1 -13,-2 -3,5 -6,11 -10,16 8,-4 16,-9 23,-14zm-34 -8c-6,-3 -13,-6 -19,-9 -10,-6 -18,-12 -27,-19 -3,10 -8,20 -13,29 -4,7 -8,13 -13,18 12,6 26,10 42,10 13,-8 23,-18 30,-29zm-63 -44c-26,-26 -46,-58 -62,-91 -16,33 -36,65 -61,91 4,12 9,24 15,35 3,5 7,10 10,15 14,-13 25,-31 36,-55 12,24 23,42 36,55 4,-5 8,-10 11,-15 6,-11 11,-23 15,-35zm-73 -116c-7,-16 -14,-31 -20,-48 -13,11 -26,22 -40,32 -3,39 -3,75 3,108 22,-25 40,-57 57,-92zm242 127c-7,5 -16,10 -24,13 2,-4 3,-8 5,-12 6,0 12,0 19,-1zm-52 19c-8,1 -16,1 -25,-1 3,-10 5,-20 6,-32 10,5 20,9 30,12 -3,7 -7,15 -11,21zm-125 -365c1,0 2,-1 4,-1 -1,1 -1,3 -1,4l-3 -1 0 -2zm26 -5c13,-3 25,-5 37,-6 -7,9 -15,19 -23,29 -4,-2 -9,-3 -13,-5l1 -4 -4 -1c1,-5 2,-9 2,-13zm-107 427c-4,-3 -7,-5 -10,-8 -6,3 -11,6 -18,8 10,1 19,1 28,0zm-26 -24c-4,-5 -8,-11 -12,-18 -5,-9 -10,-19 -14,-29 -8,7 -17,13 -26,19 -6,3 -13,6 -19,9 6,11 16,21 30,29 16,0 30,-4 41,-10zm-33 -69c-9,-36 -10,-73 -8,-110 -30,20 -63,38 -99,48 -2,13 -4,25 -4,37 0,7 1,13 2,19 18,-4 37,-14 58,-29 -2,26 -1,47 4,65 6,-2 11,-5 17,-8 11,-6 21,-14 30,-22zm-5 -138c2,-17 4,-34 7,-50 -17,2 -34,5 -51,7 -22,31 -40,63 -51,94 32,-10 63,-28 95,-51zm146 231c-9,1 -18,1 -27,0 3,-3 7,-5 10,-8 5,3 11,6 17,8zm-55 -9c-7,-3 -14,-8 -20,-13 7,-7 14,-16 20,-25 7,9 13,18 21,25 -7,5 -13,10 -21,13zm75 -379c1,1 2,1 4,1 -1,1 -2,2 -3,3l-2 -1 1 -3zm-281 325c-2,-4 -4,-8 -5,-12 -6,0 -13,0 -19,-1 7,5 15,10 24,13zm-10 -33c-2,-7 -2,-14 -2,-22 0,-10 1,-21 3,-32 -11,2 -22,3 -33,3 -7,0 -14,-1 -21,-2 0,13 4,27 12,41 14,8 27,11 41,12zm6 -77c9,-35 27,-68 48,-99 -37,3 -75,2 -110,-8 -9,10 -16,20 -22,31 -4,5 -6,11 -8,17 18,5 39,5 65,3 -15,22 -25,41 -29,59 6,1 12,1 18,1 13,0 25,-1 38,-4zm64 -122c10,-13 20,-27 31,-40 -16,-6 -32,-12 -47,-19 -36,16 -67,34 -92,56 33,7 69,7 108,3zm11 274c-9,-4 -16,-9 -24,-14 5,-1 9,-1 13,-2 3,5 7,11 11,16zm-43 -36c-5,-6 -8,-14 -11,-21 10,-3 20,-7 30,-12 1,12 2,22 5,32 -8,2 -16,2 -24,1zm-152 -150c1,-4 1,-8 2,-13 -6,-3 -11,-6 -16,-10 4,8 8,16 14,23zm8 -34c2,-6 5,-13 9,-19 5,-10 12,-18 19,-27 -11,-3 -20,-8 -30,-13 -6,-4 -12,-8 -17,-13 -7,12 -10,26 -11,42 9,13 19,23 30,30zm43 -63c26,-26 59,-46 91,-62 -32,-16 -65,-36 -91,-61 -12,4 -23,9 -34,15 -6,3 -11,7 -15,10 12,14 31,25 54,36 -23,12 -42,23 -54,36 4,4 9,8 15,11 11,6 22,11 34,15zm117 -73c15,-7 31,-14 47,-20 -11,-13 -21,-26 -31,-40 -39,-3 -75,-3 -108,3 25,22 56,40 92,57zm-127 242c-6,-7 -10,-16 -13,-24 4,2 8,3 12,5 -1,6 0,12 1,19zm-20 -52c0,-8 0,-16 1,-25 10,3 21,5 32,6 -5,10 -9,20 -11,30 -8,-3 -15,-7 -22,-11zm-56 -206c2,-4 5,-7 8,-10 -3,-6 -6,-11 -9,-18 -1,10 -1,19 1,28zm24 -26c5,-4 11,-8 17,-12 10,-5 19,-10 30,-14 -7,-8 -14,-17 -19,-26 -4,-6 -7,-13 -9,-19 -11,6 -21,16 -30,30 1,16 4,30 11,41zm69 -33c35,-9 73,-10 110,-8 -21,-30 -39,-63 -48,-99 -13,-2 -25,-4 -38,-4 -6,0 -12,1 -18,2 4,18 14,37 29,58 -26,-2 -47,-1 -65,4 2,6 4,11 8,17 6,11 13,21 22,30zm-94 141c-1,-9 -1,-18 1,-27 2,3 5,7 8,10 -3,5 -6,11 -9,17zm10 -55c3,-7 7,-14 12,-20 8,7 16,14 26,20 -10,7 -18,13 -26,21 -5,-7 -9,-13 -12,-21zm54 -206c4,-2 8,-4 12,-5 -1,-6 0,-13 1,-19 -6,7 -10,15 -13,24zm33 -10c7,-2 14,-2 21,-2 11,0 22,1 33,3 -2,-11 -3,-22 -3,-33 0,-7 0,-14 2,-21 -14,0 -27,4 -41,12 -8,14 -12,27 -12,41zm-75 81c4,-9 8,-16 14,-24 1,5 1,9 2,13 -6,3 -11,7 -16,11zm35 -43c7,-5 14,-8 22,-11 2,10 6,20 11,30 -11,1 -22,2 -32,5 -1,-8 -1,-16 -1,-24zm150 -152c5,1 9,1 13,2 3,-6 7,-11 11,-16 -9,4 -16,8 -24,14zm-71 41c7,-6 15,-10 24,-13 -2,4 -4,8 -5,12 -6,-1 -13,0 -19,1zm52 -20c8,0 16,0 24,1 -3,10 -4,21 -5,32 -10,-5 -20,-9 -30,-11 3,-8 6,-15 11,-22z"></path></g></svg>