<svg xmlns="http://www.w3.org/2000/svg" xmlns:xlink="http://www.w3.org/1999/xlink" version="1.1" x="0px" y="0px" viewBox="0 0 64 64" style="enable-background:new 0 0 64 64;" xml:space="preserve"><g><path d="M13,40c0,1.105,0.895,2,2,2h5.405C19.475,40.154,19,38.169,19,36v-6h-8c-1.105,0-2,0.895-2,2c0,1.105,0.895,2,2,2h2   c-1.105,0-2,0.895-2,2c0,1.105,0.895,2,2,2h2C13.895,38,13,38.895,13,40z"></path><path d="M55,32c0-1.105-0.895-2-2-2h-8v6c0,2.169-0.475,4.154-1.405,6H49c1.105,0,2-0.895,2-2c0-1.105-0.895-2-2-2h2   c1.105,0,2-0.895,2-2c0-1.105-0.895-2-2-2h2C54.105,34,55,33.105,55,32z"></path><polygon points="36,12 38,7 34,8 32,3 30,8 26,7 28,12  "></polygon><polygon points="28.303,23 22.037,17.377 20.414,19 24.414,23  "></polygon><polygon points="19,20.414 17.377,22.037 19,23.846 19,23 21.586,23  "></polygon><rect x="30.171" y="24.171" transform="matrix(0.7071 -0.7071 0.7071 0.7071 -9.0122 30.2426)" width="3.657" height="3.657"></rect><path d="M29.872,43.817L31,44.382V37h-5.93c0.234,1.951,1.1,3.757,2.511,5.167C28.251,42.837,29.021,43.393,29.872,43.817z"></path><circle cx="59" cy="5" r="2"></circle><path d="M56.662,8.231c-0.343-0.249-0.644-0.55-0.893-0.893l-1.613,0.404l2.102,2.102L56.662,8.231z"></path><rect x="47.654" y="10.922" transform="matrix(0.7071 -0.7071 0.7071 0.7071 5.9952 39.9736)" width="7.193" height="3.657"></rect><polygon points="31,30.414 29.586,29 25,29 25,35 31,35  "></polygon><polygon points="45,23.846 46.623,22.037 45,20.414 42.414,23 45,23  "></polygon><path d="M36.418,42.167c1.411-1.41,2.277-3.216,2.511-5.167H33v7.382l1.128-0.564C34.979,43.393,35.749,42.837,36.418,42.167z"></path><rect x="45.379" y="10.015" transform="matrix(0.7071 -0.7071 0.7071 0.7071 1.2452 38.0061)" width="2.243" height="14.971"></rect><path d="M21.539,43.875L4.66,60.754l7.858-0.714l11.816-13.166c-0.36-0.297-0.71-0.607-1.041-0.938   C22.626,45.269,22.048,44.582,21.539,43.875z"></path><path d="M43,25h-6.586l1,1l-1,1H41v8.936c0,2.889-1.125,5.604-3.167,7.646c-0.822,0.822-1.767,1.504-2.81,2.025L32,47.118   l-3.023-1.512c-1.043-0.521-1.988-1.203-2.811-2.025C24.125,41.539,23,38.824,23,35.936V27h4.586l-1-1l1-1H21v11   c0,3.285,1.178,5.993,3.707,8.521c0.976,0.977,2.096,1.784,3.331,2.4L32,48.884l3.965-1.964c1.231-0.614,2.352-1.422,3.327-2.398   C41.822,41.993,43,39.285,43,36V25z"></path><path d="M15,44c-0.85,0-1.635-0.271-2.284-0.724L3.961,51.47l-0.716,7.87L18.586,44H15z"></path><path d="M42.363,44c-0.487,0.662-1.03,1.309-1.656,1.936c-0.331,0.332-0.681,0.641-1.041,0.938L51.482,60.04l7.858,0.714L42.586,44   H42.363z"></path><path d="M51.284,43.276C50.635,43.729,49.85,44,49,44h-3.586l15.34,15.34l-0.716-7.87L51.284,43.276z"></path><circle cx="5" cy="5" r="2"></circle><polygon points="35.697,23 39.586,23 43.586,19 41.963,17.377  "></polygon><rect x="10.015" y="16.379" transform="matrix(0.7071 -0.7071 0.7071 0.7071 -7.2487 17.5)" width="14.971" height="2.243"></rect><polygon points="39,29 34.414,29 33,30.414 33,35 39,35  "></polygon><rect x="10.922" y="9.154" transform="matrix(0.7071 -0.7071 0.7071 0.7071 -5.2812 12.75)" width="3.657" height="7.193"></rect><path d="M9.844,7.742L8.231,7.338c-0.249,0.343-0.55,0.644-0.893,0.893l0.404,1.613L9.844,7.742z"></path></g></svg>