<svg xmlns="http://www.w3.org/2000/svg" xmlns:xlink="http://www.w3.org/1999/xlink" version="1.1" x="0px" y="0px" viewBox="0 0 512 512" style="enable-background:new 0 0 512 512;" xml:space="preserve"><g><g><path d="M267.831,203.963c10.641-13.074,21.643-26.593,21.643-37.664c0-18.468-15.008-33.493-33.454-33.493    c-18.469,0-33.493,15.025-33.493,33.493c0,11.187,10.968,24.478,21.575,37.332c4.121,4.994,8.342,10.108,12.062,15.25    C259.759,213.883,263.843,208.864,267.831,203.963z"></path><polygon points="236.52,259.895 255.701,282.17 273.683,259.857 255.987,235.963   "></polygon><polygon points="186.52,259.895 205.701,282.17 223.683,259.857 205.987,235.963   "></polygon><polygon points="286.52,259.895 305.7,282.17 323.683,259.857 305.987,235.963   "></polygon><path d="M244.17,313.828c-10.641,13.074-21.644,26.594-21.644,37.664c0,18.469,15.008,33.494,33.455,33.494    c18.468,0,33.492-15.025,33.492-33.494c0-11.186-10.968-24.477-21.575-37.33c-4.12-4.994-8.342-10.109-12.062-15.252    C252.241,303.908,248.158,308.928,244.17,313.828z"></path><path d="M374.689,147.427C352.591,99.331,314.061,41.999,256,41.999c-58.06,0-96.591,57.333-118.689,105.429    c-26.218,57.06-39.936,125.668-39.936,163.95c0,87.465,71.159,158.625,158.625,158.625s158.625-71.16,158.625-158.625    C414.625,273.096,400.907,204.487,374.689,147.427z M306.46,196.446c0.93-0.93,2.22-1.46,3.54-1.46c1.319,0,2.609,0.53,3.53,1.46    c0.939,0.93,1.47,2.22,1.47,3.54c0,1.32-0.53,2.61-1.47,3.54c-0.931,0.93-2.211,1.46-3.53,1.46c-1.32,0-2.61-0.53-3.54-1.46    c-0.93-0.93-1.46-2.22-1.46-3.54C305,198.666,305.53,197.375,306.46,196.446z M196.46,196.446c0.94-0.93,2.22-1.46,3.54-1.46    s2.6,0.53,3.53,1.46c0.939,0.94,1.47,2.22,1.47,3.54c0,1.32-0.53,2.6-1.47,3.53c-0.931,0.94-2.21,1.47-3.53,1.47    s-2.6-0.53-3.54-1.47c-0.93-0.93-1.46-2.21-1.46-3.53C195,198.666,195.53,197.386,196.46,196.446z M203.53,323.516    c-0.92,0.939-2.21,1.471-3.53,1.471s-2.61-0.531-3.53-1.471c-0.939-0.92-1.47-2.211-1.47-3.529c0-1.32,0.53-2.611,1.47-3.541    c0.92-0.93,2.21-1.459,3.53-1.459s2.61,0.529,3.53,1.459c0.939,0.939,1.47,2.221,1.47,3.541    C205,321.305,204.47,322.586,203.53,323.516z M313.53,323.516c-0.931,0.939-2.211,1.471-3.53,1.471    c-1.32,0-2.601-0.531-3.54-1.471c-0.93-0.93-1.46-2.211-1.46-3.529c0-1.32,0.53-2.602,1.46-3.541c0.93-0.93,2.22-1.459,3.54-1.459    c1.319,0,2.6,0.529,3.53,1.459c0.939,0.939,1.47,2.221,1.47,3.541C315,321.305,314.47,322.586,313.53,323.516z M333.894,263.123    l-24.173,29.994c-0.932,1.156-2.328,1.838-3.813,1.861c-0.027,0.002-0.054,0.002-0.081,0.002c-1.454,0-2.838-0.635-3.789-1.738    l-21.911-25.445l-18.122,22.486c3.93,5.777,8.834,11.729,13.607,17.514c11.73,14.217,23.861,28.916,23.861,43.695    c0,23.982-19.511,43.494-43.492,43.494c-23.962,0-43.455-19.512-43.455-43.494c0-14.625,12.144-29.547,23.887-43.977    c4.623-5.68,9.369-11.521,13.171-17.123l-19.457-22.596l-20.406,25.32c-0.931,1.156-2.327,1.838-3.812,1.861    c-0.027,0.002-0.055,0.002-0.081,0.002c-1.455,0-2.839-0.635-3.789-1.738l-25.828-29.994c-1.58-1.834-1.618-4.539-0.09-6.417    l26.173-32.173c0.975-1.198,2.445-1.887,3.992-1.843c1.544,0.035,2.985,0.782,3.904,2.023l19.995,26.998l19.801-24.341    c-3.929-5.772-8.828-11.718-13.598-17.498c-11.731-14.217-23.862-28.917-23.862-43.697c0-23.982,19.511-43.493,43.493-43.493    c23.96,0,43.454,19.511,43.454,43.493c0,14.625-12.143,29.546-23.886,43.976c-4.687,5.758-9.502,11.683-13.33,17.354    l17.927,24.206l22.109-27.178c0.975-1.198,2.459-1.889,3.992-1.843c1.545,0.035,2.985,0.782,3.905,2.023l23.827,32.173    C335.372,258.838,335.321,261.352,333.894,263.123z"></path></g></g></svg>