<svg xmlns="http://www.w3.org/2000/svg" xmlns:xlink="http://www.w3.org/1999/xlink" version="1.1" x="0px" y="0px" viewBox="0 0 66 66" enable-background="new 0 0 66 66" xml:space="preserve"><g><path d="M17.5,30.2c-1.5,0-2.8,1.3-2.8,2.8c0,1.5,1.3,2.8,2.8,2.8c1.5,0,2.8-1.3,2.8-2.8   C20.3,31.5,19,30.2,17.5,30.2z"></path><path d="M10.6,21.9C6.9,24.2,4.4,28.3,4.4,33c0,7.2,5.9,13.1,13.1,13.1c4.7,0,8.8-2.5,11.1-6.2   C25.9,31.4,19.1,24.6,10.6,21.9z M17.5,37.8c-2.6,0-4.8-2.2-4.8-4.8c0-2.6,2.1-4.8,4.8-4.8s4.8,2.1,4.8,4.8   C22.3,35.6,20.1,37.8,17.5,37.8z"></path><path d="M48.5,30.2c-1.5,0-2.8,1.3-2.8,2.8c0,1.5,1.3,2.8,2.8,2.8c1.5,0,2.8-1.3,2.8-2.8   C51.3,31.5,50,30.2,48.5,30.2z"></path><path d="M55.4,21.9c-8.5,2.8-15.3,9.5-18,18c2.3,3.8,6.4,6.2,11.1,6.2c7.2,0,13.1-5.9,13.1-13.1   C61.6,28.3,59.1,24.2,55.4,21.9z M48.5,37.8c-2.6,0-4.8-2.2-4.8-4.8c0-2.6,2.1-4.8,4.8-4.8c2.6,0,4.8,2.1,4.8,4.8   C53.3,35.6,51.1,37.8,48.5,37.8z"></path><path d="M64,16.5c-14.9,0-27.5,10.2-31,24.1C29.5,26.7,16.9,16.5,2,16.5c-0.5,0-1,0.5-1,1c0,0.6,0.4,1,1,1   c16.5,0,30,13.5,30,30c0,0.6,0.5,1,1,1s1-0.4,1-1c0-16.5,13.5-30,30-30c0.5,0,1-0.4,1-1C65,16.9,64.5,16.5,64,16.5z"></path></g></svg>