<svg xmlns="http://www.w3.org/2000/svg" xmlns:xlink="http://www.w3.org/1999/xlink" version="1.1" x="0px" y="0px" viewBox="0 0 64 64" enable-background="new 0 0 64 64" xml:space="preserve"><g><g><path d="M44,16H20c-0.552,0-1-0.448-1-1V3h2v11h22V3h2v12C45,15.552,44.552,16,44,16z"></path><rect x="23" y="3" width="2" height="9"></rect><rect x="31" y="3" width="2" height="9"></rect><rect x="35" y="3" width="2" height="9"></rect><rect x="39" y="3" width="2" height="9"></rect><rect x="27" y="3" width="2" height="9"></rect><path d="M11,43H6c-0.552,0-1-0.448-1-1V14c0-0.552,0.448-1,1-1h5c0.552,0,1,0.448,1,1v28C12,42.552,11.552,43,11,43z M7,41h3V15H7    V41z"></path><path d="M58,43h-5c-0.552,0-1-0.448-1-1V14c0-0.552,0.448-1,1-1h5c0.552,0,1,0.448,1,1v28C59,42.552,58.552,43,58,43z M54,41h3V15    h-3V41z"></path><path d="M48,31H16c-0.552,0-1-0.448-1-1V20c0-0.552,0.448-1,1-1h32c0.552,0,1,0.448,1,1v10C49,30.552,48.552,31,48,31z M17,29h30    v-8H17V29z"></path><rect x="16" y="25" width="20" height="2"></rect><path d="M39,48H25c-0.552,0-1-0.448-1-1V37c0-0.552,0.448-1,1-1h14c0.552,0,1,0.448,1,1v10C40,47.552,39.552,48,39,48z M26,46h12    v-8H26V46z"></path><rect x="25" y="40" width="14" height="2"></rect><path d="M19,51h-4c-0.552,0-1-0.448-1-1v-5c0-0.552,0.448-1,1-1h4c0.552,0,1,0.448,1,1v5C20,50.552,19.552,51,19,51z M16,49h2v-3    h-2V49z"></path><path d="M49,51h-4c-0.552,0-1-0.448-1-1v-5c0-0.552,0.448-1,1-1h4c0.552,0,1,0.448,1,1v5C50,50.552,49.552,51,49,51z M46,49h2v-3    h-2V49z"></path><rect x="9" y="55" width="27" height="2"></rect><rect x="38" y="55" width="2" height="2"></rect><rect x="42" y="55" width="13" height="2"></rect><path d="M55,62H9c-0.552,0-1-0.448-1-1V42h2v18h44V42h2v19C56,61.552,55.552,62,55,62z"></path><path d="M56,14h-2V4H10v10H8V3c0-0.552,0.448-1,1-1h46c0.552,0,1,0.448,1,1V14z"></path><rect x="38" y="25" width="2" height="2"></rect><rect x="42" y="25" width="6" height="2"></rect></g></g></svg>