<svg xmlns="http://www.w3.org/2000/svg" viewBox="0 0 100 100" x="0px" y="0px"><title>Icon nature</title><g><path d="M79,52.78a14,14,0,0,0-12.56-8.93h-.36a10.7,10.7,0,0,0-2.54.42c1.61-1.74,3.25-3.47,4.77-4.9a.51.51,0,0,0,0-.7h0a.52.52,0,0,0-.34-.16.49.49,0,0,0-.35.13c-.56.52-1.46,1.33-2.49,2.26-2.69,2.42-6.7,6-9.15,8.58l-.54-.59c1.69-1.8,3.82-4.25,5.27-6h0c1.88-2.18,2.42-2.8,2.56-3h0l2.14-2.47c.79-.91.79-.91.8-1.13a.63.63,0,0,0-1.06-.49c-3.53,4-6.59,7.2-10.13,10.92l-.65.69-.5-.66a11.73,11.73,0,0,0,2.12-4.72c.27-.34.56-.69.83-1a65.41,65.41,0,0,1,6.45-7.39.56.56,0,0,0,0-.78.57.57,0,0,0-.78,0c-2.32,2.14-4.35,4.31-6.27,6.45a12,12,0,0,0-.14-3.5c1.69-2.07,3.46-4.18,4.9-5.7a.48.48,0,0,0,0-.71.49.49,0,0,0-.69,0c-1,1-2.33,2.49-3.72,4a12.65,12.65,0,0,0-3.27-10,.27.27,0,0,0-.17-.1,10.8,10.8,0,0,0-8.18-3.67A15,15,0,0,0,34.2,24.77,14.63,14.63,0,0,0,30.35,36a15.45,15.45,0,0,0-4.19,1.1,9.71,9.71,0,0,0-6.25,8.22,15.89,15.89,0,0,0,1.21,6.5,27.46,27.46,0,0,1,1,3.48c0,.25.07.49.09.74a12.51,12.51,0,0,0-.87,9.8,12.74,12.74,0,0,0,4,9.66,16.35,16.35,0,0,0,11.46,5c.28,0,.55,0,.82,0A13,13,0,0,0,47.44,75a36.55,36.55,0,0,0,3.09-5.15,41.87,41.87,0,0,1,2.33-4,11.07,11.07,0,0,0,8.36,5.92h0l.39.19a10.06,10.06,0,0,0,5,1.33c2.13,0,6.52-.82,9.22-3C80.41,66.49,81.06,58.26,79,52.78ZM65.36,41.09c1-.93,1.93-1.73,2.49-2.26a.29.29,0,0,1,.17-.06.27.27,0,0,1,.17.08.25.25,0,0,1,0,.35c-1.62,1.52-3.38,3.38-5.08,5.23l0,0L61.4,46.27l-.22.24-.38.42-1.23,1.35a12.54,12.54,0,0,0-2.91,1.92l-.46-.52C58.65,47.12,62.66,43.52,65.36,41.09ZM51.84,62.23q.06.51.15,1c-1.1.26-2.2.46-3.28.63-1.26.14-2.52.3-3.77.45-1.49.15-2.82.25-3.9.37h-.1a13.54,13.54,0,0,0-.61-7.25A11.78,11.78,0,0,0,39,54.85a10.12,10.12,0,0,0-2.28-2.37c.49-.95,1.08-2.25,1.1-2.3.25-.53.43-.91.57-1.19a13.61,13.61,0,0,0,1.48,1c-.23-4.38-.86-8.75-1.39-13.14l.88.26c.54,4.43,1.18,8.85,1.38,13.33a10.59,10.59,0,0,0,1.75.66c-.11-2.56-.3-5.11-.52-7.65-.16-1.88-.35-3.75-.54-5.62l.87.35h0c.44,4.37.84,8.74,1,13.1a8.44,8.44,0,0,0,2.26.14c-.35-3.14-.7-6.27-1-9.41-.1-1-.18-1.91-.27-2.87l.68.37.22.12c.32,3.48.69,6.95,1.08,10.43h0c0,.25.05.5.08.75h0l.06.51a8.94,8.94,0,0,0,2-.55,1,1,0,0,1,0-.17h0l-.09-.81h0c-.29-2.48-.59-5-.88-7.45-.06-.48-.11-1-.16-1.44.28.19.57.38.83.57l.09.07c.34,3,.71,5.91,1,8.87l.32-.18a8.66,8.66,0,0,0,1.19-.57,2,2,0,0,0,0-.24,45.47,45.47,0,0,1-.53-4.94.42.42,0,0,1,.42-.42.43.43,0,0,1,.43.42c.05,1.22.19,2.41.35,3.58h0c0,.24.07.47.1.7,0,0,0,.07,0,.1h0a2.7,2.7,0,0,1,0,.28,11.33,11.33,0,0,0,1.52-1.32c.65.87,1.79,2.26,2.69,3.27A14.69,14.69,0,0,0,51.84,62.23ZM50.69,41.81a.42.42,0,0,1-.62.48c-.19-.1-.22-.21-.29-.89l.75-.84C50.58,41,50.63,41.4,50.69,41.81Zm-.41-1.35c-.21.24-.39.43-.54.61-.05-.47-.12-1.13-.24-2.07a.37.37,0,0,1,.12-.3.43.43,0,0,1,.71.18c.07.51.12.94.16,1.34ZM49.93,37a.43.43,0,0,1-.6,0,.52.52,0,0,1-.11-.19c-.1-.81-.23-1.85-.3-2.71a.43.43,0,1,1,.85,0C50,36.73,50.18,36.73,49.93,37Zm5.34,9.93C58.81,43.19,61.87,40,65.4,36a.36.36,0,0,1,.4-.06.37.37,0,0,1,.23.38c0,.12,0,.12-.74,1-.43.49-1.1,1.25-2.14,2.47l-2.68,3.12h0C59,44.59,57,47,55.33,48.71l-.86-1ZM62.77,33a.32.32,0,0,1,.42,0,.31.31,0,0,1,0,.43,65,65,0,0,0-6.48,7.42l-.53.66a12.75,12.75,0,0,0,.16-1.87C58.3,37.44,60.38,35.2,62.77,33Zm-2.19-3.48a.24.24,0,0,1,.34,0,.23.23,0,0,1,0,.36c-1.4,1.49-3.13,3.53-4.79,5.56a8,8,0,0,0-.23-.84C57.66,32.64,59.41,30.74,60.58,29.51ZM34.39,24.94a14.71,14.71,0,0,1,10.67-5.13,10.53,10.53,0,0,1,8,3.62l0,0h0a.08.08,0,0,1,.07,0,12.48,12.48,0,0,1,3.18,10.11l-.07.09c-.11.11-.14.15-.57.63A8.18,8.18,0,0,0,52.24,30a11.94,11.94,0,0,0-3.05-2.1c0,1.22.18,2.44.28,3.66a.41.41,0,0,1-.13.29.42.42,0,0,1-.72-.29c-.11-1.35-.27-2.69-.28-4A9.76,9.76,0,0,0,47,27.15c.08,2.87.29,5.73.56,8.58.17,1.83.37,3.66.58,5.48l-.2-.15c-.23-.17-.48-.33-.72-.49-.51-4.51-1-9-1.07-13.58a9.37,9.37,0,0,0-1.54-.09l-.29,0c.18,4.13.49,8.26.88,12.39l-.9-.49C44,34.89,43.67,31,43.5,27a10,10,0,0,0-1.23.28c-.32.1-.63.21-.94.34.29,3.42.64,6.83,1,10.24l-.89-.36c-.31-3.16-.63-6.33-.9-9.49-.15.07-.29.15-.43.23a12.47,12.47,0,0,0-1.43,1c.13,2.53.39,5,.69,7.53l-.88-.24c-.26-2.18-.49-4.37-.62-6.56a16,16,0,0,0-1.34,1.56,14.59,14.59,0,0,0-2.15,4.28c-.53,0-1-.07-1.58-.07a17.87,17.87,0,0,0-2.19.13A14.38,14.38,0,0,1,34.39,24.94ZM50.31,69.71a36.49,36.49,0,0,1-3.07,5.12,12.81,12.81,0,0,1-9.66,5.33A15.92,15.92,0,0,1,25.5,75.3a12.61,12.61,0,0,1-3.91-8.77A11.85,11.85,0,0,0,24,70.31c.05-5.53-.12-11.11.07-16.69l-.24.24a10.71,10.71,0,0,0-1.37,1.82c0-.15,0-.3-.06-.45a27.56,27.56,0,0,0-1-3.52,15.64,15.64,0,0,1-1.2-6.4,9.46,9.46,0,0,1,6.1-8,15.44,15.44,0,0,1,4.57-1.16l.47,0Q32,36,32.62,36h.14c.51,0,1,0,1.53.07a11.63,11.63,0,0,0,3.28,12.2c-.46.84-1.08,2-2,3.45a9.23,9.23,0,0,0-4.12-1.08v.68h0v.54h0v.17h0c0,2.36.08,4.73.17,7.1.19,4.78.46,9.57.54,14.36a10.38,10.38,0,0,0,8.19-7.17c.08-.17.14-.35.21-.52A82.13,82.13,0,0,0,50,64.62c.74-.14,1.47-.31,2.19-.49a10.33,10.33,0,0,0,.52,1.38A40.33,40.33,0,0,0,50.31,69.71ZM75.67,70c-2.65,2.16-7,3-9.06,3A9.83,9.83,0,0,1,62,71.78a11.23,11.23,0,0,0,2.09,0c-.24-8.15-.76-16.27-1.35-24.37l-.6.08a10.42,10.42,0,0,0-2,.56l1.26-1.38c.6-.67,1.22-1.34,1.85-2a10.46,10.46,0,0,1,2.88-.53A13.74,13.74,0,0,1,78.8,52.86C80.79,58.27,80.17,66.36,75.67,70Z"></path><path d="M68.41,48.38a35.45,35.45,0,0,0,.24,4.24.43.43,0,0,1-.43.42.41.41,0,0,1-.42-.42A35.28,35.28,0,0,1,67.57,48,10.75,10.75,0,0,0,66,47.58c0,1.06,0,2.12.13,3.18a.41.41,0,0,1-.12.3.43.43,0,0,1-.73-.3c-.11-1.11-.11-2.22-.13-3.33a9.37,9.37,0,0,0-1.64-.09c.59,8.11,1.11,16.17,1.36,24.3a10.23,10.23,0,0,0,1.69-.46c-.06-1.75-.07-3.49-.21-5.23a.43.43,0,0,1,.43-.42.41.41,0,0,1,.42.42c.13,1.62.15,3.25.2,4.88a12.25,12.25,0,0,0,2-1.12c0-.8-.1-1.6-.09-2.4a.42.42,0,0,1,.42-.42.42.42,0,0,1,.42.42c0,.59,0,1.18.06,1.77.24-.2.48-.42.72-.64l.3-.3c-.38-6.37-1.39-12.67-1.46-19.06A12.73,12.73,0,0,0,68.41,48.38Zm-2.59,8.3c-.13-1.06-.28-2.11-.36-3.18a.43.43,0,0,1,.85,0c.21,3,.53,3.17.23,3.48a.44.44,0,0,1-.6,0A.42.42,0,0,1,65.82,56.68Zm.5,6.13c-.2-.19-.07-.17-.33-3.23a.44.44,0,0,1,.12-.3.43.43,0,0,1,.73.3c.08,1,.15,2,.2,2.93A.42.42,0,0,1,66.32,62.81Zm2-4.49c-.12-1-.23-2-.28-2.94a.42.42,0,0,1,.72-.3c.22.22,0,.21.4,3.24a.42.42,0,0,1-.72.3A.4.4,0,0,1,68.35,58.32Zm1.26,6.24a.43.43,0,0,1-.6,0,.43.43,0,0,1-.13-.3c-.09-1-.15-2.06-.18-3.1a.43.43,0,0,1,.85,0C69.65,64.4,69.85,64.31,69.61,64.56Z"></path><path d="M70.61,49.66q0,1.74.15,3.48c.3,4.72.92,9.4,1.24,14.12a16.31,16.31,0,0,0,1.19-1.67c-.3-4.86-.87-9.69-1.06-14.55A11.76,11.76,0,0,0,70.61,49.66Z"></path><path d="M74,64.55l0,0a9.82,9.82,0,0,0,1.38-5.25A12.34,12.34,0,0,0,73,52.17C73.24,56.3,73.69,60.42,74,64.55Z"></path><path d="M30.29,50.72a7.9,7.9,0,0,0-.85.11c0,1.61,0,3.21.15,4.82a.43.43,0,0,1-.85,0c-.09-1.54-.12-3.09-.15-4.63a10.85,10.85,0,0,0-1.6.57c.11,7.06.14,14.09.14,21.08a9,9,0,0,0,1.83.67c0-1.13,0-2.26.12-3.39a.42.42,0,1,1,.84,0c-.09,1.18-.1,2.37-.12,3.55a7.92,7.92,0,0,0,1.54.1c-.12-7.65-.75-15.24-.71-22.91Zm-1.68,7.1a.41.41,0,0,1,.13-.3.42.42,0,0,1,.72.3c.13,1.29.07,2.59.11,3.88a.43.43,0,0,1-.43.42.42.42,0,0,1-.42-.42C28.68,60.41,28.74,59.11,28.61,57.82Zm1,9.07a.42.42,0,0,1-.42.42.42.42,0,0,1-.42-.42c0-1,0-2.06,0-3.09a.43.43,0,0,1,.85,0C29.61,64.83,29.61,65.86,29.61,66.89Z"></path><path d="M25.76,52.25a10.29,10.29,0,0,0-.86.61c-.24,6,0,12.16-.1,18.26a12.15,12.15,0,0,0,1.48,1.1c0-6.76,0-13.5-.13-20.2Z"></path></g></svg>