<svg xmlns="http://www.w3.org/2000/svg" xmlns:xlink="http://www.w3.org/1999/xlink" xml:space="preserve" version="1.1" style="shape-rendering:geometricPrecision;text-rendering:geometricPrecision;image-rendering:optimizeQuality;" viewBox="0 0 60000 60000" x="0px" y="0px" fill-rule="evenodd" clip-rule="evenodd"><defs><style type="text/css">
   
    .fil0 {fill:black;fill-rule:nonzero}
   
  </style></defs><g><path class="fil0" d="M30000 1077.91c383.21,0 764.65,7.6 1144.25,22.37 101.37,-2.8 206.3,1.66 314.84,13.96 7405.92,367.99 14078.67,3521.57 18991.89,8434.78 5233.87,5233.88 8471.11,12464.42 8471.11,20450.98 0,7986.56 -3237.24,15217.1 -8471.11,20450.98 -5233.88,5233.87 -12464.42,8471.11 -20450.98,8471.11 -1166.01,0 -2315.74,-69.51 -3445.66,-203.65 -467.72,-30.34 -904.38,-91.37 -1295.56,-183.22 -6087.48,-1003.85 -11534.07,-3908.56 -15709.75,-8084.24 -4332.77,-4332.77 -7297.18,-10033.84 -8189.53,-16399.39 -36.11,-168.62 -57.57,-335.63 -65.27,-500.97 -142.47,-1163.64 -216.32,-2348.49 -216.32,-3550.62 0,-7093.59 2554,-13590.58 6792.35,-18622.06 66.25,-210.82 149.86,-403.25 249.49,-577.58 297.88,-521.2 729.85,-877.5 1261.07,-1081.11 55.94,-56.88 111.8,-113.82 168.21,-170.23 5233.87,-5233.87 12464.41,-8471.11 20450.97,-8471.11zm-25842.92 40029.48c1405.99,1113.95 4246.67,43.32 6360.34,-753.36 614.97,-231.79 1171.47,-441.56 1641.13,-577.46l1.86 -0.51 -0.3 -1.06 4.76 -1.37c1648.84,-474.74 2997.66,223.39 4025.8,1366.41 375.41,417.36 706.77,895.73 992.73,1396.28 19.99,-59.78 42.33,-119.45 67.11,-179 211.72,-508.69 535.91,-937.09 931,-1459.14 43.37,-57.31 87.66,-115.83 132.76,-175.75 -1365.58,-1628.45 -2440.25,-2570.04 -3533,-2941.28 -1117.83,-379.75 -2306.15,-164.75 -3911.19,514.31 -959.93,406.12 -1945.52,789.3 -2945.72,984.28 -1030.12,200.83 -2071.42,202.15 -3109.19,-171.02 -816.82,-293.73 -1412.54,-734.61 -1768.78,-1279.83 -45.6,-69.78 -87.24,-141.15 -124.92,-213.99 336.34,1198.48 750.18,2364.52 1235.61,3492.49zm13810.04 3128.71c86.96,238.49 163.22,472.21 228.77,697.07 129.42,338.44 282.12,682.74 435.12,1027.65 62.74,141.45 125.52,282.99 187,424.59 94.93,-1442.63 351.69,-2721.18 1073.48,-3733.31 924.95,-1297 2570.46,-2108.83 5535.1,-2186.85 220.05,-5.18 402.64,169.01 407.82,389.06 5.18,220.05 -169.01,402.64 -389.06,407.82 -2671.74,70.31 -4122.9,757.38 -4903.86,1852.47 -791.26,1109.53 -938.48,2684.63 -973.85,4475.83 -13.14,665.57 -37.9,1193.96 -91.52,1620.74 -1.92,17.73 -4,35.48 -6.25,53.21 -1.12,8.89 -2.56,17.67 -4.25,26.35 -50.24,362.88 -123.47,649.46 -231.32,883.62 -276.63,600.63 -717.39,834.92 -1467.33,1001.88 -2541.3,565.8 -3242.94,417.65 -3484.44,-667.06 -72.93,-327.58 -77.98,-728.85 -84.32,-1235.83 -3.84,-306.2 -8.2,-654.09 -30.31,-1062.06 -31.9,-588.77 -162.64,-1023.07 -364.53,-1317.37 -116.96,-170.49 -259.71,-291.98 -421.43,-367.41 -165.61,-77.25 -355.23,-108.83 -561.34,-97.67 -414.3,22.45 -891.89,212.63 -1383.92,550.17 -1248.47,856.46 -2333.02,1066.55 -3152.6,890.18 577.72,701.31 1188.63,1374.24 1830.57,2016.18 991.18,991.18 2056.01,1908.69 3185.63,2743.56 -258.46,-353.9 -473.9,-747.12 -644.04,-1160.39 -481.47,-1169.51 -604.36,-2512.39 -315.75,-3574.42 57.81,-213.14 277.49,-339.06 490.63,-281.25 213.14,57.81 339.06,277.49 281.25,490.63 -244.5,899.74 -135.14,2050.2 281.37,3061.92 370.81,900.7 981.83,1680.88 1796.89,2054.09 908.71,416.09 2077.13,498.14 3172.25,188.73 966.73,-273.13 1871.16,-854.04 2479.12,-1782.95 265.04,-404.96 354.88,-1165.63 521.37,-2575.48 48.65,-411.96 104.13,-881.66 190.96,-1546.36 190.66,-1459.41 619.46,-2354.37 1174.93,-2859.63 499.06,-453.97 1082.64,-596.19 1686.44,-544.29 559.65,48.11 1131.5,268.08 1659.82,555.59 197.12,107.27 389.57,226.76 573.99,351.97 -524.78,-1653.7 -252.71,-3678.75 1177.18,-6719.82 93.19,-199.34 330.35,-285.38 529.69,-192.19 199.34,93.19 285.38,330.35 192.19,529.69 -2769.46,5890.06 -776.57,7637.73 2853.73,10821.29 204.42,179.27 414.37,363.39 668.14,587.76 861.6,761.82 1363.8,1473.56 1584.94,2127.45 267.55,791.08 137.19,1491.04 -266.45,2092.7 -578.2,861.84 -1795.89,1668.86 -3332.56,2293.72 -1397.41,568.24 -3071.78,995.17 -4770.71,1180.58 457.27,77.18 918.28,143.35 1382.75,198.22 1504.34,90.08 3360.33,-162.85 5016.15,-754.48 1739.85,-621.66 3240.12,-1611.02 3826.14,-2955.52 722.6,-1657.86 694.55,-3193.38 174.91,-4554.51 -618.51,-1620.06 -1932.83,-3008.64 -3514.55,-4074.94 -182.94,-123.4 -231.21,-371.75 -107.81,-554.69 123.4,-182.94 371.75,-231.21 554.69,-107.81 1707.4,1151.02 3132.27,2665.95 3814.55,4453.06 590.62,1547.07 624.91,3286.79 -190.53,5157.65 -685.31,1572.29 -2361.52,2701.31 -4288.64,3389.88 -155.9,55.7 -313.61,108.46 -472.63,158.47 2760.74,-143.22 5416.03,-684.83 7909.73,-1568.08 -91.16,-20.91 -178.97,-48.72 -262.87,-83.71 -367.31,-153.18 -649.35,-432.06 -804.62,-855.3 -167.86,-457.59 -176.52,-1087.45 39.49,-1913.48 55.22,-213.14 272.8,-341.16 485.94,-285.94 213.14,55.22 341.16,272.8 285.94,485.94 -171.62,656.27 -176.02,1125.94 -61.37,1438.48 72.38,197.3 198.67,325.15 360.88,392.8 192.14,80.13 442.42,90.37 726.08,41.43 666.82,-115.05 1463.58,-545.98 2148.15,-1177.73 840.54,-775.7 1521.37,-1798.5 1737,-2662.99 84.03,-336.9 94.31,-638.4 9.19,-872.37 -73.63,-202.41 -232.69,-363.72 -496.62,-460.97 -478.83,-176.41 -1255.4,-159.43 -2412.89,147.71 -359.02,95.27 -656.86,183.48 -904.75,256.9 -721.67,213.73 -1094.45,324.14 -1409.88,113.85 -348.61,-232.41 -347.8,-644.48 -346.13,-1496.76 0.39,-201.02 0.85,-431.86 -2.67,-697.55 -1.16,-87.6 -4.38,-175.12 -9.42,-262.5 -1.67,-14.3 -2.56,-28.79 -2.67,-43.45 -91.48,-1407.77 -677.11,-2776.56 -1512.26,-3876.93 -253.63,-334.17 -529.6,-642.82 -820.92,-919.55 -20.66,-15.93 -39.66,-33.81 -56.78,-53.34 -774.65,-719.93 -1653.38,-1213.86 -2508.38,-1361.44 -217.46,-37.1 -363.66,-243.48 -326.56,-460.94 37.1,-217.46 243.48,-363.66 460.94,-326.56 977.67,168.76 1970.48,710.78 2840.96,1498.03 1032.02,84.76 1819.53,128.12 2523.99,-116.63 318.22,-110.55 631.05,-282.42 956.32,-538.72l0.3 -0.26c50.94,-43.6 102.48,-85.91 154.46,-127.22 382.86,-329.26 786.3,-777.46 1238.31,-1381.05 762.49,-1018.17 1238.28,-1635.81 2044.4,-1923.14 777.39,-277.09 1780.18,-194.19 3572.25,194.8 1065.66,231.31 2191.47,460.2 3226.9,612.5 1021.13,150.2 1952.34,226.86 2644.49,158.52 632.54,-62.45 1215.83,-212.3 1732.42,-440.91 783.06,-346.55 1408.2,-875.18 1811.69,-1554.61 405.16,-682.23 591.64,-1522.59 496.05,-2490.64 -63.88,-646.89 -253.97,-1352.68 -588.79,-2109.23 -317.72,-717.93 -701.45,-1279.35 -1185.95,-1784.23 -437.25,-455.64 -961.75,-871.81 -1595.6,-1316.98 -82.37,110.21 -164.61,220.15 -246.54,329.68 -410.32,548.54 -812.6,1086.37 -1188.89,1601.62l220.04 201.95c92.22,85.57 188.87,175.88 290.83,271.94 713.5,672.17 1089.37,1416.54 1168.74,2107.13 54.7,475.98 -30.73,927.55 -243.33,1317.46 -212.45,389.66 -548.7,711.32 -995.59,927.51 -650.49,314.68 -1539.16,403.94 -2616.82,140.85 -767.44,-187.35 -972.88,-721.23 -780.69,-1508.47 307.38,-1259.09 1844.21,-3313.6 3508.21,-5538.11 632.06,-844.97 1283.1,-1715.31 1911.64,-2604.61 1758.63,-2488.25 2364.43,-4277.19 1941.13,-5567.49 -408.5,-1245.25 -1817.83,-2088.89 -4108.67,-2706.15 -271.43,579.08 -564.36,1093.77 -818.14,1516.09 -171.94,286.12 -332.72,558.96 -481.93,819.8 1001.95,1322.26 1250.54,2353.08 1061.81,3258.8 -189.72,910.5 -810.19,1635.33 -1545.46,2391.82 -38.22,39.32 -75.82,77.83 -112.84,115.54 -19.53,27.11 -42.78,52.19 -69.72,74.48 -5.33,4.41 -10.75,8.67 -16.23,12.76 -506.08,511.76 -896.29,871.91 -1201.01,1153.15 -817.07,754.1 -935.52,863.43 -973.51,1978.29 -44.87,1316.48 -458.74,2167.27 -1138.46,2800.8 -654.26,609.78 -1529.73,987 -2552.84,1388.2 -2527.36,991.07 -3032.16,1818.45 -4069.8,3519.16l-20.88 34.23c-533.06,873.65 -901.97,1354.18 -1309.5,1613.39 -450.56,286.57 -879.8,290.21 -1523.04,207.55 -172.37,-22.15 -345.24,-50.58 -517.92,-85.22 -1433.02,-287.49 -2822.01,-1002.16 -3795.1,-2118.07 -483.2,-554.13 -863.8,-1204.81 -1097.2,-1948.49 -123.99,821.13 -215.01,1654.59 -308.07,2506.96 -69.03,632.35 -139.23,1275.16 -229.43,1964.99 -28.47,218.32 -228.55,372.22 -446.87,343.75 -218.32,-28.47 -372.22,-228.55 -343.75,-446.87 83.58,-639.21 155.53,-1298.07 226.29,-1946.25 280.21,-2566.48 542.23,-4966.23 1722.01,-7430.96 149.66,-312.65 288.19,-588.71 412.22,-835.89 650.18,-1295.73 862.22,-1718.3 343.89,-3182.04 -572.16,-1615.75 -772.37,-2649.54 -646.8,-3491.23 130.92,-877.62 590.77,-1497.11 1334.53,-2282 1654.79,-1746.28 2811.52,-2397.49 3944.35,-2348.52 1129.99,48.84 2122.14,783.4 3517.01,1817.23 1181.12,875.39 2087.77,1270.84 2944.56,1376.62 856.17,105.69 1698.33,-76.43 2730.43,-357.13 33.57,-9.1 67.3,-13.64 100.53,-14.01 172.25,-315.78 349.74,-639.85 526.94,-963.41 376.05,-686.64 750.86,-1370.98 1124.69,-2069.72 -818.92,-41.39 -1770.09,134.37 -2683.59,303.22 -1583.72,292.73 -3064.82,566.49 -3915.96,-250.21l-252.09 -241.88 206.77 -281.56c2213.42,-3014.05 4149.47,-4262.92 5579.38,-4473.45 601.19,-88.51 1124.01,1.04 1553.03,220.28 437.82,223.75 769.36,577.54 981.28,1012.48 395.83,812.39 372.24,1914.24 -168.37,2956.02 -554.97,1069.5 -1138.56,2135.05 -1725.14,3206.08 -344.54,629.11 -690.15,1260.15 -1085.05,1996.28 -611.32,1139.53 -775.1,2118.49 -617.53,3007.97 146.4,826.46 572.74,1594.26 1177.59,2352.66 128.51,-125.59 278.78,-264.31 454.78,-426.75 257.69,-237.84 577.21,-532.75 970.35,-922.48 -622.95,-868.68 -798.47,-1732.26 -592.17,-2766.34 214.14,-1073.37 855.31,-2315.05 1843.44,-3959.41 551.37,-917.53 1298.15,-2292.64 1533.84,-3770.56 228.13,-1430.57 -27.73,-2977.15 -1438.29,-4316.62l-7.42 -7.04 0.73 -0.77c-1052.65,-995.55 -2281.15,-1316.12 -3546.88,-1070.67 -1308.54,253.74 -2668.3,1104.27 -3934,2437.13l-16.23 17.12 -0.78 -0.74c-778.72,823.02 -1602.94,1678.38 -2502.8,2255.04 -959.37,614.81 -1994.35,916.03 -3131.92,555.36 -693.84,-219.99 -1267,-390.87 -1823.06,-377.24 -547.01,13.42 -1120.73,204.28 -1854.28,702.84 -294.45,200.12 -580.64,414.86 -869.78,653.22 -285.97,235.76 -576.5,496.97 -882.67,792.52 -545.08,526.19 -870.1,907.22 -1082.22,1331.66 -213.65,427.51 -329.27,930.31 -453.33,1695.31 -44.22,272.74 -90.61,524.34 -138.48,752.85 -48.64,232.22 -101.43,452.28 -157.53,657.68 -19.41,71.06 -35.78,125.75 -49.24,164.94 -224.51,653.39 -627.39,976.31 -1053.54,1116.65 -407.66,134.24 -826.77,86.89 -1120.32,6.71 -59.75,-16.31 -101.28,-28.73 -127.6,-37.77 -851.86,-292.73 -1199.31,-1378.53 -1479.37,-2253.74 -66.49,-207.83 -128.69,-402.18 -189.14,-557.42 -548.99,-1409.74 -1410.52,-2663.56 -2232.19,-3859.35 -285.37,-415.31 -566.2,-824.01 -805.23,-1192.97 -761.44,-1175.4 -1430.92,-2376.33 -1828.02,-3498.17 -416.41,-1176.41 -537.2,-2277 -167.32,-3196.16 826.84,-2054.71 2489.06,-3159.03 4136.34,-3340.18 663.81,-72.99 1327.25,4.89 1935.54,231.74 613.34,228.74 1167.65,607.38 1607.31,1133.96 670.01,802.48 1073.6,1945.75 1006.02,3418.52 760.29,-871.88 1820.11,-1577.04 3299.36,-2000.3 -159.27,-98.89 -310.23,-212.34 -452.63,-338.68 -717.66,-636.68 -1205.93,-1597.95 -1437.45,-2649.29 -100.04,-454.32 -127.81,-890.23 -86.78,-1298.6 68.76,-684.43 330.6,-1281.75 769.63,-1752.18 255.22,-273.47 567.99,-501.99 934.94,-677.59 -709.35,-82.68 -1426.73,-139.04 -2151.19,-167.96 -42.71,2.12 -84.16,6.32 -124.33,12.49 -363.25,55.8 -639.03,287.01 -838.4,603.74 -223.87,355.65 -355.66,816.77 -411.11,1277.56 -44.38,368.77 -38.77,732.44 8.44,1039.77 32.79,218.32 -117.61,421.9 -335.93,454.69 -218.32,32.79 -421.9,-117.61 -454.69,-335.93 -31.91,-207.74 -48.3,-435.54 -47.44,-672.67 -1950.24,-216.9 -3569.14,-264.11 -4912.57,-149.32 -1350.83,115.41 -2414.3,394.1 -3250,828.08 -1101.05,571.78 -1968.95,1484.73 -2464.52,2562.07 -472.76,1027.76 -606.46,2206.12 -279.29,3380.05 615.08,2206.98 1698.79,3758.32 2927,5516.53 304.86,436.41 618.3,885.11 921.71,1337.66 122.54,182.94 73.57,430.59 -109.37,553.13 -182.94,122.54 -430.59,73.57 -553.13,-109.37 -252,-375.88 -492.77,-723.72 -727.11,-1059.84l-27.1 -30.8c-1111.83,-1250.94 -2164.74,-1805.78 -3109.23,-1888.28 -920.43,-80.39 -1756.53,291.21 -2449.56,900.77l-0.77 -0.88 -18.27 16.15 0.69 0.78c-3314.25,2945.65 -4045.68,2840.31 -7035.78,2409.71l-53.09 -7.65c-1269.67,-182.8 -2250.77,163.76 -2935.75,829.57 -530.21,515.37 -893.22,1225.82 -1083.77,2035.28 -195.38,830.01 -209.31,1758.79 -36.84,2688.09 357.72,1927.49 1514.04,3850.15 3512.4,4893.83 715.2,373.52 1659.24,584.78 2686.1,706.01 1058.98,125.02 2188.7,153.29 3251.76,162.87 1581.24,14.24 2615.4,512.91 3412.86,1344.12 771.89,804.57 1288.67,1890.42 1872.16,3143.94 528.26,1134.88 1121.06,1883.24 1775.44,2329.42 41.91,28.58 84.14,55.9 126.68,82.05 61.17,-270.12 101.76,-538.75 119.69,-806.08 59.07,-880.8 -128.35,-1756.66 -636.92,-2638.35 -784.31,-1359.74 -1553.82,-2561.92 -2537.08,-3447.89 -958.9,-864.03 -2137.31,-1434.62 -3765.99,-1567.72 -3794.74,-310.13 -6040.57,-1646.88 -6982.54,-3062.98 -337.34,-507.12 -513.72,-1030.2 -539.9,-1529.54 -27.12,-516.94 105.86,-1003.86 387.34,-1420.14 543.57,-803.91 1635.61,-1330.5 3179.99,-1260.29 987.47,44.88 1938.47,60.1 2744.51,-117.64 756.85,-166.89 1397.36,-508.98 1836.01,-1174.55 593.52,-900.55 1214.43,-1508.91 1937.53,-1622.86 743.25,-117.13 1517.24,282.47 2367.66,1410.18l30.36 40.26c1105.13,1465.69 1594.59,2114.82 3943.23,1639.88 809.69,-163.73 1399.26,-212.62 1919.47,118.5 495.17,315.18 843.52,947.36 1156.32,2131.07 303.21,1147.44 484.18,2127.81 459.17,3147.11 -10.63,433.21 -58.36,869.94 -149.56,1325.28 518.25,-384.68 1093.01,-556.31 1666.5,-449.39 22.05,4.1 35.98,6.77 41.74,7.98 791.83,166.53 1395.09,829.28 1730.27,1766.14 310.74,868.57 394.11,1989.46 176.46,3156.74 -11.92,63.98 -22.76,119.03 -32.52,165.49 -234.57,1115.46 -710.42,2071.53 -1297.9,2721.66 -634.75,702.45 -1407.17,1061.05 -2177.27,917.47 -22.05,-4.1 -35.98,-6.77 -41.74,-7.98 -200.6,-42.19 -389.07,-116.26 -564.16,-218.54 -168.87,644.91 -424.7,1089.89 -810.02,1405.72 -501.58,411.12 -1176.3,562.48 -2130.01,622.04 -532.05,33.22 -1040.93,-13.43 -1525.92,-157.48 -148.35,403.37 -332.34,807.88 -546.8,1214.44 -547.82,1038.54 -1076.26,1736.81 -1515.1,2316.68 -361.93,478.25 -658.92,870.68 -831,1284.14 -199.23,478.69 -167.67,1011.66 -20.89,1572.52zm-779.84 188.81c-355.78,-952.1 -890.24,-1972.14 -1590.37,-2750.49 -837.48,-931.06 -1919.18,-1504.63 -3213.28,-1132.03l-4.76 1.37 -0.29 -1.03c-427.79,123.93 -975.14,330.24 -1579.9,558.18 -1900.97,716.51 -4342.31,1636.65 -6124.27,1138.52 570.51,1178.41 1220.79,2311 1943.92,3390.68 49.69,-625.32 355.23,-1282.7 962.7,-1834.67 163.09,-148.42 415.64,-136.53 564.06,26.56 148.42,163.09 136.53,415.64 -26.56,564.06 -567.07,515.26 -775.19,1131.64 -693.03,1651.71 35.76,226.37 128.47,435.55 271.72,608.8 142.54,172.39 337.25,309.25 577.99,391.99 629.22,216.26 1559.34,71.44 2711.47,-718.94 611.45,-419.46 1230.25,-657.15 1793.3,-687.67 337.32,-18.27 654.42,36.59 939.46,169.55 288.93,134.77 540.86,347.3 743.31,642.41 281.31,410.08 461.64,981.46 502.03,1726.75 21.6,398.56 26.24,768.08 30.31,1093.3 5.77,460.7 10.35,825.33 65.56,1073.33 104.62,469.93 614.03,488.38 2534.44,60.82 489.93,-109.07 768.93,-242.7 914.21,-558.14 75.4,-163.71 129.07,-376.85 167.76,-653.03 0.52,-7.49 1.24,-15.02 2.19,-22.56 110.96,-874.26 -335.38,-1880.47 -779.5,-2881.68 -276.15,-622.55 -551.51,-1243.37 -712.47,-1857.79zm10074.74 -19308.75c22.65,135.91 -69.16,264.46 -205.07,287.11 -135.91,22.65 -264.46,-69.16 -287.11,-205.07 -40.29,-237.3 -85.49,-470.68 -136.19,-699.8 -51.44,-232.45 -110.28,-469.51 -177.32,-711.79 -36.67,-132.67 41.15,-269.97 173.82,-306.64 132.67,-36.67 269.97,41.15 306.64,173.82 67.85,245.2 128.68,490.92 183.18,737.19 55.23,249.59 102.29,490.98 142.05,725.18zm-1011.4 11919.24c47.46,-129.44 190.88,-195.9 320.32,-148.44 129.44,47.46 195.9,190.88 148.44,320.32l-714.38 1931.46c-47.46,129.44 -190.88,195.9 -320.32,148.44 -129.44,-47.46 -195.9,-190.88 -148.44,-320.32l714.38 -1931.46zm6230.02 -15792.49c-56.63,125.66 -204.42,181.63 -330.08,125 -125.66,-56.63 -181.63,-204.42 -125,-330.08 245.01,-540.88 525.46,-971.66 883.02,-1365.2 353.05,-388.58 778.26,-736.88 1317.64,-1117.61 112.72,-79.28 268.37,-52.17 347.65,60.55 79.28,112.72 52.17,268.37 -60.55,347.65 -510.13,360.08 -909.57,686.51 -1235.6,1045.35 -321.53,353.88 -574.66,743.34 -797.08,1234.34zm-3022.67 17765.26c35.59,-133.21 172.45,-212.35 305.66,-176.76 133.21,35.59 212.35,172.45 176.76,305.66 -93.57,346.22 -203.44,673.83 -309.04,988.74 -208.03,620.33 -398.71,1188.88 -414.19,1797.87 -3.23,137.52 -117.36,246.39 -254.88,243.16 -137.52,-3.23 -246.39,-117.36 -243.16,-254.88 17.43,-685.59 219.31,-1287.56 439.57,-1944.35 100.95,-301.04 205.98,-614.23 299.28,-959.44zm11087.6 4021.62c-7.01,6 -14.18,11.69 -21.48,17.12 -399.06,315.83 -788.49,528.74 -1191.4,668.72 -621.4,215.89 -1245.12,251.86 -1968.02,220.34 77.25,93.29 152.88,188.51 226.65,285.71 579.51,763.54 1050.44,1646.84 1346.07,2587.5 694.35,-1491.04 2017.57,-2356.5 3399.34,-2714.33 867.6,-224.67 1759.44,-247.46 2531.31,-98.14 805.25,155.78 1493.27,501.89 1913.57,1007.13 519.51,624.51 636.01,1454.89 93.92,2432.06 -107,192.43 -349.76,261.69 -542.19,154.69 -192.43,-107 -261.69,-349.76 -154.69,-542.19 356.16,-642.01 300.48,-1162.51 -9.54,-1535.18 -297.87,-358.07 -820.78,-610.2 -1451.07,-732.13 -663.67,-128.39 -1432.1,-108.37 -2181.31,85.64 -1557.67,403.38 -3027.24,1567.06 -3268.5,3725.84 5.28,94.48 8.68,189.1 9.94,283.87 3.53,266.9 3.07,502.11 2.67,706.93 -1.1,562.66 -12.33,827.58 -6.99,831.14 5.84,3.89 256.3,-70.27 741.12,-213.85 254.58,-75.4 560.47,-166 926.63,-263.16 1329.74,-352.85 2267.58,-355.52 2891.01,-125.83 505.51,186.26 817.69,515.98 971.62,939.09 142.45,391.56 136.71,850.17 15.81,1334.87 -227.38,911.63 -876.98,1955.33 -1695.78,2792.03 2500.77,-1321.97 4778.39,-3009.59 6761.1,-4992.3 3011.99,-3012 5343.74,-6704.18 6745.51,-10826.26 -448.44,498.39 -1013.47,899.1 -1668.95,1189.19 -590.16,261.17 -1255.54,432.26 -1976.18,503.41 -768.3,75.86 -1762.91,-3.49 -2838.23,-161.66 -1061.04,-156.07 -2202.45,-387.96 -3280.04,-621.86 -1637.42,-355.42 -2524.41,-441.6 -3137.87,-222.94 -566.5,201.92 -974.86,717.87 -1610.47,1565.33 869.9,-244.09 1786.45,-280.89 2674.51,-148.23 1045.68,156.21 2054.8,548.72 2901.87,1114.55 856.91,572.4 1550.42,1324.47 1953.7,2192.82 478.74,1030.83 549.64,2215.47 6.43,3449.58 -189.28,430.02 -736.64,1093.42 -1367.21,1611.64 -351.77,289.09 -735.1,539.47 -1105.66,689.23 -426.01,172.17 -844.91,216.49 -1209.18,56.16 -158.16,-69.62 -301.05,-176.54 -424.22,-326.44 -139.79,-169.99 -115.31,-421.15 54.68,-560.94 169.99,-139.79 421.15,-115.31 560.94,54.68 38.79,47.21 82.7,80.41 130.48,101.44 145.77,64.16 354.83,29.69 590.42,-65.52 291.06,-117.63 603.12,-323.31 896.28,-564.23 538.82,-442.83 995.14,-983.78 1142.21,-1317.9 441.58,-1003.22 385.91,-1962.01 -0.17,-2793.32 -339.57,-731.16 -933.61,-1371.16 -1672.46,-1864.7 -748.69,-500.11 -1643.64,-847.49 -2573.73,-986.43 -1390.81,-207.76 -2853.7,53.8 -4007.83,973.99 -41.32,35.11 -82.52,69.07 -123.6,101.98l-1.02 0.86zm-13074.32 3595.63c-291.48,-265.61 -972.41,-832.46 -1776.99,-1270.31 -439.07,-238.94 -905.07,-420.97 -1344.18,-458.71 -394.95,-33.95 -771.14,54.06 -1083.32,338.03 -424.16,385.82 -758.54,1122.37 -921.81,2372.13 -65.63,502.43 -130.74,1053.64 -187.82,1537 -180.78,1530.91 -278.34,2356.89 -646.37,2919.22 -722.1,1103.29 -1791.4,1791.89 -2932.26,2114.21 -944.8,266.94 -1942.34,280.68 -2833.12,69.36 2275.85,1340.72 4756.91,2370.35 7384.85,3030.09 -99.38,-68.35 -194.49,-142.38 -284.64,-221.3 -340.31,-297.94 -612.22,-668.08 -779.78,-1064.19 -174.21,-411.82 -236.85,-853.74 -150.16,-1278.11 98.37,-481.55 382.2,-928.94 903.45,-1271.05 369.65,-242.62 827.01,-357.18 1348.53,-199.29 391.92,118.67 813.67,396.42 1248.03,902.46 143.25,167.41 123.66,419.26 -43.75,562.51 -167.41,143.25 -419.26,123.66 -562.51,-43.75 -323.96,-377.43 -616.14,-577.82 -873.03,-655.6 -261.39,-79.14 -492.24,-20.65 -679.77,102.43 -327.17,214.73 -502.49,481.64 -559.69,761.67 -53.07,259.82 -10.5,540.36 103.28,809.35 120.43,284.69 319.34,553.77 570.4,773.57 394.02,344.96 911.5,561.59 1446.74,515.36 1756.01,-151.67 3502.89,-579.45 4939.04,-1163.44 1396.73,-567.96 2483.92,-1272.24 2970.06,-1996.86 266.7,-397.54 351.83,-863 172.69,-1392.68 -178.83,-528.79 -607.64,-1124.43 -1356.8,-1786.83 -201.01,-177.73 -435.88,-383.7 -665.02,-584.64 -1422.33,-1247.3 -2611.63,-2290.66 -3406.05,-3420.63zm208.47 -14582.74c24.8,-135.37 154.67,-225 290.04,-200.2 135.37,24.8 225,154.67 200.2,290.04 -6.31,33.87 -11.91,62.32 -16.8,85.6 -121.42,577.44 -368.37,1073.03 -673.48,1410.67 -334.66,370.35 -743.77,559.07 -1153.52,482.67l-0.98 0 -21.41 -4.26c-134.83,-28.04 -221.4,-160.09 -193.36,-294.92 28.04,-134.83 160.09,-221.4 294.92,-193.36l11.65 2.3 -0.03 0.17c227.98,42.02 475.22,-84.94 693.59,-326.58 248.21,-274.68 451.27,-688.1 554.34,-1178.25 6.2,-29.48 11.18,-54.23 14.84,-73.88zm-3015.46 3311.02c-195.78,-261.83 -358.35,-573.42 -483.51,-923.26 -310.74,-868.57 -394.11,-1989.46 -176.46,-3156.74 11.92,-63.98 22.76,-119.03 32.52,-165.49 97.77,-464.95 237.5,-902.16 409.72,-1301.11 -5.57,-62.24 3.39,-126.7 29.02,-188.41 485.11,-1168.91 699.99,-2122.08 722.61,-3044.26 22.76,-927.26 -148.17,-1842.92 -434.17,-2925.23 -256.75,-971.62 -500.95,-1463.97 -812.56,-1662.31 -286.57,-182.4 -718.12,-133.88 -1335.09,-9.12 -2841.11,574.53 -3423.05,-197.25 -4736.99,-1939.88l-30.36 -40.26c-647.31,-858.37 -1166.18,-1173.61 -1608.28,-1103.94 -462.28,72.84 -919.34,552.97 -1393.79,1272.86 -237.22,359.95 -515.86,646.23 -828.6,873 473.33,583.74 829.71,1134.41 1051.17,1724.7 247.45,659.57 320,1351.38 190.41,2167.29 -85.04,535.4 -293.83,1049.67 -599.69,1545.49 -220.56,357.52 -491.22,704.83 -801.74,1043.1 1703.88,184.36 2961.73,814.47 3997.79,1748.02 1059.78,954.93 1871.14,2219.38 2693.32,3644.77 593.83,1029.5 812.48,2054.97 743.18,3088.35 -24.21,361.01 -83.68,721.83 -174.54,1083.1 392.26,114.89 806.52,151.72 1241.73,124.55 787.99,-49.21 1325.54,-157.93 1670.63,-440.78 314.95,-258.15 508.36,-697.52 633.68,-1414.44zm3866.61 -5841.74c-242.36,-677.43 -641.41,-1148.86 -1139.65,-1253.64l-23 -4.86c-479.66,-89.43 -993.72,170.4 -1442.89,667.47 -496.44,549.38 -902.06,1373.97 -1107.26,2349.78 -11.95,56.85 -21.79,105.93 -29.4,146.75 -191.08,1024.78 -121.6,1998.47 145.2,2744.22 242.37,677.44 641.41,1148.86 1139.65,1253.64l23 4.86c479.66,89.43 993.72,-170.4 1442.89,-667.47 496.44,-549.38 902.06,-1373.96 1107.26,-2349.78 11.95,-56.86 21.79,-105.93 29.4,-146.75 191.08,-1024.78 121.6,-1998.47 -145.2,-2744.22zm-17192.99 -7680.03c1006.34,988.19 1206.96,1921.51 905.62,2787.12 -291.28,836.7 -1072.38,1566.14 -2038.68,2198.85 754.75,265.15 1643.05,474.62 2673.21,603.14 19.74,-44.13 47.89,-85.38 84.43,-121.32 411.18,-405.36 759.01,-818.99 1019.63,-1241.45 251.7,-408.02 422.54,-825.06 490.31,-1251.73 106.56,-670.95 49.23,-1233.7 -149.79,-1764.17 -198.72,-529.67 -544.41,-1043.24 -1013.02,-1607.55 -250.68,105.17 -515.65,185.87 -792.42,246.9 -375.79,82.87 -770.8,128.54 -1179.29,150.21zm-2040.51 4611.54c1048.4,-616.37 1925.61,-1318.82 2193.01,-2086.92 249.19,-715.83 -71.36,-1548.76 -1375.06,-2517.39 -181.69,-5.33 -364.8,-12.67 -548.92,-21.04 -1239.05,-56.32 -2087.22,324.8 -2483.11,910.29 -183.98,272.1 -270.83,591.87 -252.96,932.64 18.79,358.36 152.23,744.08 408.64,1129.54 396.6,596.23 1073.16,1177.68 2058.4,1652.88zm-3375.03 2647.64c-1266.57,736.7 -2399.77,1576.92 -3104.1,2487.74 -473.99,612.95 -748.73,1257.16 -724.59,1919.87 131.13,1055.9 320.74,2093.65 565.54,3109.91 -12.7,-350.7 48.3,-720.33 185.71,-1102.46 390.45,-1085.74 1416,-2276.67 3141.36,-3403.99 570.53,-372.77 1235.12,-782.36 1912.92,-1200.09 304.9,-187.91 612.64,-377.57 926.43,-573.48 -719.64,-140.92 -1382.91,-343.92 -1943.18,-636.53 -342.09,-178.67 -661.99,-380.21 -960.09,-600.97zm-4006.43 2382.52c83.17,-128.89 173.68,-256.34 271.07,-382.28 726.21,-939.1 1839.33,-1793.88 3085.77,-2542.84 -1261.56,-1184.93 -2027.97,-2748.18 -2318.34,-4312.76 -92.3,-497.31 -136.66,-995.12 -133.76,-1481.38 -614.69,2311.75 -942.74,4740.34 -942.74,7245.63 0,494.3 12.78,985.61 38,1473.63zm16691.4 -16826.99c22.37,29.3 40.04,60.72 53.17,93.33 99.68,42.29 199.87,88.89 300.53,139.96 -698.91,-1122.97 -1292.12,-2300.56 -1700.61,-3766.29 -380.11,-1363.88 -225.31,-2731.69 323.05,-3923.81 569.58,-1238.23 1564.07,-2285.96 2823.9,-2940.19 929.65,-482.77 2091.86,-791 3550,-915.58 1386.92,-118.5 3049.67,-71.2 5045.09,149.79 82.25,-494.76 243.62,-986.57 498.83,-1392.01 46.31,-73.57 95.61,-144.27 147.94,-211.71 -7318.81,89.47 -13964.23,2974.97 -18918.36,7637.39 462.67,16.93 959.87,107.07 1478.22,265.88 2049.68,627.99 4482,2351.53 6398.24,4863.24zm-1208.09 -225.07c-1705.03,-1991.41 -3713.2,-3352.3 -5421.41,-3875.67 -747.61,-229.06 -1428.25,-293.97 -1986.41,-175.85 -58.37,12.35 -115.37,26.82 -170.99,43.4 -424.57,437.35 -835.04,888.46 -1230.7,1352.6 -131.6,519.92 -140.12,1188.4 4.1,2017.9 136.14,783.03 433.12,1464.28 843.34,2105.13 421.23,658.06 963.58,1278.34 1575.21,1921.5 886.41,-261.95 1812.5,-912.5 3340.4,-2270.47l1.57 0 19.92 -17.61 0 -1.56c842.62,-741.13 1872.35,-1193.39 3024.97,-1099.37zm-7341.85 3535.27c-490.4,-536.84 -929.47,-1069.97 -1292.1,-1636.5 -465.22,-726.78 -802.73,-1503.41 -958.96,-2402.01 -64.98,-373.76 -101.75,-722.23 -112.53,-1046.1 -1437.15,1868.92 -2644.64,3923.63 -3580.32,6121.86 61.1,-67.96 124.31,-133.81 189.68,-197.35 857.3,-833.31 2064.28,-1270.06 3604.51,-1048.31l53.09 7.65c857.65,123.51 1509.07,217.2 2096.63,200.76zm-20.56 12550.43c-542.47,347.92 -1135.58,713.46 -1718.87,1072.94 -638.51,393.52 -1264.55,779.35 -1894.18,1190.73 -1573.58,1028.15 -2494.98,2075.57 -2828.86,3003.99 -112.04,311.57 -155.09,608.68 -131.82,885.07 22.21,263.68 107.09,509.5 252.07,731.39 262.91,402.39 723.48,735.28 1368.78,967.33 882.84,317.46 1786.71,312.82 2690.43,136.64 933.65,-182.01 1870.73,-546.91 2786.34,-934.28 1791.45,-757.93 3145.87,-988.34 4476.83,-536.19 1209.15,410.78 2354.71,1381.73 3759.1,3033.49 266.15,-384.67 547.61,-829.85 831.22,-1367.5 204.02,-386.77 377.55,-769.65 515.17,-1149.24 -116.06,-63.15 -230.56,-133.07 -343.51,-210.08 -772.89,-526.99 -1458.74,-1380.12 -2050.44,-2651.3 -554.49,-1191.22 -1044.01,-2221.46 -1722.16,-2928.32 -652.57,-680.19 -1512.27,-1088.37 -2844.12,-1100.36 -1032.41,-9.3 -2123.47,-35.42 -3145.98,-144.31zm25463.79 -22094.69l1.89 -0.23c690.78,-118.98 1342.06,-335.3 2028.02,-694.2 809.59,-423.58 1673.6,-1048.33 2709.86,-1946.18 311.28,-269.71 650.32,-469.32 1008.93,-601.74 524.73,-193.77 1088.16,-243.25 1664.86,-157.83 -2197.9,-1138.22 -4565.07,-1994.99 -7053.82,-2522.63 -581.15,-55.19 -1097.96,-27.46 -1545.79,71.15 -589.62,129.83 -1051.64,382.61 -1374.92,729 -318.77,341.57 -509.38,780.16 -560.25,1286.54 -32.26,321.13 -8.44,672.95 74.28,1048.6 197.75,897.99 600.73,1706.55 1184.31,2224.29 489.4,434.2 1115.3,664.38 1862.63,563.23zm137.8 785.09c-10.35,2.24 -20.87,4.1 -31.54,5.53l-4.27 0.55c-109.33,18.29 -219.56,34.43 -330.97,48.55 -2740.35,347.19 -4243.96,1518.18 -5067.9,3002.78 -123.6,222.72 -232.39,453.1 -328.3,689.3 -60.46,202.32 -128.11,408.77 -203.67,619.6 -10.51,29.32 -24.11,56.66 -40.29,81.76 -349.58,1185.86 -437.87,2468.36 -463.21,3650.17 -4.31,220.05 -186.2,394.94 -406.25,390.63 -220.05,-4.31 -394.94,-186.2 -390.63,-406.25 31.89,-1487.68 161.21,-3132.08 753.79,-4607.78 656.2,-2228.69 325.54,-3827.84 -480.56,-4793.32 -349.45,-418.53 -788.37,-718.87 -1272.93,-899.58 -489.61,-182.59 -1028.85,-244.7 -1573.04,-184.86 -1378.1,151.54 -2774.97,1091.04 -3480.1,2843.3 -288.69,717.4 -175.32,1630.34 179.82,2633.66 374.47,1057.92 1014.01,2203.08 1743.66,3329.41 268.14,413.91 528.34,792.58 792.73,1177.35 848.96,1235.51 1739.1,2530.96 2319.69,4021.85 69.55,178.61 134.9,382.81 204.76,601.16 225.39,704.37 505.03,1578.24 979.37,1741.24 36.7,12.61 63.91,21.53 77.6,25.27 178.55,48.77 429.08,79.02 660.94,2.67 213.36,-70.26 419.98,-246.18 547.28,-616.65 17.19,-50.03 29.56,-88.64 36.74,-114.94 48.49,-177.54 97.06,-381.78 145.03,-610.8 47.4,-226.29 91.73,-465.52 132.24,-715.35 136.84,-843.8 269.77,-1409.21 528.33,-1926.57 260.08,-520.4 631.02,-960.99 1241.6,-1550.4 315.56,-304.61 621.4,-579.11 929.53,-833.14 304.99,-251.42 610.75,-480.58 929.16,-696.98 875.28,-594.89 1584.77,-823.23 2282.4,-840.34 688.61,-16.88 1321.6,170.39 2082.44,411.62 871.17,276.21 1688.8,29.5 2460.04,-464.74 830.46,-532.18 1614.71,-1346.63 2356.72,-2130.86l0.79 -0.81 -0.79 -0.75 16.23 -17.12c677.36,-713.31 1385.39,-1300.97 2105.14,-1748.41 -302.87,-575.97 -614.02,-1045.29 -932.22,-1412.53 -443.45,-511.81 -893.21,-815.33 -1346.21,-924.7 -437.83,-105.71 -895.81,-30.44 -1369.64,212.63 -264.87,135.88 -536.38,325.09 -813.74,565.4 -889.35,770.55 -1664.61,1353.28 -2394.66,1790.15 -742.43,444.27 -1438.25,737.53 -2157.52,922.53 -972.79,250.2 -1655.11,553 -2195.38,919.53 -536.06,363.69 -944.45,800.77 -1365.07,1316.64 -138.93,170.86 -390.08,196.75 -560.94,57.82 -170.86,-138.93 -196.75,-390.08 -57.82,-560.94 463.32,-568.25 919.11,-1053.73 1536.95,-1472.9 613.65,-416.31 1375.1,-756.76 2445.38,-1032.03 641.86,-165.09 1268.93,-430.46 1945.02,-835.03 688.47,-411.98 1427.51,-968.41 2282.16,-1708.89 323.28,-280.11 647.88,-504.81 973.12,-671.66 646.87,-331.83 1288.32,-430.67 1919.64,-278.25 616.16,148.76 1205.41,535.62 1761.83,1177.82 352.86,407.26 695.23,921.42 1025.55,1547.24 519.59,-254.9 1042.09,-435.4 1560.53,-535.93 33.53,-6.5 67.03,-12.55 100.51,-18.39 -446.84,-1070.11 -1008.52,-1973.55 -1629.56,-2690.33 -694.05,-801.05 -1458.21,-1366.02 -2213.33,-1665.87 -721.54,-286.51 -1433.52,-327.95 -2060.28,-96.5 -270.39,99.84 -526.45,250.73 -762.05,454.86 -1081.42,936.98 -1993.89,1594.6 -2862.98,2049.32 -764.23,399.86 -1490.27,640.77 -2260.87,773.26zm12620.23 1099.19c873.05,-5.5 1718.29,230.36 2502.28,733.65 -285.03,-311.79 -576.9,-617.22 -875.55,-915.87 -1082.79,-1082.79 -2253.7,-2077.43 -3500.72,-2972.71l16.39 18.79c719.69,830.64 1363.46,1885.25 1857.6,3136.14zm4791.16 3588.2c327.37,936.41 352.69,1894.22 206.53,2810.74 -100.32,629.03 -282.04,1235.46 -501.13,1799.03 1622.56,448.34 2847.89,1025.63 3643.47,1790.25 -842.19,-2287.76 -1973.17,-4435.88 -3348.87,-6400.02zm-2337.54 8457.51c-429.23,816.71 -714.81,1505.35 -836.33,2114.46 -149.78,750.82 -37.64,1389.4 378.83,2028.05 568.13,-598.76 1029.08,-1174.43 1163.23,-1818.24 130.1,-624.37 -39.32,-1360.02 -705.73,-2324.27zm3342.46 7278.5c664.21,467.54 1219.26,910.13 1693.33,1404.13 550.42,573.57 984.85,1207.99 1342.21,2015.47 298.09,673.56 492.67,1317.71 594.46,1926.67 287.37,-1612.4 437.38,-3272.35 437.38,-4967.34 0,-2198.89 -252.51,-4338.79 -729.93,-6392.38 -224.61,1214.04 -924.57,2648.85 -2134,4360.05 -380.14,537.86 -789,1095.33 -1203.45,1653.4zm-6311.61 -572.49c-740.84,-899.09 -1267.99,-1822.1 -1449.61,-2847.4 -187.98,-1061.12 -2.78,-2210 701.91,-3523.59l47.69 -88.8c-853.61,206.97 -1611.29,316.82 -2414.3,217.69 -991.94,-122.47 -2017.44,-562.38 -3322.68,-1529.76 -1279.93,-948.64 -2190.18,-1622.66 -3076.39,-1660.97 -883.34,-38.18 -1856.63,544.86 -3331.85,2101.64 -633.26,668.27 -1022.6,1181.07 -1122.03,1847.62 -104.8,702.47 83.39,1624.83 609.3,3109.99 630.63,1780.87 380.98,2278.39 -384.51,3803.92 -121.19,241.52 -256.56,511.28 -405.96,823.39 -273.02,570.36 -494.53,1140.56 -677.47,1712.98 -29.5,150.23 -53.54,298.33 -72.28,444.21 -211.75,1647.7 265.64,2964.91 1108.01,3930.92 853.14,978.35 2080.38,1606.83 3351.36,1861.81 152.97,30.69 307.08,56 461.66,75.86 457.08,58.73 749.36,64.25 994.92,-91.93 288.59,-183.55 590.49,-590.47 1056.36,-1354.01l20.88 -34.23c1132.03,-1855.43 1682.76,-2758.07 4460.44,-3847.3 944.08,-370.21 1747.03,-713.72 2299.7,-1228.82 527.18,-491.36 848.82,-1169.71 885.34,-2241.42 25.32,-743.08 76.91,-1141.85 259.51,-1481.8zm-1362.19 -10921.29c1089.02,-201.29 2228.49,-411.85 3232.49,-283.24 61.99,-118.18 123.98,-236.93 185.93,-356.32 420.28,-809.9 449.89,-1643.35 158.99,-2240.4 -138.38,-284.01 -349.74,-512.42 -625.02,-653.1 -284.11,-145.19 -644.72,-202.38 -1074.91,-139.04 -1196.08,176.1 -2843.84,1247.68 -4801.41,3820.63 646.22,272.37 1752.73,67.96 2923.93,-148.53zm5437.38 14851.68l-145.76 -135.21c-876.43,1234.07 -1541.42,2294.63 -1712.34,2994.75 -72.74,297.95 -24.87,492.74 193.19,545.97 883.91,215.79 1587.72,154.72 2082.44,-84.61 292.62,-141.56 509.44,-346.01 642.47,-590.01 132.89,-243.72 185.44,-533.46 149.57,-845.58 -59.01,-513.45 -355.04,-1082.51 -921.86,-1616.49 -91.02,-85.75 -187.33,-175.68 -287.71,-268.82z"></path></g></svg>