<svg xmlns="http://www.w3.org/2000/svg" xmlns:xlink="http://www.w3.org/1999/xlink" version="1.1" x="0px" y="0px" viewBox="0 0 90 90" enable-background="new 0 0 90 90" xml:space="preserve"><path d="M33.32,5.953L18.225,32.051l-0.393-0.676c-0.099-0.164-0.099-0.371,0-0.546L32.174,6.007  c0.022-0.033,0.066-0.055,0.109-0.055H33.32z"></path><polygon points="35.851,5.953 19.491,34.244 18.858,33.152 34.585,5.953 "></polygon><polygon points="38.371,5.953 20.756,36.437 20.123,35.334 37.106,5.953 "></polygon><polygon points="40.88,5.953 22.01,38.607 21.378,37.517 39.615,5.953 "></polygon><path d="M89.87,61.146L58.166,6.249c-0.087-0.175-0.272-0.284-0.47-0.284h-12.84c-0.153,0-0.306,0.065-0.415,0.229L23.843,41.968  l0.033,0.054l0.055,0.087c0.011,0.022,0.087,0.109,0.12,0.143c0.043,0.043,0.098,0.065,0.153,0.086  c0.043,0.022,0.087,0.033,0.131,0.033c0.011,0,0.011,0.011,0.022,0c0.011,0.011,0.032,0.011,0.043,0.011h2.302l4.189,7.375H19.643  l-5.334-9.241h9.131L43.405,5.955H42.15L22.818,39.426c0,0-9.208,0-9.458,0c-0.251,0-0.601,0.272-0.601,0.272L0.06,61.672  l0.632,1.09l12.612-21.797l0.524,0.894L1.151,63.854l0.632,1.09l12.678-21.982l0.622,1.091L2.406,66.035l0.633,1.092l12.677-21.984  l0.633,1.08L3.671,68.207l0.632,1.102l12.677-21.984l0.633,1.092l0.011,0.012L4.937,70.398l0.622,1.08l12.688-21.961l0.611,1.059  c0,0,0,0.01,0.011,0.01L6.256,72.516l6.667,11.531c0,0,63.431,0,63.67,0c0.24,0,0.415-0.305,0.415-0.305l6.186-10.713  C83.27,72.996,89.87,61.66,89.87,61.66C89.968,61.486,89.958,61.277,89.87,61.146z M44.932,7.624l0.633,1.102l-5.88,10.19  l-0.523-0.906l-0.109-0.208L44.932,7.624z M43.471,25.461l-0.633-1.091l5.869-10.168l0.633,1.091L43.471,25.461z M49.962,16.384  l0.633,1.091l-5.87,10.157l-0.633-1.091L49.962,16.384z M42.205,23.268l-0.633-1.08l5.871-10.179l0.633,1.091L42.205,23.268z   M40.939,21.097l-0.622-1.091l5.869-10.179l0.633,1.08L40.939,21.097z M32.713,50.598l0.044-0.119  c0.033-0.1,0.033-0.209,0.021-0.242c0-0.152-0.054-0.305-0.12-0.414l-4.233-7.429h8.477c0.109,0,0.207-0.022,0.262-0.055  c0.24-0.054,0.447-0.218,0.557-0.425l13.496-23.358l0.633,1.091l-6.164,10.681l0.633,1.102l6.164-10.681l0.632,1.091l-6.174,10.67  l0.633,1.102l6.174-10.681l0.622,1.081l-6.164,10.681l0.633,1.091l6.164-10.67l0.633,1.091l-6.164,10.681l0.622,1.08l6.164-10.681  l0.632,1.102l-6.163,10.681l0.633,1.091l6.163-10.681l0.633,1.091l-6.175,10.67l0.633,1.102l6.176-10.681l0.622,1.081l-6.165,10.681  l0.633,1.102l6.165-10.681l0.633,1.091l-6.165,10.681l0.622,1.08l6.164-10.68l0.633,1.102l-6.164,10.682l0.622,1.078l6.175-10.68  l0.633,1.102l-6.175,10.67l0.633,1.102l6.175-10.681l0.622,1.091l-6.164,10.67l0.633,1.102l6.164-10.68l0.621,1.091l-6.163,10.669  l0.633,1.092l6.163-10.681l0.633,1.103l-6.163,10.68l0.621,1.08l6.175-10.67l0.633,1.092l-6.175,10.68l0.633,1.08l6.165-10.682  l0.633,1.104l-6.165,10.67l0.011,0.021H26.768L32.713,50.598z M70.876,60.896h-1.254l3.021-5.236l0.633,1.092L70.876,60.896z   M73.898,57.83l0.633,1.104l-1.135,1.963h-1.266L73.898,57.83z M68.356,60.896h-1.255l4.276-7.43l0.633,1.09L68.356,60.896z   M65.835,60.896h-1.254l5.543-9.6l0.621,1.078L65.835,60.896z M82.681,72.035H20.461l5.837-10.102h50.284l0.294-0.045l0.175-0.271  c0.055-0.143,0.055-0.307-0.033-0.471L45.762,7.012h11.641l31.421,54.396L82.681,72.035z M74.65,60.896l0.502-0.873l0.514,0.873  H74.65z"></path></svg>