<svg xmlns="http://www.w3.org/2000/svg" xmlns:xlink="http://www.w3.org/1999/xlink" version="1.1" x="0px" y="0px" viewBox="0 0 100 100" enable-background="new 0 0 100 100" xml:space="preserve"><path d="M65.3,1.5c0,0-6,2.1-8.2,5.7s-3.9,8-4.8,11.3c-0.9,2.9-2.2,4.3-3,4.5c-1.2,0.3-1.8,0-1.8,0.6  c0,0,0.1,1.6,2.1,1.8c2,0.2,3-0.7,3.5-1.1s2.9-4.2,3.7-5.6s4-7.1,5.1-8.9c1.1-1.9,2.3-2.7,3.6-3.4c1.4-0.7,4-1.6,3.7-2.3  C68.9,3.4,68.1,1.6,65.3,1.5"></path><path d="M72.7,5.9c0,0-3.8,0.2-7.7,3.5c-3.9,3.3-4.2,5-5.6,7.3C58.1,19,56,23,55.1,24.3s-1.2,1.6-1.1,1.9  c0.1,0.4,1.4,1.4,2.5,1.7c1.1,0.3,1.7,0.5,2.2,0s4.7-6.2,6.8-8.6s7.7-6.1,9.9-6.5c2.2-0.5,4.3-0.6,4.2-1.1c-0.2-0.5-1.9-2.2-4.4-2.2  c-2.4,0-5.8,1.4-6.9,2.2s-3.5,2.6-3.5,2.3s1.3-2.2,1.7-2.5c0.4-0.3,4.2-2.7,5.9-3.1c1.7-0.3,2-0.5,1.9-0.8S73.3,5.8,72.7,5.9"></path><path d="M83.3,14.6c0,0-3-1.3-7.5,1.2s-8.1,6.3-10.5,8.5c-2.5,2.2-5.8,5.5-5.7,5.6c0,0.2,1.5,1.2,1.9,1  s6.9-6.2,7.7-6.6c0.8-0.5,7.3-4.1,11-4c3.8,0.1,6.5,0.6,6.5,0.2s-0.4-2.1-3-2.6s-7.2,0.3-7.2,0.3s3.3-2.4,6-2.2c0,0,1.7,0.2,1.5-0.4  C83.7,15,83.3,14.6,83.3,14.6"></path><path d="M88.9,24.6c0,0-4.6-2.8-12.5-0.9c0,0-6.8,2.9-10,5.5c-3.2,2.6-3.9,3.2-3.8,3.6c0.1,0.5,1,1.1,1.3,0.9  c0.3-0.2,3.8-3.2,7.3-4.5s9.5-3.4,14-3s4.6,1.3,4.9,0.8C90.5,26.5,90.2,25.2,88.9,24.6"></path><path d="M93.3,31.8c0,0-1.8-2.9-8.7-3.4c-6.9-0.5-10.4,2.2-11.5,2.6s-5.3,3.9-7.2,4c0,0-1,0.1-0.6,1  s1.8,1.9,3.2,1.4c1.4-0.5,6.3-3.5,9.3-4S85.1,31,90,32.2c0,0,3.5,2.2,3.7,1.7C94,33.4,93.3,31.8,93.3,31.8"></path><path d="M94.9,36.4c0,0-2-3-8.6-1.9s-10,2.6-11.6,2.6s-4.5,1.6-6.4,1.3c0,0-1-0.1-0.9,1.2s1.1,2.6,3.5,2.1  s6.6-3.5,11.2-3.3s7.4-1,11.5,0.1c0,0,1.9,1.2,2.1,0.4C95.8,38.1,95.3,36.9,94.9,36.4"></path><path d="M95.1,41.4c0,0-1.1-1.8-6.3-2.2c0,0-2.1-0.2-1.8,0.6c0.4,0.7,2.5,1.5,4.8,2.3c2.3,0.7,3.2,3.9,3.6,3.2  C95.8,44.7,96.3,43.1,95.1,41.4"></path><path d="M90.3,44.3c0,0-5.4-3-14.8-2c0,0-6.8,0.3-6.9,1.4c-0.1,1.1-0.5,3.8,1.4,3.6s9.4-1.2,15.5-0.3s7.9,2.6,8.9,3  s1.5,1.2,1.5,0.2C95.9,49.1,94,46,90.3,44.3"></path><path d="M91,49.7c0,0-2.8-1.9-17.4-1.4c0,0-4.8-0.3-5.2,0.5c-0.4,0.7-0.2,2.9,0.7,2.8c0.9-0.1,12-0.5,16.6,0.7  c4.6,1.1,8.8,4.5,9,4.9c0,0,1.2-1.6,0.9-2.7C95.4,53.4,94.2,50.9,91,49.7"></path><path d="M94.2,57.5c0,0,1.2,0.6,0.5,2.5s-0.8,2.8-0.9,3.1c-0.2,0.3-0.8,0.1-1.4-0.9c-0.5-1-5.5-7.5-11.6-9  C80.8,53.3,89.3,52.9,94.2,57.5"></path><path d="M68,52.2c0,0-2.3,2.7-1.3,3.1c1,0.4,10.7,2.4,12,3c1.4,0.5,10.2,6.1,10.7,7.2c0.4,1.1,2,3,2.3,2.2  s1.3-2.4,0.2-4.4c-1.2-2-7.9-7.7-13-9.3S71.1,52,68,52.2"></path><path d="M66.2,56.4c0,0-1.9,2.4-0.9,3.5s8.5,2.3,11.2,6c2.6,3.7,7,9,7.5,11.4c0.6,2.5,0.6,0.8,0.9,0.5  s2.6-1.1,2.1-4.1s-2.1-5.2-2.1-5.2s3.5,2,3.5,5.3c0,0,2.7-2.7,2.3-4c-0.4-1.2-5.7-5.6-9.2-8C78,59.4,68.9,56.6,66.2,56.4"></path><path d="M63.8,61.2c0,0,6.2,2.2,7.2,2.9s3.5,2,4.2,2.5c0.7,0.4,3.8,3.2,5.5,7.1s3.5,6.2,2.7,7s-2.3,2-2.3,2  s-0.8,1-0.9,0c-0.2-1-2.6-4.3-3.3-6.2c-0.6-1.9-5.1-6.2-7.8-7.7c-2.6-1.6-7-4.6-6.9-5.1C62.3,63.2,63.8,61.2,63.8,61.2"></path><path d="M61.1,64.5c0,0,1.7,0.7,2.3,1.9c0.7,1.2,3.5,1.9,4.9,3.5s4.9,4.4,7.1,9.3c2.3,4.9,2.5,5.3,2.1,5.8  s-2.1,2.1-2.3,1.2C75,85.3,73.4,82,72.1,80c-1.2-1.9-5.1-6.2-8.2-8.6c-3-2.5-3.5-4.2-3.5-5.1C60.4,65.4,60.6,64.2,61.1,64.5"></path><path d="M65.8,74.5c0,0,3.2,3.2,4.8,6.5c1.6,3.2,3.3,4,3.6,4.8c0.3,0.8,0.7,2,0.3,2.8s-4.3,3.3-4.3,3s-1-5.6-0.9-7  s-2.5-7.3-2.5-8.2C66.8,75.5,65.1,74.6,65.8,74.5"></path><path d="M58.2,67.7c0,0-1.9,0.4-1.6,1.2c0.3,0.9,1,3.4,1.6,4.3s3.4,3.6,3.9,5.8c0.5,2.3,1.7,5.5,2.2,9.7  s0.7,5.2,0.7,5.2s0.4,0.3,0.8,0c0.5-0.4,2.1-1.4,2.8-1.4s0.1-0.8,0-1.4c-0.1-0.7-1.5-7.5-1.6-9.4s-2.7-7.8-3.9-9.1  C62,71.2,60.3,67.7,58.2,67.7"></path><path d="M54.7,69c0,0-2.6,0-1.8,4.8c0.9,4.7,2.6,7.5,3.3,9s3.9,7,3.9,8.7c0.1,1.7-0.1,4.4,0.3,4.3  c0.4-0.1,1.4-1.8,2.5-1.8c0,0,0.9,0.6,0.3-1.2c-0.6-1.8-1.4-4.4-1.6-6.6c-0.2-2.3-0.8-6.1-2.4-8.4c-1.6-2.4-3.1-6.3-3.2-7.1  C56.1,69.9,55.8,69,54.7,69"></path><path d="M50.8,70c0,0,0.2,4.2,1.8,8.6s2,5.7,1.7,8.9c-0.3,3.3-1.5,4.8-1.2,6.5s0.5,2.4,0.3,2.5  c-0.3,0.1-1.8,0-2.3,0.7s-1.3,2.1-1.6,1.2c-0.2-0.9-1.1-3.6-0.8-4.7s1-7.3,0.8-11.2c-0.2-3.9-0.9-8.1-0.6-9.2  C49.3,72.3,48.9,70,50.8,70"></path><path d="M55.4,85.6c0,0-0.8,6.2-1,8s-0.3,3.9,1,3.5c1.3-0.3,2.6-0.3,2.7-1.6c0.1-1.3-1.1-5.7-1.2-6.4  C56.7,88.4,55.9,85,55.4,85.6"></path><path d="M47.9,71.2c0,0-0.7,1.2-0.7,2.8c0.1,1.6,1.2,7.9,1.2,10.1c0,2.1-1.1,8.1-0.9,9.6c0.3,1.5,0.6,4,0.6,4  s-2.5-1.1-3.8,0c0,0-0.7-0.5-0.6-2.5c0.1-1.9,0.7-4.2,0.9-6.5s-0.5-9.8-0.7-11.9s-0.7-4.1,0.2-4.4C45.1,72.2,46.6,71,47.9,71.2"></path><path d="M43.2,86c0,0-1.5,7.1-0.8,9.6s0.3,2.7,0.3,2.7s-2.9-1.6-4-1.1c0,0-0.3-3.8,1.2-5.5  C41.4,89.9,41.7,86.2,43.2,86"></path><path d="M42.9,71.6c0,0-3.4-1.1-3.6,5.1c-0.2,6.2-0.7,7.6-1.9,9.8c-1.2,2.2-4.1,6.8-4.1,8s0.4,1.4,0.9,1.3  s1.8-0.8,2.3-0.4s1,1.2,1.2,0.9c0.2-0.4,0.6-2.9,1.3-4.4c0.7-1.4,3.3-4.9,3.4-8.5c0.1-3.6,0-8.9,0.2-9.5  C42.8,73.2,43.1,72.1,42.9,71.6"></path><path d="M40,71.6c0,0-1.1-1.1-2.2,0.6c-1.1,1.6-3,5.3-3.1,8c-0.1,2.6-1.5,6.2-2.8,8.4c-1.4,2.2-4,4.2-4,5  s0.7,0.6,1.1,0.7s3.3,1.6,3.3,0.7c0-1,0.2-3,1.2-4.7s4.4-6.4,4.2-8.5C37.6,79.8,38.7,72.4,40,71.6"></path><path d="M37,71.8c0,0-2.1,3.2-2.6,5.9c-0.5,2.7-1.1,7-2.3,9S27,93,26.8,93.6c0,0-3.7-0.6-3.6-1.9s2.1-4.4,3.9-6.2  c1.8-1.8,3.9-6.2,4.4-8.3c0.5-2.1,3.2-6.9,4.1-6.7C36.6,70.8,37.3,71.3,37,71.8"></path><path d="M34.5,70.6c0,0-3.5,3.5-5.1,7.8c-1.5,4.3-3.5,5.5-4.1,7.1c-0.5,1.7-2.5,5-3,4.9s-1.7-0.9-1.6-1.8  c0.2-0.9,2.8-5.4,4-6.7c1.2-1.3,3.9-7.4,4.4-8.7c0.5-1.2,3.2-4,4.3-3.2C34.6,70.8,34.5,70.6,34.5,70.6"></path><path d="M27.2,74.3c0,0-1.8,5.2-3.1,7.3c-1.3,2.1-4.3,6.9-4.9,6.7c-0.7-0.3-3.1-2-2.9-2.4s3.7-2.8,4.4-3.8  C21.3,81.1,25.6,75.1,27.2,74.3"></path><path d="M32.2,68.4c0,0-4.5,3.3-8.5,8.6c-4,5.2-5.9,5.2-6.5,6.1c-0.6,0.8-1.9,2.4-2.4,1.8c-0.5-0.7-2.6-2.2-1.3-3.8  c1.3-1.6,5.9-5.1,6.9-6.1s5.2-6.9,6.7-7s3.9-0.5,4.5,0L32.2,68.4z"></path><path d="M29.1,66.1c0,0-1.8-0.2-7.2,5.4c-5.5,5.6-7.9,7.3-8.4,7.9s-1.2,2.2-1.5,1.8c-0.2-0.4-1.7-1.5-1.6-2.5  c0.2-1,2.2-2.5,3.2-3.1c1-0.7,4.4-4.7,5.6-6.3c1.2-1.7,4.9-3.9,6.6-3.9C27.6,65.5,29.4,65.3,29.1,66.1"></path><path d="M18.4,68.5c0,0-1.4,3.3-4.6,5.8c-3.3,2.5-3.5,3.8-4.1,3.7c-0.6-0.1-2.5-2-2.1-2.8c0.5-0.8,2.4-2.6,4.4-2.9  s4.3-2.4,4.9-2.8C17.6,69.2,18.4,68.5,18.4,68.5"></path><path d="M24.1,65c0,0-4.9,1.8-8.1,4.1c-3.2,2.3-8.4,5.5-8.7,5.1C7,73.7,6.5,71.8,7,71s4.3-3,5.5-3.5s5.7-2.6,7-3.5  c1.4-0.9,4.9-3,6-2.3c1,0.7,2.2,1.6,1.6,2.1C26.6,64.4,26.6,65.1,24.1,65"></path><path d="M25,60.6c0,0-5,2.3-6.1,2.7s-5.4,2.4-6.7,2.6c-1.3,0.3-4.1,2.5-4.6,3.1s-1.3,1.3-1.5,0.7  c-0.2-0.7-0.9-1.8,0-2.5s4.7-3.1,6-3.9c1.3-0.9,6.3-3.4,8.2-3.5c1.9-0.2,3.3-0.7,3.8-0.2C24.6,60.1,25.6,60.4,25,60.6"></path><path d="M14.6,60.2c0,0-3.8,2.5-6.2,3.9c-2.4,1.4-3,3.1-3.3,2.6S4,64.1,4.7,63.3C5.5,62.5,7.5,62,9,61.9  s3.6-1.2,4.3-1.2S14.6,60.2,14.6,60.2"></path><path d="M24.5,58.5c0,0-0.2-2.8-1.8-2.9c-1.6-0.1-6,0.7-8.4,1.1C12,57,7,58.8,5.8,58.9c-1.2,0-1.6-0.5-1.7,0.5  s0,2.7,0.6,2.6s5.1-1.6,6.9-2.2C13.4,59.2,22.1,58.2,24.5,58.5"></path><path d="M11.5,56.4c0,0-6.2,2.5-6.6,1.9S3.8,56.2,4.4,56c0.6-0.3,2.5-1,4.2-0.9C10.2,55.2,11.7,55.8,11.5,56.4"></path><path d="M4.4,54.8c0,0-1-3.4,0-3.7s5.4-0.3,6.8,0.2s6.8,0.8,8.1,0.4c1.3-0.4,3.6-0.4,3.8,0.3  c0.2,0.7,1.4,2.2-0.3,2.2c-1.8,0-6.5,1.4-8.2,1.3c-1.7-0.2-3.5-0.7-4.9-0.9C8.4,54.6,5,55.5,4.4,54.8"></path><path d="M5.4,50c0,0-0.4-2.8,2.2-2.4c2.6,0.3,3.4,0.5,5.2,0.6s7.1,0,7.8,0.3s3.6,0.7,3.5,1.2c0,0.5-0.6,1.3-2.2,1.2  s-5.5-0.2-7.9-0.3S6.8,50.8,5.4,50"></path><path d="M6.6,46.7c0-0.3,0-1,0-1s0.6-2.4,2.6-1.8c1.9,0.6,5.4,1.1,7.1,0.9c1.7-0.2,6.7,0.1,7.5,1s1.9,1.6,1.6,2.1  s-0.6,0.9-1.6,0.8c-1-0.2-1.4-1.3-4.1-1.4c-2.6,0-5-0.1-7.4-0.1C9.8,47.3,6.6,47.3,6.6,46.7"></path><path d="M8.5,42.5c0,0,0.2-1.1,0.4-1.6s1.1-1.1,2.3-0.3c1.2,0.7,6,2.9,5,3.2C15.2,44.1,8.9,43.6,8.5,42.5"></path><path d="M11.1,39.2c0,0,0-1.7,1.7-1.7s8.3,1.9,11.4,4.8c3.2,2.9,2.7,3.7,1.8,3.7s-6.5-3.5-7.9-4.2  C16.8,41.1,10.9,40.1,11.1,39.2"></path><path d="M13,36.2c0,0,1.1-1.1,1.3-1.5s0.6-1,0.9-0.4c0.3,0.6,3.4,3.1,3,3.3C17.7,37.8,12.2,36.5,13,36.2"></path><path d="M15.7,33.7c0,0,2.2,2,2.9,2.8s2.9,1.9,3.7,2.7c0.8,0.8,4.2,5.5,4.7,5.3s1.9-1.2,1.2-2.2  c-0.7-1-5-3.7-5.3-4.3s-5.3-7.2-6.1-6.4C16.1,32.3,16.6,32.9,15.7,33.7"></path><path d="M18.9,31c0,0-0.5,0.3,0,1s4.3,3.3,4.8,4.5s4,4.4,4.5,4.8c0.5,0.4,1.6,1.1,1.9,0.8s0.8-0.7,0-1.8  s-4.1-5.2-5.5-6.2s-4.5-4.4-4.8-3.8C19.5,30.7,19.5,31,18.9,31"></path><path d="M21.5,28.7c0,0-0.7,0.8,0,1.7c0.7,0.9,3.3,3.3,3.7,3c0.3-0.3-1.8-3.3-2-4.1c-0.2-0.8,0.3-1.7-0.2-1.5  C22.4,28,21.5,28.7,21.5,28.7"></path><path d="M23.8,27.5c0,0-0.7,0.7,0,1.6s3.3,5.9,4.1,6.8c0.8,0.9,3.6,4.7,3.9,4.6c0.2-0.1,0.5-1.9-0.2-3.3  c-0.7-1.4-3-6.3-3.2-6.9s-1.2-3.2-1.9-3.1C25.6,27.2,23.8,27.5,23.8,27.5"></path><path d="M29.9,25.1c0,0-0.4,0.5-0.5,1.6c0,1.1,0.2,6.3,0.7,7s2.3,3.2,2.3,4.3s0.9,1.1,1.4,0.8  c0.4-0.2,1.1-2.3,0.4-3.9c-0.7-1.7-2-3.3-1.9-4.9s0-4.9-0.5-4.9C31.2,25.2,29.9,25.1,29.9,25.1"></path><path d="M28.9,25.1c0,0-0.6,3.1-0.5,3.5s0.3,1.5,0,0.9s-1-1.7-1-2.5c0-0.7-0.2-1.2,0.2-1.4  C28.1,25.6,29,24.6,28.9,25.1"></path><path d="M33.6,23.6c0,0-0.8-0.1-0.8,0.8s-0.1,5.5,0.2,6.1s1.6,2.5,1.9,4.1c0.3,1.5,0.1,3.5,0.6,3.4s1.9-1,1.9-2.9  s-0.9-3.9-1.2-5.6s0-5.6-0.6-5.6C35,23.8,34.8,23.8,33.6,23.6"></path><path d="M38.2,23.2c0,0-1.1-0.3-1.3,0.4c-0.2,0.7-0.5,3.5,0.3,6.5c0.9,3,1.3,4.9,1.2,5.7c-0.2,0.7-0.3,1.6,0.4,1.6  c0.8-0.1,2.1-0.2,2.2-3.1c0.1-2.9-0.4-4-0.8-5.2c-0.5-1.2-1.1-3.5-1.1-4.4C39.1,23.9,38.5,23.3,38.2,23.2"></path><path d="M41.4,23.1c0,0-0.9-0.7-1.2,0.7c-0.3,1.4,0,3.5,0.2,4.4c0.3,0.9,0.6,2,0.6,1.5c0-0.6,0.1-2.7,0.5-3.7  c0.5-1,1.4-1.2,1.1-1.8C42.2,23.6,41.4,23.1,41.4,23.1"></path><path d="M44.7,25.1c0,0-1.2-1-2.1,1.3c-0.9,2.3-0.8,2.8-0.8,4.9s0,4.9-0.2,5.4c-0.3,0.5,0.7,0.4,1.1,0.3  c0.3-0.1,1.7-0.4,1.8-3.3c0.1-2.8,0.5-5.5,0.8-6s1.8-2.7,1-2.7C45.5,25.1,44.7,25.1,44.7,25.1"></path><path d="M48,25.8c0,0-1.4-0.2-1.5,1.2c-0.1,1.4-0.1,5.7-0.8,7.2s-2,3.1-1.5,3.3c0.5,0.3,2.1,0.8,2.8-1.8  c0.6-2.6,1.9-6.3,2.6-6.9c0.7-0.6,2.9-1.3,2.5-1.9c-0.5-0.6-0.5-1-1.5-0.7s-1.7,0.7-1.9,1.2s-1,1.3-0.9,0.8s0.7-1.5,1-1.8  c0.3-0.2,0.9-0.9,0.4-0.8C48.5,26,48,25.8,48,25.8"></path><path d="M53.7,27.8c0,0-0.9-0.6-1.4,0.5c-0.6,1.1-2.8,1.9-3.4,4.9c-0.6,3-1.9,4.9-2,5.1c-0.2,0.2-0.4,0.7,0.3,0.8  c0.6,0.1,2,0.7,3.5-2.6s1.9-5.4,2.5-5.9c0.6-0.4,2.1-1.5,2-1.8S53.7,27.8,53.7,27.8"></path><path d="M56.6,29.5c0,0-0.5-0.8-1.1,0.2s-2.8,2.2-2.8,2.7s1,0.5,1.9-0.3s3.2-1.1,3.3-1.5  C57.9,30.2,56.6,29.5,56.6,29.5"></path><path d="M58.6,31c0,0-3.6,0.7-5.6,3s-2.2,4.3-2.8,4.8S48.6,39.7,49,40c0.5,0.3,2.5,1.2,3.1,0c0.5-1.2,5.3-5.9,5-5.6  c-0.4,0.4,3.4-1.1,3.1-1.5C59.9,32.5,58.6,31,58.6,31"></path><path d="M61.4,34c0,0-0.9-0.4-1.7,0.2c-0.9,0.6-3.9,1.9-4.9,3.3c-0.9,1.4-3.4,3.6-3.5,4.2c-0.2,0.7,0.8,0.8,1.6,0.5  s4.2-3.1,4.6-3.7c0.4-0.6,4.2-2.5,4.3-3C62,35.1,61.4,34,61.4,34"></path><path d="M63.5,36.7c0,0-0.8-0.3-3,0.7s-2.7,1.3-2.1,1.4c0.5,0.1,5.9,0.2,5.9-0.3C64.2,38,63.5,36.7,63.5,36.7"></path><path d="M64.8,39.2c0,0-2.7-0.2-3.9,0s-3.7,0.6-5.3,1.9c-1.6,1.3-2.9,2.1-2.9,2.8s0.7,2,1.3,1.5  c0.6-0.4,2.9-2.5,3.8-2.9c0.9-0.4,5-1.4,6.4-1.4c1.4,0,1-0.4,0.8-0.8c-0.2-0.4-0.3-0.8-0.3-0.8L64.8,39.2z"></path><path d="M65.3,42.1c0,0-4-0.4-6.1,0.8c-2,1.1-3.4,2.2-4,2.3s-1.6,0.8-1.3,1.1s0.6,1.3,1.3,1.1s3.8-2.3,5-2.3  c1.1,0,5.8-0.1,5.8-0.5C66,44.1,65.8,42.1,65.3,42.1"></path><path d="M66.7,46.6c0,0,1.1-1.3-1.5-1.5s-4.9,0.3-5.3,0.5c-0.4,0.3-4,1.8-4.3,1.9c-0.3,0.1-0.9,0.5-0.8,0.9  c0.1,0.4,0.3,0.7,1.2,0.8s6.4-1.3,7.2-1.3c0.7,0,3.3,1.1,3.5,0.5C67,48,66.7,46.6,66.7,46.6"></path><path d="M66.3,50.5v-1.2c0,0-1.7-0.7-2.8-0.5s-2.7,0.7-2.1,0.9c0.7,0.1,3.4,0.1,3.6,0.4  C65.2,50.3,66.3,50.7,66.3,50.5"></path><path d="M66.3,53.1c0,0,0.5-2.6-5.8-2.8s-5.4,0-5.7-0.3s0,0.6-0.3,0.9c-0.3,0.4-0.1,1.3,0.9,1.2s5.4,0.6,6,0.7  c0.6,0.1,4.1,1.1,4.3,1.1C66,53.8,66.3,53.1,66.3,53.1"></path><path d="M65.8,55.8c0,0-0.5-1.5-2.3-1.9s-2.2-0.2-1.6,0.2c0.6,0.3,2.3,2.4,2.6,2.3C64.8,56.3,65.7,56.5,65.8,55.8"></path><path d="M62.6,60.2c0,0,2.7-2.3,1.6-3s-3.1-3-4-3.5s-5-1.1-5.4-0.7c-0.4,0.4-1.5,1.1-0.4,1.7c1.1,0.7,3.8,1,4.8,1.7  s3.6,4.5,2.9,3.5C61.5,58.9,62.6,60.2,62.6,60.2"></path><path d="M61.6,61.9l0.5-1.1c0,0-1.5-3.1-2.9-3.7c-1.4-0.6-5.1-1.2-5.3-1.4s-1-1-0.6,0s2.9,2.2,3.7,2.3s3.6,2.3,3.9,3  C61.1,61.7,61.4,62.4,61.6,61.9"></path><path d="M60.2,63.7c0,0,1.2-1.2,0.2-2.3s-4.4-2.2-4.7-2.6c-0.3-0.4-2.4-2.4-3-1.8c-0.6,0.5-0.7,1.6,0,2  c0.7,0.5,4.7,2.3,5.1,2.8c0.5,0.5,1.3,2.3,1.7,2.1C59.8,63.7,60.2,63.7,60.2,63.7"></path><path d="M58.4,64.9l0.6-0.7c0,0,0.1-0.7-0.6-1.3c-0.7-0.6-1.9-1.7-1.6-1c0.3,0.8,1.3,2,1.3,2.5  C58.1,64.9,58,65,58.4,64.9"></path><path d="M55.4,65.9c0,0,0.4,1.3,0.6,1.1c0.2-0.2,1.1-1.5,1.3-1.5s0.5-0.3,0.2-1c-0.3-0.7-2.2-3.4-3.9-4.2  c-1.6-0.8-1.9-1.5-2.3-1.5c-0.4,0.1-1.1-0.4-1.1,0.4c0,0.7,0.6,1.4,1.3,1.8c0.8,0.4,2.3,2.1,2.7,2.8C54.6,64.4,55.4,65.9,55.4,65.9"></path><path d="M50.2,60.8c0,0-1.4-1-1.3-0.6c0.1,0.4-0.6,2.2,0.7,3.1c1.2,0.9,2.1,1.6,2.5,2.3s1.5,2.7,2,2.5s1-1.4,0.7-1.9  c-0.3-0.6-2.1-2.8-2.7-3.5C51.5,61.9,50.2,60.8,50.2,60.8"></path><path d="M50.9,65.4c0,0,1.7,1.6,1.8,2s0.5,1.4-0.2,1.6s-1.1,0.3-1.2-0.5c-0.1-0.9-0.4-1.5-0.4-1.9  C50.9,66.1,50.3,65.3,50.9,65.4"></path><path d="M48.1,62.1c0,0-0.5-0.6-1.4,0.2s-1.1,0.3-0.2,1.8c0.9,1.5,2.3,2.5,2.6,3.3c0.4,0.8,0.3,1.8,0.6,1.7  c0.3-0.1,0.7-0.6,0.6-1.9C50.3,66,48.8,63.1,48.1,62.1"></path><path d="M47.4,66.3c0,0,1.2,2.2,1.2,2.9c0,0.7,0.1,1.3-0.4,1.3s-1.2,0.3-1-0.5s-0.1-2.9,0-3.3  C47.2,66.1,47.1,65.8,47.4,66.3"></path><path d="M44.7,62.3c0,0,1.1,0.4,1.3,2.1c0.3,1.7,0.9,4.7,0.6,5.2c-0.3,0.5-0.9,1.5-1.1,1.1c-0.2-0.4-1.1-2.1-1.3-2.9  s-0.8-1.4-0.7-2.1s-0.4-2.6,0-2.9C44.1,62.6,44.7,62.3,44.7,62.3"></path><path d="M42.8,62.8c0,0-1.3-0.6-1.4-0.2c-0.1,0.4-0.3,1.8-0.2,2.9s-0.1,3.2,0,4c0,0.8,0.4,1.8,0.6,1.3  c0.2-0.5,0.5-1.6,0.6-2.4c0.1-0.7,0.8-2.1,0.7-3.3C43.1,64,43.3,63,42.8,62.8"></path><path d="M43.5,67.5c0,0-0.6,0.9-0.7,1.8c-0.1,0.9-0.5,1.4,0.2,1.6c0.6,0.2,1,0.6,1.1-0.2c0.1-0.7,0.3-0.7,0-1.5  C43.9,68.3,43.9,67.2,43.5,67.5"></path><path d="M40.6,62.5l-0.7-0.6c0,0-0.6-0.8-1-0.2s-0.5,1.1-0.6,2.2c0,1.1-0.4,2.2-0.7,2.8c-0.3,0.7-0.8,1.4-0.8,2  c0.1,0.6-0.7,1.6,0.2,1.7c0.8,0.1,1.1,0.6,1.5-0.6c0.3-1.2,1.6-3.3,1.7-4.3C40.2,64.5,40.9,63.1,40.6,62.5"></path><path d="M40.1,66.7c0,0-0.7,1.5-0.8,2.1c-0.2,0.6-0.3,1.4,0,1.5c0.3,0.2,0.6,0.7,1,0.1s0.3-0.3,0.4-1.4  c0-1.2,0.4-1.6,0-2C40.3,66.5,40.1,66.7,40.1,66.7"></path><path d="M37.3,63.8v2.3c0,0-0.4,1-0.6,1.6c-0.3,0.6-1,2.4-1.3,2.2c-0.3-0.3-0.9-0.2-0.6-1c0.3-0.8,0.5-1.1,1-1.9  C36.3,66.2,37.3,63.2,37.3,63.8"></path><path d="M38.1,61.2c0,0-1.2,1.6-1.5,2.3c-0.3,0.7-0.8,2.2-1.3,2.8c-0.5,0.6-1.8,1.7-2.1,1.6  c-0.2-0.1-1.1,0.2-1.1-0.7c0-0.9,0.3-1.2,1.1-1.8c0.8-0.6,1.2-2.4,1.4-2.8c0.2-0.4,1.5-2.1,1.9-2.1C37,60.5,38.1,60.5,38.1,61.2"></path><path d="M36.3,59.8c0,0-0.1-0.7-0.5-0.7s-1.9,0.6-2.5,1.6s-1.4,2-1.6,2.8c-0.3,0.8-0.9,1.5-1,1.9  c-0.1,0.4-0.6,1.2,0.4,0.6c0.9-0.6,2.2-2,2.5-2.8C33.7,62.5,35.8,61,36.3,59.8"></path><path d="M35.4,58.5c0,0-0.7-1.2-1.3-1.3s-2.6,1.3-3,1.9c-0.4,0.6-2.2,2-2.6,2.1s-0.8,0.6-0.8,1.1  c0,0.6,0.3,2.3,1,2.1s1.8-0.4,2.1-1.3c0.3-0.9,2.7-3.5,3.2-3.8s1.1-0.7,1.1-0.7L35.4,58.5z"></path><path d="M34.2,56.7c0,0,0.1-1.3-0.7-1.3s-1.6,1-2.8,1.1c-1.1,0.1-2,0.9-2.6,1.2s-2.3,0.5-2.4,1s0,1.5,0.6,1.4  s2.6-0.8,2.9-1C29.7,59,34.3,56.2,34.2,56.7"></path><path d="M30.4,59c0,0-2.7,1.4-3.4,1.5c-0.6,0-0.5,0.2-0.3,0.6c0.2,0.4,0.5,0.7,0.9,0.4C28.1,61.2,30.2,59.7,30.4,59"></path><path d="M33.7,54.7c0,0-0.2-1.3-0.7-1.4c-0.5-0.1-2.8,0.5-3.4,0.9s-2,1.1-2.5,1.2c-0.6,0.1-1.4-0.3-1.8,0s-1,0.9,0,1  s1.4,0.5,2.3,0s2.9-1.3,3.8-1.4C32.4,54.8,33.5,55.2,33.7,54.7"></path><path d="M29,56.4c0,0-2.1,0.9-2.8,0.8c-0.6-0.1-1-0.3-1,0s-0.3,1.1,0.2,0.9c0.6-0.1,1.3-0.2,1.9-0.6  C27.9,57.2,29,56.4,29,56.4"></path><path d="M33.4,52.6c-0.2,0-2.5,0.4-2.8,0.6c-0.3,0.1-1.6,1-2.4,1.1s-2.5,0.6-2.8,0.2c-0.2-0.4-0.4-0.6-0.3-1.3  c0-0.7-0.1-2.1,0.5-1.8s1.1,1,2.1,1s2.2-0.1,3.1-0.1s2.3-0.6,2.6-0.3C33.7,52.3,33.4,52.6,33.4,52.6"></path><path d="M31.3,51.3c0,0-1.4,0.6-3.2,0.3c-1.8-0.3-2.6-0.6-2.5-0.9c0.1-0.2,0.2-1.5,0.6-1s0.5,0.8,1.7,1  C29.1,50.9,31.3,51.3,31.3,51.3"></path><path d="M27,48.4c0,0-0.4,0.6,0,0.9c0.4,0.3,2.5,1.1,3.6,1.1c1.2,0,2.6,0.2,3.1,0.4S35,51,35,50.6s0.1-0.6-1-0.9  c-1.1-0.3-3.5-1.1-3.8-1.6c-0.4-0.5-1.1-1.5-1.8-1.5c-0.7,0.1-0.8,0-1.1,0.8C27,48.1,27,48.4,27,48.4"></path><path d="M29,45.4c0,0,1,0.5,1.6,1.2s0.5,1.3,1.8,1.7c1.4,0.4,2,1.2,2.6,1s1.2,0.1,0.2-0.7c-1-0.7-3.9-2.1-4.2-2.9  c-0.3-0.8,0-1.8-0.5-1.9C29.9,43.6,28.3,45.3,29,45.4"></path><path d="M32.2,42.7c0,0-0.8-0.4-1,0c-0.1,0.4-0.8,0.9-0.3,1.3c0.5,0.4,0.8,0.7,1,1.4s1.4,1.6,2.1,1.9  c0.7,0.2,1.2,0.8,2,1c0.7,0.1,1.1,0.8,1-0.1c-0.1-0.9-0.3-1.1-1.3-1.8s-2-1.1-2.3-1.9C33.1,43.7,32.2,42.7,32.2,42.7"></path><path d="M33.4,41.3c0,0-0.5,0-0.6,0.3s-0.1,1.3,0.2,1.5s1.5,2,1.9,2.2s2.2,1,2.5,1.4c0.2,0.5,0.3,1.4,0.6,0.9  s0.5-0.8,0-1.7c-0.5-0.8-1.6-1.4-2.2-2.2C35.1,43,33.8,41.2,33.4,41.3"></path><path d="M36.3,39.8c0,0-1-0.4-1.2,0s-0.7,0.8-0.4,1.2s1.3,1.8,1.8,2.2s1.8,1.8,1.8,2.1c0.1,0.3,0,1.2,0.5,1.1  s1,0,0.7-0.9c-0.2-0.9-1.1-1.7-1.5-2.6c-0.5-0.9-0.6-2.1-1.7-2.9C36.3,40,36.3,39.8,36.3,39.8z"></path><path d="M39.2,39.1c0,0-1.1-0.2-1.2,0.2c-0.1,0.4-0.5,1.2,0,1.8s1.6,1.5,1.6,2.3c0.1,0.8,0.2,1.6,0.3,2  c0.1,0.3,0.1,1,0.4,0.7c0.3-0.3,0.7,0,0.5-1.4c-0.2-1.3-0.9-2.7-1.1-3.3C39.6,40.7,39.7,39.4,39.2,39.1"></path><path d="M41.2,39.1c0,0-0.8-0.4-1,0c-0.1,0.4-0.5,0.4-0.2,1s0.6,1.1,0.6,1.5c0,0.5,0.3,0.5,0.4-0.1  C41.1,40.9,41.7,39.6,41.2,39.1"></path><path d="M42.7,39.5c0,0-0.7,0-0.9,0.6c-0.2,0.5-0.6,2.1-0.7,3.3c0,1.2,0.1,2.8,0.5,2.8s1-0.1,1-1.3s-0.1-2.7,0-3.5  C42.8,40.6,43.2,40,42.7,39.5"></path><path d="M46.7,40.4c0,0-1.6-0.7-2,0.2s-1.1,1.5-1.2,2.7c-0.1,1.1-0.7,2.4-0.5,2.8c0.2,0.3,0.6,0.8,1.1,0.8  c0.6-0.1,1.5-0.2,1.5-1.6c0-1.4-0.1-2.9,0-3.6C45.9,41,47,41.3,46.7,40.4"></path><path d="M44.8,39.7c0,0-1.2-0.5-1.4,0.1s-0.3,1.3-0.3,2.1c-0.1,0.9,0.1,1.7,0.2,0.8c0.1-0.8,0.4-2,0.8-2.3  C44.6,40.1,45.1,40.1,44.8,39.7"></path><path d="M47.8,40.9c0,0-1.1,0.2-1.3,0.5s-0.6,0.8-0.6,1.3c0,0.4-0.3,1.7,0,1.1c0.3-0.6,0.7-1.5,1-1.7  C47.2,41.8,48.2,41.4,47.8,40.9"></path><path d="M49.6,42c0,0-1.1-0.5-1.8,0.2c-0.7,0.6-1.1,1.1-1.2,2c-0.2,0.8-0.6,2-0.8,2.5s-0.5,0.7-0.2,0.8  c0.2,0.2,0.5,0.8,0.8-0.2s0.7-2.9,1.2-3.3C48,43.5,50.3,42.5,49.6,42"></path><path d="M50.9,43.5c0,0-2.6,0.9-3.2,1.7c-0.6,0.9-0.8,1.6-1,2.3c-0.3,0.6-0.9,0.9-0.2,1.1c0.7,0.1,1.9,0.4,2-0.8  s1.3-2.7,1.7-3S51.3,43.9,50.9,43.5"></path><path d="M48.2,49.1c0,0-0.5,0-0.5,0.4s0.4,0.9,0.9,0.3c0.6-0.5,2.2-2.1,2.9-2.3c0.8-0.2,2.3-0.1,1.9-0.8  c-0.4-0.7-1.1-1.6-1.7-1.6c-0.6,0.1-0.8-0.6-1.2,0.4C50.2,46.6,48.8,49,48.2,49.1"></path><path d="M53.6,50.3c0,0,0.4-1.2,0.1-1.6c-0.2-0.4,0.1-1.2-0.9-1c-1,0.3-2.2,1.4-2.6,1.5c-0.4,0.2-1.6,1-1.9,1.4  c-0.3,0.4-0.8,0.8,0,0.8s1.6-0.9,2.7-0.9S53.4,51.2,53.6,50.3"></path><path d="M48.1,52.1c0,0,2-0.8,3.1-0.6c1.1,0.1,2.2-0.7,2.3,0c0,0.7,0.3,1.9-0.4,2.3c-0.6,0.4-0.9,0.9-2.1,0.2  c-1.2-0.7-2-0.8-2.4-0.7c-0.5,0.1-1-0.2-0.7-0.5C48.1,52.4,48.1,52.1,48.1,52.1"></path><path d="M48.1,53.7c0,0-0.7,0-0.8,0.5s-0.2,0.8,0.6,0.9c0.9,0.1,2.1-0.1,2.7,0.3c0.6,0.4,0.7,1.4,1.1,1.2  c0.3-0.2,1.1,0.2,0.4-0.6c-0.6-0.8-1.2-1.3-2.4-1.7C48.5,53.8,48.1,53.7,48.1,53.7"></path><path d="M51.2,54.6c0,0,0.5,0.6,0.9,0.8s0.7,0.5,0.7,0s0.1-0.6-0.4-0.7C51.8,54.6,51.9,54.3,51.2,54.6"></path><path d="M49.1,55.6c0,0,0.7-0.3,1.1,0c0.4,0.3,1.3,1.4,1.4,1.6c0,0.2,0.1,1-0.4,1c-0.4-0.1-0.8-1.1-1.2-1.6  C49.6,56.1,48.8,55.9,49.1,55.6"></path><path d="M47.2,55.4c0,0,1.9,0.7,2.2,1.1c0.3,0.4,1.1,1.1,0.8,1.6s-0.6,1.2-0.6,1.2s-0.6,1-0.8,0.4  c-0.3-0.6-1.5-1.5-1.6-2.3s-1-1.3-0.8-1.5C46.6,55.7,46.8,55.3,47.2,55.4"></path><path d="M45.4,56.6c0,0,0.7,0.9,0.8,1.7s0.9,2.4,0.3,2.8c-0.6,0.5-3,0.8-3.8,0.3c-0.8-0.6-1.4-1.4-0.9-2.1  c0.5-0.8,1-1,1.4-1.7C43.7,57.1,45,56,45.4,56.6"></path><path d="M42.2,57.2c-0.1-0.3-0.8-1.1-1.6-0.4c-0.8,0.6-1.2,1.9-1.4,2.5s-0.5,0.7,0.4,1.1c1,0.5,1.4,2,1.6,0.3  C41.4,59.1,42.4,58,42.2,57.2"></path><path d="M38.7,59.6c0,0-1.5,0-1.5-0.5s0-0.8,0.4-1s1.1-0.6,1.4-0.8c0.3-0.2,0.7-1,0.6-0.6  C39.6,57.2,38.7,59,38.7,59.6"></path><path d="M39.6,55.6c0,0-0.1-0.8-0.4-1.2c-0.3-0.5-0.3-1.1-0.8-0.9c-0.5,0.2-0.8,1-1,1.3C37.1,55.2,36,56,36,56.4  c0,0.5-0.4,0.6,0,1c0.4,0.5,0.9,0.5,1.2,0.2s1.9-0.8,2-1.3C39.4,55.9,39.6,55.6,39.6,55.6"></path><path d="M35.5,55.9c0,0-0.9-0.3-0.7-1.6s0.3-1.4,0.6-1s1.8-0.3,2.2-0.4c0.4-0.1,0.5,0.1,0.3,0.4  C37.5,53.6,35.8,56.1,35.5,55.9"></path><path d="M37.5,52.8c0,0-1.2,0.2-1.4-0.2s-1.5,0.2-1.3-0.2s0.2-1.7,0.6-1.4c0.4,0.3,1.3,0.8,1.8,0.8s0.6,0.1,0.5,0.4  s-0.3,0.4-0.3,0.4v0.2H37.5z"></path><path d="M46.9,58.5c0,0,0.1,0.6,0.2,1.1c0.1,0.5-0.1,0.8,0.3,0.9c0.4,0.1,0.9,0.3,0.8-0.3  C48.1,59.7,47.4,58.4,46.9,58.5"></path><path d="M36.3,49.8c0,0-0.3,0.4-0.2,0.8c0.1,0.3,1.8,1,2,0.9s0.8-0.3,0.6-0.5s-1.4-1.6-1.8-1.6  C36.5,49.3,36.3,49.8,36.3,49.8"></path><path d="M37.8,49l0.7,1.1c0-0.1,0.6,0.8,0.9,0.6c0.4-0.2,1-0.5,0.9-0.8c-0.2-0.3-1.3-1.2-1.8-1.3  C38,48.4,37.6,48.6,37.8,49"></path><path d="M39.1,48.5c0,0-0.7-0.3-0.5-0.5s0.6-1.1,0.9-0.9c0.3,0.2,0.8,0.7,0.9,0.9c0.1,0.3,1.1,1.4,0.9,1.5  c-0.3,0.1-0.3,0.4-0.6,0C40.3,49.2,39.1,48.5,39.1,48.5"></path><path d="M42.1,46.8c0,0-1.4-0.4-1.4,0s0.4,1.1,0.6,1.4c0.2,0.3,0.5,1,0.5,1s0.6-1.1,0.7-1.3  C42.6,47.8,42.7,46.9,42.1,46.8"></path><path d="M44.5,47.6c0,0-0.7-0.7-1-0.4s-0.5,1.4-0.9,1.9s-0.5,1.2,0.1,1.4s1.3,0.7,1.2-0.2c0-0.9,0.2-2.8,0.4-2.8"></path><path d="M45.4,48.4c0,0-0.3-0.6-0.5-0.2c-0.2,0.4-0.3,2-0.4,2.1c-0.1,0.2-0.6,0.5-0.2,0.5c0.4,0,1.7,0.2,2-0.5  c0.4-0.7,0.5-0.6,0-1.1C45.8,48.8,45.4,48.4,45.4,48.4"></path><path d="M47.2,51c0,0-0.3,0.4-1.2,0.4c-0.9,0.1-1.2-0.3-1.8,0c-0.5,0.3-1.2,0.5-0.6,1c0.5,0.5,0,1.6,1,0.8  c1.1-0.8,2.1-0.7,2.5-1.2C47.4,51.6,47.7,51.1,47.2,51"></path><path d="M44.3,53.9c0,0,1.6-0.8,2-0.7s1-0.1,0.6,0.5s-0.8,1.8-1.5,2s-1.2-0.2-1.1-0.8C44.4,54.4,43.8,54.1,44.3,53.9"></path><path d="M43.2,54.3c-0.4-0.5,0.2-0.8-1.1-0.5c-1.2,0.2-1.6,0-1.4,0.9c0.1,0.9,0.8,1.2,1.2,1.4s0.7,0.8,1.1,0  C43.5,55.1,43.7,54.9,43.2,54.3"></path><path d="M42.4,52.9c0,0,0.4-0.4,0.2-0.9s-0.3-1.2-1-1.2s-0.7-0.5-1.6,0.6c-0.9,1.1-1.7,1-0.7,1.4  c1.1,0.4,1.7,0.5,2.3,0.4C42.2,53.2,42.4,52.9,42.4,52.9"></path></svg>