<svg xmlns="http://www.w3.org/2000/svg" data-name="Camada 1" viewBox="0 0 128 128" x="0px" y="0px"><title>Prancheta 9</title><path d="M96.23853,45.38715C97.834,34.7356,95.801,26.93433,90.59766,23.93066l-5.19531-3C80.199,17.92694,72.425,20.067,64,26.77411c-8.42676-6.707-16.198-8.84619-21.40234-5.84344l-5.19531,3C32.199,26.93433,30.166,34.7356,31.76147,45.38715,21.74,49.33087,16,54.99213,16,61v6c0,6.00787,5.74,11.66913,15.76147,15.61285-1.59546,10.65155.4375,18.45282,5.64087,21.45648l5.19531,3a10.39828,10.39828,0,0,0,5.27539,1.333c4.60986,0,10.20776-2.45892,16.127-7.17084,5.92,4.7124,11.51709,7.17084,16.127,7.17084a10.39828,10.39828,0,0,0,5.27539-1.333l5.19531-3C95.801,101.06567,97.834,93.2644,96.23853,82.61285,106.26,78.66913,112,73.00787,112,67V61C112,54.99213,106.26,49.33087,96.23853,45.38715ZM110,61c0,5.52734-5.96973,10.80078-16.37793,14.46826-1.999.70459-4.19629,1.35059-6.53223,1.91992-1.86426.45508-3.81836.85742-5.80566,1.1958l-.57617.09619c-2.43066.39844-4.918.7085-7.3916.92285-2.95435.25452-6.00244.38635-9.05957.39343-1.363-1.60291-2.68506-3.30432-3.94629-5.08527C61.54016,74.96387,62.77295,75,64,75c1.9082,0,3.83691-.064,5.73145-.19092a75.91444,75.91444,0,0,0,9.07031-1.14551l.31738-.06281.002-.00018a56.6796,56.6796,0,0,0,6.77832-1.73486c.34534-.11267.69067-.22583,1.02344-.34338l.002-.00037a34.85448,34.85448,0,0,0,5.002-2.19775,15.99107,15.99107,0,0,0,5.74219-4.76514l.00073-.00171.00366-.00641.00916-.0155A7.20114,7.20114,0,0,0,99,60.5c0-2.56372-1.55762-5.03607-4.47925-7.19171.5625-2.01624,1.02441-3.99323,1.38037-5.90485C104.87329,51.01245,110,55.92975,110,61ZM58.89722,55.16132a84.72236,84.72236,0,0,1,10.20557,0c.938,1.4187,1.84546,2.87286,2.69116,4.33868.85083,1.47327,1.65625,2.9856,2.41235,4.5-.7561,1.5144-1.56152,3.02673-2.41235,4.5-.8457,1.46582-1.75317,2.92-2.69116,4.33868a84.72236,84.72236,0,0,1-10.20557,0c-.938-1.4187-1.84546-2.87286-2.69116-4.33868-.85083-1.47327-1.65625-2.9856-2.41235-4.5.7561-1.5144,1.56152-3.02673,2.41235-4.5C57.05176,58.03418,57.95923,56.58,58.89722,55.16132Zm35.01416.19531C95.498,56.644,97,58.40649,97,60.5a4.68673,4.68673,0,0,1-.3374,1.68268,17.47945,17.47945,0,0,0-3.99475-3.084Q93.34259,57.21674,93.91138,55.35663ZM91.96362,66.99481Q91.39252,65.50681,90.7605,64q.63464-1.50531,1.20313-2.99481A13.96252,13.96252,0,0,1,95.59448,64,13.96252,13.96252,0,0,1,91.96362,66.99481Zm-2.32324-.46527c.19287.48315.37219.9599.554,1.43811-.50488.25409-1.02649.50128-1.57141.7381C88.97266,67.98,89.30994,67.25684,89.64038,66.52954Zm4.509-20.66821a66.36627,66.36627,0,0,1-1.73535,7.56641v.00067c-.5459,1.895-1.18652,3.83923-1.90332,5.77911l-.00012.00079c-.5321,1.44275-1.12195,2.92316-1.75183,4.39911-.87451,2.049-1.84729,4.11694-2.8811,6.15625-.19971.06708-.39771.13483-.60034.20117-1.468.48083-3.04639.91107-4.707,1.28656,1.22437-2.21045,2.37183-4.44678,3.41211-6.67084,1.06738-2.28223,2.0625-4.63818,2.958-7.00537l.20605-.55615c.71973-1.94141,1.36328-3.87988,1.91309-5.76074.69238-2.37109,1.248-4.66211,1.64941-6.80957,1.47961-7.91431,1.07385-14.3819-1.051-18.74536C94.18286,28.37354,95.82141,35.71124,94.14941,45.86133ZM84.40234,22.66309c4.78711,2.76367,6.36914,10.57031,4.33984,21.41846-.38867,2.082-.92773,4.30811-1.60254,6.61621-.53613,1.83545-1.165,3.72852-1.87012,5.62988l-.20117.542c-.877,2.31787-1.85156,4.627-2.89844,6.86328-1.25513,2.685-2.66418,5.3905-4.18713,8.04309-2.07324.37878-4.20789.67316-6.37805.87482.66187-1.04089,1.30981-2.09106,1.92163-3.15082.95508-1.65527,1.86328-3.35693,2.70117-5.05859a76.28321,76.28321,0,0,0,3.543-8.42822l.00037-.00244.10413-.30469a56.76828,56.76828,0,0,0,1.88672-6.73877c.0752-.355.14941-.71045.21484-1.05811v-.001a34.8935,34.8935,0,0,0,.59863-5.43115v-.00049a15.99534,15.99534,0,0,0-1.25659-7.35425l-.00024-.00122A7.2134,7.2134,0,0,0,78.46875,31.939c-2.22144-1.28192-5.14014-1.16815-8.467.284-1.46973-1.49927-2.95117-2.88812-4.42444-4.1485C73.18762,22.10956,80.01025,20.12708,84.40234,22.66309ZM74.08936,36.7226Q72.79077,35.19083,71.4707,33.774c1.90857-.73035,4.18506-1.14941,5.998-.10266a4.68388,4.68388,0,0,1,1.28882,1.13306A17.47062,17.47062,0,0,0,74.08936,36.7226Zm5.68115-.07892a13.85954,13.85954,0,0,1,.78809,4.63409c-1.04443-.16559-2.104-.31873-3.179-.45282q-.98328-1.29968-1.99121-2.53943A13.98971,13.98971,0,0,1,79.77051,36.64368Zm.74414,6.65167c-.03247.56854-.062,1.13458-.12988,1.72961-.45288-.66443-.90991-1.31683-1.37415-1.9657C79.51917,43.13287,80.0155,43.21484,80.51465,43.29535ZM63.36621,28.82129l.00171.001a66.75151,66.75151,0,0,1,5.683,5.28333l.00085.00134c1.35779,1.409,2.72119,2.93506,4.05273,4.53589l.001.00171c.98633,1.187,1.97363,2.4375,2.93359,3.71729,1.33862,1.78418,2.64368,3.66034,3.891,5.5741-.04163.2063-.08179.41138-.12537.61975-.31885,1.51721-.73779,3.108-1.2467,4.74408-1.30286-2.16748-2.6543-4.29559-4.06482-6.31488-1.4502-2.07666-2.99316-4.11621-4.58691-6.063l-.37891-.4585c-1.31836-1.58984-2.6748-3.11621-4.03223-4.53613-1.71-1.78906-3.417-3.415-5.07324-4.833-6.114-5.23944-11.91821-8.12189-16.75977-8.463C48.23743,20.04633,55.41138,22.29736,63.36621,28.82129Zm-24.96387-3.1582c4.78809-2.76514,12.33887-.23,20.71875,6.9502,1.60547,1.375,3.26367,2.95459,4.92871,4.6958,1.32422,1.38623,2.64941,2.877,3.93652,4.4292l.373.45117c1.56055,1.90723,3.07324,3.90576,4.49512,5.94092,1.70044,2.43463,3.33838,5.00854,4.87085,7.64862-.70776,1.9837-1.52051,3.97943-2.43115,5.96051-.56909-1.09009-1.15381-2.17542-1.76782-3.2395-.9502-1.646-1.96973-3.28369-3.03027-4.86816a76.16837,76.16837,0,0,0-5.52832-7.28271l-.00183-.0014-.212-.2442-.00073-.00043a57.02134,57.02134,0,0,0-4.94458-5.04938c-.245-.22-.489-.43829-.73315-.64752l-.00024-.00031-.02344-.02063-.00183-.001a34.78676,34.78676,0,0,0-4.40344-3.23236,15.97751,15.97751,0,0,0-6.99536-2.58868l-.00073-.00018c-.00452-.00031-.00867.00024-.01318-.00006l-.01013-.00006a7.203,7.203,0,0,0-4.15833.8761c-2.2196,1.28149-3.58228,3.86633-3.98828,7.475-2.03528.52386-3.97852,1.1123-5.80469,1.75726C32.31592,35.09668,34.01123,28.19775,38.40234,25.66309Zm7.01843,15.96118q-1.9704.35733-3.86218.7934c.32227-2.01782,1.098-4.19989,2.91016-5.24628a4.674,4.674,0,0,1,1.62646-.55042A17.48519,17.48519,0,0,0,45.42078,41.62427ZM48.22949,36.644a13.9841,13.9841,0,0,1,4.382,1.64124q-1.0036,1.24008-1.99231,2.53986c-1.07471.13434-2.13379.28741-3.17761.45276A13.856,13.856,0,0,1,48.22949,36.644Zm6.10913,2.68677c.47241.31018.94727.63831,1.425.99194-.80347.06-1.59839.12976-2.39331.20728C53.69214,40.12152,54.01538,39.7276,54.33862,39.33075ZM33.2168,46.96l.00183-.00116a66.66561,66.66561,0,0,1,7.41809-2.28058c1.90918-.47314,3.91406-.89062,5.957-1.2417,1.5166-.26025,3.09277-.48975,4.68652-.68213,2.2124-.26672,4.49146-.45862,6.77612-.583.146.12885.29773.26447.47.41895,1.15625,1.03619,2.3241,2.194,3.4856,3.45209-2.53394.04443-5.05347.1507-7.50024.36237-2.52246.21777-5.06055.53467-7.5459.94141l-.585.09814c-2.03418.34668-4.03418.7583-5.94531,1.22412-2.39941.58545-4.66113,1.25049-6.72168,1.97656-7.595,2.67615-12.99316,6.26178-15.70923,10.28406C18.0542,55.67493,23.58936,50.58667,33.2168,46.96ZM18,67c0-5.52734,5.96973-10.80078,16.37793-14.46826,1.999-.70459,4.19629-1.35059,6.53223-1.91992,1.86426-.45508,3.81836-.85742,5.80566-1.1958l.5752-.09668c2.43359-.39795,4.9209-.7085,7.39258-.92236,2.94812-.25452,5.99609-.38629,9.05957-.39343,1.363,1.603,2.68506,3.30432,3.94629,5.08527a86.38681,86.38681,0,0,0-9.4209.10211,75.91444,75.91444,0,0,0-9.07031,1.14551l-.31836.063h-.001a57.12932,57.12932,0,0,0-6.87207,1.76514c-.3136.10272-.6261.20551-.9292.31311l-.00244.00037a34.83143,34.83143,0,0,0-5.002,2.19775,15.99107,15.99107,0,0,0-5.74219,4.76514l-.00073.00171-.00366.00641-.009.01544A7.198,7.198,0,0,0,29,67.5c0,2.56293,1.55786,5.03564,4.47949,7.19141-.56311,2.02075-1.02539,3.998-1.38062,5.90515C23.12671,76.98761,18,72.07025,18,67Zm16.08862,5.64362C32.50208,71.3559,31,69.59308,31,67.5a4.69066,4.69066,0,0,1,.33716-1.6828,17.47626,17.47626,0,0,0,3.99512,3.08411Q34.65808,70.78226,34.08862,72.64362Zm1.94775-11.63843Q36.60748,62.4931,37.2395,64q-.63464,1.50531-1.20312,2.99481A13.96131,13.96131,0,0,1,32.40552,64,13.96131,13.96131,0,0,1,36.03638,61.00519Zm2.32324.46527c-.19287-.48322-.37231-.96-.55408-1.43829.50464-.254,1.02637-.50122,1.57166-.7381C39.02734,60.01984,38.69019,60.743,38.35962,61.47046Zm-4.509,20.66821a66.71057,66.71057,0,0,1,1.73535-7.56641v-.00067c.54688-1.89691,1.18652-3.84119,1.90332-5.77911l.00012-.00079c.5321-1.44275,1.12195-2.92316,1.75183-4.39911.875-2.05017,1.84839-4.11932,2.88293-6.15985.1803-.06055.37183-.12384.59753-.19806,1.46936-.48083,3.048-.91077,4.70813-1.28607-1.22449,2.21124-2.37183,4.44751-3.41223,6.67084-1.06738,2.28223-2.0625,4.63818-2.958,7.00537l-.20605.55615c-.7207,1.94287-1.36426,3.88086-1.91309,5.76025-.69336,2.37207-1.248,4.66309-1.64941,6.81006-1.47961,7.91431-1.07385,14.3819,1.051,18.74536C33.81714,99.62646,32.17859,92.28876,33.85059,82.13867Zm9.74707,23.19824c-4.78711-2.76367-6.36914-10.57031-4.33984-21.41846.38867-2.08154.92773-4.30811,1.60254-6.6167.53613-1.834,1.16406-3.72705,1.87012-5.62939l.20117-.542c.877-2.31787,1.85156-4.627,2.89844-6.86328,1.255-2.68384,2.66406-5.38965,4.18689-8.043,2.07336-.37885,4.20813-.67316,6.3783-.87488-.66187,1.04089-1.30981,2.09106-1.92163,3.15082-.95508,1.65527-1.86328,3.35693-2.70117,5.05859a76.10524,76.10524,0,0,0-3.543,8.42822l-.00024.00244-.10327.2998-.00049.00421-.00049.00043a56.78444,56.78444,0,0,0-1.88672,6.739c-.0752.355-.14941.71045-.21484,1.05811v.001a34.8935,34.8935,0,0,0-.59863,5.43115v.00049a15.9973,15.9973,0,0,0,1.25427,7.34863l.00378.00812A7.21091,7.21091,0,0,0,49.53125,96.061a6.969,6.969,0,0,0,3.53613.897,12.5396,12.5396,0,0,0,4.92822-1.18359c1.4707,1.50024,2.95288,2.89014,4.42725,4.15118C54.8125,105.891,47.98975,107.87341,43.59766,105.33691Zm10.313-14.05945q1.29657,1.52975,2.61865,2.94818c-1.90869.7301-4.18591,1.14935-5.998.103a4.68276,4.68276,0,0,1-1.28906-1.13324A17.46616,17.46616,0,0,0,53.91064,91.27747Zm-5.68115.07855a13.85614,13.85614,0,0,1-.788-4.63379c1.04431.16559,2.10388.31873,3.17883.45282q.98328,1.29968,1.99121,2.53943A13.98112,13.98112,0,0,1,48.22949,91.356Zm-.74414-6.65137c.03247-.56866.062-1.13495.12988-1.7301.45337.665.91052,1.3175,1.37451,1.96625C48.48108,84.86719,47.98462,84.78522,47.48535,84.70465ZM64.63379,99.17871l-.00146-.00079a66.71111,66.71111,0,0,1-5.68408-5.28436c-1.3606-1.4129-2.72412-2.93945-4.05273-4.53638l-.001-.00171c-.98633-1.187-1.97363-2.4375-2.93359-3.71729-1.33691-1.78149-2.64124-3.6579-3.891-5.57416.04163-.20624.08179-.41132.12537-.61969.31885-1.51666.73743-3.10687,1.24658-4.74432,1.30286,2.16754,2.6543,4.29578,4.06494,6.31512,1.45313,2.0791,2.99609,4.11914,4.58691,6.063l.37891.4585c1.31836,1.58984,2.6748,3.11621,4.03223,4.53613,1.71,1.78906,3.417,3.415,5.07324,4.833,6.106,5.23248,11.90552,8.1236,16.74243,8.4715C79.74658,107.94775,72.58,105.69519,64.63379,99.17871Zm24.96387,3.1582c-4.78809,2.76563-12.33789.23047-20.71875-6.9502-1.60547-1.375-3.26367-2.95459-4.92871-4.6958-1.32422-1.38623-2.64941-2.877-3.93652-4.4292l-.373-.45117c-1.55859-1.9043-3.07031-3.90283-4.49512-5.94092-1.70007-2.434-3.33765-5.00739-4.87073-7.64911.70764-1.98279,1.52-3.97833,2.431-5.96008.56885,1.09015,1.15381,2.17548,1.76782,3.23956.9502,1.646,1.96973,3.28369,3.03027,4.86816a76.16837,76.16837,0,0,0,5.52832,7.28271l.00171.00122.21216.24438.00073.00043a57.00438,57.00438,0,0,0,4.94458,5.04938c.25293.22705.50488.45313.75684.66846l.002.00116a34.71393,34.71393,0,0,0,4.40332,3.23175,15.97053,15.97053,0,0,0,6.99536,2.58917l.00073.00018q.32373.02271.63672.02246a6.98666,6.98666,0,0,0,3.54492-.89844c2.2196-1.28149,3.58228-3.86639,3.98828-7.475,2.03528-.52386,3.97852-1.1123,5.80469-1.75726C95.68408,92.90326,93.98877,99.80225,89.59766,102.33691ZM82.57922,86.37573q1.96637-.35641,3.86218-.7934c-.32227,2.01782-1.098,4.19989-2.91016,5.24628A4.69148,4.69148,0,0,1,81.905,91.378,17.488,17.488,0,0,0,82.57922,86.37573ZM79.77051,91.356a13.9833,13.9833,0,0,1-4.38208-1.64154q1.00269-1.23853,1.99243-2.53955c1.07471-.13434,2.13391-.28748,3.17773-.45282A13.85613,13.85613,0,0,1,79.77051,91.356Zm-6.10913-2.687c-.47241-.30994-.94727-.63812-1.425-.9917.80347-.06006,1.59839-.12976,2.39331-.20728C74.30774,87.8786,73.98462,88.2724,73.66138,88.669ZM94.7832,81.04l-.00183.00116a66.66561,66.66561,0,0,1-7.41809,2.28058c-.02881.00714-.05933.013-.08813.02008l-.00439.001c-1.88843.4649-3.85962.8761-5.8645,1.22064-1.5166.26025-3.09277.48975-4.68652.68213-2.2124.26672-4.49146.45862-6.77612.583-.146-.12885-.29773-.26447-.47-.41895-1.15625-1.03619-2.3241-2.194-3.4856-3.45215,2.53-.04443,5.04907-.15063,7.50024-.3623,2.52441-.21826,5.0625-.53516,7.543-.94141l.58789-.09814c2.03418-.34668,4.03418-.7583,5.94531-1.22412,2.39941-.58545,4.66113-1.25049,6.72168-1.97656,7.595-2.67615,12.99316-6.26178,15.70923-10.28406C109.9458,72.32507,104.41064,77.41333,94.7832,81.04Z"></path></svg>