<svg xmlns="http://www.w3.org/2000/svg" xmlns:xlink="http://www.w3.org/1999/xlink" version="1.1" x="0px" y="0px" viewBox="0 0 100 100" enable-background="new 0 0 100 100" xml:space="preserve"><g><path d="M89.653,5H9.347C6.946,5,5,6.946,5,9.347v80.307C5,92.054,6.946,94,9.347,94h80.307c2.4,0,4.347-1.946,4.347-4.347V9.347   C94,6.946,92.054,5,89.653,5z M48.515,87.057c-2.435-7.478,1.616-15.524,9.075-17.98c5.819-1.915,12.11,1.261,14.025,7.08   c1.477,4.512-0.977,9.379-5.483,10.863c-1.674,0.551-3.464,0.417-5.036-0.377c-1.574-0.795-2.744-2.154-3.296-3.83   c-0.854-2.593,0.566-5.445,3.184-6.308c1.945-0.64,4.049,0.422,4.689,2.365c0.223,0.69,0.169,1.414-0.154,2.053   c-0.323,0.642-0.877,1.117-1.558,1.342l0.884,2.692c1.402-0.461,2.54-1.439,3.204-2.757c0.665-1.316,0.789-2.81,0.315-4.215   c-1.128-3.429-4.838-5.301-8.267-4.172c-1.987,0.653-3.601,2.042-4.543,3.909c-0.941,1.867-1.102,3.989-0.446,5.977   c0.787,2.394,2.46,4.338,4.71,5.473c2.249,1.136,4.806,1.327,7.2,0.539c5.99-1.971,9.262-8.435,7.289-14.441   c-1.164-3.537-3.637-6.41-6.962-8.088c-3.324-1.679-7.104-1.962-10.643-0.798c-2.853,0.938-5.287,2.564-7.193,4.629   c2.782-6.532,3.302-13.7,1.5-20.571c14.781-3.894,30.274,4.377,35.114,19.085c2.499,7.606,0.797,15.603-3.821,21.474H50.382   C49.618,89.79,48.981,88.477,48.515,87.057z M8,50.29c1.128-0.683,2.344-1.254,3.648-1.684c7.478-2.435,15.524,1.616,17.98,9.075   c1.915,5.819-1.261,12.11-7.08,14.025c-4.512,1.477-9.379-0.977-10.863-5.483c-0.551-1.674-0.417-3.464,0.377-5.036   c0.795-1.574,2.154-2.744,3.83-3.296c2.593-0.854,5.445,0.566,6.308,3.184c0.64,1.945-0.422,4.049-2.365,4.689   c-0.69,0.223-1.414,0.169-2.053-0.154c-0.642-0.323-1.117-0.877-1.342-1.558l-2.692,0.884c0.461,1.402,1.439,2.54,2.757,3.204   c1.316,0.665,2.81,0.789,4.215,0.315c3.429-1.128,5.301-4.838,4.172-8.267c-0.653-1.987-2.042-3.601-3.909-4.543   c-1.867-0.941-3.989-1.102-5.977-0.446c-2.394,0.787-4.338,2.46-5.473,4.71c-1.136,2.249-1.327,4.806-0.539,7.2   c1.971,5.99,8.435,9.262,14.441,7.289c3.537-1.164,6.41-3.637,8.088-6.962c1.679-3.324,1.962-7.104,0.798-10.643   c-0.918-2.789-2.489-5.185-4.489-7.071c6.501,2.742,13.624,3.249,20.452,1.458c3.842,14.757-4.424,30.203-19.105,35.034   C21.697,88.673,13.843,87.066,8,82.621V50.29z M50.107,11.77c2.437,7.487-1.611,15.543-9.071,18   c-5.818,1.915-12.111-1.268-14.029-7.095c-1.478-4.518,0.975-9.392,5.48-10.875c1.674-0.553,3.464-0.418,5.038,0.38   c1.573,0.795,2.744,2.156,3.297,3.835c0.854,2.597-0.565,5.451-3.183,6.315c-1.944,0.641-4.049-0.425-4.689-2.371   c-0.224-0.691-0.17-1.416,0.153-2.055c0.323-0.644,0.877-1.119,1.558-1.344l-0.886-2.695c-1.402,0.46-2.539,1.439-3.203,2.76   c-0.665,1.317-0.788,2.812-0.314,4.219c1.13,3.435,4.84,5.311,8.27,4.181c1.987-0.652,3.6-2.043,4.542-3.913   c0.94-1.869,1.101-3.994,0.444-5.984c-0.788-2.396-2.462-4.344-4.712-5.482c-2.25-1.137-4.808-1.328-7.202-0.541   c-5.989,1.971-9.26,8.442-7.284,14.459c1.165,3.542,3.639,6.419,6.965,8.101s7.105,1.967,10.644,0.802   c2.763-0.909,5.137-2.464,7.015-4.438c-2.715,6.497-3.199,13.61-1.395,20.425c-14.757,3.842-30.207-4.44-35.044-19.144   C10.026,21.772,11.662,13.859,16.164,8h32.173C49.053,9.165,49.662,10.415,50.107,11.77z M82.08,30.664   c-1.317-0.665-2.812-0.788-4.219-0.314c-3.435,1.13-5.311,4.84-4.181,8.27c0.652,1.987,2.043,3.6,3.913,4.542   c1.869,0.94,3.994,1.101,5.984,0.444c2.396-0.788,4.344-2.462,5.482-4.712c1.137-2.25,1.328-4.808,0.541-7.202   c-1.971-5.989-8.442-9.26-14.459-7.284c-3.542,1.165-6.419,3.639-8.101,6.965s-1.967,7.105-0.802,10.644   c0.928,2.818,2.524,5.231,4.556,7.127c-6.522-2.746-13.673-3.241-20.523-1.426c-3.893-14.781,4.395-30.279,19.124-35.125   C77.06,10.075,85.114,11.808,91,16.484v31.771c-1.243,0.797-2.598,1.461-4.064,1.943c-7.487,2.437-15.543-1.611-18-9.071   c-1.915-5.818,1.268-12.111,7.095-14.029c4.518-1.478,9.392,0.975,10.875,5.48c0.553,1.674,0.418,3.464-0.38,5.038   c-0.795,1.573-2.156,2.744-3.835,3.297c-2.597,0.854-5.451-0.565-6.315-3.183c-0.641-1.944,0.425-4.049,2.371-4.689   c0.691-0.224,1.416-0.17,2.055,0.153c0.644,0.323,1.119,0.877,1.344,1.558l2.695-0.886C84.38,32.465,83.4,31.328,82.08,30.664z    M89.699,8C90.418,8,91,8.582,91,9.301v3.678c-0.868-0.58-1.762-1.129-2.709-1.606c-5.596-2.819-11.888-3.515-17.909-2.014   c-0.627,0.156-1.252,0.336-1.873,0.541c-6.271,2.063-11.626,5.918-15.521,11.072c0.927-3.195,0.936-6.692-0.188-10.09   C52.468,9.874,52.056,8.917,51.587,8H89.699z M9.301,8h3.377c-0.502,0.776-0.976,1.576-1.397,2.414   C8.461,16.01,7.766,22.302,9.267,28.323c0.156,0.627,0.336,1.252,0.541,1.873c2.071,6.296,5.948,11.667,11.134,15.566   c-3.22-0.957-6.75-0.983-10.179,0.151C9.796,46.232,8.885,46.638,8,47.08V9.301C8,8.582,8.582,8,9.301,8z M9.301,91   C8.582,91,8,90.418,8,89.699v-3.602c0.744,0.477,1.51,0.928,2.31,1.331c5.59,2.821,11.872,3.519,17.886,2.02   c0.627-0.156,1.25-0.336,1.869-0.54c6.344-2.088,11.748-6.015,15.648-11.27c-0.994,3.254-1.041,6.83,0.109,10.304   c0.353,1.07,0.789,2.089,1.293,3.058H9.301z M89.699,91h-3.895c0.552-0.836,1.074-1.696,1.532-2.604   c2.821-5.59,3.519-11.872,2.02-17.886c-0.156-0.627-0.336-1.25-0.54-1.869c-2.079-6.319-5.984-11.706-11.208-15.603   c3.229,0.962,6.772,0.991,10.215-0.147c1.117-0.367,2.172-0.834,3.177-1.367v38.176C91,90.418,90.418,91,89.699,91z"></path></g></svg>