<svg xmlns="http://www.w3.org/2000/svg" xmlns:xlink="http://www.w3.org/1999/xlink" xml:space="preserve" version="1.1" style="shape-rendering:geometricPrecision;text-rendering:geometricPrecision;image-rendering:optimizeQuality;" viewBox="0 0 847 847" x="0px" y="0px" fill-rule="evenodd" clip-rule="evenodd"><defs><style type="text/css">
   
    .fil0 {fill:black}
   
  </style></defs><g><path class="fil0" d="M354 137l69 253c1,2 0,4 -1,5l-26 27c-2,1 -4,2 -6,1l-254 -68c-2,0 -3,-2 -4,-4l-9 -35c-1,-2 -1,-4 1,-6 62,-62 124,-123 185,-185 2,-1 4,-2 5,-1l37 9c1,1 3,2 3,4zm-33 37l7 25c-34,34 -68,68 -102,102l-26 -7c41,-40 81,-80 121,-120zm-134 119c-3,3 -1,8 2,9l143 38 6 25 -201 -54 177 -177 26 7c-51,51 -102,101 -153,152zm226 97l-66 -242 -18 17 65 244 19 -19zm-28 21l-54 -201 -19 19 38 142c1,4 -2,7 -6,6l-209 -56 6 25 244 65zm-81 -174l-67 67 92 25 -25 -92z"></path><path class="fil0" d="M72 291l-69 -253c0,-2 0,-4 2,-6l26 -26c1,-1 3,-2 5,-1l254 68c2,0 3,2 4,3l9 36c1,2 1,4 -1,6 -62,61 -123,123 -185,185 -1,1 -3,2 -5,1l-36 -9c-2,-1 -4,-2 -4,-4zm33 -37l-6 -25c34,-34 68,-68 102,-102l25 7c-40,40 -80,80 -121,120zm134 -119c3,-3 1,-8 -2,-9l-142 -38 -7 -25 201 54 -177 177 -26 -7c51,-51 102,-102 153,-152zm-226 -97l66 242 18 -18 -65 -243 -19 19zm29 -21l54 201 18 -19 -38 -142c-1,-4 3,-7 6,-6l210 56 -7 -25 -243 -65zm80 174l67 -67 -91 -25 24 92z"></path><path class="fil0" d="M492 137l-68 253c-1,2 -1,4 1,5l26 27c2,1 3,2 6,1l254 -68c1,0 3,-2 3,-4l10 -35c0,-2 0,-4 -1,-6 -62,-62 -124,-123 -186,-185 -1,-1 -3,-2 -5,-1l-36 9c-2,1 -3,2 -4,4zm34 37l-7 25c34,34 68,68 102,102l25 -7c-40,-40 -80,-80 -120,-120zm134 119c2,3 1,8 -3,9l-142 38 -7 25 201 -54 -177 -177 -25 7c51,51 102,101 153,152zm-226 97l66 -242 18 17 -66 244 -18 -19zm28 21l54 -201 18 19 -38 142c-1,4 3,7 7,6l209 -56 -7 25 -243 65zm81 -174l67 67 -92 25 25 -92z"></path><path class="fil0" d="M775 291l68 -253c1,-2 1,-4 -1,-6l-26 -26c-2,-1 -3,-2 -5,-1l-255 68c-1,0 -3,2 -3,3l-10 36c0,2 0,4 1,6 62,61 124,123 186,185 1,1 3,2 5,1l36 -9c2,-1 3,-2 4,-4zm-34 -37l7 -25c-34,-34 -68,-68 -102,-102l-25 7c40,40 80,80 120,120zm-133 -119c-3,-3 -2,-8 2,-9l142 -38 7 -25 -201 54 177 177 25 -7c-51,-51 -102,-102 -152,-152zm225 -97l-66 242 -17 -18 65 -243 18 19zm-28 -21l-54 201 -18 -19 38 -142c1,-4 -3,-7 -6,-6l-210 56 7 -25 243 -65zm-81 174l-67 -67 92 -25 -25 92z"></path><path class="fil0" d="M492 710l-68 -253c-1,-3 -1,-4 1,-6l26 -26c2,-2 3,-2 6,-1l254 68c1,0 3,1 3,3l10 36c0,2 0,4 -1,5 -62,62 -124,124 -186,186 -1,1 -3,2 -5,1l-36 -10c-2,0 -3,-2 -4,-3zm34 -37l-7 -25c34,-34 68,-68 102,-102l25 6c-40,41 -80,81 -120,121zm134 -120c2,-2 1,-7 -3,-8l-142 -38 -7 -25 201 54 -177 177 -25 -7c51,-51 102,-102 153,-153zm-226 -96l66 242 18 -18 -66 -243 -18 19zm28 -22l54 202 18 -19 -38 -142c-1,-4 3,-7 7,-6l209 56 -7 -25 -243 -66zm81 175l67 -67 -92 -25 25 92z"></path><path class="fil0" d="M775 556l68 253c1,2 1,4 -1,5l-26 26c-2,2 -3,3 -5,2l-255 -68c-1,-1 -3,-2 -3,-4l-10 -35c0,-3 0,-4 1,-6 62,-62 124,-124 186,-185 1,-2 3,-2 5,-2l36 10c2,0 3,2 4,4zm-34 36l7 26c-34,34 -68,68 -102,102l-25 -7c40,-40 80,-80 120,-121zm-133 120c-3,3 -2,8 2,8l142 39 7 25 -201 -54 177 -177 25 7c-51,50 -102,101 -152,152zm225 97l-66 -242 -17 17 65 244 18 -19zm-28 21l-54 -201 -18 18 38 143c1,4 -3,7 -6,6l-210 -56 7 25 243 65zm-81 -174l-67 67 92 24 -25 -91z"></path><path class="fil0" d="M354 710l69 -253c1,-3 0,-4 -1,-6l-26 -26c-2,-2 -4,-2 -6,-1l-254 68c-2,0 -3,1 -4,3l-9 36c-1,2 -1,4 1,5 62,62 124,124 185,186 2,1 4,2 5,1l37 -10c1,0 3,-2 3,-3zm-33 -37l7 -25c-34,-34 -68,-68 -102,-102l-26 6c41,41 81,81 121,121zm-134 -120c-3,-2 -1,-7 2,-8l143 -38 6 -25 -201 54 177 177 26 -7c-51,-51 -102,-102 -153,-153zm226 -96l-66 242 -18 -18 65 -243 19 19zm-28 -22l-54 202 -19 -19 38 -142c1,-4 -2,-7 -6,-6l-209 56 6 -25 244 -66zm-81 175l-67 -67 92 -25 -25 92z"></path><path class="fil0" d="M72 556l-69 253c0,2 0,4 2,5l26 26c1,2 3,3 5,2l254 -68c2,-1 3,-2 4,-4l9 -35c1,-3 1,-4 -1,-6 -62,-62 -123,-124 -185,-185 -1,-2 -3,-2 -5,-2l-36 10c-2,0 -4,2 -4,4zm33 36l-6 26c34,34 68,68 102,102l25 -7c-40,-40 -80,-80 -121,-121zm134 120c3,3 1,8 -2,8l-142 39 -7 25 201 -54 -177 -177 -26 7c51,50 102,101 153,152zm-226 97l66 -242 18 17 -65 244 -19 -19zm29 21l54 -201 18 18 -38 143c-1,4 3,7 6,6l210 -56 -7 25 -243 65zm80 -174l67 67 -91 24 24 -91z"></path></g></svg>