<svg xmlns="http://www.w3.org/2000/svg" xmlns:xlink="http://www.w3.org/1999/xlink" version="1.1" x="0px" y="0px" viewBox="0 0 90 90" enable-background="new 0 0 90 90" xml:space="preserve"><path d="M26.89,13.041l-0.24-0.07l-0.05-0.01L7.67,7.71L7.62,7.88L2.399,26.689l-0.05,0.17l-0.03,0.12l18.96,5.25l0.03,0.01  l0.28,0.08l0.04-0.15l0.04-0.13l5.22-18.82l0.05-0.17L26.89,13.041z M26.52,13.25l-5.16,18.57l-18.64-5.17L7.88,8.08L26.52,13.25z"></path><path d="M27.229,12.991c0-0.01-0.01-0.02-0.01-0.03v-0.01c-0.02-0.04-0.04-0.07-0.06-0.1c-0.011-0.01-0.021-0.02-0.03-0.03  c-0.03-0.02-0.061-0.04-0.09-0.05c0,0-0.011-0.01-0.021-0.01l-0.29-0.08L7.95,7.48l-0.2-0.06c-0.08-0.02-0.16-0.01-0.23,0.03  c-0.069,0.03-0.12,0.1-0.14,0.18l-0.01,0.05l-5.33,19.19c0,0.01-0.011,0.02-0.011,0.03c-0.01,0.02-0.01,0.03-0.01,0.04  c0,0,0,0,0,0.01v0.03c0,0.13,0.09,0.25,0.221,0.29l0.18,0.05l0.34,0.09l18.59,5.16h0.01l0.15,0.04c0.03,0.01,0.06,0.01,0.08,0.01  c0.03,0,0.06,0,0.08-0.02c0.03,0.01,0.05,0,0.07-0.01c0.06-0.04,0.109-0.1,0.13-0.17c0.01-0.01,0.01-0.01,0.01-0.02l0.02-0.08  l0.07-0.25l0.1-0.34l4.841-17.44l0.17-0.62l0.149-0.53v-0.01c0.011-0.03,0.011-0.05,0.011-0.08L27.229,12.991z M2.72,26.649  L7.88,8.08l18.64,5.17l0.05,0.01l-5.18,18.7l-0.06-0.02L2.689,26.77L2.72,26.649z"></path><path d="M31.979,68.421l-18.649-5.18l-0.261-0.07l-0.029-0.01v0.021l-0.011,0.021l-0.069,0.25l-0.01,0.04L7.7,82.432l0.29,0.079  l18.63,5.171l0.29,0.079l0.06,0.021l5.26-18.949l0.011-0.04l0.079-0.28L31.979,68.421z M8.069,82.223l5.171-18.642l18.64,5.16  L26.7,87.391L8.069,82.223z"></path><path d="M32.59,68.371l-0.01-0.012c-0.04-0.068-0.11-0.118-0.181-0.139l-0.08-0.021h-0.01l-0.09-0.03l-0.35-0.1L14.27,63.189h-0.01  l-0.58-0.16h-0.01l-0.391-0.109v-0.01l-0.159-0.04c-0.03-0.011-0.051-0.011-0.08-0.011l-0.08,0.021h-0.01l-0.04,0.011  c-0.011,0-0.011,0.01-0.011,0.01s0,0-0.01,0.011h-0.01c-0.01,0-0.01,0-0.021,0.01c-0.05,0.04-0.09,0.101-0.109,0.16l-0.021,0.069  v0.011L12.7,63.27v0.021l-5.011,18.05L7.54,81.893l-0.13,0.459c-0.011,0.051-0.011,0.109,0,0.149v0.021  c0.01,0.021,0.02,0.041,0.029,0.061c0.021,0.04,0.04,0.061,0.08,0.09c0.03,0.03,0.07,0.04,0.11,0.051l19.06,5.289v0.01l0.2,0.052  c0.03,0,0.05,0.01,0.08,0.01s0.06,0,0.08-0.021c0.01,0,0.02-0.01,0.04-0.021c0.08-0.021,0.14-0.09,0.17-0.181l0.05-0.18l0.09-0.341  l5.15-18.59l0.02-0.08l0.021-0.05c0.02-0.03,0.02-0.07,0.02-0.109c0.011-0.029,0.011-0.061,0-0.091  C32.6,68.411,32.59,68.393,32.59,68.371z M31.939,68.761l-5.18,18.65l-0.06-0.021l-18.631-5.17L13.24,63.58v-0.01l0.01-0.041  l18.64,5.16l0.061,0.021L31.939,68.761z"></path><path d="M29.29,59.371l-0.08-0.29l-15.96,3.729l0.029,0.101v0.01l0.391,0.108h0.01l0.58,0.16h0.01l15.11-3.528L29.29,59.371z   M29.29,59.371l-0.08-0.29l-15.96,3.729l0.029,0.101v0.01l0.391,0.108h0.01l0.58,0.16h0.01l15.11-3.528L29.29,59.371z M29.29,59.371  l-0.08-0.29l-15.96,3.729l0.029,0.101v0.01l0.391,0.108h0.01l0.58,0.16h0.01l15.11-3.528L29.29,59.371z M29.29,59.371l-0.08-0.29  l-15.96,3.729l0.029,0.101v0.01l0.391,0.108h0.01l0.58,0.16h0.01l15.11-3.528L29.29,59.371z M29.29,59.371l-0.08-0.29l-15.96,3.729  l0.029,0.101v0.01l0.391,0.108h0.01l0.58,0.16h0.01l15.11-3.528L29.29,59.371z M29.29,59.371l-0.08-0.29l-15.96,3.729l0.029,0.101  v0.01l0.391,0.108h0.01l0.58,0.16h0.01l15.11-3.528L29.29,59.371z M29.29,59.371l-0.08-0.29l-15.96,3.729l0.029,0.101v0.01  l0.391,0.108h0.01l0.58,0.16h0.01l15.11-3.528L29.29,59.371z M29.29,59.371l-0.08-0.29l-15.96,3.729l0.029,0.101v0.01l0.391,0.108  h0.01l0.58,0.16h0.01l15.11-3.528L29.29,59.371z M29.29,59.371l-0.08-0.29l-15.96,3.729l0.029,0.101v0.01l0.391,0.108h0.01  l0.58,0.16h0.01l15.11-3.528L29.29,59.371z M29.29,59.371l-0.08-0.29l-15.96,3.729l0.029,0.101v0.01l0.391,0.108h0.01l0.58,0.16  h0.01l15.11-3.528L29.29,59.371z M29.29,59.371l-0.08-0.29l-15.96,3.729l0.029,0.101v0.01l0.391,0.108h0.01l0.58,0.16h0.01  l15.11-3.528L29.29,59.371z M29.29,59.371l-0.08-0.29l-15.96,3.729l0.029,0.101v0.01l0.391,0.108h0.01l0.58,0.16h0.01l15.11-3.528  L29.29,59.371z M29.29,59.371l-0.08-0.29l-15.96,3.729l0.029,0.101v0.01l0.391,0.108h0.01l0.58,0.16h0.01l15.11-3.528L29.29,59.371z   M32.24,68.223h-0.011v-0.012l-0.01-0.04l-0.35-0.101L14.27,63.189l15.11-3.528l0.25-0.062l0.05,0.01l-0.09-0.31l-0.09-0.29  l-2.46-8.31l-0.08-0.29l-3.061-10.31l-0.55-1.84l-1.68-5.66l-0.03-0.12l-0.05-0.16l-0.28-0.08l-0.03-0.01l-18.96-5.251l0.061,0.19  l0.04,0.15L7.6,44.79l0.08,0.28l5.28,17.811v0.012l0.08,0.27l0.029,0.01l0.261,0.07l18.649,5.18l0.34,0.09L32.24,68.223z   M7.97,44.98c0-0.01-0.01-0.01-0.01-0.021l-5.2-17.55l18.59,5.16l5.32,17.932l2.54,8.58l-15.96,3.729L7.97,44.98z M29.29,59.371  l-0.08-0.29l-15.96,3.729l0.029,0.101v0.01l0.391,0.108h0.01l0.58,0.16h0.01l15.11-3.528L29.29,59.371z M29.29,59.371l-0.08-0.29  l-15.96,3.729l0.029,0.101v0.01l0.391,0.108h0.01l0.58,0.16h0.01l15.11-3.528L29.29,59.371z M29.29,59.371l-0.08-0.29l-15.96,3.729  l0.029,0.101v0.01l0.391,0.108h0.01l0.58,0.16h0.01l15.11-3.528L29.29,59.371z M29.29,59.371l-0.08-0.29l-15.96,3.729l0.029,0.101  v0.01l0.391,0.108h0.01l0.58,0.16h0.01l15.11-3.528L29.29,59.371z M29.29,59.371l-0.08-0.29l-15.96,3.729l0.029,0.101v0.01  l0.391,0.108h0.01l0.58,0.16h0.01l15.11-3.528L29.29,59.371z M29.29,59.371l-0.08-0.29l-15.96,3.729l0.029,0.101v0.01l0.391,0.108  h0.01l0.58,0.16h0.01l15.11-3.528L29.29,59.371z M29.29,59.371l-0.08-0.29l-15.96,3.729l0.029,0.101v0.01l0.391,0.108h0.01  l0.58,0.16h0.01l15.11-3.528L29.29,59.371z M29.29,59.371l-0.08-0.29l-15.96,3.729l0.029,0.101v0.01l0.391,0.108h0.01l0.58,0.16  h0.01l15.11-3.528L29.29,59.371z M29.29,59.371l-0.08-0.29l-15.96,3.729l0.029,0.101v0.01l0.391,0.108h0.01l0.58,0.16h0.01  l15.11-3.528L29.29,59.371z M29.29,59.371l-0.08-0.29l-15.96,3.729l0.029,0.101v0.01l0.391,0.108h0.01l0.58,0.16h0.01l15.11-3.528  L29.29,59.371z M29.29,59.371l-0.08-0.29l-15.96,3.729l0.029,0.101v0.01l0.391,0.108h0.01l0.58,0.16h0.01l15.11-3.528L29.29,59.371z   M29.29,59.371l-0.08-0.29l-15.96,3.729l0.029,0.101v0.01l0.391,0.108h0.01l0.58,0.16h0.01l15.11-3.528L29.29,59.371z"></path><path d="M32.319,68.201l0.2-0.061V68.13L32.319,68.201z M32.24,68.223h0.01l0.06-0.021l-0.09-0.03l-0.35-0.101L14.27,63.189h-0.01  l-0.58-0.16h-0.01l-0.391-0.108l0.021,0.052l0.03,0.108c0,0.01,0.01,0.021,0,0.028c0.02,0.041,0.02,0.092,0,0.132l-0.011,0.038  l18.641,5.172c0-0.012,0.01-0.021,0.02-0.03l0.34,0.09L32.24,68.223z M29.91,59.341l-0.091-0.312L27.26,50.4l-0.01,0.07  c-0.021,0.109-0.101,0.199-0.21,0.229c-0.021,0.01-0.05,0.01-0.07,0.01h-0.01c-0.141,0-0.25-0.08-0.29-0.21l2.54,8.58l0.08,0.29  l0.09,0.29l0.25-0.061l0.05,0.01l0.33,0.061L29.91,59.341z M32.319,68.201l0.2-0.061V68.13L32.319,68.201z M32.24,68.223h0.01  l0.06-0.021l-0.09-0.03l-0.35-0.101L14.27,63.189h-0.01l-0.58-0.16h-0.01l-0.391-0.108l0.021,0.052l0.03,0.108  c0,0.01,0.01,0.021,0,0.028c0.02,0.041,0.02,0.092,0,0.132l-0.011,0.038l18.641,5.172c0-0.012,0.01-0.021,0.02-0.03l0.34,0.09  L32.24,68.223z M29.91,59.341l-0.091-0.312L27.26,50.4l-0.01,0.07c-0.021,0.109-0.101,0.199-0.21,0.229  c-0.021,0.01-0.05,0.01-0.07,0.01h-0.01c-0.141,0-0.25-0.08-0.29-0.21l2.54,8.58l0.08,0.29l0.09,0.29l0.25-0.061l0.05,0.01  l0.33,0.061L29.91,59.341z M32.6,68.432v-0.011l-0.01-0.05l-0.01-0.012l-0.061-0.219V68.13l-0.2,0.07h-0.01l-0.09-0.03l-0.35-0.1  L14.27,63.189h-0.01l-0.58-0.16h-0.01l-0.391-0.109v-0.01l-0.029-0.1L7.97,44.98c0-0.01-0.01-0.01-0.01-0.021l-5.2-17.55l18.59,5.16  l5.32,17.932l2.54,8.58l0.08,0.29l0.09,0.29l0.25-0.062l0.05,0.01l0.33,0.062l-0.1-0.33l-0.091-0.312L27.26,50.4l-0.19-0.621v-0.01  l-0.189-0.66l-4.95-16.71l-0.02-0.08h-0.011l-0.02-0.08c0-0.01,0-0.01-0.01-0.02c-0.011-0.04-0.03-0.07-0.061-0.1  c-0.04-0.04-0.09-0.07-0.14-0.08l-0.05-0.02l-0.23-0.06l-0.06-0.02L2.689,26.77l-0.29-0.08c-0.02-0.01-0.029-0.01-0.05-0.01  c-0.08-0.01-0.17,0.02-0.24,0.09c-0.029,0.03-0.05,0.07-0.069,0.1c0,0.01-0.011,0.02-0.011,0.03c0,0.02-0.01,0.03,0,0.05H2.02v0.03  c0,0.03,0,0.05,0.01,0.08L7.37,45.07l0.159,0.54l0.16,0.552L12.71,63.07v0.011l0.02,0.069v0.011l0.03,0.09  c0.02,0.069,0.07,0.142,0.15,0.181c0.01,0.01,0.029,0.01,0.05,0.021l0.29,0.079l18.64,5.16l0.061,0.021l0.229,0.06l0.061,0.021  c0.02,0.01,0.05,0.01,0.079,0.01c0.07,0,0.141-0.021,0.19-0.068c0.01-0.01,0.01-0.01,0.02-0.021l0.04-0.04l0.021-0.05  c0.02-0.03,0.02-0.07,0.02-0.109C32.609,68.48,32.609,68.461,32.6,68.432z M32.319,68.201l0.2-0.061V68.13L32.319,68.201z   M32.24,68.223h0.01l0.06-0.021l-0.09-0.03l-0.35-0.101L14.27,63.189h-0.01l-0.58-0.16h-0.01l-0.391-0.108l0.021,0.052l0.03,0.108  c0,0.01,0.01,0.021,0,0.028c0.02,0.041,0.02,0.092,0,0.132l-0.011,0.038l18.641,5.172c0-0.012,0.01-0.021,0.02-0.03l0.34,0.09  L32.24,68.223z M29.91,59.341l-0.091-0.312L27.26,50.4l-0.01,0.07c-0.021,0.109-0.101,0.199-0.21,0.229  c-0.021,0.01-0.05,0.01-0.07,0.01h-0.01c-0.141,0-0.25-0.08-0.29-0.21l2.54,8.58l0.08,0.29l0.09,0.29l0.25-0.061l0.05,0.01  l0.33,0.061L29.91,59.341z M32.319,68.201l0.2-0.061V68.13L32.319,68.201z M32.24,68.223h0.01l0.06-0.021l-0.09-0.03l-0.35-0.101  L14.27,63.189h-0.01l-0.58-0.16h-0.01l-0.391-0.108l0.021,0.052l0.03,0.108c0,0.01,0.01,0.021,0,0.028  c0.02,0.041,0.02,0.092,0,0.132l-0.011,0.038l18.641,5.172c0-0.012,0.01-0.021,0.02-0.03l0.34,0.09L32.24,68.223z M29.91,59.341  l-0.091-0.312L27.26,50.4l-0.01,0.07c-0.021,0.109-0.101,0.199-0.21,0.229c-0.021,0.01-0.05,0.01-0.07,0.01h-0.01  c-0.141,0-0.25-0.08-0.29-0.21l2.54,8.58l0.08,0.29l0.09,0.29l0.25-0.061l0.05,0.01l0.33,0.061L29.91,59.341z M32.24,68.223h0.01  l0.06-0.021l-0.09-0.03l-0.35-0.101L14.27,63.189h-0.01l-0.58-0.16h-0.01l-0.391-0.108l0.021,0.052l0.03,0.108  c0,0.01,0.01,0.021,0,0.028c0.02,0.041,0.02,0.092,0,0.132l-0.011,0.038l18.641,5.172c0-0.012,0.01-0.021,0.02-0.03l0.34,0.09  L32.24,68.223z"></path><path d="M30.609,29.509l-0.06-0.29l-0.3,0.08l-8.181,2.43l4.841-17.44l0.17-0.62l-0.03-0.11v-0.01l-0.07-0.34l-0.04-0.16l-0.05,0.17  l-5.22,18.82l-0.04,0.13l-0.04,0.15l0.05,0.16l0.03,0.12l1.68,5.66l0.55,1.84l3.061,10.312l0.109-0.632v-0.01l3.54-19.94l0.03-0.19  L30.609,29.509z M26.88,49.109l-4.95-16.71l8.35-2.47L26.88,49.109z"></path><path d="M21.97,32.069l-0.07,0.25h0.011l0.069-0.25l0.09-0.34L21.97,32.069z M30.93,29.581l-0.03-0.15l-0.069-0.3l-0.28,0.09  l-0.3,0.08l0.069,0.3l0.011,0.05l-0.051,0.28L26.88,49.111l-4.95-16.712l-0.02-0.08l0.069-0.25l0.09-0.34l4.841-17.44l0.17-0.62  l0.149-0.53l0.03-0.01l-0.02-0.08l-0.011-0.06c0-0.01-0.01-0.02-0.01-0.03v-0.01c-0.02-0.04-0.04-0.07-0.06-0.1  c-0.011-0.01-0.021-0.02-0.03-0.03c-0.03-0.02-0.061-0.04-0.09-0.05c0,0-0.011-0.01-0.021-0.01c-0.02-0.01-0.04-0.01-0.069-0.01  c-0.12,0-0.19,0.04-0.24,0.11c-0.03,0.03-0.05,0.07-0.061,0.11l-0.05,0.17l-0.03,0.12l-5.18,18.7l-0.05,0.17l-0.03,0.11  c-0.01,0.03-0.01,0.05-0.01,0.08v0.01c0,0.03,0,0.05,0.01,0.08l0.01,0.02l0.04,0.14l5.311,17.932c0.04,0.13,0.149,0.21,0.29,0.21  h0.01c0.021,0,0.05,0,0.07-0.01c0.109-0.03,0.189-0.12,0.21-0.229l0.01-0.07l3.67-20.672l0.01-0.03  C30.939,29.661,30.939,29.621,30.93,29.581z M21.97,32.069l-0.07,0.25h0.011l0.069-0.25l0.09-0.34L21.97,32.069z"></path><path d="M12.96,62.893v-0.012L7.68,45.07l-0.15,0.54L2.34,64.34l5.17,17.439l0.03,0.111l0.13,0.43L7.7,82.43l5.25-18.939l0.01-0.04  l0.069-0.25l0.011-0.021v-0.021L12.96,62.893z M2.649,64.341l5.04-18.18L12.7,63.07v0.011c-0.011,0.01-0.011,0.021-0.011,0.028  L7.66,81.23L2.649,64.341z"></path><path d="M13.3,62.973l-0.021-0.052v-0.01l-0.029-0.101L7.97,44.98c0-0.01-0.01-0.01-0.01-0.021c-0.04-0.11-0.15-0.19-0.28-0.19  c-0.03,0-0.06,0-0.08,0.021c-0.1,0.021-0.18,0.101-0.21,0.2l-0.02,0.08L2.05,64.26c-0.021,0.061-0.021,0.11,0,0.17l5.3,17.9  L7.41,82.5v0.02c0.01,0.021,0.02,0.041,0.029,0.062c0.021,0.04,0.04,0.062,0.08,0.09c0.03,0.03,0.07,0.04,0.11,0.052  c0.02,0.01,0.04,0.01,0.07,0.01c0.119,0,0.22-0.07,0.27-0.182c0.01-0.01,0.021-0.029,0.021-0.04l0.069-0.239l0.01-0.049  l5.171-18.642V63.57l0.01-0.041l0.069-0.25l0.011-0.038c0.02-0.04,0.02-0.091,0-0.132c0.01-0.01,0-0.02,0-0.028L13.3,62.973z   M7.66,81.23l-5.011-16.89l5.04-18.18L12.7,63.07v0.011h0.01l0.02,0.069v0.011L12.7,63.27v0.021l-5.011,18.05L7.66,81.23z"></path><path d="M26.71,12.859l-0.08-0.02L7.64,7.569l-0.08,0.29L2.35,26.68L2.3,26.85l0.05,0.01l18.93,5.25l0.061,0.02l0.229,0.06  l0.051-0.17l5.22-18.81l0.05-0.17l0.03-0.12L26.71,12.859z M7.88,8.081l18.64,5.17l-5.16,18.57L2.72,26.649L7.88,8.081z"></path><path d="M27.2,12.839c-0.021-0.1-0.101-0.19-0.2-0.21l-0.08-0.02h-0.021l-17.25-4.79l-0.92-0.26L8.18,7.41l-0.46-0.13  c-0.03-0.01-0.05-0.01-0.08-0.01L7.56,7.29c-0.1,0.02-0.17,0.1-0.2,0.19L7.35,7.49L2.01,26.77C2,26.831,2,26.879,2.02,26.939  c0,0,0,0,0,0.01h0.01c0.021,0.09,0.101,0.16,0.19,0.18l0.16,0.04l18.939,5.26l0.141,0.04c0.03,0.01,0.069,0.02,0.109,0.02  c0.021,0,0.051,0,0.07-0.01c0.101-0.03,0.19-0.11,0.22-0.21l0.011-0.05l0.04-0.13L22,31.75l5.05-18.19v-0.01l0.11-0.39h0.01  L27.21,13c0.01-0.02,0.01-0.03,0.01-0.04v-0.01C27.22,12.919,27.22,12.879,27.2,12.839z M26.52,13.25l-5.16,18.57l-18.64-5.17  l-0.05-0.01l5.18-18.7l18.7,5.19L26.52,13.25z"></path><path d="M82.07,7.459l-18.68-5.18L63.1,2.201L63.07,2.319l-5.24,18.86l-0.03,0.12l-0.05,0.17l0.29,0.08l18.66,5.17l0.29,0.08  l0.029,0.01l0.051-0.16l0.029-0.13l5.221-18.8l0.05-0.18L82.07,7.459z M63.279,2.681l18.65,5.18l-5.15,18.57L58.12,21.259  L63.279,2.681z"></path><path d="M82.45,7.25l-19.24-5.33c-0.069-0.02-0.14-0.03-0.2-0.01c-0.02,0.01-0.039,0.02-0.06,0.03c-0.06,0.03-0.11,0.08-0.13,0.15  c0,0.01-0.01,0.02-0.01,0.03l-0.051,0.18l-0.1,0.34l-5.15,18.59H57.5l-0.029,0.14c-0.011,0.01-0.011,0.01-0.011,0.02  c-0.01,0.06-0.01,0.11,0.011,0.16c0.021,0.1,0.1,0.18,0.199,0.21l0.08,0.02h0.01l18.03,5l0.61,0.17l0.27,0.08l0.27,0.07  c0.031,0.01,0.062,0.01,0.08,0.01c0.03,0,0.062,0,0.09-0.01c0.052-0.01,0.092-0.03,0.121-0.07c0.011-0.01,0.021-0.02,0.021-0.03  c0.021-0.01,0.028-0.03,0.028-0.04v-0.01c0.021-0.02,0.031-0.04,0.031-0.06l5.021-18.08l0.149-0.55l0.149-0.55l0.03-0.09  C82.7,7.459,82.609,7.299,82.45,7.25z M76.779,26.431L58.12,21.259l5.159-18.58l0.031-0.11l18.648,5.17L82,7.75l-5.18,18.69  L76.779,26.431z"></path><path d="M39.569,26.549l-8.739,2.58l-0.28,0.09l-0.3,0.08l-8.181,2.43l4.841-17.44l0.17-0.62l0.149-0.53l-0.06,0.02h-0.01  l-0.11,0.39v0.01L22,31.75l-0.09,0.34l0.06-0.02h0.01l8.34-2.47l0.29-0.09l0.29-0.08l8.471-2.51c0-0.02-0.011-0.05-0.011-0.07  C39.35,26.709,39.439,26.589,39.569,26.549z M39.569,26.549l-8.739,2.58l-0.28,0.09l-0.3,0.08l-8.181,2.43l4.841-17.44l0.17-0.62  l0.149-0.53l-0.06,0.02h-0.01l-0.11,0.39v0.01L22,31.75l-0.09,0.34l0.06-0.02h0.01l8.34-2.47l0.29-0.09l0.29-0.08l8.471-2.51  c0-0.02-0.011-0.05-0.011-0.07C39.35,26.709,39.439,26.589,39.569,26.549z M39.569,26.549l-8.739,2.58l-0.28,0.09l-0.3,0.08  l-8.181,2.43l4.841-17.44l0.17-0.62l0.149-0.53l-0.06,0.02h-0.01l-0.11,0.39v0.01L22,31.75l-0.09,0.34l0.06-0.02h0.01l8.34-2.47  l0.29-0.09l0.29-0.08l8.471-2.51c0-0.02-0.011-0.05-0.011-0.07C39.35,26.709,39.439,26.589,39.569,26.549z M39.569,26.549  l-8.739,2.58l-0.28,0.09l-0.3,0.08l-8.181,2.43l4.841-17.44l0.17-0.62l0.149-0.53l-0.06,0.02h-0.01l-0.11,0.39v0.01L22,31.75  l-0.09,0.34l0.06-0.02h0.01l8.34-2.47l0.29-0.09l0.29-0.08l8.471-2.51c0-0.02-0.011-0.05-0.011-0.07  C39.35,26.709,39.439,26.589,39.569,26.549z M39.569,26.549l-8.739,2.58l-0.28,0.09l-0.3,0.08l-8.181,2.43l4.841-17.44l0.17-0.62  l0.149-0.53l-0.06,0.02h-0.01l-0.11,0.39v0.01L22,31.75l-0.09,0.34l0.06-0.02h0.01l8.34-2.47l0.29-0.09l0.29-0.08l8.471-2.51  c0-0.02-0.011-0.05-0.011-0.07C39.35,26.709,39.439,26.589,39.569,26.549z M39.569,26.549l-8.739,2.58l-0.28,0.09l-0.3,0.08  l-8.181,2.43l4.841-17.44l0.17-0.62l0.149-0.53l-0.06,0.02h-0.01l-0.11,0.39v0.01L22,31.75l-0.09,0.34l0.06-0.02h0.01l8.34-2.47  l0.29-0.09l0.29-0.08l8.471-2.51c0-0.02-0.011-0.05-0.011-0.07C39.35,26.709,39.439,26.589,39.569,26.549z M39.569,26.549  l-8.739,2.58l-0.28,0.09l-0.3,0.08l-8.181,2.43l4.841-17.44l0.17-0.62l0.149-0.53l-0.06,0.02h-0.01l-0.11,0.39v0.01L22,31.75  l-0.09,0.34l0.06-0.02h0.01l8.34-2.47l0.29-0.09l0.29-0.08l8.471-2.51c0-0.02-0.011-0.05-0.011-0.07  C39.35,26.709,39.439,26.589,39.569,26.549z M39.569,26.549l-8.739,2.58l-0.28,0.09l-0.3,0.08l-8.181,2.43l4.841-17.44l0.17-0.62  l0.149-0.53l-0.06,0.02h-0.01l-0.11,0.39v0.01L22,31.75l-0.09,0.34l0.06-0.02h0.01l8.34-2.47l0.29-0.09l0.29-0.08l8.471-2.51  c0-0.02-0.011-0.05-0.011-0.07C39.35,26.709,39.439,26.589,39.569,26.549z M39.569,26.549l-8.739,2.58l-0.28,0.09l-0.3,0.08  l-8.181,2.43l4.841-17.44l0.17-0.62l0.149-0.53l-0.06,0.02h-0.01l-0.11,0.39v0.01L22,31.75l-0.09,0.34l0.06-0.02h0.01l8.34-2.47  l0.29-0.09l0.29-0.08l8.471-2.51c0-0.02-0.011-0.05-0.011-0.07C39.35,26.709,39.439,26.589,39.569,26.549z M30.25,29.299  l-8.181,2.43l-0.1,0.34h0.01l8.34-2.47L30.25,29.299z M30.25,29.299l-8.181,2.43l-0.1,0.34h0.01l8.34-2.47L30.25,29.299z   M30.25,29.299l-8.181,2.43l-0.1,0.34h0.01l8.34-2.47L30.25,29.299z M30.25,29.299l-8.181,2.43l-0.1,0.34h0.01l8.34-2.47  L30.25,29.299z M30.25,29.299l-8.181,2.43l-0.1,0.34h0.01l8.34-2.47L30.25,29.299z M30.25,29.299l-8.181,2.43l-0.1,0.34h0.01  l8.34-2.47L30.25,29.299z M30.25,29.299l-8.181,2.43l-0.1,0.34h0.01l8.34-2.47L30.25,29.299z M30.25,29.299l-8.181,2.43l-0.1,0.34  h0.01l8.34-2.47L30.25,29.299z M39.569,26.549l-8.739,2.58l-0.28,0.09l-0.3,0.08l-8.181,2.43l4.841-17.44l0.17-0.62l0.149-0.53  l-0.06,0.02h-0.01l-0.11,0.39v0.01L22,31.75l-0.09,0.34l0.06-0.02h0.01l8.34-2.47l0.29-0.09l0.29-0.08l8.471-2.51  c0-0.02-0.011-0.05-0.011-0.07C39.35,26.709,39.439,26.589,39.569,26.549z M39.569,26.549l-8.739,2.58l-0.28,0.09l-0.3,0.08  l-8.181,2.43l4.841-17.44l0.17-0.62l0.149-0.53l-0.06,0.02h-0.01l-0.11,0.39v0.01L22,31.75l-0.09,0.34l0.06-0.02h0.01l8.34-2.47  l0.29-0.09l0.29-0.08l8.471-2.51c0-0.02-0.011-0.05-0.011-0.07C39.35,26.709,39.439,26.589,39.569,26.549z M62.76,2.299l-0.039,0.01  L45.29,7.479l-0.28,0.08l-17.81,5.28l-0.04,0.01l-0.24,0.07l-0.03,0.12l-0.05,0.17l-5.22,18.81l-0.051,0.17l0.061-0.02l0.18-0.05  l0.101-0.03l0.06-0.02h0.01l8.34-2.47l0.29-0.09l0.29-0.08l8.471-2.51l0.29-0.09l17.73-5.25l0.08-0.03l0.25-0.07l0.028-0.01  l0.05-0.17l0.03-0.12l5.239-18.86l0.029-0.12L62.76,2.299z M39.58,26.541l-0.011,0.01l-8.739,2.58l-0.28,0.09l-0.3,0.08l-8.181,2.43  l4.841-17.44l0.17-0.62l0.149-0.53l0.03-0.01l4.8-1.42L62.62,2.65l-5.149,18.59L39.58,26.541z M39.569,26.549l-8.739,2.58  l-0.28,0.09l-0.3,0.08l-8.181,2.43l4.841-17.44l0.17-0.62l0.149-0.53l-0.06,0.02h-0.01l-0.11,0.39v0.01L22,31.75l-0.09,0.34  l0.06-0.02h0.01l8.34-2.47l0.29-0.09l0.29-0.08l8.471-2.51c0-0.02-0.011-0.05-0.011-0.07C39.35,26.709,39.439,26.589,39.569,26.549z   M39.569,26.549l-8.739,2.58l-0.28,0.09l-0.3,0.08l-8.181,2.43l4.841-17.44l0.17-0.62l0.149-0.53l-0.06,0.02h-0.01l-0.11,0.39v0.01  L22,31.75l-0.09,0.34l0.06-0.02h0.01l8.34-2.47l0.29-0.09l0.29-0.08l8.471-2.51c0-0.02-0.011-0.05-0.011-0.07  C39.35,26.709,39.439,26.589,39.569,26.549z M30.25,29.299l-8.181,2.43l-0.1,0.34h0.01l8.34-2.47L30.25,29.299z M30.25,29.299  l-8.181,2.43l-0.1,0.34h0.01l8.34-2.47L30.25,29.299z M30.25,29.299l-8.181,2.43l-0.1,0.34h0.01l8.34-2.47L30.25,29.299z   M30.25,29.299l-8.181,2.43l-0.1,0.34h0.01l8.34-2.47L30.25,29.299z M30.25,29.299l-8.181,2.43l-0.1,0.34h0.01l8.34-2.47  L30.25,29.299z M30.25,29.299l-8.181,2.43l-0.1,0.34h0.01l8.34-2.47L30.25,29.299z M30.25,29.299l-8.181,2.43l-0.1,0.34h0.01  l8.34-2.47L30.25,29.299z M30.25,29.299l-8.181,2.43l-0.1,0.34h0.01l8.34-2.47L30.25,29.299z M39.569,26.549l-8.739,2.58l-0.28,0.09  l-0.3,0.08l-8.181,2.43l4.841-17.44l0.17-0.62l0.149-0.53l-0.06,0.02h-0.01l-0.11,0.39v0.01L22,31.75l-0.09,0.34l0.06-0.02h0.01  l8.34-2.47l0.29-0.09l0.29-0.08l8.471-2.51c0-0.02-0.011-0.05-0.011-0.07C39.35,26.709,39.439,26.589,39.569,26.549z M39.569,26.549  l-8.739,2.58l-0.28,0.09l-0.3,0.08l-8.181,2.43l4.841-17.44l0.17-0.62l0.149-0.53l-0.06,0.02h-0.01l-0.11,0.39v0.01L22,31.75  l-0.09,0.34l0.06-0.02h0.01l8.34-2.47l0.29-0.09l0.29-0.08l8.471-2.51c0-0.02-0.011-0.05-0.011-0.07  C39.35,26.709,39.439,26.589,39.569,26.549z M39.569,26.549l-8.739,2.58l-0.28,0.09l-0.3,0.08l-8.181,2.43l4.841-17.44l0.17-0.62  l0.149-0.53l-0.06,0.02h-0.01l-0.11,0.39v0.01L22,31.75l-0.09,0.34l0.06-0.02h0.01l8.34-2.47l0.29-0.09l0.29-0.08l8.471-2.51  c0-0.02-0.011-0.05-0.011-0.07C39.35,26.709,39.439,26.589,39.569,26.549z M39.569,26.549l-8.739,2.58l-0.28,0.09l-0.3,0.08  l-8.181,2.43l4.841-17.44l0.17-0.62l0.149-0.53l-0.06,0.02h-0.01l-0.11,0.39v0.01L22,31.75l-0.09,0.34l0.06-0.02h0.01l8.34-2.47  l0.29-0.09l0.29-0.08l8.471-2.51c0-0.02-0.011-0.05-0.011-0.07C39.35,26.709,39.439,26.589,39.569,26.549z M39.569,26.549  l-8.739,2.58l-0.28,0.09l-0.3,0.08l-8.181,2.43l4.841-17.44l0.17-0.62l0.149-0.53l-0.06,0.02h-0.01l-0.11,0.39v0.01L22,31.75  l-0.09,0.34l0.06-0.02h0.01l8.34-2.47l0.29-0.09l0.29-0.08l8.471-2.51c0-0.02-0.011-0.05-0.011-0.07  C39.35,26.709,39.439,26.589,39.569,26.549z M39.569,26.549l-8.739,2.58l-0.28,0.09l-0.3,0.08l-8.181,2.43l4.841-17.44l0.17-0.62  l0.149-0.53l-0.06,0.02h-0.01l-0.11,0.39v0.01L22,31.75l-0.09,0.34l0.06-0.02h0.01l8.34-2.47l0.29-0.09l0.29-0.08l8.471-2.51  c0-0.02-0.011-0.05-0.011-0.07C39.35,26.709,39.439,26.589,39.569,26.549z M39.569,26.549l-8.739,2.58l-0.28,0.09l-0.3,0.08  l-8.181,2.43l4.841-17.44l0.17-0.62l0.149-0.53l-0.06,0.02h-0.01l-0.11,0.39v0.01L22,31.75l-0.09,0.34l0.06-0.02h0.01l8.34-2.47  l0.29-0.09l0.29-0.08l8.471-2.51c0-0.02-0.011-0.05-0.011-0.07C39.35,26.709,39.439,26.589,39.569,26.549z M39.569,26.549  l-8.739,2.58l-0.28,0.09l-0.3,0.08l-8.181,2.43l4.841-17.44l0.17-0.62l0.149-0.53l-0.06,0.02h-0.01l-0.11,0.39v0.01L22,31.75  l-0.09,0.34l0.06-0.02h0.01l8.34-2.47l0.29-0.09l0.29-0.08l8.471-2.51c0-0.02-0.011-0.05-0.011-0.07  C39.35,26.709,39.439,26.589,39.569,26.549z M39.569,26.549l-8.739,2.58l-0.28,0.09l-0.3,0.08l-8.181,2.43l4.841-17.44l0.17-0.62  l0.149-0.53l-0.06,0.02h-0.01l-0.11,0.39v0.01L22,31.75l-0.09,0.34l0.06-0.02h0.01l8.34-2.47l0.29-0.09l0.29-0.08l8.471-2.51  c0-0.02-0.011-0.05-0.011-0.07C39.35,26.709,39.439,26.589,39.569,26.549z"></path><path d="M57.4,21.661c-0.01-0.03-0.01-0.05-0.01-0.08c0-0.04,0.01-0.08,0.02-0.11l0.061-0.23l-17.891,5.3l-0.011,0.01l-8.739,2.58  l-0.28,0.09l-0.3,0.08l-8.181,2.43L22,31.75l5.05-18.19v-0.01l0.11-0.39L27,13.209c-0.01,0-0.021,0-0.021,0  c-0.02,0-0.04,0.01-0.06,0.01h-0.03l-5.22,18.82l-0.04,0.13l0.18-0.05c0.03,0.03,0.05,0.06,0.061,0.1c0.01,0.01,0.01,0.01,0.01,0.02  l0.02,0.08h0.011l0.02,0.08l8.35-2.47l0.33-0.1l0.32-0.1l8.771-2.59l0.63-0.19l0.641-0.19l16.489-4.89l0.08-0.03  C57.48,21.799,57.43,21.729,57.4,21.661z M39.609,27.121c-0.119-0.02-0.199-0.09-0.239-0.2c0-0.02-0.011-0.05-0.011-0.07  c-0.01-0.14,0.08-0.26,0.21-0.3l-8.739,2.58l-0.28,0.09l-0.3,0.08l-8.181,2.43L22,31.75l-0.09,0.34l0.06-0.02l-0.07,0.25h0.011  l0.02,0.08l8.35-2.47l0.33-0.1l0.32-0.1l8.771-2.59L39.609,27.121z M39.569,26.549l-8.739,2.58l-0.28,0.09l-0.3,0.08l-8.181,2.43  L22,31.75l-0.09,0.34l0.06-0.02h0.01l8.34-2.47l0.29-0.09l0.29-0.08l8.471-2.51c0-0.02-0.011-0.05-0.011-0.07  C39.35,26.709,39.439,26.589,39.569,26.549z M39.569,26.549l-8.739,2.58l-0.28,0.09l-0.3,0.08l-8.181,2.43L22,31.75l-0.09,0.34  l0.06-0.02h0.01l8.34-2.47l0.29-0.09l0.29-0.08l8.471-2.51c0-0.02-0.011-0.05-0.011-0.07C39.35,26.709,39.439,26.589,39.569,26.549z   M39.569,26.549l-8.739,2.58l-0.28,0.09l-0.3,0.08l-8.181,2.43L22,31.75l-0.09,0.34l0.06-0.02h0.01l8.34-2.47l0.29-0.09l0.29-0.08  l8.471-2.51c0-0.02-0.011-0.05-0.011-0.07C39.35,26.709,39.439,26.589,39.569,26.549z M39.569,26.549l-8.739,2.58l-0.28,0.09  l-0.3,0.08l-8.181,2.43L22,31.75l-0.09,0.34l0.06-0.02h0.01l8.34-2.47l0.29-0.09l0.29-0.08l8.471-2.51c0-0.02-0.011-0.05-0.011-0.07  C39.35,26.709,39.439,26.589,39.569,26.549z M39.569,26.549l-8.739,2.58l-0.28,0.09l-0.3,0.08l-8.181,2.43L22,31.75l-0.09,0.34  l0.06-0.02h0.01l8.34-2.47l0.29-0.09l0.29-0.08l8.471-2.51c0-0.02-0.011-0.05-0.011-0.07C39.35,26.709,39.439,26.589,39.569,26.549z   M39.569,26.549l-8.739,2.58l-0.28,0.09l-0.3,0.08l-8.181,2.43L22,31.75l-0.09,0.34l0.06-0.02h0.01l8.34-2.47l0.29-0.09l0.29-0.08  l8.471-2.51c0-0.02-0.011-0.05-0.011-0.07C39.35,26.709,39.439,26.589,39.569,26.549z M39.569,26.549l-8.739,2.58l-0.28,0.09  l-0.3,0.08l-8.181,2.43L22,31.75l-0.09,0.34l0.06-0.02h0.01l8.34-2.47l0.29-0.09l0.29-0.08l8.471-2.51c0-0.02-0.011-0.05-0.011-0.07  C39.35,26.709,39.439,26.589,39.569,26.549z M39.569,26.549l-8.739,2.58l-0.28,0.09l-0.3,0.08l-8.181,2.43L22,31.75l-0.09,0.34  l0.06-0.02h0.01l8.34-2.47l0.29-0.09l0.29-0.08l8.471-2.51c0-0.02-0.011-0.05-0.011-0.07C39.35,26.709,39.439,26.589,39.569,26.549z   M39.569,26.549l-8.739,2.58l-0.28,0.09l-0.3,0.08l-8.181,2.43L22,31.75l-0.09,0.34l0.06-0.02h0.01l8.34-2.47l0.29-0.09l0.29-0.08  l8.471-2.51c0-0.02-0.011-0.05-0.011-0.07C39.35,26.709,39.439,26.589,39.569,26.549z M39.569,26.549l-8.739,2.58l-0.28,0.09  l-0.3,0.08l-8.181,2.43L22,31.75l-0.09,0.34l0.06-0.02h0.01l8.34-2.47l0.29-0.09l0.29-0.08l8.471-2.51c0-0.02-0.011-0.05-0.011-0.07  C39.35,26.709,39.439,26.589,39.569,26.549z M30.25,29.299l-8.181,2.43L22,31.75l-0.09,0.34l0.06-0.02h0.01l8.34-2.47L30.25,29.299z   M30.25,29.299l-8.181,2.43L22,31.75l-0.09,0.34l0.06-0.02h0.01l8.34-2.47L30.25,29.299z M30.25,29.299l-8.181,2.43L22,31.75  l-0.09,0.34l0.06-0.02h0.01l8.34-2.47L30.25,29.299z M30.25,29.299l-8.181,2.43L22,31.75l-0.09,0.34l0.06-0.02h0.01l8.34-2.47  L30.25,29.299z M30.25,29.299l-8.181,2.43L22,31.75l-0.09,0.34l0.06-0.02h0.01l8.34-2.47L30.25,29.299z M30.25,29.299l-8.181,2.43  L22,31.75l-0.09,0.34l0.06-0.02h0.01l8.34-2.47L30.25,29.299z M30.25,29.299l-8.181,2.43L22,31.75l-0.09,0.34l0.06-0.02h0.01  l8.34-2.47L30.25,29.299z M30.25,29.299l-8.181,2.43L22,31.75l-0.09,0.34l0.06-0.02h0.01l8.34-2.47L30.25,29.299z M30.25,29.299  l-8.181,2.43L22,31.75l-0.09,0.34l0.06-0.02h0.01l8.34-2.47L30.25,29.299z M30.25,29.299l-8.181,2.43L22,31.75l-0.09,0.34l0.06-0.02  h0.01l8.34-2.47L30.25,29.299z M39.569,26.549l-8.739,2.58l-0.28,0.09l-0.3,0.08l-8.181,2.43L22,31.75l-0.09,0.34l0.06-0.02h0.01  l8.34-2.47l0.29-0.09l0.29-0.08l8.471-2.51c0-0.02-0.011-0.05-0.011-0.07C39.35,26.709,39.439,26.589,39.569,26.549z M39.569,26.549  l-8.739,2.58l-0.28,0.09l-0.3,0.08l-8.181,2.43L22,31.75l-0.09,0.34l0.06-0.02h0.01l8.34-2.47l0.29-0.09l0.29-0.08l8.471-2.51  c0-0.02-0.011-0.05-0.011-0.07C39.35,26.709,39.439,26.589,39.569,26.549z M63.37,2.089c-0.011-0.04-0.03-0.08-0.06-0.11  c-0.031-0.02-0.07-0.04-0.102-0.06c-0.068-0.02-0.141-0.03-0.2-0.01L45,7.25l-0.54,0.16l-0.54,0.16h-0.01l-16.99,5.04h-0.021  l-0.069,0.02c-0.04,0.01-0.07,0.03-0.101,0.05c-0.05,0.04-0.09,0.1-0.1,0.16l-0.03,0.12l-0.05,0.17l-0.03,0.12l-5.16,18.57  l-0.029,0.12l-0.051,0.17c-0.01,0.04-0.01,0.08,0,0.12c0,0.03,0,0.06,0.021,0.09v0.01c0.02,0.03,0.04,0.05,0.06,0.07  c0.03,0.03,0.061,0.05,0.101,0.07c0.03,0.01,0.069,0.02,0.109,0.02c0.021,0,0.051,0,0.07-0.01c0.01,0,0.01,0,0.021,0l0.21-0.06  l0.06-0.02l8.35-2.47l0.33-0.1l0.32-0.1l8.771-2.59l0.63-0.19l0.641-0.19l16.489-4.89l0.08-0.03h0.01l0.2-0.05l0.01-0.01l0.08-0.02  c0.061-0.02,0.11-0.05,0.141-0.1c0.029-0.03,0.049-0.07,0.061-0.11l0.05-0.17l0.03-0.12l5.158-18.58l0.031-0.11l0.049-0.17  l0.031-0.12C63.41,2.221,63.4,2.149,63.37,2.089z M39.569,26.549l-8.739,2.58l-0.28,0.09l-0.3,0.08l-8.181,2.43L22,31.75l5.05-18.19  v-0.01l0.11-0.39h0.01l0.06-0.02l0.03-0.01l4.8-1.42l30.561-9.06l0.04-0.01l-5.15,18.59H57.5l-0.029,0.01l-17.891,5.3L39.569,26.549  z M39.569,26.549l-8.739,2.58l-0.28,0.09l-0.3,0.08l-8.181,2.43L22,31.75l-0.09,0.34l0.06-0.02h0.01l8.34-2.47l0.29-0.09l0.29-0.08  l8.471-2.51c0-0.02-0.011-0.05-0.011-0.07C39.35,26.709,39.439,26.589,39.569,26.549z M39.569,26.549l-8.739,2.58l-0.28,0.09  l-0.3,0.08l-8.181,2.43L22,31.75l-0.09,0.34l0.06-0.02h0.01l8.34-2.47l0.29-0.09l0.29-0.08l8.471-2.51c0-0.02-0.011-0.05-0.011-0.07  C39.35,26.709,39.439,26.589,39.569,26.549z M30.25,29.299l-8.181,2.43L22,31.75l-0.09,0.34l0.06-0.02h0.01l8.34-2.47L30.25,29.299z   M30.25,29.299l-8.181,2.43L22,31.75l-0.09,0.34l0.06-0.02h0.01l8.34-2.47L30.25,29.299z M30.25,29.299l-8.181,2.43L22,31.75  l-0.09,0.34l0.06-0.02h0.01l8.34-2.47L30.25,29.299z M30.25,29.299l-8.181,2.43L22,31.75l-0.09,0.34l0.06-0.02h0.01l8.34-2.47  L30.25,29.299z M30.25,29.299l-8.181,2.43L22,31.75l-0.09,0.34l0.06-0.02h0.01l8.34-2.47L30.25,29.299z M30.25,29.299l-8.181,2.43  L22,31.75l-0.09,0.34l0.06-0.02h0.01l8.34-2.47L30.25,29.299z M30.25,29.299l-8.181,2.43L22,31.75l-0.09,0.34l0.06-0.02h0.01  l8.34-2.47L30.25,29.299z M30.25,29.299l-8.181,2.43L22,31.75l-0.09,0.34l0.06-0.02h0.01l8.34-2.47L30.25,29.299z M30.25,29.299  l-8.181,2.43L22,31.75l-0.09,0.34l0.06-0.02h0.01l8.34-2.47L30.25,29.299z M39.569,26.549l-8.739,2.58l-0.28,0.09l-0.3,0.08  l-8.181,2.43L22,31.75l-0.09,0.34l0.06-0.02h0.01l8.34-2.47l0.29-0.09l0.29-0.08l8.471-2.51c0-0.02-0.011-0.05-0.011-0.07  C39.35,26.709,39.439,26.589,39.569,26.549z M39.569,26.549l-8.739,2.58l-0.28,0.09l-0.3,0.08l-8.181,2.43L22,31.75l-0.09,0.34  l0.06-0.02h0.01l8.34-2.47l0.29-0.09l0.29-0.08l8.471-2.51c0-0.02-0.011-0.05-0.011-0.07C39.35,26.709,39.439,26.589,39.569,26.549z   M39.569,26.549l-8.739,2.58l-0.28,0.09l-0.3,0.08l-8.181,2.43L22,31.75l-0.09,0.34l0.06-0.02h0.01l8.34-2.47l0.29-0.09l0.29-0.08  l8.471-2.51c0-0.02-0.011-0.05-0.011-0.07C39.35,26.709,39.439,26.589,39.569,26.549z M39.569,26.549l-8.739,2.58l-0.28,0.09  l-0.3,0.08l-8.181,2.43L22,31.75l-0.09,0.34l0.06-0.02h0.01l8.34-2.47l0.29-0.09l0.29-0.08l8.471-2.51c0-0.02-0.011-0.05-0.011-0.07  C39.35,26.709,39.439,26.589,39.569,26.549z M39.569,26.549l-8.739,2.58l-0.28,0.09l-0.3,0.08l-8.181,2.43L22,31.75l-0.09,0.34  l0.06-0.02h0.01l8.34-2.47l0.29-0.09l0.29-0.08l8.471-2.51c0-0.02-0.011-0.05-0.011-0.07C39.35,26.709,39.439,26.589,39.569,26.549z   M39.569,26.549l-8.739,2.58l-0.28,0.09l-0.3,0.08l-8.181,2.43L22,31.75l-0.09,0.34l0.06-0.02h0.01l8.34-2.47l0.29-0.09l0.29-0.08  l8.471-2.51c0-0.02-0.011-0.05-0.011-0.07C39.35,26.709,39.439,26.589,39.569,26.549z M39.569,26.549l-8.739,2.58l-0.28,0.09  l-0.3,0.08l-8.181,2.43L22,31.75l-0.09,0.34l0.06-0.02h0.01l8.34-2.47l0.29-0.09l0.29-0.08l8.471-2.51c0-0.02-0.011-0.05-0.011-0.07  C39.35,26.709,39.439,26.589,39.569,26.549z M39.569,26.549l-8.739,2.58l-0.28,0.09l-0.3,0.08l-8.181,2.43L22,31.75l-0.09,0.34  l0.06-0.02h0.01l8.34-2.47l0.29-0.09l0.29-0.08l8.471-2.51c0-0.02-0.011-0.05-0.011-0.07C39.35,26.709,39.439,26.589,39.569,26.549z   M39.569,26.549l-8.739,2.58l-0.28,0.09l-0.3,0.08l-8.181,2.43L22,31.75l-0.09,0.34l0.06-0.02h0.01l8.34-2.47l0.29-0.09l0.29-0.08  l8.471-2.51c0-0.02-0.011-0.05-0.011-0.07C39.35,26.709,39.439,26.589,39.569,26.549z M39.569,26.549l-8.739,2.58l-0.28,0.09  l-0.3,0.08l-8.181,2.43L22,31.75l-0.09,0.34l0.06-0.02h0.01l8.34-2.47l0.29-0.09l0.29-0.08l8.471-2.51c0-0.02-0.011-0.05-0.011-0.07  C39.35,26.709,39.439,26.589,39.569,26.549z M39.569,26.549l-8.739,2.58l-0.28,0.09l-0.3,0.08l-8.181,2.43L22,31.75l-0.09,0.34  l0.06-0.02h0.01l-0.069,0.25l0.02,0.08l8.35-2.47l0.051-0.28l-0.011-0.05l0.29-0.09l0.29-0.08l8.471-2.51  c0-0.02-0.011-0.05-0.011-0.07C39.35,26.709,39.439,26.589,39.569,26.549z M57.4,21.661c-0.01-0.03-0.01-0.05-0.01-0.08  c0-0.04,0.01-0.08,0.02-0.11l0.061-0.23l-17.891,5.3l-0.011,0.01l-8.739,2.58l-0.28,0.09l-0.3,0.08l-8.181,2.43L22,31.75l5.05-18.19  v-0.01l0.11-0.39L27,13.209c-0.01,0-0.021,0-0.021,0c-0.02,0-0.04,0.01-0.06,0.01h-0.03l-5.22,18.82l-0.04,0.13l0.18-0.05  c0.03,0.03,0.05,0.06,0.061,0.1c0.01,0.01,0.01,0.01,0.01,0.02l0.02,0.08h0.011l0.02,0.08l8.35-2.47l0.33-0.1l0.32-0.1l8.771-2.59  l0.63-0.19l0.641-0.19l16.489-4.89l0.08-0.03C57.48,21.799,57.43,21.729,57.4,21.661z"></path><path d="M44.46,7.411l-18.73-5.2l-17.55,5.2L7.95,7.48L7.64,7.57l18.99,5.27l0.08,0.02l0.21,0.06l0.24-0.07l0.04-0.01l17.81-5.28  L44.46,7.411z M26.92,12.609h-0.021l-17.25-4.79l-0.92-0.26L25.74,2.52l18.17,5.05L26.92,12.609z"></path><path d="M45.29,7.479c-0.021-0.1-0.101-0.19-0.2-0.21L45,7.25l-19.19-5.33c-0.05-0.01-0.109-0.01-0.16,0L7.64,7.27L7.56,7.29  c-0.1,0.02-0.17,0.1-0.2,0.19c-0.01,0.03-0.02,0.06-0.02,0.1s0.01,0.07,0.03,0.1c0.02,0.09,0.1,0.16,0.189,0.18l0.061,0.02  l0.229,0.06l18.7,5.19l0.05,0.01l0.24,0.07c0.01,0,0.03,0,0.05,0.01h0.03c0.02,0,0.04-0.01,0.06-0.01c0,0,0.011,0,0.021,0l0.16-0.05  h0.01l0.06-0.02l0.03-0.01l4.8-1.42l13.03-3.87c0.131-0.03,0.221-0.15,0.221-0.29C45.311,7.521,45.311,7.5,45.29,7.479z   M43.91,7.569l-16.99,5.04h-0.021l-17.25-4.79l-0.92-0.26L25.74,2.52L43.91,7.569z"></path><path d="M76.99,26.799l-0.29-0.08l-18.66-5.17l-0.29-0.08l-0.029,0.01l-0.25,0.07l-0.08,0.03l-17.729,5.25l0.67,0.12L60,30.431  l0.33,0.06l0.1,0.02l0.211-0.05l-0.091-0.28l-2.42-8.17l17.399,4.83l0.601,0.17h0.011l0.26-0.06l0.261-0.06l0.101-0.02h0.02  l0.211-0.05l0.029-0.01L76.99,26.799z M40.971,26.759l16.489-4.89l2.45,8.25L40.971,26.759z"></path><path d="M77.311,26.771c-0.011-0.12-0.09-0.21-0.211-0.25l-0.029-0.01l-0.25-0.07l-0.041-0.01L58.12,21.259l-0.04-0.01l-0.25-0.07  c-0.01,0-0.02-0.01-0.03,0c-0.04-0.02-0.09-0.01-0.13,0l-0.16,0.05H57.5l-0.029,0.01l-17.891,5.3l-0.011,0.01  c-0.13,0.04-0.22,0.16-0.21,0.3c0,0.02,0.011,0.05,0.011,0.07c0.04,0.11,0.12,0.18,0.239,0.2l0.091,0.02l20.399,3.62l0.28,0.05h0.12  l0.221-0.05l-0.08-0.3l-0.091-0.28l-0.12,0.03l-0.188-0.03l-0.33-0.06l-18.94-3.36l16.49-4.89l0.08-0.03h0.01l0.2-0.06h0.01l18.03,5  l-0.262,0.06l0.602,0.17h0.012l0.58,0.16v0.02h0.01l0.039-0.01l0.25-0.05l0.069-0.02c0.011,0,0.011,0,0.021-0.01  c0.051-0.01,0.091-0.03,0.121-0.07c0.01-0.01,0.02-0.02,0.02-0.03c0.02-0.01,0.029-0.03,0.029-0.04v-0.01  c0.021-0.02,0.031-0.04,0.031-0.06c0.01-0.02,0.01-0.05,0.01-0.07S77.32,26.779,77.311,26.771z"></path><path d="M82.01,7.569l-18.65-5.17l-0.289-0.08l-0.041-0.01L57.8,21.181l-0.03,0.11l-0.049,0.19l-0.031,0.1l0.291,0.08l18.689,5.18  l0.09,0.03h0.02l0.182,0.05l0.03-0.1v-0.021l0.05-0.17l0.029-0.12L82.3,7.649L82.01,7.569z M81.93,7.859l-5.15,18.57l-18.659-5.17  l5.159-18.58L81.93,7.859z"></path><path d="M82.55,7.479L82.4,7.37c-0.01-0.01-0.01-0.01-0.021-0.01l-19.01-5.27l-0.261-0.07C63.029,1.99,62.95,2,62.88,2.04  c-0.021,0.01-0.04,0.03-0.06,0.05c-0.041,0.04-0.07,0.09-0.08,0.14l-0.02,0.08l-0.101,0.34l-5.149,18.59l-0.061,0.23  c-0.01,0.03-0.02,0.07-0.02,0.11c0,0.03,0,0.05,0.01,0.08c0.029,0.07,0.08,0.14,0.14,0.18h0.01c0.021,0.01,0.04,0.02,0.06,0.03  l0.182,0.05l0.34,0.09l17.398,4.83l0.602,0.17h0.012l0.58,0.15v0.01l0.049,0.01l0.109,0.03c0.021,0.01,0.051,0.01,0.08,0.01  c0.03,0,0.061,0,0.09-0.01c0.08-0.03,0.15-0.09,0.182-0.18c0.01-0.01,0.02-0.02,0.02-0.03l0.02-0.08v-0.01l0.041-0.14l5-18.03  l0.149-0.55l0.13-0.46c0.02-0.06,0.02-0.12,0-0.17C82.58,7.529,82.57,7.5,82.55,7.479z M81.93,7.859l-5.15,18.57l-0.028,0.12  l-18.66-5.17l-0.04-0.01l0.03-0.12l5.16-18.58l0.038,0.01L81.93,7.859z"></path><path d="M68.73,57.852l-0.03-0.011l-0.29-0.08l-0.02,0.062l-0.062,0.229l-5.2,18.74l-0.068,0.238l0.028,0.012l0.261,0.068  l0.029,0.012l18.95,5.26l0.069-0.25L87.6,63.393l0.07-0.25l0.01-0.041L68.73,57.852z M63.46,76.831l5.181-18.649l18.659,5.17  l-5.18,18.659L63.46,76.831z"></path><path d="M87.971,63.051v-0.01c0-0.021-0.011-0.04-0.031-0.061c-0.02-0.08-0.09-0.141-0.18-0.17l-0.18-0.051l-0.34-0.09l-18.59-5.16  h-0.01l-0.15-0.039c-0.051-0.021-0.11-0.021-0.16,0.01c-0.061,0.011-0.12,0.039-0.15,0.09c-0.029,0.029-0.05,0.07-0.06,0.109  L68.1,57.76l-0.051,0.16l-0.09,0.34l-4.87,17.53l-0.17,0.62l-0.12,0.439L62.77,76.95c-0.011,0.03-0.011,0.05-0.011,0.08L62.77,77.1  c0.01,0.021,0.01,0.041,0.029,0.061c0,0.01,0,0.029,0.021,0.05c0.02,0.021,0.029,0.04,0.05,0.05c0.03,0.021,0.06,0.04,0.09,0.051  c0,0,0.011,0.01,0.021,0.01l0.189,0.051l18.721,5.199l0.359,0.101c0.029,0,0.061,0.011,0.08,0.011c0.141,0,0.26-0.091,0.29-0.221  l0.03-0.102l5.31-19.139c0.011-0.041,0.021-0.08,0.021-0.121C87.98,63.081,87.98,63.062,87.971,63.051z M87.3,63.352l-5.18,18.659  l-18.66-5.18l-0.03-0.011l5.19-18.689l0.03,0.012l18.66,5.17L87.3,63.352z"></path><path d="M76.141,27.009l0.58,0.16v-0.01L76.141,27.009z M76.141,27.009l0.58,0.16v-0.01L76.141,27.009z M75.79,26.779l-18.03-5  h-0.01v0.01l0.04,0.13l2.45,8.26l0.189,0.03l0.119-0.03l-2.42-8.17l17.398,4.83L75.79,26.779z M76.141,27.009l0.58,0.16v-0.01  L76.141,27.009z M75.79,26.779l-18.03-5h-0.01v0.01l0.04,0.13l2.45,8.26l0.189,0.03l0.119-0.03l-2.42-8.17l17.398,4.83L75.79,26.779  z M76.141,27.009l0.58,0.16v-0.01L76.141,27.009z M75.79,26.779l-18.03-5h-0.01v0.01l0.04,0.13l2.45,8.26l0.189,0.03l0.119-0.03  l-2.42-8.17l17.398,4.83L75.79,26.779z M76.141,27.009l0.58,0.16v-0.01L76.141,27.009z M75.79,26.779l-18.03-5h-0.01v0.01l0.04,0.13  l2.45,8.26l0.189,0.03l0.119-0.03l-2.42-8.17l17.398,4.83L75.79,26.779z M76.141,27.009l0.58,0.16v-0.01L76.141,27.009z   M75.79,26.779l-18.03-5h-0.01v0.01l0.04,0.13l2.45,8.26l0.189,0.03l0.119-0.03l-2.42-8.17l17.398,4.83L75.79,26.779z   M76.141,27.009l0.58,0.16v-0.01L76.141,27.009z M75.79,26.779l-18.03-5h-0.01v0.01l0.04,0.13l2.45,8.26l0.189,0.03l0.119-0.03  l-2.42-8.17l17.398,4.83L75.79,26.779z M76.141,27.009l0.58,0.16v-0.01L76.141,27.009z M75.79,26.779l-18.03-5h-0.01v0.01l0.04,0.13  l2.45,8.26l0.189,0.03l0.119-0.03l-2.42-8.17l17.398,4.83L75.79,26.779z M76.141,27.009l0.58,0.16v-0.01L76.141,27.009z   M75.79,26.779l-18.03-5h-0.01v0.01l0.04,0.13l2.45,8.26l0.189,0.03l0.119-0.03l-2.42-8.17l17.398,4.83L75.79,26.779z   M76.141,27.009l0.58,0.16v-0.01L76.141,27.009z M75.79,26.779l-18.03-5h-0.01v0.01l0.04,0.13l2.45,8.26l0.189,0.03l0.119-0.03  l-2.42-8.17l17.398,4.83L75.79,26.779z M76.141,27.009l0.58,0.16v-0.01L76.141,27.009z M75.79,26.779l-18.03-5h-0.01v0.01l0.04,0.13  l2.45,8.26l0.189,0.03l0.119-0.03l-2.42-8.17l17.398,4.83L75.79,26.779z M76.141,27.009l0.58,0.16v-0.01L76.141,27.009z   M75.79,26.779l-18.03-5h-0.01v0.01l0.04,0.13l2.45,8.26l0.189,0.03l0.119-0.03l-2.42-8.17l17.398,4.83L75.79,26.779z   M76.141,27.009l0.58,0.16v-0.01L76.141,27.009z M57.75,21.779v0.01l0.04,0.13l2.45,8.26l0.189,0.03l0.119-0.03l-2.42-8.17  l17.398,4.83l0.262-0.06l-18.03-5H57.75z M87.6,62.82l-0.02-0.061L82.4,45.29l-0.08-0.28l-5.271-17.8l-0.029-0.08v-0.02l-0.061-0.19  l-0.182-0.05h-0.02l-0.09-0.03l-18.689-5.18l-0.291-0.08l0.062,0.2v0.01l0.04,0.13l2.449,8.26l0.091,0.31l0.09,0.32l2.54,8.57  l0.09,0.29l5.28,17.811l0.01,0.039v0.01l0.07,0.23l0.29,0.08l0.029,0.01l18.949,5.25L87.6,62.82z M60.721,30.759l-0.08-0.3  l-0.091-0.28l-2.42-8.17l17.399,4.83l0.601,0.17h0.011l0.58,0.16v0.02l5.309,17.91c0,0.01,0,0.01,0.012,0.021l5.2,17.55L68.65,57.51  l-5.319-17.93L60.721,30.759z M75.79,26.779l-18.03-5h-0.01v0.01l0.04,0.13l2.45,8.26l0.189,0.03l0.119-0.03l-2.42-8.17l17.398,4.83  L75.79,26.779z M76.141,27.009l0.58,0.16v-0.01L76.141,27.009z M75.79,26.779l-18.03-5h-0.01v0.01l0.04,0.13l2.45,8.26l0.189,0.03  l0.119-0.03l-2.42-8.17l17.398,4.83L75.79,26.779z M76.141,27.009l0.58,0.16v-0.01L76.141,27.009z M75.79,26.779l-18.03-5h-0.01  v0.01l0.04,0.13l2.45,8.26l0.189,0.03l0.119-0.03l-2.42-8.17l17.398,4.83L75.79,26.779z M76.141,27.009l0.58,0.16v-0.01  L76.141,27.009z M75.79,26.779l-18.03-5h-0.01v0.01l0.04,0.13l2.45,8.26l0.189,0.03l0.119-0.03l-2.42-8.17l17.398,4.83L75.79,26.779  z M76.141,27.009l0.58,0.16v-0.01L76.141,27.009z M75.79,26.779l-18.03-5h-0.01v0.01l0.04,0.13l2.45,8.26l0.189,0.03l0.119-0.03  l-2.42-8.17l17.398,4.83L75.79,26.779z M76.141,27.009l0.58,0.16v-0.01L76.141,27.009z M75.79,26.779l-18.03-5h-0.01v0.01l0.04,0.13  l2.45,8.26l0.189,0.03l0.119-0.03l-2.42-8.17l17.398,4.83L75.79,26.779z M76.141,27.009l0.58,0.16v-0.01L76.141,27.009z   M75.79,26.779l-18.03-5h-0.01v0.01l0.04,0.13l2.45,8.26l0.189,0.03l0.119-0.03l-2.42-8.17l17.398,4.83L75.79,26.779z   M76.141,27.009l0.58,0.16v-0.01L76.141,27.009z M75.79,26.779l-18.03-5h-0.01v0.01l0.04,0.13l2.45,8.26l0.189,0.03l0.119-0.03  l-2.42-8.17l17.398,4.83L75.79,26.779z M76.141,27.009l0.58,0.16v-0.01L76.141,27.009z M75.79,26.779l-18.03-5h-0.01v0.01l0.04,0.13  l2.45,8.26l0.189,0.03l0.119-0.03l-2.42-8.17l17.398,4.83L75.79,26.779z M76.141,27.009l0.58,0.16v-0.01L76.141,27.009z   M75.79,26.779l-18.03-5h-0.01v0.01l0.04,0.13l2.45,8.26l0.189,0.03l0.119-0.03l-2.42-8.17l17.398,4.83L75.79,26.779z   M76.141,27.009l0.58,0.16v-0.01L76.141,27.009z M75.79,26.779l-18.03-5h-0.01v0.01l0.04,0.13l2.45,8.26l0.189,0.03l0.119-0.03  l-2.42-8.17l17.398,4.83L75.79,26.779z M76.141,27.009l0.58,0.16v-0.01L76.141,27.009z M75.79,26.779l-18.03-5h-0.01v0.01l0.04,0.13  l2.45,8.26l0.189,0.03l0.119-0.03l-2.42-8.17l17.398,4.83L75.79,26.779z M76.141,27.009l0.58,0.16v-0.01L76.141,27.009z"></path><path d="M76.67,27.029v-0.02c-0.01-0.04-0.02-0.08-0.01-0.12c0-0.01,0-0.03,0.01-0.05l0.03-0.12l-18.66-5.17  c-0.011,0.04-0.03,0.08-0.06,0.11l-0.291-0.08l0.061,0.2h0.01l18.03,5l-0.261,0.06l0.601,0.17h0.011l0.58,0.16v-0.01L76.67,27.029z   M76.67,27.029v-0.02c-0.01-0.04-0.02-0.08-0.01-0.12c0-0.01,0-0.03,0.01-0.05l0.03-0.12l-18.66-5.17  c-0.011,0.04-0.03,0.08-0.06,0.11l-0.291-0.08l0.061,0.2l-0.2,0.06h-0.01l-0.08,0.03l2.45,8.25L60,30.43l0.1,0.33l2.642,8.92  l0.01-0.06c0.021-0.12,0.101-0.2,0.21-0.24c0.021,0,0.051-0.01,0.068-0.01c0.142-0.01,0.262,0.08,0.302,0.21l-2.608-8.82l-0.08-0.3  l-0.092-0.28l-2.42-8.17l17.398,4.83l0.602,0.17h0.012l0.58,0.16v-0.01L76.67,27.029z M76.67,27.029v-0.02  c-0.01-0.04-0.02-0.08-0.01-0.12c0-0.01,0-0.03,0.01-0.05l0.03-0.12l-18.66-5.17c-0.011,0.04-0.03,0.08-0.06,0.11l-0.291-0.08  l0.061,0.2l-0.2,0.06h-0.01l-0.08,0.03l2.45,8.25L60,30.43l0.1,0.33l2.642,8.92l0.01-0.06c0.021-0.12,0.101-0.2,0.21-0.24  c0.021,0,0.051-0.01,0.068-0.01c0.142-0.01,0.262,0.08,0.302,0.21l-2.608-8.82l-0.08-0.3l-0.092-0.28l-2.42-8.17l17.398,4.83  l0.602,0.17h0.012l0.58,0.16v-0.01L76.67,27.029z M76.67,27.029v-0.02c-0.01-0.04-0.02-0.08-0.01-0.12c0-0.01,0-0.03,0.01-0.05  l0.03-0.12l-18.66-5.17c-0.011,0.04-0.03,0.08-0.06,0.11l-0.291-0.08l0.061,0.2l-0.2,0.06h-0.01l-0.08,0.03l2.45,8.25L60,30.43  l0.1,0.33l2.642,8.92l0.01-0.06c0.021-0.12,0.101-0.2,0.21-0.24c0.021,0,0.051-0.01,0.068-0.01c0.142-0.01,0.262,0.08,0.302,0.21  l-2.608-8.82l-0.08-0.3l-0.092-0.28l-2.42-8.17l17.398,4.83l0.602,0.17h0.012l0.58,0.16v-0.01L76.67,27.029z M76.67,27.029v-0.02  c-0.01-0.04-0.02-0.08-0.01-0.12c0-0.01,0-0.03,0.01-0.05l0.03-0.12l-18.66-5.17c-0.011,0.04-0.03,0.08-0.06,0.11l-0.291-0.08  l0.061,0.2l-0.2,0.06h-0.01l-0.08,0.03l2.45,8.25L60,30.43l0.1,0.33l2.642,8.92l0.01-0.06c0.021-0.12,0.101-0.2,0.21-0.24  c0.021,0,0.051-0.01,0.068-0.01c0.142-0.01,0.262,0.08,0.302,0.21l-2.608-8.82l-0.08-0.3l-0.092-0.28l-2.42-8.17l17.398,4.83  l0.602,0.17h0.012l0.58,0.16v-0.01L76.67,27.029z M76.67,27.029v-0.02c-0.01-0.04-0.02-0.08-0.01-0.12c0-0.01,0-0.03,0.01-0.05  l0.03-0.12l-18.66-5.17c-0.011,0.04-0.03,0.08-0.06,0.11l-0.291-0.08l0.061,0.2l-0.2,0.06h-0.01l-0.08,0.03l2.45,8.25L60,30.43  l0.1,0.33l2.642,8.92l0.01-0.06c0.021-0.12,0.101-0.2,0.21-0.24c0.021,0,0.051-0.01,0.068-0.01c0.142-0.01,0.262,0.08,0.302,0.21  l-2.608-8.82l-0.08-0.3l-0.092-0.28l-2.42-8.17l17.398,4.83l0.602,0.17h0.012l0.58,0.16v-0.01L76.67,27.029z M76.67,27.029v-0.02  c-0.01-0.04-0.02-0.08-0.01-0.12c0-0.01,0-0.03,0.01-0.05l0.03-0.12l-18.66-5.17c-0.011,0.04-0.03,0.08-0.06,0.11l-0.291-0.08  l0.061,0.2l-0.2,0.06h-0.01l-0.08,0.03l2.45,8.25L60,30.43l0.1,0.33l2.642,8.92l0.01-0.06c0.021-0.12,0.101-0.2,0.21-0.24  c0.021,0,0.051-0.01,0.068-0.01c0.142-0.01,0.262,0.08,0.302,0.21l-2.608-8.82l-0.08-0.3l-0.092-0.28l-2.42-8.17l17.398,4.83  l0.602,0.17h0.012l0.58,0.16v-0.01L76.67,27.029z M76.141,27.009l0.58,0.16v-0.01L76.141,27.009z M75.79,26.779l-18.03-5h-0.01  l-0.2,0.06h-0.01l-0.08,0.03l2.45,8.25l0.33,0.06l0.189,0.03l0.119-0.03l-2.42-8.17l17.398,4.83L75.79,26.779z M76.141,27.009  l0.58,0.16v-0.01L76.141,27.009z M75.79,26.779l-18.03-5h-0.01v0.01l0.04,0.13l2.45,8.26l0.189,0.03l0.119-0.03l-2.42-8.17  l17.398,4.83L75.79,26.779z M76.141,27.009l0.58,0.16v-0.01L76.141,27.009z M75.79,26.779l-18.03-5h-0.01v0.01l0.04,0.13l2.45,8.26  l0.189,0.03l0.119-0.03l-2.42-8.17l17.398,4.83L75.79,26.779z M76.141,27.009l0.58,0.16v-0.01L76.141,27.009z M75.79,26.779  l-18.03-5h-0.01v0.01l0.04,0.13l2.45,8.26l0.189,0.03l0.119-0.03l-2.42-8.17l17.398,4.83L75.79,26.779z M76.141,27.009l0.58,0.16  v-0.01L76.141,27.009z M75.79,26.779l-18.03-5h-0.01v0.01l0.04,0.13l2.45,8.26l0.189,0.03l0.119-0.03l-2.42-8.17l17.398,4.83  L75.79,26.779z M76.141,27.009l0.58,0.16v-0.01L76.141,27.009z M75.79,26.779l-18.03-5h-0.01v0.01l0.04,0.13l2.45,8.26l0.189,0.03  l0.119-0.03l-2.42-8.17l17.398,4.83L75.79,26.779z M76.141,27.009l0.58,0.16v-0.01L76.141,27.009z M75.79,26.779l-18.03-5h-0.01  v0.01l0.04,0.13l2.45,8.26l0.189,0.03l0.119-0.03l-2.42-8.17l17.398,4.83L75.79,26.779z M76.141,27.009l0.58,0.16v-0.01  L76.141,27.009z M75.79,26.779l-18.03-5h-0.01v0.01l0.04,0.13l2.45,8.26l0.189,0.03l0.119-0.03l-2.42-8.17l17.398,4.83L75.79,26.779  z M76.141,27.009l0.58,0.16v-0.01L76.141,27.009z M75.79,26.779l-18.03-5h-0.01v0.01l0.04,0.13l2.45,8.26l0.189,0.03l0.119-0.03  l-2.42-8.17l17.398,4.83L75.79,26.779z M76.141,27.009l0.58,0.16v-0.01L76.141,27.009z M75.79,26.779l-18.03-5h-0.01v0.01l0.04,0.13  l2.45,8.26l0.189,0.03l0.119-0.03l-2.42-8.17l17.398,4.83L75.79,26.779z M76.141,27.009l0.58,0.16v-0.01L76.141,27.009z   M75.79,26.779l-18.03-5h-0.01v0.01l0.04,0.13l2.45,8.26l0.189,0.03l0.119-0.03l-2.42-8.17l17.398,4.83L75.79,26.779z   M76.141,27.009l0.58,0.16v-0.01L76.141,27.009z M75.79,26.779l-18.03-5h-0.01v0.01l0.04,0.13l2.45,8.26l0.189,0.03l0.119-0.03  l-2.42-8.17l17.398,4.83L75.79,26.779z M76.141,27.009l0.58,0.16v-0.01L76.141,27.009z M75.79,26.779l-18.03-5h-0.01v0.01l0.04,0.13  l2.45,8.26l0.189,0.03l0.119-0.03l-2.42-8.17l17.398,4.83L75.79,26.779z M76.141,27.009l0.58,0.16v-0.01L76.141,27.009z   M57.75,21.779v0.01l0.04,0.13l2.45,8.26l0.189,0.03l0.119-0.03l-2.42-8.17l17.398,4.83l0.262-0.06l-18.03-5H57.75z M87.971,63.051  v-0.01c0-0.012,0-0.012,0-0.021l-5.341-18.01l-0.159-0.55l-0.16-0.54l-5.031-16.96v-0.01l-0.01-0.03v-0.01l-0.02-0.07  c-0.029-0.09-0.09-0.16-0.18-0.19c-0.01-0.01-0.021-0.02-0.03-0.02l-0.29-0.08l-18.66-5.17l-0.04-0.01l-0.25-0.07l-0.03-0.01  c-0.108-0.03-0.22,0-0.299,0.08c-0.011,0.01-0.011,0.01-0.011,0.02c-0.021,0.02-0.04,0.05-0.05,0.08c-0.01,0.03-0.02,0.07-0.02,0.11  c0,0.03,0,0.05,0.01,0.08l0.06,0.21l2.45,8.25L60,30.43l0.1,0.33l2.642,8.92l0.188,0.65v0.01l0.19,0.631l4.93,16.639l0.04,0.15h0.01  l0.01,0.061l0.012,0.021c0.01,0.021,0.01,0.03,0.029,0.052c0.029,0.08,0.101,0.139,0.181,0.158l0.028,0.012l0.262,0.068l0.029,0.012  l18.66,5.17l0.289,0.08c0.01,0,0.021,0.01,0.03,0c0.011,0.01,0.03,0.01,0.05,0.01c0.08,0,0.16-0.03,0.211-0.09  c0.029-0.031,0.049-0.062,0.069-0.09c0.011-0.041,0.021-0.08,0.021-0.121v-0.039C87.98,63.062,87.98,63.062,87.971,63.051z   M75.529,26.839l0.601,0.17h0.011l0.58,0.16v0.02h0.01l5.299,17.91c0,0.01,0,0.01,0.012,0.021l5.2,17.55L68.65,57.51l-5.319-17.93  l-2.608-8.82l-0.08-0.3l-0.092-0.28l-2.42-8.17L75.529,26.839z M75.79,26.779l-18.03-5h-0.01v0.01l0.04,0.13l2.45,8.26l0.189,0.03  l0.119-0.03l-2.42-8.17l17.398,4.83L75.79,26.779z M76.141,27.009l0.58,0.16v-0.01L76.141,27.009z M75.79,26.779l-18.03-5h-0.01  v0.01l0.04,0.13l2.45,8.26l0.189,0.03l0.119-0.03l-2.42-8.17l17.398,4.83L75.79,26.779z M76.141,27.009l0.58,0.16v-0.01  L76.141,27.009z M75.79,26.779l-18.03-5h-0.01v0.01l0.04,0.13l2.45,8.26l0.189,0.03l0.119-0.03l-2.42-8.17l17.398,4.83L75.79,26.779  z M76.141,27.009l0.58,0.16v-0.01L76.141,27.009z M75.79,26.779l-18.03-5h-0.01v0.01l0.04,0.13l2.45,8.26l0.189,0.03l0.119-0.03  l-2.42-8.17l17.398,4.83L75.79,26.779z M76.141,27.009l0.58,0.16v-0.01L76.141,27.009z M75.79,26.779l-18.03-5h-0.01v0.01l0.04,0.13  l2.45,8.26l0.189,0.03l0.119-0.03l-2.42-8.17l17.398,4.83L75.79,26.779z M76.141,27.009l0.58,0.16v-0.01L76.141,27.009z   M75.79,26.779l-18.03-5h-0.01v0.01l0.04,0.13l2.45,8.26l0.189,0.03l0.119-0.03l-2.42-8.17l17.398,4.83L75.79,26.779z   M76.141,27.009l0.58,0.16v-0.01L76.141,27.009z M75.79,26.779l-18.03-5h-0.01v0.01l0.04,0.13l2.45,8.26l0.189,0.03l0.119-0.03  l-2.42-8.17l17.398,4.83L75.79,26.779z M76.141,27.009l0.58,0.16v-0.01L76.141,27.009z M75.79,26.779l-18.03-5h-0.01v0.01l0.04,0.13  l2.45,8.26l0.189,0.03l0.119-0.03l-2.42-8.17l17.398,4.83L75.79,26.779z M76.141,27.009l0.58,0.16v-0.01L76.141,27.009z   M75.79,26.779l-18.03-5h-0.01v0.01l0.04,0.13l2.45,8.26l0.189,0.03l0.119-0.03l-2.42-8.17l17.398,4.83L75.79,26.779z   M76.141,27.009l0.58,0.16v-0.01L76.141,27.009z M75.79,26.779l-18.03-5h-0.01v0.01l0.04,0.13l2.45,8.26l0.189,0.03l0.119-0.03  l-2.42-8.17l17.398,4.83L75.79,26.779z M76.141,27.009l0.58,0.16v-0.01L76.141,27.009z M75.79,26.779l-18.03-5h-0.01v0.01l0.04,0.13  l2.45,8.26l0.189,0.03l0.119-0.03l-2.42-8.17l17.398,4.83L75.79,26.779z M76.141,27.009l0.58,0.16v-0.01L76.141,27.009z   M75.79,26.779l-18.03-5h-0.01v0.01l0.04,0.13l2.45,8.26l0.189,0.03l0.119-0.03l-2.42-8.17l17.398,4.83L75.79,26.779z   M76.141,27.009l0.58,0.16v-0.01L76.141,27.009z M75.79,26.779l-18.03-5h-0.01v0.01l0.04,0.13l2.45,8.26l0.189,0.03l0.119-0.03  l-2.42-8.17l17.398,4.83L75.79,26.779z M76.141,27.009l0.58,0.16v-0.01L76.141,27.009z M76.141,27.009l0.58,0.16v-0.01  L76.141,27.009z M76.67,27.029v-0.02c-0.01-0.04-0.02-0.08-0.01-0.12c0-0.01,0-0.03,0.01-0.05l0.03-0.12l-18.66-5.17  c-0.011,0.04-0.03,0.08-0.06,0.11l-0.291-0.08l0.061,0.2l-0.2,0.06h-0.01l-0.08,0.03l2.45,8.25L60,30.43l0.1,0.33l2.642,8.92  l0.01-0.06c0.021-0.12,0.101-0.2,0.21-0.24c0.021,0,0.051-0.01,0.068-0.01c0.142-0.01,0.262,0.08,0.302,0.21l-2.608-8.82l-0.08-0.3  l-0.092-0.28l-2.42-8.17l17.398,4.83l0.602,0.17h0.012l0.58,0.16v-0.01L76.67,27.029z M76.67,27.029v-0.02  c-0.01-0.04-0.02-0.08-0.01-0.12c0-0.01,0-0.03,0.01-0.05l0.03-0.12l-18.66-5.17c-0.011,0.04-0.03,0.08-0.06,0.11l-0.291-0.08  l0.061,0.2l-0.2,0.06h-0.01l-0.08,0.03l2.45,8.25L60,30.43l0.1,0.33l2.642,8.92l0.01-0.06c0.021-0.12,0.101-0.2,0.21-0.24  c0.021,0,0.051-0.01,0.068-0.01c0.142-0.01,0.262,0.08,0.302,0.21l-2.608-8.82l-0.08-0.3l-0.092-0.28l-2.42-8.17l17.398,4.83  l0.602,0.17h0.012l0.58,0.16v-0.01L76.67,27.029z M76.67,27.029v-0.02c-0.01-0.04-0.02-0.08-0.01-0.12c0-0.01,0-0.03,0.01-0.05  l0.03-0.12l-18.66-5.17c-0.011,0.04-0.03,0.08-0.06,0.11l-0.291-0.08l0.061,0.2l-0.2,0.06h-0.01l-0.08,0.03l2.45,8.25L60,30.43  l0.1,0.33l2.642,8.92l0.01-0.06c0.021-0.12,0.101-0.2,0.21-0.24c0.021,0,0.051-0.01,0.068-0.01c0.142-0.01,0.262,0.08,0.302,0.21  l-2.608-8.82l-0.08-0.3l-0.092-0.28l-2.42-8.17l17.398,4.83l0.602,0.17h0.012l0.58,0.16v-0.01L76.67,27.029z M76.67,27.029v-0.02  c-0.01-0.04-0.02-0.08-0.01-0.12c0-0.01,0-0.03,0.01-0.05l0.03-0.12l-18.66-5.17c-0.011,0.04-0.03,0.08-0.06,0.11l-0.291-0.08  l0.061,0.2l-0.2,0.06h-0.01l-0.08,0.03l2.45,8.25L60,30.43l0.1,0.33l2.642,8.92l0.01-0.06c0.021-0.12,0.101-0.2,0.21-0.24  c0.021,0,0.051-0.01,0.068-0.01c0.142-0.01,0.262,0.08,0.302,0.21l-2.608-8.82l-0.08-0.3l-0.092-0.28l-2.42-8.17l17.398,4.83  l0.602,0.17h0.012l0.58,0.16v-0.01L76.67,27.029z M76.67,27.029v-0.02c-0.01-0.04-0.02-0.08-0.01-0.12c0-0.01,0-0.03,0.01-0.05  l0.03-0.12l-18.66-5.17c-0.011,0.04-0.03,0.08-0.06,0.11l-0.291-0.08l0.061,0.2l-0.2,0.06h-0.01l-0.08,0.03l2.45,8.25L60,30.43  l0.1,0.33l2.642,8.92l0.01-0.06c0.021-0.12,0.101-0.2,0.21-0.24c0.021,0,0.051-0.01,0.068-0.01c0.142-0.01,0.262,0.08,0.302,0.21  l-2.608-8.82l-0.08-0.3l-0.092-0.28l-2.42-8.17l17.398,4.83l0.602,0.17h0.012l0.58,0.16v-0.01L76.67,27.029z M76.67,27.029v-0.02  c-0.01-0.04-0.02-0.08-0.01-0.12c0-0.01,0-0.03,0.01-0.05l0.03-0.12l-18.66-5.17c-0.011,0.04-0.03,0.08-0.06,0.11l-0.291-0.08  l0.061,0.2l-0.2,0.06h-0.01l-0.08,0.03l2.45,8.25L60,30.43l0.1,0.33l2.642,8.92l0.01-0.06c0.021-0.12,0.101-0.2,0.21-0.24  c0.021,0,0.051-0.01,0.068-0.01c0.142-0.01,0.262,0.08,0.302,0.21l-2.608-8.82l-0.08-0.3l-0.092-0.28l-2.42-8.17l17.398,4.83  l0.602,0.17h0.012l0.58,0.16v-0.01L76.67,27.029z"></path><path d="M82.48,8.259l-0.021-0.07l-0.141-0.47L82.3,7.649l-5.229,18.86l-0.03,0.12l-0.05,0.17v0.02l-0.03,0.1l0.06,0.19v0.02  l0.03,0.08l5.271,17.8l0.15-0.55l5.189-18.72L82.48,8.259z M82.311,43.919l-5.031-16.96v-0.01c0.021-0.02,0.031-0.04,0.031-0.06  l5.021-18.08l5.021,16.93L82.311,43.919z"></path><path d="M82.63,7.709l-0.04-0.15c-0.01-0.03-0.02-0.06-0.04-0.08L82.4,7.37c-0.029-0.01-0.061-0.02-0.101-0.02  c-0.09,0-0.17,0.04-0.229,0.11c-0.029,0.03-0.051,0.07-0.061,0.11l-0.05,0.17l-0.03,0.12l-5.15,18.57l-0.028,0.12l-0.05,0.17  l-0.03,0.12c-0.01,0.02-0.01,0.04-0.01,0.05c-0.011,0.04,0,0.08,0.01,0.12v0.02l0.052,0.13v0.03l5.309,17.91  c0,0.01,0,0.01,0.011,0.021c0.04,0.12,0.16,0.19,0.28,0.19c0.02,0,0.05-0.011,0.08-0.021c0.09-0.03,0.18-0.101,0.209-0.2l0.021-0.08  l5.32-19.19c0.021-0.05,0.021-0.11,0-0.16L82.63,7.709z M77.279,26.959v-0.01l-0.01-0.03v-0.01l0.041-0.14l5-18.03l0.02,0.07  l5.02,16.93l-5.039,18.18L77.279,26.959z"></path><path d="M68.34,57.529v-0.01l-0.01-0.039l-5.28-17.811l-0.12,0.66v0.01l-3.52,19.832l-0.051,0.271l0.011,0.051l0.069,0.3l0.291-0.09  l8.22-2.44l-4.86,17.53l-0.17,0.62l0.02,0.061v0.021l0.07,0.3l0.051,0.239l0.069-0.239l5.2-18.74l0.061-0.229l0.021-0.061  L68.34,57.529z M63.12,40.97l4.92,16.641l-8.31,2.461L63.12,40.97z"></path><path d="M68.04,57.932l-0.09,0.329l-4.86,17.53l4.87-17.53l0.09-0.34L68.04,57.932z M68.04,57.932l-0.09,0.329l-4.86,17.53  l4.87-17.53l0.09-0.34L68.04,57.932z M68.04,57.932l-0.09,0.329l-4.86,17.53l4.87-17.53l0.09-0.34L68.04,57.932z M68.04,57.932  l-0.09,0.329l-4.86,17.53l4.87-17.53l0.09-0.34L68.04,57.932z M68.689,57.671v-0.01l-0.029-0.101l-0.02-0.051l-5.312-17.93  c-0.04-0.13-0.16-0.22-0.302-0.21c-0.02,0-0.049,0.01-0.068,0.01c-0.109,0.04-0.189,0.12-0.21,0.24l-0.011,0.06l-3.649,20.58  l-0.021,0.131c-0.01,0.039-0.01,0.08,0,0.109l0.021,0.08l0.062,0.29l0.289-0.08l0.291-0.09l-0.062-0.271V60.4l0.062-0.33  l3.39-19.102l4.92,16.641h0.01l0.04,0.149l-0.04,0.16l-0.01,0.011l-0.09,0.329l-4.86,17.53l-0.17,0.62l-0.12,0.438l-0.079,0.021  v0.01l0.039,0.148l0.01,0.07c0.01,0.021,0.01,0.041,0.03,0.062c0,0.01,0,0.028,0.021,0.05s0.029,0.04,0.051,0.05  c0.029,0.021,0.061,0.04,0.09,0.052c0,0,0.012,0.01,0.021,0.01c0.02,0.01,0.039,0.01,0.068,0.01c0.012,0,0.012,0,0.012,0  c0.119,0,0.229-0.07,0.27-0.18c0.01-0.01,0.02-0.03,0.02-0.041l0.07-0.25l0.01-0.039l5.19-18.69l0.069-0.25l0.011-0.04  C68.71,57.791,68.71,57.73,68.689,57.671z M68.04,57.932l-0.09,0.329l-4.86,17.53l4.87-17.53l0.09-0.34L68.04,57.932z M68.04,57.932  l-0.09,0.329l-4.86,17.53l4.87-17.53l0.09-0.34L68.04,57.932z M68.04,57.932l-0.09,0.329l-4.86,17.53l4.87-17.53l0.09-0.34  L68.04,57.932z M68.04,57.932l-0.09,0.329l-4.86,17.53l4.87-17.53l0.09-0.34L68.04,57.932z"></path><path d="M31.96,68.451l-18.641-5.172l-0.29-0.078l-0.05-0.012l-0.069,0.24l-0.011,0.051L7.67,82.32l-0.04,0.141l0.34,0.09  l18.64,5.17l0.29,0.08l0.011-0.04l5.26-18.938l0.01-0.051l0.07-0.24L31.96,68.451z M26.7,87.393l-18.631-5.17l5.171-18.642  l18.64,5.16L26.7,87.393z"></path><path d="M13.18,63.562l0.061,0.02v-0.01L13.18,63.562z M13.18,63.562l0.061,0.02v-0.01L13.18,63.562z M13.18,63.562l0.061,0.02  v-0.01L13.18,63.562z M13.18,63.562l0.061,0.02v-0.01L13.18,63.562z M13.18,63.562l0.061,0.02v-0.01L13.18,63.562z M13.18,63.562  l0.061,0.02v-0.01L13.18,63.562z M13.18,63.562l0.061,0.02v-0.01L13.18,63.562z M13.18,63.562l0.061,0.02v-0.01L13.18,63.562z   M13.18,63.562l0.061,0.02v-0.01L13.18,63.562z M13.18,63.562l0.061,0.02v-0.01L13.18,63.562z M13.18,63.562l0.061,0.02v-0.01  L13.18,63.562z M13.18,63.562l0.061,0.02v-0.01L13.18,63.562z M13.18,63.562l0.061,0.02v-0.01L13.18,63.562z M13.18,63.562  l0.061,0.02v-0.01L13.18,63.562z M13.18,63.562l0.061,0.02v-0.01L13.18,63.562z M13.18,63.562l0.061,0.02v-0.01L13.18,63.562z   M13.18,63.562l0.061,0.02v-0.01L13.18,63.562z M13.18,63.562l0.061,0.02v-0.01L13.18,63.562z M13.18,63.562l0.061,0.02v-0.01  L13.18,63.562z M13.18,63.562l0.061,0.02v-0.01L13.18,63.562z M13.18,63.562l0.061,0.02v-0.01L13.18,63.562z M32.529,68.451  c0-0.03-0.01-0.051-0.02-0.07c-0.04-0.068-0.11-0.12-0.18-0.14l-0.08-0.021h-0.021V68.21l-18.04-5l-0.6-0.16h-0.01l-0.28-0.079  l-0.24-0.07c-0.03-0.01-0.069-0.01-0.1-0.01s-0.05,0.01-0.07,0.021h-0.01c-0.01,0-0.01,0-0.021,0.01c-0.02-0.01-0.029,0-0.04,0.011  c-0.06,0.041-0.1,0.079-0.109,0.141v0.01H12.7c-0.011,0.01-0.011,0.02-0.011,0.029L7.66,81.232l-0.15,0.549l-0.16,0.551l-0.01,0.05  c-0.021,0.08-0.01,0.16,0.03,0.229c0.04,0.07,0.1,0.121,0.18,0.141l19.24,5.33c0.04,0.01,0.069,0.02,0.109,0.02  c0.03,0,0.061,0,0.091-0.01l0.02-0.01c0.01,0,0.03-0.01,0.04-0.02c0.01,0,0.02-0.012,0.04-0.021c0.05-0.04,0.09-0.09,0.1-0.16  l0.051-0.18l0.1-0.342l5.15-18.59h0.01l0.01-0.039l0.03-0.121C32.55,68.562,32.55,68.501,32.529,68.451z M13.24,63.581l18.64,5.16  L26.7,87.391l-0.011,0.039L8.06,82.27L8,82.251l5.18-18.688L13.24,63.581z M13.18,63.562l0.061,0.02v-0.01L13.18,63.562z   M13.18,63.562l0.061,0.02v-0.01L13.18,63.562z M13.18,63.562l0.061,0.02v-0.01L13.18,63.562z M13.18,63.562l0.061,0.02v-0.01  L13.18,63.562z M13.18,63.562l0.061,0.02v-0.01L13.18,63.562z M13.18,63.562l0.061,0.02v-0.01L13.18,63.562z M13.18,63.562  l0.061,0.02v-0.01L13.18,63.562z M13.18,63.562l0.061,0.02v-0.01L13.18,63.562z M13.18,63.562l0.061,0.02v-0.01L13.18,63.562z   M13.18,63.562l0.061,0.02v-0.01L13.18,63.562z M13.18,63.562l0.061,0.02v-0.01L13.18,63.562z M13.18,63.562l0.061,0.02v-0.01  L13.18,63.562z M13.18,63.562l0.061,0.02v-0.01L13.18,63.562z M13.18,63.562l0.061,0.02v-0.01L13.18,63.562z M13.18,63.562  l0.061,0.02v-0.01L13.18,63.562z M13.18,63.562l0.061,0.02v-0.01L13.18,63.562z M13.18,63.562l0.061,0.02v-0.01L13.18,63.562z   M13.18,63.562l0.061,0.02v-0.01L13.18,63.562z M13.18,63.562l0.061,0.02v-0.01L13.18,63.562z M13.18,63.562l0.061,0.02v-0.01  L13.18,63.562z"></path><path d="M87.67,63.143l-18.949-5.25l-0.031-0.012l-0.26-0.068l-0.07,0.25L63.16,76.791l-0.07,0.25l-0.01,0.04l0.25,0.069l0.04,0.011  l18.989,5.271l0.08-0.289l5.189-18.75l0.07-0.24L87.67,63.143z M63.46,76.831l5.181-18.649l18.659,5.17l-5.18,18.659L63.46,76.831z"></path><path d="M87.98,63.062c0,0,0,0-0.01-0.012v-0.01c0-0.021-0.012-0.04-0.031-0.061c-0.039-0.061-0.101-0.101-0.16-0.109L87.6,62.82  l-18.939-5.26l-0.12-0.031c-0.06-0.02-0.12-0.028-0.181-0.01c-0.01,0-0.021,0.01-0.021,0.01c-0.021,0-0.04,0.012-0.062,0.021  c-0.068,0.04-0.118,0.102-0.139,0.182l-0.031,0.09l-0.02,0.09L68,58.251l-5.061,18.222v0.02l-0.101,0.35h-0.01l-0.04,0.16  c-0.012,0.05-0.012,0.109,0.01,0.16c0,0.01,0,0.029,0.021,0.05c0.029,0.08,0.09,0.14,0.18,0.16l0.08,0.021h0.02l17.25,4.799  l0.92,0.25l0.551,0.15l0.459,0.131c0.021,0,0.052,0.01,0.08,0.01c0.021,0,0.052-0.01,0.07-0.01h0.01  c0.021-0.011,0.041-0.021,0.062-0.031c0.062-0.028,0.101-0.08,0.13-0.14c0.012-0.01,0.012-0.02,0.012-0.03l0.01-0.01l5.34-19.279  C88,63.171,88,63.121,87.98,63.062z M63.46,76.831l5.181-18.649l18.659,5.17l0.03,0.01l-5.18,18.701l-18.7-5.19L63.46,76.831z"></path><path d="M59.09,60.581l-8.46,2.5v0.01c0,0.021,0.011,0.04,0.011,0.062c0,0.14-0.08,0.26-0.211,0.31l8.721-2.59L59.09,60.581z   M68.04,57.932l-8.37,2.471v0.01l-0.3,0.08l-0.28,0.09l-8.46,2.5v0.01c0,0.02,0.011,0.04,0.011,0.061  c0,0.141-0.08,0.261-0.211,0.311l8.721-2.59l0.289-0.08l0.291-0.09l8.221-2.439l-4.86,17.529l4.87-17.529l0.09-0.341L68.04,57.932z   M68.04,57.932l-8.37,2.471v0.01l-0.3,0.08l-0.28,0.09l-8.46,2.5v0.01c0,0.02,0.011,0.04,0.011,0.061  c0,0.141-0.08,0.261-0.211,0.311l8.721-2.59l0.289-0.08l0.291-0.09l8.221-2.439l-4.86,17.529l4.87-17.529l0.09-0.341L68.04,57.932z   M68.04,57.932l-8.37,2.471v0.01l-0.3,0.08l-0.28,0.09l-8.46,2.5v0.01c0,0.02,0.011,0.04,0.011,0.061  c0,0.141-0.08,0.261-0.211,0.311l8.721-2.59l0.289-0.08l0.291-0.09l8.221-2.439l-4.86,17.529l4.87-17.529l0.09-0.341L68.04,57.932z   M68.04,57.932l-8.37,2.471v0.01l-0.3,0.08l-0.28,0.09l-8.46,2.5v0.01c0,0.02,0.011,0.04,0.011,0.061  c0,0.141-0.08,0.261-0.211,0.311l8.721-2.59l0.289-0.08l0.291-0.09l8.221-2.439l-4.86,17.529l4.87-17.529l0.09-0.341L68.04,57.932z   M68.04,57.932l-8.37,2.471v0.01l-0.3,0.08l-0.28,0.09l-8.46,2.5v0.01c0,0.02,0.011,0.04,0.011,0.061  c0,0.141-0.08,0.261-0.211,0.311l8.721-2.59l0.289-0.08l0.291-0.09l8.221-2.439l-4.86,17.529l4.87-17.529l0.09-0.341L68.04,57.932z   M59.67,60.4v0.029l0.061,0.271l8.221-2.439l0.09-0.33L59.67,60.4z M59.67,60.4v0.029l0.061,0.271l8.221-2.439l0.09-0.33L59.67,60.4  z M59.67,60.4v0.029l0.061,0.271l8.221-2.439l0.09-0.33L59.67,60.4z M68.04,57.932l-8.37,2.471v0.01l-0.3,0.08l-0.28,0.09l-8.46,2.5  v0.01c0,0.02,0.011,0.04,0.011,0.061c0,0.141-0.08,0.261-0.211,0.311l8.721-2.59l0.289-0.08l0.291-0.09l8.221-2.439l-4.86,17.529  l4.87-17.529l0.09-0.341L68.04,57.932z M68.04,57.932l-8.37,2.471v0.01l-0.3,0.08l-0.28,0.09l-8.46,2.5v0.01  c0,0.02,0.011,0.04,0.011,0.061c0,0.141-0.08,0.261-0.211,0.311l8.721-2.59l0.289-0.08l0.291-0.09l8.221-2.439l-4.86,17.529  l4.87-17.529l0.09-0.341L68.04,57.932z M68.04,57.932l-8.37,2.471v0.01l-0.3,0.08l-0.28,0.09l-8.46,2.5v0.01  c0,0.02,0.011,0.04,0.011,0.061c0,0.141-0.08,0.261-0.211,0.311l8.721-2.59l0.289-0.08l0.291-0.09l8.221-2.439l-4.86,17.529  l4.87-17.529l0.09-0.341L68.04,57.932z M68.04,57.932l-8.37,2.471v0.01l-0.3,0.08l-0.28,0.09l-8.46,2.5v0.01  c0,0.02,0.011,0.04,0.011,0.061c0,0.141-0.08,0.261-0.211,0.311l8.721-2.59l0.289-0.08l0.291-0.09l8.221-2.439l-4.86,17.529  l4.87-17.529l0.09-0.341L68.04,57.932z M68.04,57.932l-8.37,2.471v0.01l-0.3,0.08l-0.28,0.09l-8.46,2.5v0.01  c0,0.02,0.011,0.04,0.011,0.061c0,0.141-0.08,0.261-0.211,0.311l8.721-2.59l0.289-0.08l0.291-0.09l8.221-2.439l-4.86,17.529  l4.87-17.529l0.09-0.341L68.04,57.932z M68.04,57.932l-8.37,2.471v0.01l-0.3,0.08l-0.28,0.09l-8.46,2.5v0.01  c0,0.02,0.011,0.04,0.011,0.061c0,0.141-0.08,0.261-0.211,0.311l8.721-2.59l0.289-0.08l0.291-0.09l8.221-2.439l-4.86,17.529  l4.87-17.529l0.09-0.341L68.04,57.932z M68.04,57.932l-8.37,2.471v0.01l-0.3,0.08l-0.28,0.09l-8.46,2.5v0.01  c0,0.02,0.011,0.04,0.011,0.061c0,0.141-0.08,0.261-0.211,0.311l8.721-2.59l0.289-0.08l0.291-0.09l8.221-2.439l-4.86,17.529  l4.87-17.529l0.09-0.341L68.04,57.932z M68.391,57.82l-0.24,0.07l-0.061,0.021l-0.04,0.01l-0.01,0.011l-8.37,2.471v0.01l-0.3,0.08  l-0.28,0.09l-8.46,2.5v0.01l-0.29,0.08l-17.73,5.25H32.6v0.01l-0.07,0.021l-0.21,0.061l-0.069,0.02l-0.07,0.24l-0.01,0.051  l-5.26,18.939l-0.011,0.039l0.07-0.021l0.271-0.079l0.069-0.021l17.4-5.16l0.28-0.08l17.81-5.278l0.28-0.08l0.01-0.04l0.07-0.25  l5.199-18.729l0.07-0.25L68.391,57.82z M27.399,87.341l5.15-18.59l17.87-5.29h0.01l8.721-2.59l0.289-0.08l0.291-0.09l8.221-2.439  l-4.86,17.529l-0.17,0.62l-0.12,0.438l-0.078,0.021l-4.781,1.42L27.399,87.341z M68.04,57.932l-8.37,2.471v0.01l-0.3,0.08  l-0.28,0.09l-8.46,2.5v0.01c0,0.02,0.011,0.04,0.011,0.061c0,0.141-0.08,0.261-0.211,0.311l8.721-2.59l0.289-0.08l0.291-0.09  l8.221-2.439l-4.86,17.529l4.87-17.529l0.09-0.341L68.04,57.932z M68.04,57.932l-8.37,2.471v0.01l-0.3,0.08l-0.28,0.09l-8.46,2.5  v0.01c0,0.02,0.011,0.04,0.011,0.061c0,0.141-0.08,0.261-0.211,0.311l8.721-2.59l0.289-0.08l0.291-0.09l8.221-2.439l-4.86,17.529  l4.87-17.529l0.09-0.341L68.04,57.932z M68.04,57.932l-8.37,2.471v0.01l-0.3,0.08l-0.28,0.09l-8.46,2.5v0.01  c0,0.02,0.011,0.04,0.011,0.061c0,0.141-0.08,0.261-0.211,0.311l8.721-2.59l0.289-0.08l0.291-0.09l8.221-2.439l-4.86,17.529  l4.87-17.529l0.09-0.341L68.04,57.932z M68.04,57.932l-8.37,2.471v0.01l-0.3,0.08l-0.28,0.09l-8.46,2.5v0.01  c0,0.02,0.011,0.04,0.011,0.061c0,0.141-0.08,0.261-0.211,0.311l8.721-2.59l0.289-0.08l0.291-0.09l8.221-2.439l-4.86,17.529  l4.87-17.529l0.09-0.341L68.04,57.932z M68.04,57.932l-8.37,2.471v0.01l-0.3,0.08l-0.28,0.09l-8.46,2.5v0.01  c0,0.02,0.011,0.04,0.011,0.061c0,0.141-0.08,0.261-0.211,0.311l8.721-2.59l0.289-0.08l0.291-0.09l8.221-2.439l-4.86,17.529  l4.87-17.529l0.09-0.341L68.04,57.932z M68.04,57.932l-8.37,2.471v0.01l-0.3,0.08l-0.28,0.09l-8.46,2.5v0.01  c0,0.02,0.011,0.04,0.011,0.061c0,0.141-0.08,0.261-0.211,0.311l8.721-2.59l0.289-0.08l0.291-0.09l8.221-2.439l-4.86,17.529  l4.87-17.529l0.09-0.341L68.04,57.932z M59.67,60.4v0.029l0.061,0.271l8.221-2.439l0.09-0.33L59.67,60.4z M59.67,60.4v0.029  l0.061,0.271l8.221-2.439l0.09-0.33L59.67,60.4z M59.67,60.4v0.029l0.061,0.271l8.221-2.439l0.09-0.33L59.67,60.4z M59.67,60.4  v0.029l0.061,0.271l8.221-2.439l0.09-0.33L59.67,60.4z M68.04,57.932l-8.37,2.471v0.01l-0.3,0.08l-0.28,0.09l-8.46,2.5v0.01  c0,0.02,0.011,0.04,0.011,0.061c0,0.141-0.08,0.261-0.211,0.311l8.721-2.59l0.289-0.08l0.291-0.09l8.221-2.439l-4.86,17.529  l4.87-17.529l0.09-0.341L68.04,57.932z M68.04,57.932l-8.37,2.471v0.01l-0.3,0.08l-0.28,0.09l-8.46,2.5v0.01  c0,0.02,0.011,0.04,0.011,0.061c0,0.141-0.08,0.261-0.211,0.311l8.721-2.59l0.289-0.08l0.291-0.09l8.221-2.439l-4.86,17.529  l4.87-17.529l0.09-0.341L68.04,57.932z M68.04,57.932l-8.37,2.471v0.01l-0.3,0.08l-0.28,0.09l-8.46,2.5v0.01  c0,0.02,0.011,0.04,0.011,0.061c0,0.141-0.08,0.261-0.211,0.311l8.721-2.59l0.289-0.08l0.291-0.09l8.221-2.439l-4.86,17.529  l4.87-17.529l0.09-0.341L68.04,57.932z M68.04,57.932l-8.37,2.471v0.01l-0.3,0.08l-0.28,0.09l-8.46,2.5v0.01  c0,0.02,0.011,0.04,0.011,0.061c0,0.141-0.08,0.261-0.211,0.311l8.721-2.59l0.289-0.08l0.291-0.09l8.221-2.439l-4.86,17.529  l4.87-17.529l0.09-0.341L68.04,57.932z M68.04,57.932l-8.37,2.471v0.01l-0.3,0.08l-0.28,0.09l-8.46,2.5v0.01  c0,0.02,0.011,0.04,0.011,0.061c0,0.141-0.08,0.261-0.211,0.311l8.721-2.59l0.289-0.08l0.291-0.09l8.221-2.439l-4.86,17.529  l4.87-17.529l0.09-0.341L68.04,57.932z"></path><path d="M68.09,57.761l-0.04-0.149h-0.01l-8.31,2.461l-0.32,0.1l-0.32,0.09l-8.79,2.6l-0.61,0.19l-0.648,0.19l-16.521,4.89v0.011  l-0.2,0.061l0.08,0.021c0.07,0.02,0.141,0.068,0.181,0.139l0.01,0.011l0.01,0.05v0.01c0.01,0.03,0.01,0.051,0.01,0.08  c0,0.041,0,0.08-0.02,0.11l-0.021,0.05l-0.02,0.08l17.87-5.29h0.011l8.721-2.59l0.289-0.08l0.291-0.09l8.22-2.44h0.01l0.04-0.01  l0.09-0.34l-0.04,0.01L68.09,57.761z M68.09,57.761l-0.04-0.149h-0.01l-8.31,2.461l-0.32,0.1l-0.32,0.09l-8.79,2.6l-0.61,0.19  l-0.648,0.19l-16.521,4.89v0.011l-0.2,0.061l0.08,0.021c0.07,0.02,0.141,0.068,0.181,0.139l0.01,0.011l0.01,0.05v0.01  c0.01,0.03,0.01,0.051,0.01,0.08c0,0.041,0,0.08-0.02,0.11l-0.021,0.05l-0.02,0.08l17.87-5.29h0.011l8.721-2.59l0.289-0.08  l0.291-0.09l8.22-2.44h0.01l0.04-0.01l0.09-0.34l-0.04,0.01L68.09,57.761z M68.09,57.761l-0.04-0.149h-0.01l-8.31,2.461l-0.32,0.1  l-0.32,0.09l-8.79,2.6l-0.61,0.19l-0.648,0.19l-16.521,4.89v0.011l-0.2,0.061l0.08,0.021c0.07,0.02,0.141,0.068,0.181,0.139  l0.01,0.011l0.01,0.05v0.01c0.01,0.03,0.01,0.051,0.01,0.08c0,0.041,0,0.08-0.02,0.11l-0.021,0.05l-0.02,0.08l17.87-5.29h0.011  l8.721-2.59l0.289-0.08l0.291-0.09l8.22-2.44h0.01l0.04-0.01l0.09-0.34l-0.04,0.01L68.09,57.761z M68.09,57.761l-0.04-0.149h-0.01  l-8.31,2.461l-0.32,0.1l-0.32,0.09l-8.79,2.6l-0.61,0.19l-0.648,0.19l-16.521,4.89v0.011l-0.2,0.061l0.08,0.021  c0.07,0.02,0.141,0.068,0.181,0.139l0.01,0.011l0.01,0.05v0.01c0.01,0.03,0.01,0.051,0.01,0.08c0,0.041,0,0.08-0.02,0.11  l-0.021,0.05l-0.02,0.08l17.87-5.29h0.011l8.721-2.59l0.289-0.08l0.291-0.09l8.22-2.44h0.01l0.04-0.01l0.09-0.34l-0.04,0.01  L68.09,57.761z M68.09,57.761l-0.04-0.149h-0.01l-8.31,2.461l-0.32,0.1l-0.32,0.09l-8.79,2.6l-0.61,0.19l-0.648,0.19l-16.521,4.89  v0.011l-0.2,0.061l0.08,0.021c0.07,0.02,0.141,0.068,0.181,0.139l0.01,0.011l0.01,0.05v0.01c0.01,0.03,0.01,0.051,0.01,0.08  c0,0.041,0,0.08-0.02,0.11l-0.021,0.05l-0.02,0.08l17.87-5.29h0.011l8.721-2.59l0.289-0.08l0.291-0.09l8.22-2.44h0.01l0.04-0.01  l0.09-0.34l-0.04,0.01L68.09,57.761z M68.04,57.932l-8.37,2.471v0.01l-0.3,0.08l-0.28,0.09l-8.46,2.5v0.01  c0,0.02,0.011,0.04,0.011,0.061c0,0.141-0.08,0.261-0.211,0.311l8.721-2.59l0.289-0.08l0.291-0.09l8.221-2.439h0.01l0.09-0.341  L68.04,57.932z M68.04,57.932l-8.37,2.471v0.01l-0.3,0.08l-0.28,0.09l-8.46,2.5v0.01c0,0.02,0.011,0.04,0.011,0.061  c0,0.141-0.08,0.261-0.211,0.311l8.721-2.59l0.289-0.08l0.291-0.09l8.221-2.439h0.01l0.09-0.341L68.04,57.932z M68.04,57.932  l-8.37,2.471v0.01l-0.3,0.08l-0.28,0.09l-8.46,2.5v0.01c0,0.02,0.011,0.04,0.011,0.061c0,0.141-0.08,0.261-0.211,0.311l8.721-2.59  l0.289-0.08l0.291-0.09l8.221-2.439h0.01l0.09-0.341L68.04,57.932z M68.04,57.932l-8.37,2.471v0.01l-0.3,0.08l-0.28,0.09l-8.46,2.5  v0.01c0,0.02,0.011,0.04,0.011,0.061c0,0.141-0.08,0.261-0.211,0.311l8.721-2.59l0.289-0.08l0.291-0.09l8.221-2.439h0.01l0.09-0.341  L68.04,57.932z M68.04,57.932l-8.37,2.471v0.01l-0.3,0.08l-0.28,0.09l-8.46,2.5v0.01c0,0.02,0.011,0.04,0.011,0.061  c0,0.141-0.08,0.261-0.211,0.311l8.721-2.59l0.289-0.08l0.291-0.09l8.221-2.439h0.01l0.09-0.341L68.04,57.932z M68.04,57.932  l-8.37,2.471v0.01l-0.3,0.08l-0.28,0.09l-8.46,2.5v0.01c0,0.02,0.011,0.04,0.011,0.061c0,0.141-0.08,0.261-0.211,0.311l8.721-2.59  l0.289-0.08l0.291-0.09l8.221-2.439h0.01l0.09-0.341L68.04,57.932z M68.04,57.932l-8.37,2.471v0.01l-0.3,0.08l-0.28,0.09l-8.46,2.5  v0.01c0,0.02,0.011,0.04,0.011,0.061c0,0.141-0.08,0.261-0.211,0.311l8.721-2.59l0.289-0.08l0.291-0.09l8.221-2.439h0.01l0.09-0.341  L68.04,57.932z M59.67,60.4v0.029l0.061,0.271l8.221-2.439l0.09-0.33L59.67,60.4z M59.67,60.4v0.029l0.061,0.271l8.221-2.439  l0.09-0.33L59.67,60.4z M59.67,60.4v0.029l0.061,0.271l8.221-2.439l0.09-0.33L59.67,60.4z M59.67,60.4v0.029l0.061,0.271  l8.221-2.439l0.09-0.33L59.67,60.4z M68.04,57.932l-8.37,2.471v0.01l-0.3,0.08l-0.28,0.09l-8.46,2.5v0.01  c0,0.02,0.011,0.04,0.011,0.061c0,0.141-0.08,0.261-0.211,0.311l8.721-2.59l0.289-0.08l0.291-0.09l8.221-2.439h0.01l0.09-0.341  L68.04,57.932z M68.04,57.932l-8.37,2.471v0.01l-0.3,0.08l-0.28,0.09l-8.46,2.5v0.01c0,0.02,0.011,0.04,0.011,0.061  c0,0.141-0.08,0.261-0.211,0.311l8.721-2.59l0.289-0.08l0.291-0.09l8.221-2.439h0.01l0.09-0.341L68.04,57.932z M68.04,57.932  l-8.37,2.471v0.01l-0.3,0.08l-0.28,0.09l-8.46,2.5v0.01c0,0.02,0.011,0.04,0.011,0.061c0,0.141-0.08,0.261-0.211,0.311l8.721-2.59  l0.289-0.08l0.291-0.09l8.221-2.439h0.01l0.09-0.341L68.04,57.932z M68.04,57.932l-8.37,2.471v0.01l-0.3,0.08l-0.28,0.09l-8.46,2.5  v0.01c0,0.02,0.011,0.04,0.011,0.061c0,0.141-0.08,0.261-0.211,0.311l8.721-2.59l0.289-0.08l0.291-0.09l8.221-2.439h0.01l0.09-0.341  L68.04,57.932z M68.04,57.932l-8.37,2.471v0.01l-0.3,0.08l-0.28,0.09l-8.46,2.5v0.01c0,0.02,0.011,0.04,0.011,0.061  c0,0.141-0.08,0.261-0.211,0.311l8.721-2.59l0.289-0.08l0.291-0.09l8.221-2.439h0.01l0.09-0.341L68.04,57.932z M68.04,57.932  l-8.37,2.471v0.01l-0.3,0.08l-0.28,0.09l-8.46,2.5v0.01c0,0.02,0.011,0.04,0.011,0.061c0,0.141-0.08,0.261-0.211,0.311l8.721-2.59  l0.289-0.08l0.291-0.09l8.221-2.439h0.01l0.09-0.341L68.04,57.932z M68.04,57.932l-8.37,2.471v0.01l-0.3,0.08l-0.28,0.09l-8.46,2.5  v0.01c0,0.02,0.011,0.04,0.011,0.061c0,0.141-0.08,0.261-0.211,0.311l8.721-2.59l0.289-0.08l0.291-0.09l8.221-2.439h0.01l0.09-0.341  L68.04,57.932z M68.689,57.671v-0.01c-0.01-0.021-0.029-0.04-0.049-0.062c-0.031-0.029-0.062-0.05-0.102-0.07  c-0.061-0.02-0.12-0.028-0.182-0.01c0,0-0.01,0-0.02,0l-0.16,0.051l-0.13,0.039h-0.01l-8.31,2.461l-0.32,0.101l-0.32,0.09  l-8.79,2.601l-0.61,0.189l-0.648,0.19l-16.521,4.89l-0.2,0.07h-0.01l-0.06,0.021h-0.021l-0.069,0.02  c-0.091,0.029-0.15,0.09-0.181,0.18c-0.01,0.01-0.02,0.02-0.02,0.03l-0.07,0.239l-0.01,0.051l-5.18,18.65l-0.011,0.039l-0.069,0.25  l-0.011,0.041c-0.029,0.108,0.011,0.209,0.08,0.289v0.01c0.03,0.021,0.07,0.041,0.101,0.061c0.04,0.01,0.069,0.02,0.109,0.02  c0.03,0,0.061,0,0.09-0.01l0.021-0.01L45,82.751l0.54-0.16l0.54-0.159h0.01l16.99-5.039h0.02l0.07-0.021  c0.1-0.03,0.18-0.11,0.2-0.21l0.01-0.04l0.07-0.25l0.01-0.04l5.181-18.649l0.01-0.039l0.07-0.25c0-0.012,0.01-0.031,0.01-0.041  C68.74,57.779,68.73,57.723,68.689,57.671z M62.8,76.852l-0.079,0.021v0.01l-4.781,1.41l-30.54,9.05l-0.06,0.02l5.15-18.59h0.01  l0.05-0.02l17.87-5.29h0.01l8.721-2.59l0.289-0.08l0.291-0.09l8.221-2.44h0.01l0.04-0.01l-5.062,18.221v0.021l-0.1,0.35h-0.01  L62.8,76.852z M68.04,57.932l-8.37,2.471v0.01l-0.3,0.08l-0.28,0.09l-8.46,2.5v0.01c0,0.02,0.011,0.04,0.011,0.061  c0,0.141-0.08,0.261-0.211,0.311l8.721-2.59l0.289-0.08l0.291-0.09l8.221-2.439h0.01l0.09-0.341L68.04,57.932z M68.04,57.932  l-8.37,2.471v0.01l-0.3,0.08l-0.28,0.09l-8.46,2.5v0.01c0,0.02,0.011,0.04,0.011,0.061c0,0.141-0.08,0.261-0.211,0.311l8.721-2.59  l0.289-0.08l0.291-0.09l8.221-2.439h0.01l0.09-0.341L68.04,57.932z M68.04,57.932l-8.37,2.471v0.01l-0.3,0.08l-0.28,0.09l-8.46,2.5  v0.01c0,0.02,0.011,0.04,0.011,0.061c0,0.141-0.08,0.261-0.211,0.311l8.721-2.59l0.289-0.08l0.291-0.09l8.221-2.439h0.01l0.09-0.341  L68.04,57.932z M68.04,57.932l-8.37,2.471v0.01l-0.3,0.08l-0.28,0.09l-8.46,2.5v0.01c0,0.02,0.011,0.04,0.011,0.061  c0,0.141-0.08,0.261-0.211,0.311l8.721-2.59l0.289-0.08l0.291-0.09l8.221-2.439h0.01l0.09-0.341L68.04,57.932z M68.04,57.932  l-8.37,2.471v0.01l-0.3,0.08l-0.28,0.09l-8.46,2.5v0.01c0,0.02,0.011,0.04,0.011,0.061c0,0.141-0.08,0.261-0.211,0.311l8.721-2.59  l0.289-0.08l0.291-0.09l8.221-2.439h0.01l0.09-0.341L68.04,57.932z M68.04,57.932l-8.37,2.471v0.01l-0.3,0.08l-0.28,0.09l-8.46,2.5  v0.01c0,0.02,0.011,0.04,0.011,0.061c0,0.141-0.08,0.261-0.211,0.311l8.721-2.59l0.289-0.08l0.291-0.09l8.221-2.439h0.01l0.09-0.341  L68.04,57.932z M59.67,60.4v0.029l0.061,0.271l8.221-2.439l0.09-0.33L59.67,60.4z M59.67,60.4v0.029l0.061,0.271l8.221-2.439  l0.09-0.33L59.67,60.4z M59.67,60.4v0.029l0.061,0.271l8.221-2.439l0.09-0.33L59.67,60.4z M59.67,60.4v0.029l0.061,0.271  l8.221-2.439l0.09-0.33L59.67,60.4z M59.67,60.4v0.029l0.061,0.271l8.221-2.439l0.09-0.33L59.67,60.4z M68.04,57.932l-8.37,2.471  v0.01l-0.3,0.08l-0.28,0.09l-8.46,2.5v0.01c0,0.02,0.011,0.04,0.011,0.061c0,0.141-0.08,0.261-0.211,0.311l8.721-2.59l0.289-0.08  l0.291-0.09l8.221-2.439h0.01l0.09-0.341L68.04,57.932z M68.04,57.932l-8.37,2.471v0.01l-0.3,0.08l-0.28,0.09l-8.46,2.5v0.01  c0,0.02,0.011,0.04,0.011,0.061c0,0.141-0.08,0.261-0.211,0.311l8.721-2.59l0.289-0.08l0.291-0.09l8.221-2.439h0.01l0.09-0.341  L68.04,57.932z M68.04,57.932l-8.37,2.471v0.01l-0.3,0.08l-0.28,0.09l-8.46,2.5v0.01c0,0.02,0.011,0.04,0.011,0.061  c0,0.141-0.08,0.261-0.211,0.311l8.721-2.59l0.289-0.08l0.291-0.09l8.221-2.439h0.01l0.09-0.341L68.04,57.932z M68.04,57.932  l-8.37,2.471v0.01l-0.3,0.08l-0.28,0.09l-8.46,2.5v0.01c0,0.02,0.011,0.04,0.011,0.061c0,0.141-0.08,0.261-0.211,0.311l8.721-2.59  l0.289-0.08l0.291-0.09l8.221-2.439h0.01l0.09-0.341L68.04,57.932z M68.04,57.932l-8.37,2.471v0.01l-0.3,0.08l-0.28,0.09l-8.46,2.5  v0.01c0,0.02,0.011,0.04,0.011,0.061c0,0.141-0.08,0.261-0.211,0.311l8.721-2.59l0.289-0.08l0.291-0.09l8.221-2.439h0.01l0.09-0.341  L68.04,57.932z M68.04,57.932l-8.37,2.471v0.01l-0.3,0.08l-0.28,0.09l-8.46,2.5v0.01c0,0.02,0.011,0.04,0.011,0.061  c0,0.141-0.08,0.261-0.211,0.311l8.721-2.59l0.289-0.08l0.291-0.09l8.221-2.439h0.01l0.09-0.341L68.04,57.932z M59.67,60.4v0.011  l-0.3,0.08l-0.28,0.09l-0.02-0.08c-0.01-0.028-0.01-0.069,0-0.108l0.02-0.132l-8.79,2.601l0.091,0.021  c0.119,0.021,0.199,0.101,0.239,0.2v0.01c0,0.02,0.011,0.04,0.011,0.061c0,0.141-0.08,0.261-0.211,0.311l8.721-2.59l0.289-0.08  l0.291-0.09l8.221-2.439l0.09-0.33L59.67,60.4z M68.09,57.761l-0.04-0.149h-0.01l-8.31,2.461l-0.32,0.1l-0.32,0.09l-8.79,2.6  l-0.61,0.19l-0.648,0.19l-16.521,4.89v0.011l-0.2,0.061l0.08,0.021c0.07,0.02,0.141,0.068,0.181,0.139l0.01,0.011l0.01,0.05v0.01  c0.01,0.03,0.01,0.051,0.01,0.08c0,0.041,0,0.08-0.02,0.11l-0.021,0.05l-0.02,0.08l17.87-5.29h0.011l8.721-2.59l0.289-0.08  l0.291-0.09l8.22-2.44h0.01l0.04-0.01l0.09-0.34l-0.04,0.01L68.09,57.761z M68.09,57.761l-0.04-0.149h-0.01l-8.31,2.461l-0.32,0.1  l-0.32,0.09l-8.79,2.6l-0.61,0.19l-0.648,0.19l-16.521,4.89v0.011l-0.2,0.061l0.08,0.021c0.07,0.02,0.141,0.068,0.181,0.139  l0.01,0.011l0.01,0.05v0.01c0.01,0.03,0.01,0.051,0.01,0.08c0,0.041,0,0.08-0.02,0.11l-0.021,0.05l-0.02,0.08l17.87-5.29h0.011  l8.721-2.59l0.289-0.08l0.291-0.09l8.22-2.44h0.01l0.04-0.01l0.09-0.34l-0.04,0.01L68.09,57.761z M68.09,57.761l-0.04-0.149h-0.01  l-8.31,2.461l-0.32,0.1l-0.32,0.09l-8.79,2.6l-0.61,0.19l-0.648,0.19l-16.521,4.89v0.011l-0.2,0.061l0.08,0.021  c0.07,0.02,0.141,0.068,0.181,0.139l0.01,0.011l0.01,0.05v0.01c0.01,0.03,0.01,0.051,0.01,0.08c0,0.041,0,0.08-0.02,0.11  l-0.021,0.05l-0.02,0.08l17.87-5.29h0.011l8.721-2.59l0.289-0.08l0.291-0.09l8.22-2.44h0.01l0.04-0.01l0.09-0.34l-0.04,0.01  L68.09,57.761z M68.09,57.761l-0.04-0.149h-0.01l-8.31,2.461l-0.32,0.1l-0.32,0.09l-8.79,2.6l-0.61,0.19l-0.648,0.19l-16.521,4.89  v0.011l-0.2,0.061l0.08,0.021c0.07,0.02,0.141,0.068,0.181,0.139l0.01,0.011l0.01,0.05v0.01c0.01,0.03,0.01,0.051,0.01,0.08  c0,0.041,0,0.08-0.02,0.11l-0.021,0.05l-0.02,0.08l17.87-5.29h0.011l8.721-2.59l0.289-0.08l0.291-0.09l8.22-2.44h0.01l0.04-0.01  l0.09-0.34l-0.04,0.01L68.09,57.761z"></path><path d="M32.319,68.201l0.2-0.061V68.13L32.319,68.201z M32.319,68.201l0.2-0.061V68.13L32.319,68.201z M32.319,68.201l0.2-0.061  V68.13L32.319,68.201z M32.319,68.201l0.2-0.061V68.13L32.319,68.201z M32.319,68.201l0.2-0.061V68.13L32.319,68.201z   M32.319,68.201l0.2-0.061V68.13L32.319,68.201z M32.319,68.201l0.2-0.061V68.13L32.319,68.201z M32.319,68.201l0.2-0.061V68.13  L32.319,68.201z M32.319,68.201l0.2-0.061V68.13L32.319,68.201z M32.319,68.201l0.2-0.061V68.13L32.319,68.201z M32.319,68.201  l0.2-0.061V68.13L32.319,68.201z M32.319,68.201l0.2-0.061V68.13L32.319,68.201z M32.319,68.201l0.2-0.061V68.13L32.319,68.201z   M32.319,68.201l0.2-0.061V68.13L32.319,68.201z M32.319,68.201l0.2-0.061V68.13L32.319,68.201z M32.319,68.201l0.2-0.061V68.13  L32.319,68.201z M49.689,63.051l-19.779-3.71l-0.29-0.05l-0.03,0.01l-0.3,0.07l-15.61,3.658h-0.01l-0.08,0.021h-0.01l-0.25,0.061  l-0.261,0.061l-0.029,0.01l-0.061,0.01l0.05,0.012l0.29,0.079l18.641,5.171l0.29,0.079l0.069-0.021l0.21-0.06l0.07-0.021v-0.011  h0.01l17.73-5.25L49.689,63.051z M32.52,68.131l-0.2,0.07h-0.01l-0.09-0.03l-0.35-0.101L14.27,63.189l15.11-3.528l0.25-0.062  l0.05,0.01l0.33,0.062l19.03,3.57L32.52,68.131z M32.319,68.201l0.2-0.061V68.13L32.319,68.201z M32.319,68.201l0.2-0.061V68.13  L32.319,68.201z M32.319,68.201l0.2-0.061V68.13L32.319,68.201z M32.319,68.201l0.2-0.061V68.13L32.319,68.201z M32.319,68.201  l0.2-0.061V68.13L32.319,68.201z M32.319,68.201l0.2-0.061V68.13L32.319,68.201z M32.319,68.201l0.2-0.061V68.13L32.319,68.201z   M32.319,68.201l0.2-0.061V68.13L32.319,68.201z M32.319,68.201l0.2-0.061V68.13L32.319,68.201z M32.319,68.201l0.2-0.061V68.13  L32.319,68.201z M32.319,68.201l0.2-0.061V68.13L32.319,68.201z M32.319,68.201l0.2-0.061V68.13L32.319,68.201z M32.319,68.201  l0.2-0.061V68.13L32.319,68.201z M32.319,68.201l0.2-0.061V68.13L32.319,68.201z M32.319,68.201l0.2-0.061V68.13L32.319,68.201z   M32.319,68.201l0.2-0.061V68.13L32.319,68.201z"></path><path d="M50.63,63.091v-0.01c-0.04-0.101-0.12-0.181-0.239-0.2L50.3,62.859l-20.48-3.83l-0.14-0.028c-0.04-0.01-0.09-0.01-0.13,0  l-0.05,0.01l-0.29,0.07l-15.96,3.729l-0.21,0.049l-0.08,0.021h-0.01l-0.04,0.012c-0.011,0-0.011,0.01-0.011,0.01s0,0-0.01,0.01  h-0.01c-0.01,0-0.01,0-0.021,0.01c-0.02-0.01-0.029,0-0.04,0.01c-0.06,0.041-0.1,0.08-0.109,0.142H12.7v0.01  c-0.011,0.01-0.011,0.021-0.011,0.028c-0.01,0.021-0.01,0.052-0.01,0.07c0,0.03,0,0.062,0.021,0.09v0.021  c0.029,0.09,0.1,0.16,0.199,0.189l0.051,0.011l0.229,0.069l0.061,0.011v0.01l18.64,5.16l0.06,0.021l0.23,0.061  c0.01,0.01,0.04,0.01,0.06,0.01c0.011,0,0.011,0,0.021,0c0.029,0,0.06,0,0.08-0.01l0.16-0.051h0.01l0.05-0.021l17.87-5.29h0.01  c0.131-0.05,0.211-0.17,0.211-0.311C50.641,63.131,50.63,63.109,50.63,63.091z M32.52,68.143l-0.2,0.06h-0.01l-0.06,0.021h-0.021  v-0.011l-18.04-5l0.07-0.021h0.01l15.11-3.529l0.25-0.061l0.05,0.01l0.33,0.061l19.03,3.57L32.52,68.143z"></path><path d="M63.37,77.161l-0.04-0.011l-0.25-0.069l-0.28,0.08l-17.81,5.278l0.55,0.15l18.729,5.2l17.551-5.2l0.07-0.02l0.469-0.141  L63.37,77.161z M64.26,87.48L46.09,82.43l16.99-5.039h0.02l17.25,4.799l0.92,0.25L64.26,87.48z"></path><path d="M82.65,82.359c-0.021-0.108-0.102-0.198-0.211-0.219l-0.039-0.01l-0.25-0.068l-18.7-5.19l-0.03-0.011l-0.26-0.069  c-0.01,0-0.02-0.011-0.03,0c-0.04-0.011-0.08-0.011-0.12,0H63l-0.16,0.05h-0.01l-0.03,0.01l-0.079,0.021l-4.781,1.42l-13.028,3.87  c-0.13,0.028-0.22,0.149-0.22,0.29c0,0.029,0,0.05,0.02,0.068c0.02,0.102,0.1,0.19,0.2,0.211l0.09,0.021l19.188,5.33  c0.021,0,0.052,0.01,0.08,0.01c0.021,0,0.051-0.01,0.08-0.01l18.08-5.358h0.01c0.021-0.012,0.041-0.021,0.062-0.031  c0.062-0.029,0.101-0.08,0.13-0.141c0.012-0.01,0.012-0.021,0.012-0.029c0.01-0.029,0.02-0.061,0.02-0.101  C82.66,82.4,82.66,82.381,82.65,82.359z M46.09,82.432l16.99-5.039h0.02l17.25,4.799l0.92,0.25l-17.01,5.041L46.09,82.432z"></path></svg>