<svg xmlns="http://www.w3.org/2000/svg" version="1.0" viewBox="0 0 600.000000 600.000000" preserveAspectRatio="xMidYMid meet" x="0px" y="0px"><metadata>
Created by potrace 1.14, written by Peter Selinger 2001-2017
</metadata><g transform="translate(0.000000,600.000000) scale(0.100000,-0.100000)" fill="#000000" stroke="none"><path d="M2280 5679 c-330 -37 -618 -176 -855 -414 -200 -199 -344 -460 -390 -708 l-7 -36 82 30 c181 66 383 95 580 85 69 -3 136 -8 150 -11 21 -4 31 3 63 49 155 218 434 387 707 427 l85 13 90 85 c101 96 204 170 325 235 l82 43 -65 37 c-242 135 -560 197 -847 165z"></path><path d="M3615 5526 c-93 -15 -247 -54 -257 -65 -5 -4 15 -24 42 -45 156 -119 351 -381 431 -578 21 -54 25 -58 55 -58 93 0 278 -52 399 -112 140 -70 292 -196 374 -310 30 -42 39 -47 114 -68 142 -39 315 -115 423 -186 28 -19 55 -34 59 -34 4 0 5 48 1 108 -24 364 -169 685 -426 943 -201 201 -438 329 -727 390 -125 26 -373 34 -488 15z"></path><path d="M3179 5387 c-103 -51 -201 -116 -293 -194 -87 -73 -91 -83 -33 -83 61 0 190 -25 273 -54 137 -46 258 -118 387 -230 70 -60 73 -62 112 -55 22 5 61 8 87 8 26 1 49 5 53 10 10 17 -103 223 -172 316 -75 100 -179 207 -269 277 l-60 46 -85 -41z"></path><path d="M2689 4988 c-92 -115 -181 -282 -228 -426 -52 -155 -55 -140 46 -213 48 -35 130 -106 182 -157 52 -51 95 -91 96 -90 1 2 17 33 34 70 107 227 308 418 544 520 50 21 101 43 111 47 17 6 9 16 -55 69 -174 144 -412 232 -625 232 l-64 0 -41 -52z"></path><path d="M2530 5010 c-137 -34 -243 -86 -370 -180 -82 -61 -210 -195 -210 -220 0 -4 24 -14 53 -20 66 -16 205 -68 284 -108 l60 -31 36 112 c52 161 96 249 225 445 17 26 18 26 -78 2z"></path><path d="M3658 4703 l-26 -4 53 -80 c58 -86 111 -206 140 -311 13 -48 21 -65 31 -61 30 11 8 248 -36 396 l-21 67 -57 -1 c-31 -1 -69 -4 -84 -6z"></path><path d="M3884 4693 c27 -93 50 -220 62 -346 5 -54 10 -67 21 -63 8 3 60 16 116 28 85 18 135 22 299 22 229 1 222 -6 99 107 -153 143 -331 226 -564 264 -34 5 -38 4 -33 -12z"></path><path d="M1490 4560 c-150 -15 -303 -53 -432 -108 l-46 -20 -7 -78 c-12 -121 4 -315 36 -437 l10 -37 60 79 c143 190 357 338 576 397 35 9 63 22 63 28 0 6 15 46 34 88 29 67 31 78 17 82 -35 10 -231 14 -311 6z"></path><path d="M1875 4490 c-14 -28 -30 -63 -36 -77 l-10 -26 85 6 c123 9 309 -14 401 -49 10 -4 15 0 15 15 0 26 -117 85 -270 134 -167 55 -155 55 -185 -3z"></path><path d="M834 4332 c-329 -216 -545 -539 -631 -942 -27 -127 -24 -410 5 -543 44 -198 111 -358 218 -519 60 -91 225 -278 245 -278 4 0 11 17 14 38 41 239 139 474 277 663 l48 67 -25 57 c-114 256 -120 550 -19 821 33 89 33 92 20 140 -34 117 -49 218 -55 382 l-6 174 -91 -60z"></path><path d="M1648 4265 c-218 -76 -411 -232 -530 -426 -36 -60 -36 -61 -22 -102 49 -141 182 -350 304 -477 l68 -71 59 30 c73 36 237 94 318 111 33 7 64 16 68 20 5 4 -12 37 -38 73 -148 212 -216 517 -172 772 9 49 15 90 14 91 -1 1 -32 -8 -69 -21z"></path><path d="M4265 4263 c-74 -7 -220 -33 -267 -49 -46 -15 -47 -17 -53 -62 -17 -142 -39 -265 -61 -332 -13 -41 -24 -79 -24 -84 0 -5 39 -6 88 -2 252 20 538 -69 740 -229 46 -37 86 -65 88 -62 2 2 11 51 20 108 20 130 13 260 -20 393 -25 97 -100 271 -127 293 -28 23 -251 38 -384 26z"></path><path d="M2385 4162 c-21 -208 57 -538 179 -755 53 -96 64 -106 159 -141 48 -18 87 -33 87 -32 0 0 -16 45 -35 99 -64 179 -81 363 -50 543 13 71 13 93 4 111 -14 26 -100 103 -174 155 -44 31 -146 88 -159 88 -2 0 -7 -30 -11 -68z"></path><path d="M4779 4158 c42 -93 78 -212 92 -307 15 -107 6 -301 -19 -402 l-19 -76 39 -48 c22 -27 46 -61 56 -77 9 -15 20 -28 24 -28 10 0 111 156 148 230 57 114 99 235 125 363 14 68 25 134 25 145 0 42 -227 172 -405 232 -49 17 -90 30 -91 30 -2 0 10 -28 25 -62z"></path><path d="M3690 4089 c-236 -128 -429 -322 -568 -569 l-31 -55 17 -99 18 -98 29 38 c121 160 311 301 495 365 36 12 70 27 77 33 43 39 84 427 45 426 -4 0 -41 -19 -82 -41z"></path><path d="M5310 3853 c-50 -254 -118 -419 -256 -620 l-63 -92 25 -57 c113 -255 119 -550 18 -820 -33 -89 -33 -92 -20 -140 34 -114 48 -219 55 -382 l6 -172 64 39 c332 205 563 538 653 942 30 138 32 384 4 534 -52 280 -181 534 -373 735 -47 50 -89 90 -93 90 -5 0 -14 -26 -20 -57z"></path><path d="M2793 3845 c-4 -28 -7 -104 -6 -170 2 -142 29 -264 89 -394 l38 -83 31 95 c18 52 35 98 38 103 8 14 -20 165 -44 237 -26 74 -89 202 -117 237 l-20 25 -9 -50z"></path><path d="M1011 3603 c-63 -215 -52 -468 29 -669 l22 -54 81 75 c44 41 119 103 168 137 l87 62 -75 80 c-88 95 -177 225 -239 348 -24 48 -46 88 -49 88 -2 0 -13 -30 -24 -67z"></path><path d="M3625 3581 c-180 -78 -319 -191 -438 -357 -20 -28 -37 -54 -37 -57 0 -3 22 1 50 8 27 7 73 16 102 20 68 9 110 38 211 146 78 82 183 237 176 257 -2 5 -31 -3 -64 -17z"></path><path d="M4761 3205 c-50 -99 -103 -174 -186 -263 -143 -155 52 -52 233 123 l93 90 -46 68 c-25 37 -46 67 -48 67 -1 0 -22 -38 -46 -85z"></path><path d="M2135 3244 c143 -119 359 -207 543 -221 l85 -6 -72 84 c-68 79 -78 86 -149 112 -108 40 -207 57 -330 57 l-107 -1 30 -25z"></path><path d="M1890 3221 c-94 -31 -172 -68 -239 -114 l-44 -30 54 -34 c143 -91 323 -164 487 -198 105 -21 260 -33 337 -25 55 5 66 11 133 65 l72 60 -86 12 c-179 26 -359 107 -514 230 -43 35 -87 63 -97 63 -10 -1 -56 -13 -103 -29z"></path><path d="M3510 3140 c-49 -5 -63 -12 -128 -65 l-72 -60 86 -12 c180 -26 359 -107 516 -232 l81 -65 64 17 c90 24 202 72 275 119 l62 40 -55 35 c-96 62 -271 141 -379 171 -147 41 -340 64 -450 52z"></path><path d="M1370 3043 c-47 -32 -127 -98 -178 -148 l-93 -90 47 -68 47 -68 49 93 c55 104 107 177 186 260 47 49 59 78 33 78 -4 0 -45 -26 -91 -57z"></path><path d="M4856 3005 c-43 -41 -118 -102 -166 -136 l-88 -63 75 -80 c88 -95 177 -225 240 -350 32 -64 47 -86 53 -75 5 8 19 53 32 99 19 73 23 108 22 250 0 176 -16 267 -67 379 l-22 49 -79 -73z"></path><path d="M3309 2859 c67 -78 78 -86 146 -111 114 -42 216 -59 335 -56 l104 3 -64 48 c-141 105 -340 181 -512 194 l-81 6 72 -84z"></path><path d="M2797 2784 c-27 -7 -72 -15 -100 -19 -67 -9 -108 -37 -210 -145 -78 -83 -183 -237 -176 -259 6 -15 194 79 269 134 36 27 91 76 124 109 57 59 152 184 145 190 -2 2 -26 -3 -52 -10z"></path><path d="M4469 2740 c-69 -35 -235 -93 -314 -110 -33 -7 -64 -16 -68 -20 -5 -4 12 -37 38 -73 64 -91 122 -220 151 -335 40 -155 43 -367 8 -509 -6 -21 -4 -21 33 -12 63 18 221 96 288 144 111 79 244 226 295 326 l19 35 -33 80 c-57 139 -147 279 -269 417 -33 37 -67 72 -76 76 -11 6 -34 0 -72 -19z"></path><path d="M3051 2663 c-38 -111 -39 -141 -10 -263 20 -86 99 -264 137 -310 l20 -25 9 50 c4 28 7 104 6 170 -1 143 -30 268 -90 395 l-38 82 -34 -99z"></path><path d="M986 2657 c-122 -183 -202 -400 -232 -623 l-6 -51 71 -47 c93 -62 224 -127 334 -165 49 -17 91 -31 93 -31 2 0 -4 17 -15 38 -33 66 -80 209 -97 299 -21 112 -14 322 14 434 l19 76 -39 48 c-22 27 -46 61 -56 77 -9 15 -20 28 -24 28 -3 0 -32 -38 -62 -83z"></path><path d="M3190 2726 c0 0 16 -45 35 -99 64 -179 81 -363 50 -543 -13 -70 -13 -93 -4 -111 13 -25 141 -134 204 -174 41 -27 120 -69 129 -69 12 0 16 158 7 255 -20 196 -85 408 -175 568 -53 96 -64 106 -159 141 -48 18 -87 33 -87 32z"></path><path d="M2845 2654 c-121 -161 -301 -294 -491 -363 -90 -33 -95 -39 -119 -152 -16 -74 -26 -291 -13 -304 17 -18 235 119 345 216 118 105 231 245 308 383 l34 61 -17 99 -18 98 -29 -38z"></path><path d="M1208 2448 c-22 -121 -15 -315 15 -431 26 -99 102 -272 128 -294 23 -18 223 -36 329 -29 143 10 341 45 362 65 4 3 14 60 22 127 14 106 50 271 72 328 7 18 3 19 -83 12 -255 -19 -538 68 -740 229 -46 36 -85 65 -87 65 -2 0 -10 -33 -18 -72z"></path><path d="M4911 2029 c-131 -191 -359 -355 -583 -420 -43 -13 -78 -28 -78 -34 0 -5 -15 -45 -34 -87 -33 -77 -33 -77 -12 -84 35 -12 306 -8 386 5 104 17 242 55 325 89 l70 29 8 59 c16 111 -12 429 -41 480 -4 8 -20 -7 -41 -37z"></path><path d="M744 1783 c24 -365 169 -687 426 -943 208 -209 460 -341 755 -396 73 -14 145 -19 265 -19 173 0 267 14 398 57 l64 20 -39 31 c-21 16 -81 73 -133 126 -130 132 -248 309 -311 464 -21 53 -25 57 -55 57 -55 0 -194 30 -277 60 -197 72 -389 213 -499 366 -19 26 -42 47 -57 50 -133 28 -364 125 -472 198 -29 20 -58 36 -63 36 -5 0 -6 -45 -2 -107z"></path><path d="M3181 1790 c-50 -109 -121 -207 -218 -301 -125 -122 -238 -194 -391 -249 -72 -26 -72 -25 22 -99 172 -134 354 -204 572 -217 l101 -7 43 54 c93 118 178 276 228 424 53 158 57 142 -50 221 -51 38 -133 108 -182 156 -48 49 -89 88 -90 88 -1 0 -17 -31 -35 -70z"></path><path d="M2143 1713 c-29 -10 -6 -252 37 -395 l21 -68 47 0 c26 0 63 3 83 6 l37 6 -53 79 c-58 87 -107 194 -138 304 -22 81 -19 73 -34 68z"></path><path d="M1985 1664 c-109 -30 -266 -46 -417 -42 -81 2 -148 2 -148 0 0 -10 113 -121 161 -158 146 -112 298 -175 502 -209 34 -5 38 -4 33 12 -27 93 -50 220 -62 346 -3 37 -9 67 -13 66 -3 0 -28 -7 -56 -15z"></path><path d="M3670 1601 c0 -16 18 -29 83 -60 97 -46 210 -87 290 -106 l58 -13 25 49 c14 28 29 62 35 76 l10 26 -88 -6 c-128 -8 -307 14 -398 49 -10 4 -15 0 -15 -15z"></path><path d="M3620 1407 c-41 -132 -112 -280 -183 -386 -32 -46 -56 -86 -54 -87 7 -7 167 37 234 65 87 35 196 105 277 175 59 50 156 160 156 175 0 4 -30 16 -67 26 -84 23 -193 65 -271 104 l-60 30 -32 -102z"></path><path d="M4875 1404 c-150 -53 -297 -77 -475 -78 -85 -1 -180 2 -210 6 l-55 8 -25 -38 c-14 -20 -63 -77 -110 -125 -164 -171 -381 -284 -610 -318 l-85 -13 -90 -85 c-102 -97 -213 -176 -329 -237 l-78 -41 58 -32 c224 -122 435 -175 694 -175 401 1 735 138 1015 419 189 188 313 402 375 645 12 45 20 85 18 89 -2 3 -43 -8 -93 -25z"></path><path d="M2375 1189 c-22 -4 -61 -8 -87 -8 -26 -1 -49 -5 -53 -10 -10 -17 103 -223 172 -316 76 -100 179 -207 270 -277 l60 -47 89 44 c123 60 364 236 364 266 0 5 -20 9 -44 9 -63 0 -197 27 -279 57 -143 51 -252 117 -405 249 -44 37 -50 40 -87 33z"></path></g></svg>