<svg xmlns="http://www.w3.org/2000/svg" xmlns:xlink="http://www.w3.org/1999/xlink" xml:space="preserve" version="1.1" style="shape-rendering:geometricPrecision;text-rendering:geometricPrecision;image-rendering:optimizeQuality;" viewBox="0 0 847 847" x="0px" y="0px" fill-rule="evenodd" clip-rule="evenodd"><defs><style type="text/css">
   
    .fil0 {fill:black}
   
  </style></defs><g><path class="fil0" d="M415 220l-102 -102 110 -111 111 111 -102 102 54 53 75 0 0 -144 157 0 0 156 -144 0 0 76 53 54 102 -102 111 110 -111 111 -102 -102 -53 54 0 75 144 0 0 157 -157 0 0 -144 -75 0 -54 53 102 102 -111 111 -110 -111 102 -102 -54 -53 -76 0 0 144 -156 0 0 -157 144 0 0 -75 -53 -54 -102 102 -111 -111 111 -110 102 102 53 -54 0 -76 -144 0 0 -156 156 0 0 144 76 0 54 -53zm81 64l10 10 39 0 10 -10 -59 0zm21 20l8 9 9 9 8 8 0 -26 -25 0zm36 36l10 10 0 -59 -10 10 0 39zm21 36l0 14 27 28 14 0 -41 -42zm0 29l0 12 0 13 0 11 17 -18 -17 -18zm-21 25l-88 0 8 8 72 0 8 -8zm-103 0l-12 0 9 8 11 0 -8 -8zm-33 -22l0 -11 -8 -8 0 11 8 8zm0 -26l0 -89 -8 8 0 72 8 9zm13 -109l11 0 -18 -18 -18 18 12 0 13 0zm26 0l14 0 -41 -42 0 14 27 28zm-18 127l0 -11 -8 8 0 11 8 -8zm0 -27l0 -72 -8 -8 0 89 8 -9zm115 44l-8 -8 -72 0 -8 8 88 0zm-95 -8l-11 0 -9 8 12 0 8 -8zm23 -125l-14 0 10 10 14 0 -10 -10zm-29 0l-17 0 10 10 17 0 -10 -10zm101 72l0 14 10 10 0 -14 -10 -10zm0 29l0 16 10 10 0 -16 -10 -10zm-11 -40l0 14 -11 -12 0 -14 11 12zm0 29l0 24 -58 0 41 -41 17 17zm-73 24l-12 0 63 -62 0 11 -51 51zm-21 -9l0 -11 51 -51 12 0 -63 62zm0 -26l0 -59 25 0 17 18 -42 41zm40 -59l14 0 11 12 -14 0 -11 -12zm219 -157l-10 10 0 100 10 10 0 -120zm-17 2l10 -9 -120 0 10 9 100 0zm-100 116l-10 10 120 0 -10 -10 -100 0zm-18 2l10 -10 0 -100 -10 -10 0 120zm21 -13l0 -94 93 0 0 94 -93 0zm-19 202l0 14 41 -41 -14 0 -27 27zm-11 40l-10 10 0 39 10 10 0 -59zm-21 21l-8 8 -9 9 -8 8 25 0 0 -25zm-31 3l-63 -63 0 12 51 51 12 0zm-73 -73l-8 -9 0 12 8 8 0 -11zm82 64l0 -12 -51 -51 -12 0 63 63zm43 -44l-10 10 0 14 10 -10 0 -14zm-21 21l-11 11 0 14 11 -11 0 -14zm21 -36l-10 10 0 -17 10 -10 0 17zm-21 21l-17 17 -41 -42 58 0 0 25zm277 -44l-14 0 -70 70 0 14 84 -84zm-14 -11l14 0 -84 -85 0 14 70 71zm-152 11l-14 0 85 84 0 -14 -71 -70zm-14 -11l14 0 71 -71 0 -14 -85 85zm24 5l66 -66 66 66 -66 67 -66 -67zm-157 130l-10 10 59 0 -10 -10 -39 0zm-36 21l-14 0 -27 27 0 14 41 -41zm-29 0l-11 0 -13 0 -12 0 18 17 18 -17zm-24 -21l0 -88 -8 8 0 72 8 8zm0 -103l0 -12 -8 9 0 11 8 -8zm13 103l8 -8 0 -72 -8 -8 0 88zm61 0l-14 0 -10 10 14 0 10 -10zm-29 0l-17 0 -10 10 17 0 10 -10zm40 -11l-14 0 11 -11 14 0 -11 11zm-29 0l-25 0 0 -58 42 41 -17 17zm227 165l-10 -10 -100 0 -10 10 120 0zm-3 -17l10 10 0 -120 -10 10 0 100zm-115 -100l-10 -10 0 120 10 -10 0 -100zm-2 -18l10 10 100 0 10 -10 -120 0zm13 21l93 0 0 93 -93 0 0 -93zm-203 -19l-14 0 42 41 0 -14 -28 -27zm-40 -11l-10 -10 -39 0 -10 10 59 0zm-20 -21l-8 -8 -9 -9 -9 -8 0 25 26 0zm-3 -31l62 -63 -11 0 -51 51 0 12zm73 -73l8 -8 -11 0 -8 8 11 0zm-64 82l11 0 51 -51 0 -12 -62 63zm44 43l-10 -10 -14 0 10 10 14 0zm-21 -21l-12 -11 -14 0 12 11 14 0zm36 21l-10 -10 16 0 10 10 -16 0zm-21 -21l-17 -17 41 -41 0 58 -24 0zm44 277l0 -14 -71 -70 -14 0 85 84zm11 -14l0 14 84 -84 -14 0 -70 70zm-11 -152l0 -14 -85 85 14 0 71 -71zm11 -14l0 14 70 71 14 0 -84 -85zm-6 24l67 66 -67 66 -66 -66 66 -66zm-129 -157l-10 -10 0 59 10 -10 0 -39zm-21 -36l0 -14 -28 -27 -14 0 42 41zm0 -29l0 -11 0 -13 0 -12 -18 18 18 18zm20 -24l89 0 -9 -8 -72 0 -8 8zm104 0l11 0 -8 -8 -11 0 8 8zm-104 13l8 8 72 0 9 -8 -89 0zm1 61l0 -14 -10 -10 0 14 10 10zm0 -29l0 -17 -10 -10 0 17 10 10zm10 40l0 -14 12 11 0 14 -12 -11zm0 -29l0 -25 59 0 -41 42 -18 -17zm-164 227l9 -10 0 -100 -9 -10 0 120zm17 -3l-10 10 120 0 -10 -10 -100 0zm100 -115l10 -10 -120 0 10 10 100 0zm18 -2l-10 10 0 100 10 10 0 -120zm-21 13l0 93 -94 0 0 -93 94 0zm19 -203l0 -14 -42 42 14 0 28 -28zm11 -40l10 -10 0 -39 -10 -10 0 59zm20 -20l9 -8 9 -9 8 -9 -26 0 0 26zm32 -3l62 62 0 -11 -51 -51 -11 0zm-9 9l0 11 51 51 11 0 -62 -62zm-43 44l10 -10 0 -14 -10 10 0 14zm20 -21l12 -12 0 -14 -12 12 0 14zm-20 36l10 -10 0 16 -10 10 0 -16zm20 -21l18 -17 41 41 -59 0 0 -24zm-277 44l14 0 71 -71 0 -14 -85 85zm14 11l-14 0 85 84 0 -14 -71 -70zm153 -11l14 0 -85 -85 0 14 71 71zm14 11l-14 0 -71 70 0 14 85 -84zm-24 -6l-66 67 -67 -67 67 -66 66 66zm156 -129l10 -10 -59 0 10 10 39 0zm36 -21l14 0 28 -28 0 -14 -42 42zm-20 21l14 0 10 -10 -14 0 -10 10zm29 0l16 0 10 -10 -16 0 -10 10zm-40 10l14 0 -12 12 -14 0 12 -12zm29 0l24 0 0 59 -41 -41 17 -18zm-227 -164l10 9 100 0 10 -9 -120 0zm2 17l-9 -10 0 120 9 -10 0 -100zm116 100l10 10 0 -120 -10 10 0 100zm2 18l-10 -10 -100 0 -10 10 120 0zm-13 -21l-94 0 0 -94 94 0 0 94zm175 -227l0 14 70 71 14 0 -84 -85zm-11 14l0 -14 -85 85 14 0 71 -71zm11 153l0 14 84 -85 -14 0 -70 71zm-11 14l0 -14 -71 -71 -14 0 85 85zm5 -24l-66 -66 66 -67 67 67 -67 66z"></path></g></svg>