<svg xmlns="http://www.w3.org/2000/svg" xmlns:xlink="http://www.w3.org/1999/xlink" width="300" zoomAndPan="magnify" viewBox="0 0 224.87999 225" height="300" preserveAspectRatio="xMidYMid meet" version="1.0"><defs><clipPath id="id1"><path d="M 0 0.0585938 L 224.761719 0.0585938 L 224.761719 202.636719 L 0 202.636719 Z M 0 0.0585938 " clip-rule="nonzero"/></clipPath><clipPath id="id2"><path d="M 112.441406 202.636719 L 224.878906 -61.972656 L 0 -61.972656 L 112.441406 202.636719 " clip-rule="nonzero"/></clipPath><clipPath id="id3"><path d="M 0 22.546875 L 224.761719 22.546875 L 224.761719 224.9375 L 0 224.9375 Z M 0 22.546875 " clip-rule="nonzero"/></clipPath><clipPath id="id4"><path d="M 112.441406 22.546875 L 224.878906 238.433594 L 0 238.433594 L 112.441406 22.546875 " clip-rule="nonzero"/></clipPath></defs><g clip-path="url(#id1)"><g clip-path="url(#id2)"><path stroke-linecap="butt" transform="matrix(0.7496, 0, 0, 0.750131, 0.00188195, -61.973808)" fill="none" stroke-linejoin="miter" d="M 149.999388 352.752337 L 299.996075 0.001535 L -0.0025106 0.001535 L 149.999388 352.752337 " stroke="#000000" stroke-width="8" stroke-opacity="1" stroke-miterlimit="4"/></g></g><g clip-path="url(#id3)"><g clip-path="url(#id4)"><path stroke-linecap="butt" transform="matrix(0.7496, 0, 0, 0.749112, 0.000578222, 22.548013)" fill="none" stroke-linejoin="miter" d="M 150.001127 -0.00151921 L 299.997815 288.188596 L -0.000771374 288.188596 L 150.001127 -0.00151921 " stroke="#000000" stroke-width="8" stroke-opacity="1" stroke-miterlimit="4"/></g></g></svg>