<svg xmlns="http://www.w3.org/2000/svg" xmlns:xlink="http://www.w3.org/1999/xlink" width="300" zoomAndPan="magnify" viewBox="0 0 224.87999 225" height="300" preserveAspectRatio="xMidYMid meet" version="1.0"><defs><clipPath id="id1"><path d="M 81.871094 0.0585938 L 143.335938 0.0585938 L 143.335938 112.5 L 81.871094 112.5 Z M 81.871094 0.0585938 " clip-rule="nonzero"/></clipPath><clipPath id="id2"><path d="M 143.335938 -11.183594 L 143.335938 112.5 L 112.605469 101.957031 L 81.871094 112.5 L 81.871094 -11.183594 L 143.335938 -11.183594 " clip-rule="nonzero"/></clipPath><clipPath id="id3"><path d="M 86.324219 112.558594 L 138.792969 112.558594 L 138.792969 224.9375 L 86.324219 224.9375 Z M 86.324219 112.558594 " clip-rule="nonzero"/></clipPath><clipPath id="id4"><path d="M 86.324219 230.246094 L 86.324219 122.039062 L 112.558594 112.558594 L 138.792969 122.039062 L 138.792969 230.246094 L 86.324219 230.246094 " clip-rule="nonzero"/></clipPath></defs><g clip-path="url(#id1)"><g clip-path="url(#id2)"><path stroke-linecap="butt" transform="matrix(0.753621, 0, 0, 0.7496, 81.870367, -11.183969)" fill="none" stroke-linejoin="miter" d="M 81.560349 0.00050114 L 81.560349 164.999973 L 40.783248 150.935179 L 0.00096428 164.999973 L 0.00096428 0.00050114 L 81.560349 0.00050114 " stroke="#000000" stroke-width="8" stroke-opacity="1" stroke-miterlimit="4"/></g></g><g clip-path="url(#id3)"><g clip-path="url(#id4)"><path stroke-linecap="butt" transform="matrix(-0.746268, -0.000000000000000091, 0.000000000000000092, -0.749227, 138.791693, 230.245772)" fill="none" stroke-linejoin="miter" d="M 70.30643 -0.000429563 L 70.30643 144.424432 L 35.15236 157.078096 L -0.0017099 144.424432 L -0.0017099 -0.000429563 L 70.30643 -0.000429563 " stroke="#000000" stroke-width="8" stroke-opacity="1" stroke-miterlimit="4"/></g></g></svg>