<svg xmlns="http://www.w3.org/2000/svg" xmlns:xlink="http://www.w3.org/1999/xlink" width="300" zoomAndPan="magnify" viewBox="0 0 224.87999 225" height="300" preserveAspectRatio="xMidYMid meet" version="1.0"><defs><clipPath id="id1"><path d="M 80.207031 80.265625 L 194.894531 80.265625 L 194.894531 194.957031 L 80.207031 194.957031 Z M 80.207031 80.265625 " clip-rule="nonzero"/></clipPath><clipPath id="id2"><path d="M 95.199219 95.257812 L 209.886719 95.257812 L 209.886719 209.949219 L 95.199219 209.949219 Z M 95.199219 95.257812 " clip-rule="nonzero"/></clipPath><clipPath id="id3"><path d="M 110.191406 110.25 L 224.761719 110.25 L 224.761719 224.9375 L 110.191406 224.9375 Z M 110.191406 110.25 " clip-rule="nonzero"/></clipPath></defs><g clip-path="url(#id1)"><path fill="#000000" d="M 174.628906 80.265625 L 80.207031 80.265625 L 80.207031 194.957031 L 89.632812 194.957031 L 89.632812 89.695312 L 194.894531 89.695312 L 194.894531 80.265625 L 174.628906 80.265625 " fill-opacity="1" fill-rule="nonzero"/></g><g clip-path="url(#id2)"><path fill="#222222" d="M 189.621094 95.257812 L 95.199219 95.257812 L 95.199219 209.949219 L 104.625 209.949219 L 104.625 104.6875 L 209.886719 104.6875 L 209.886719 95.257812 L 189.621094 95.257812 " fill-opacity="1" fill-rule="nonzero"/></g><g clip-path="url(#id3)"><path fill="#222222" d="M 204.613281 110.25 L 110.191406 110.25 L 110.191406 224.941406 L 119.617188 224.941406 L 119.617188 119.675781 L 224.878906 119.675781 L 224.878906 110.25 L 204.613281 110.25 " fill-opacity="1" fill-rule="nonzero"/></g></svg>