<svg xmlns="http://www.w3.org/2000/svg" xmlns:xlink="http://www.w3.org/1999/xlink" width="300" zoomAndPan="magnify" viewBox="0 0 224.87999 225" height="300" preserveAspectRatio="xMidYMid meet" version="1.0"><defs><clipPath id="id1"><path d="M 70.273438 0.0585938 L 154.605469 0.0585938 L 154.605469 70.335938 L 70.273438 70.335938 Z M 0 70.335938 L 224.761719 70.335938 L 224.761719 154.664062 L 0 154.664062 Z M 70.273438 154.664062 L 154.605469 154.664062 L 154.605469 224.9375 L 70.273438 224.9375 Z M 70.273438 154.664062 " clip-rule="nonzero"/></clipPath></defs><g clip-path="url(#id1)"><path stroke-linecap="butt" transform="matrix(0.7496, 0, 0, 0.7496, 0.00000000000004261, 0.060015)" fill="none" stroke-linejoin="miter" d="M 206.250643 -0.001896 L 93.747924 -0.001896 L 93.747924 93.751239 L -0.000000000000056843 93.751239 L -0.000000000000056843 206.248747 L 93.747924 206.248747 L 93.747924 300.001882 L 206.250643 300.001882 L 206.250643 206.248747 L 299.998567 206.248747 L 299.998567 93.751239 L 206.250643 93.751239 L 206.250643 -0.001896 " stroke="#000000" stroke-width="8" stroke-opacity="1" stroke-miterlimit="4"/></g><path stroke-linecap="butt" transform="matrix(3.748, 0, 0, 3.748, 76.459193, 112.500005)" fill="none" stroke-linejoin="miter" d="M 0.000465338 -0.00000141667 L 19.20029 -0.00000141667 " stroke="#000000" stroke-width="1" stroke-opacity="1" stroke-miterlimit="4"/></svg>