<svg xmlns="http://www.w3.org/2000/svg" xmlns:xlink="http://www.w3.org/1999/xlink" width="300" zoomAndPan="magnify" viewBox="0 0 224.87999 225" height="300" preserveAspectRatio="xMidYMid meet" version="1.0"><defs><clipPath id="id1"><path d="M 37.089844 46.570312 L 187.757812 46.570312 L 187.757812 178.496094 L 37.089844 178.496094 Z M 37.089844 46.570312 " clip-rule="nonzero"/></clipPath><clipPath id="id2"><path d="M 37.089844 55.992188 L 112.421875 46.570312 L 187.757812 55.992188 L 187.757812 169.074219 L 112.421875 178.496094 L 37.089844 169.074219 L 37.089844 55.992188 " clip-rule="nonzero"/></clipPath><clipPath id="id3"><path d="M 0 110 L 224.761719 110 L 224.761719 115 L 0 115 Z M 0 110 " clip-rule="nonzero"/></clipPath></defs><g clip-path="url(#id1)"><g clip-path="url(#id2)"><path stroke-linecap="butt" transform="matrix(0.749483, 0, 0, 0.749999, 37.08851, 46.568944)" fill="none" stroke-linejoin="miter" d="M 0.00177941 12.564333 L 100.513723 0.00182442 L 201.030878 12.564333 L 201.030878 163.340482 L 100.513723 175.902991 L 0.00177941 163.340482 L 0.00177941 12.564333 " stroke="#000000" stroke-width="8" stroke-opacity="1" stroke-miterlimit="4"/></g></g><g clip-path="url(#id3)"><path stroke-linecap="butt" transform="matrix(3.748, 0, 0, 3.748, -0.00000000000004261, 112.500063)" fill="none" stroke-linejoin="miter" d="M 0.000000000000011369 -0.0000167767 L 59.999713 -0.0000167767 " stroke="#000000" stroke-width="1" stroke-opacity="1" stroke-miterlimit="4"/></g></svg>