<svg xmlns="http://www.w3.org/2000/svg" xmlns:xlink="http://www.w3.org/1999/xlink" width="300" zoomAndPan="magnify" viewBox="0 0 224.87999 225" height="300" preserveAspectRatio="xMidYMid meet" version="1.0"><defs><clipPath id="id1"><path d="M 85.03125 0.0585938 L 139.753906 0.0585938 L 139.753906 56.28125 L 85.03125 56.28125 Z M 85.03125 0.0585938 " clip-rule="nonzero"/></clipPath><clipPath id="id2"><path d="M 103.28125 54.695312 C 106.089844 55.652344 109.277344 56.28125 112.40625 56.28125 C 115.539062 56.28125 118.550781 55.742188 121.328125 54.785156 C 121.386719 54.757812 121.445312 54.757812 121.503906 54.726562 C 131.929688 50.90625 139.605469 40.808594 139.753906 29.015625 L 139.753906 -11.183594 L 85.03125 -11.183594 L 85.03125 28.984375 C 85.179688 40.871094 92.742188 50.964844 103.28125 54.695312 " clip-rule="nonzero"/></clipPath><clipPath id="id3"><path d="M 85.03125 168.71875 L 139.753906 168.71875 L 139.753906 224.9375 L 85.03125 224.9375 Z M 85.03125 168.71875 " clip-rule="nonzero"/></clipPath><clipPath id="id4"><path d="M 103.28125 170.304688 C 106.078125 169.347656 109.277344 168.71875 112.40625 168.71875 C 115.539062 168.71875 118.550781 169.257812 121.328125 170.214844 C 121.386719 170.242188 121.445312 170.242188 121.503906 170.273438 C 131.929688 174.09375 139.605469 184.191406 139.753906 195.984375 L 139.753906 236.183594 L 85.03125 236.183594 L 85.03125 196.015625 C 85.179688 184.128906 92.742188 174.035156 103.28125 170.304688 " clip-rule="nonzero"/></clipPath><clipPath id="id5"><path d="M 0 85.09375 L 56.21875 85.09375 L 56.21875 139.8125 L 0 139.8125 Z M 0 85.09375 " clip-rule="nonzero"/></clipPath><clipPath id="id6"><path d="M 54.636719 103.34375 C 55.59375 106.140625 56.21875 109.335938 56.21875 112.46875 C 56.21875 115.597656 55.683594 118.609375 54.726562 121.386719 C 54.695312 121.445312 54.695312 121.503906 54.667969 121.5625 C 50.84375 131.988281 40.75 139.664062 28.953125 139.8125 L -11.242188 139.8125 L -11.242188 85.09375 L 28.925781 85.09375 C 40.808594 85.242188 50.902344 92.800781 54.636719 103.34375 " clip-rule="nonzero"/></clipPath><clipPath id="id7"><path d="M 168.660156 85.1875 L 224.761719 85.1875 L 224.761719 139.90625 L 168.660156 139.90625 Z M 168.660156 85.1875 " clip-rule="nonzero"/></clipPath><clipPath id="id8"><path d="M 170.242188 121.65625 C 169.289062 118.859375 168.660156 115.664062 168.660156 112.53125 C 168.660156 109.402344 169.199219 106.390625 170.152344 103.613281 C 170.183594 103.554688 170.183594 103.496094 170.214844 103.4375 C 174.035156 93.011719 184.128906 85.335938 195.925781 85.1875 L 236.125 85.1875 L 236.125 139.90625 L 195.957031 139.90625 C 184.070312 139.757812 173.976562 132.199219 170.242188 121.65625 " clip-rule="nonzero"/></clipPath></defs><g clip-path="url(#id1)"><g clip-path="url(#id2)"><path stroke-linecap="butt" transform="matrix(0.748319, 0, 0, 0.7496, 85.032743, -11.183984)" fill="none" stroke-linejoin="miter" d="M 24.386013 87.885942 C 28.139219 89.162665 32.398768 90.001654 36.580017 90.001654 C 40.766486 90.001654 44.791134 89.28252 48.502579 88.005798 C 48.58088 87.96932 48.659181 87.96932 48.737481 87.927631 C 62.669757 82.831162 72.927128 69.360435 73.125489 53.628085 L 73.125489 0.00052066 L -0.00199551 0.00052066 L -0.00199551 53.586396 C 0.196366 69.443813 10.302356 82.909329 24.386013 87.885942 " stroke="#000000" stroke-width="6" stroke-opacity="1" stroke-miterlimit="4"/></g></g><g clip-path="url(#id3)"><g clip-path="url(#id4)"><path stroke-linecap="butt" transform="matrix(0.748319, 0, 0, 0.7496, 85.032743, 168.72)" fill="none" stroke-linejoin="miter" d="M 24.386013 2.114044 C 28.123559 0.837321 32.398768 -0.00166818 36.580017 -0.00166818 C 40.766486 -0.00166818 44.791134 0.717465 48.502579 1.994188 C 48.58088 2.030666 48.659181 2.030666 48.737481 2.072355 C 62.669757 7.168823 72.927128 20.639551 73.125489 36.371901 L 73.125489 89.999465 L -0.00199551 89.999465 L -0.00199551 36.41359 C 0.196366 20.556173 10.302356 7.090657 24.386013 2.114044 " stroke="#000000" stroke-width="6" stroke-opacity="1" stroke-miterlimit="4"/></g></g><g clip-path="url(#id5)"><g clip-path="url(#id6)"><path stroke-linecap="butt" transform="matrix(0.000000000000000046, 0.748319, -0.7496, 0.000000000000000046, 56.219995, 85.092758)" fill="none" stroke-linejoin="miter" d="M 24.389334 2.112162 C 28.126879 0.835439 32.396869 0.0016611 36.583338 0.0016611 C 40.764587 0.0016611 44.789235 0.715584 48.50068 1.992306 C 48.578981 2.033995 48.657281 2.033995 48.735582 2.070473 C 62.667858 7.172153 72.925229 20.637669 73.12359 36.37523 L 73.12359 89.997583 L 0.00132528 89.997583 L 0.00132528 36.411708 C 0.199687 20.559502 10.300456 7.093986 24.389334 2.112162 " stroke="#000000" stroke-width="6" stroke-opacity="1" stroke-miterlimit="4"/></g></g><g clip-path="url(#id7)"><g clip-path="url(#id8)"><path stroke-linecap="butt" transform="matrix(0.000000000000000046, -0.748319, 0.7496, 0.000000000000000046, 168.659985, 139.907252)" fill="none" stroke-linejoin="miter" d="M 24.389348 2.110729 C 28.126894 0.839217 32.396883 0.000227825 36.583352 0.000227825 C 40.764601 0.000227825 44.789249 0.719361 48.500694 1.990873 C 48.578995 2.032562 48.657295 2.032562 48.735596 2.074251 C 62.667872 7.170719 72.925243 20.636235 73.123604 36.373797 L 73.123604 90.001361 L 0.00133947 90.001361 L 0.00133947 36.415486 C 0.199701 20.558069 10.300471 7.092553 24.389348 2.110729 " stroke="#000000" stroke-width="6" stroke-opacity="1" stroke-miterlimit="4"/></g></g></svg>