<svg xmlns="http://www.w3.org/2000/svg" xmlns:xlink="http://www.w3.org/1999/xlink" width="300" zoomAndPan="magnify" viewBox="0 0 224.87999 225" height="300" preserveAspectRatio="xMidYMid meet" version="1.0"><defs><clipPath id="id1"><path d="M 0 0.0585938 L 224.761719 0.0585938 L 224.761719 224.9375 L 0 224.9375 Z M 0 0.0585938 " clip-rule="nonzero"/></clipPath><clipPath id="id2"><path d="M 34.914062 -3.695312 L 267.09375 -3.695312 L 189.703125 228.683594 L -42.480469 228.683594 L 34.914062 -3.695312 " clip-rule="nonzero"/></clipPath><clipPath id="id3"><path d="M 164 22 L 224.761719 22 L 224.761719 27 L 164 27 Z M 164 22 " clip-rule="nonzero"/></clipPath></defs><g clip-path="url(#id1)"><g clip-path="url(#id2)"><path stroke-linecap="butt" transform="matrix(0.74943, 0, 0, 0.750054, -42.481299, -3.693958)" fill="none" stroke-linejoin="miter" d="M 103.27233 -0.00180581 L 413.080786 -0.00180581 L 309.814776 309.814562 L 0.00110752 309.814562 L 103.27233 -0.00180581 " stroke="#000000" stroke-width="4" stroke-opacity="1" stroke-miterlimit="4"/></g></g><path stroke-linecap="butt" transform="matrix(3.748, 0, 0, 3.748, -13.492799, 204.325997)" fill="none" stroke-linejoin="miter" d="M 0.00016311 -0.00047456 L 19.199988 -0.00047456 " stroke="#000000" stroke-width="1" stroke-opacity="1" stroke-miterlimit="4"/><g clip-path="url(#id3)"><path stroke-linecap="butt" transform="matrix(3.748, 0, 0, 3.748, 166.411186, 24.422013)" fill="none" stroke-linejoin="miter" d="M -0.000274657 -0.000036792 L 19.19955 -0.000036792 " stroke="#000000" stroke-width="1" stroke-opacity="1" stroke-miterlimit="4"/></g></svg>